<svg xmlns="http://www.w3.org/2000/svg" viewBox="0 0 610.92 548.19"><defs><style>.cls-1{fill:#f2f3fd;}.cls-2{fill:#1b2e35;}.cls-3{fill:#f7a27c;}.cls-4{fill:#dd8562;}.cls-5{fill:#395a64;}.cls-6{fill:#346bec;}.cls-7{fill:#e1e1e1;}.cls-8{fill:#132d60;}.cls-9{fill:#895041;}.cls-10{opacity:0.3;}.cls-11{fill:#fafafa;}.cls-12{fill:none;stroke:#fff;stroke-miterlimit:10;}.cls-13{fill:#ffbfa0;}.cls-14{fill:#ff9a71;}.cls-15{fill:#56cc95;}.cls-16{opacity:0.5;}.cls-17{fill:#ff515f;}</style></defs><title>Ресурс 23</title><g id="Слой_2" data-name="Слой 2"><g id="OBJECTS"><path class="cls-1" d="M561.53,432.28Q506.67,510.7,374.46,538.87q-76.45,16.33-137.37,4T132.37,497a272.4,272.4,0,0,1-71.68-82.18A357.16,357.16,0,0,1,21.12,311.45Q7.19,246.21,16.44,196c6.14-33.61,18.54-62.63,37.14-87.31s42.83-45.07,72.64-61.44S190.57,18.44,229.86,10Q303.12-5.61,358.29,3.18c36.79,5.9,68.51,16.65,95.09,32S502,69,519.26,90.18s31.09,41.59,41.49,61.68,17.81,37.91,22.34,53.89,7.22,26,8.07,30Q616.41,354,561.53,432.28Z"/><path class="cls-2" d="M486.28,186.32a25.69,25.69,0,0,0,34.78,27.91C531.79,210,538.91,199,549.91,195.5c4.75-1.49,9.89-1.44,14.6-3.05,5.67-1.94,10.59-6.6,11.87-12.45s-1.73-12.64-7.32-14.8c-2.93-1.13-6.6-1.21-8.47-3.73-2.69-3.63.64-8.51,1.44-13,1.15-6.37-3.79-12.84-10-14.57s-13.1.62-18,4.89c-4.16,3.66-8.3,7.15-13.78,8a13.48,13.48,0,0,1-13.93-7.35"/><path class="cls-2" d="M531,134a2.27,2.27,0,0,1,.13.62,9.19,9.19,0,0,1,.06,1.81,11.88,11.88,0,0,1-2.22,6.22,11.52,11.52,0,0,1-3.37,3.16,11.32,11.32,0,0,1-5.06,1.6,12.44,12.44,0,0,1-5.79-.94,11.79,11.79,0,0,1-4.91-3.93,34.42,34.42,0,0,1-3.12-5.41,31.82,31.82,0,0,0-2.87-4.94,14.7,14.7,0,0,0-7.82-5.27,15.75,15.75,0,0,0-6.45-.43c-1.53.24-2.34.55-2.36.48a2.26,2.26,0,0,1,.58-.25,11.43,11.43,0,0,1,1.74-.48,15.15,15.15,0,0,1,6.61.23,15,15,0,0,1,8.18,5.35c2.32,3,3.55,7,6,10.32a11.22,11.22,0,0,0,4.64,3.73,11.94,11.94,0,0,0,5.5.93,10.87,10.87,0,0,0,4.83-1.47,11.22,11.22,0,0,0,3.28-3,12.09,12.09,0,0,0,2.34-6C531.12,134.87,531,134,531,134Z"/><path class="cls-3" d="M559,125.15l-4.79,60.17-41.09,26.54s6,36.07,6.28,36.85l50.33-38.55a26,26,0,0,0,10.41-20L578,120.65"/><path class="cls-3" d="M554,97.43c-.35-.2-5.43,13.3-5,15.36s5.5,8.24,7.59,9.48c3.91,2.32,1.28,10.76,1.65,12.1l20.2,1.05-.54-15.63,1.33-10.64a12.23,12.23,0,0,0,0-6.67c-.68-2.37-1.82-5-3.57-4.69-3.18.49-3.4,1.41-3.4,1.41s-2.13-3.16-3.76-.49c0,0-2.93-3.49-5.46-.48,0,0-3.37-3.32-5.72,1.82l-1.28,3.59S557.53,99.4,554,97.43Z"/><path class="cls-4" d="M562.82,114.87c-.1.06-.57-.93-1.72-2.2a8.07,8.07,0,0,0-5.8-2.68c-.36,0-.72,0-1.06,0h-.43l.1-.4c.6-2.33,1.16-4.38,1.6-5.85a10,10,0,0,1,.82-2.33,10,10,0,0,1-.4,2.44c-.32,1.5-.81,3.57-1.39,5.9l-.33-.4c.36,0,.74,0,1.12,0a8.67,8.67,0,0,1,3.71,1,8.28,8.28,0,0,1,2.4,2A6.05,6.05,0,0,1,562.82,114.87Z"/><path class="cls-4" d="M575.27,103.79s-.12.33-.37.87a3.87,3.87,0,0,0-.47,2.34,2.31,2.31,0,0,0,.31.7,2.19,2.19,0,0,1,.37,1,2.28,2.28,0,0,1-1,2,3.14,3.14,0,0,1-4.45-1.23,4.37,4.37,0,0,1-.26-2.55,22.36,22.36,0,0,1,.49-2.22A27.48,27.48,0,0,1,571.1,101a5.6,5.6,0,0,1,1.39-2.21c.5-.41.88-.42.88-.39s-.31.15-.71.57a6.19,6.19,0,0,0-1.14,2.19,34.64,34.64,0,0,0-1.09,3.6c-.27,1.35-.83,3-.22,4.34a2.55,2.55,0,0,0,3.52,1,1.75,1.75,0,0,0,.83-1.44c0-.48-.51-1-.59-1.61a3.81,3.81,0,0,1,.69-2.55C575,104,575.24,103.76,575.27,103.79Z"/><path class="cls-4" d="M570.1,109.48s0,.29-.33.65a2.41,2.41,0,0,1-1.86.69,3,3,0,0,1-2.44-1.65,5.53,5.53,0,0,1-.54-3.54,12.16,12.16,0,0,1,2.4-5.85A5.54,5.54,0,0,1,569.21,98c.07.07-.65.76-1.5,2.09a13.34,13.34,0,0,0-2.13,5.67,5.15,5.15,0,0,0,.41,3.16,2.62,2.62,0,0,0,2,1.48,2.31,2.31,0,0,0,1.66-.42C569.94,109.69,570.05,109.46,570.1,109.48Z"/><path class="cls-4" d="M565.41,108.74s-.06.25-.39.53a2.61,2.61,0,0,1-1.72.54,3.16,3.16,0,0,1-2.4-1.19,4.73,4.73,0,0,1-1-3.11,8.2,8.2,0,0,1,.81-3.11c.4-.89.83-1.64,1.17-2.28a8.51,8.51,0,0,1,1.25-2,8.53,8.53,0,0,1-.83,2.2c-.54,1.33-1.65,3.1-1.74,5.2a4.32,4.32,0,0,0,.81,2.72,2.76,2.76,0,0,0,2,1.1A3.19,3.19,0,0,0,565.41,108.74Z"/><path class="cls-4" d="M560.13,107s0,.27-.15.7a4.1,4.1,0,0,1-1.08,1.65,2.67,2.67,0,0,1-2.93.49,2.89,2.89,0,0,1-1.12-3.41,27,27,0,0,1,2.18-6,7.59,7.59,0,0,1,1.41-2.21c.17.09-1.84,3.56-3,8.31a2.34,2.34,0,0,0,.77,2.73,2.23,2.23,0,0,0,2.35-.31,4.66,4.66,0,0,0,1.14-1.41C560,107.25,560.09,107,560.13,107Z"/><path class="cls-4" d="M572.53,112c0,.19-2.27-.51-4.95.17s-4.34,2.29-4.47,2.14.27-.55,1-1.15a8.64,8.64,0,0,1,7-1.72C572,111.68,572.55,112,572.53,112Z"/><path class="cls-2" d="M446.24,227c-12.12,1.12-22.78-7.77-24.54-13.09a14.29,14.29,0,0,1,4.43-15.17c3.45-2.81,8.46-4.24,10.11-8.37,2.88-7.19-7.14-15.28-3.57-22.14,2.53-4.86,9.94-4.79,13.41-9,3.07-3.75,2-9.26,2.92-14,1.63-8,9.85-13.72,18.06-14s16.07,4,21.74,10,9.44,13.42,12.75,20.94c2.68,6.09,5.17,12.68,4,19.23-1.68,9.7-10.6,16.27-19.07,21.3-13.8,8.21-24.29,25.68-40.28,24.35"/><path class="cls-2" d="M426.74,205s-.07,0-.22,0a4.32,4.32,0,0,1-.65,0,6.3,6.3,0,0,1-2.38-.77,6.56,6.56,0,0,1-2.73-2.85,6.73,6.73,0,0,1-.18-5.21,6.44,6.44,0,0,1,1.75-2.56,13.9,13.9,0,0,1,2.76-1.86,26.76,26.76,0,0,0,3-1.77,6.71,6.71,0,0,0,2.23-2.72c1-2.25.72-5,.05-7.62s-1.91-5.28-2.44-8.23a13.58,13.58,0,0,1-.16-4.43,7.43,7.43,0,0,1,1.84-3.93,8.86,8.86,0,0,1,3.52-2.25,35.2,35.2,0,0,1,3.78-1.1c2.45-.6,4.76-1.35,6.39-2.87a13,13,0,0,0,3.37-5.09,26,26,0,0,0,1.31-8.89c0-1,0-1.84,0-2.47a4.35,4.35,0,0,1,0-.86,4.29,4.29,0,0,1,.1.86c0,.57.09,1.4.13,2.48a24.93,24.93,0,0,1-1.13,9.05,13.36,13.36,0,0,1-3.44,5.34c-1.71,1.63-4.15,2.44-6.6,3.05s-5.16,1.21-7,3.2a6.8,6.8,0,0,0-1.67,3.6,13,13,0,0,0,.16,4.21c.5,2.85,1.73,5.46,2.41,8.19s1,5.57-.12,8a7.28,7.28,0,0,1-2.44,2.94,26.75,26.75,0,0,1-3.06,1.78,13.54,13.54,0,0,0-2.68,1.75,6,6,0,0,0-1.66,2.35,6.15,6.15,0,0,0,2.61,7.68A7.59,7.59,0,0,0,426.74,205Z"/><path class="cls-5" d="M537,434.26l23.85-11s19.24,20.53,23.85,18.92l-19.76-47L527,410.8Z"/><path class="cls-6" d="M537,434.26l23.85-11s19.24,20.53,23.85,18.92l-19.76-47L527,410.8Z"/><path class="cls-7" d="M552.66,409.52a2.08,2.08,0,0,1,1.63-2.25,2,2,0,0,1,2.24,1.6,2.2,2.2,0,0,1-1.74,2.37,2.08,2.08,0,0,1-2.15-1.92"/><path class="cls-7" d="M564.9,395.11l-3.76,1.73,20.35,44.43s1.79,1.71,3.17.85Z"/><path class="cls-2" d="M560.89,424.07c.23-.1-.15-1.3.11-2.74s1-2.45.8-2.62-1.36.73-1.65,2.48S560.7,424.21,560.89,424.07Z"/><path class="cls-2" d="M565,428.14c.24,0,.22-1.2.86-2.39s1.58-1.84,1.47-2.07-1.47.18-2.24,1.67S564.78,428.23,565,428.14Z"/><path class="cls-2" d="M572.08,428.46c0-.23-1.32-.07-2.33,1.05s-1.06,2.4-.83,2.42.62-.93,1.47-1.84S572.16,428.7,572.08,428.46Z"/><path class="cls-2" d="M555.18,426c.17-.18-.59-1.1-1-2.44s-.47-2.52-.72-2.56-.66,1.28-.1,2.84S555,426.17,555.18,426Z"/><path class="cls-2" d="M550.32,428.12a4.78,4.78,0,0,0-1-2.35,11.49,11.49,0,0,0-1.79-2.15,12.08,12.08,0,0,0-1.29-1.05,3.14,3.14,0,0,0-.85-.48,1.09,1.09,0,0,0-1.27.41,1.37,1.37,0,0,0-.1,1.23,3.33,3.33,0,0,0,.49.83,9.16,9.16,0,0,0,1.12,1.25,9,9,0,0,0,2.34,1.57,4.26,4.26,0,0,0,2.49.58c0-.14-.91-.36-2.21-1.12a10.2,10.2,0,0,1-2.07-1.6,9.52,9.52,0,0,1-1-1.18c-.34-.44-.52-.87-.35-1.09s.1-.1.29-.06a2.56,2.56,0,0,1,.62.35,13.42,13.42,0,0,1,1.23.95,14.15,14.15,0,0,1,1.83,1.91C549.77,427.32,550.2,428.18,550.32,428.12Z"/><path class="cls-2" d="M550.53,427.69A4.07,4.07,0,0,0,548,428a8.26,8.26,0,0,0-3.62,2.61,2.11,2.11,0,0,0-.56,2,1.19,1.19,0,0,0,1.07.71,3.46,3.46,0,0,0,1-.12,5.67,5.67,0,0,0,1.59-.67,5.87,5.87,0,0,0,2-2c.83-1.43.7-2.5.62-2.49a20.79,20.79,0,0,1-1.13,2.15,5.88,5.88,0,0,1-1.9,1.67,5.27,5.27,0,0,1-1.38.53c-.53.14-1,.12-1-.09a1.46,1.46,0,0,1,.42-1.15,8.49,8.49,0,0,1,1-1.12,9.19,9.19,0,0,1,2.16-1.44C549.58,427.94,550.54,427.83,550.53,427.69Z"/><polygon class="cls-2" points="539.71 423.94 532.05 407.04 516.2 414.51 501.33 443.91 539.71 423.94"/><path class="cls-6" d="M563.49,444.17l24.18-10.31s18.6,21.11,23.26,19.64l-18.31-47.6-38.33,14.52Z"/><path class="cls-7" d="M579.94,419.93a2.08,2.08,0,0,1,1.7-2.2,2,2,0,0,1,2.19,1.67,2.2,2.2,0,0,1-1.81,2.32c-1,0-2.22-1-2.09-2"/><path class="cls-7" d="M592.61,405.9l-3.81,1.62,19,45s1.74,1.76,3.14,1Z"/><path class="cls-2" d="M587.72,434.72c.23-.1-.11-1.3.2-2.73s1-2.42.88-2.59-1.38.68-1.73,2.42S587.52,434.86,587.72,434.72Z"/><path class="cls-2" d="M591.7,438.92c.25,0,.25-1.19.93-2.36s1.63-1.8,1.53-2-1.47.13-2.29,1.6S591.48,439,591.7,438.92Z"/><path class="cls-2" d="M598.77,439.46c0-.23-1.32-.11-2.36,1s-1.13,2.37-.9,2.39.65-.91,1.52-1.79S598.84,439.7,598.77,439.46Z"/><path class="cls-2" d="M581.95,436.46c.17-.18-.56-1.12-1-2.47s-.4-2.53-.64-2.58-.7,1.26-.18,2.84S581.81,436.65,581.95,436.46Z"/><path class="cls-2" d="M577,438.45a4.78,4.78,0,0,0-.93-2.38,11.49,11.49,0,0,0-1.73-2.2,12.07,12.07,0,0,0-1.25-1.09,3.14,3.14,0,0,0-.84-.5,1.09,1.09,0,0,0-1.28.37,1.37,1.37,0,0,0-.14,1.22,3.33,3.33,0,0,0,.47.85,9.16,9.16,0,0,0,1.08,1.29,9,9,0,0,0,2.29,1.64,4.26,4.26,0,0,0,2.48.66c0-.13-.9-.39-2.17-1.19a10.2,10.2,0,0,1-2-1.66,9.53,9.53,0,0,1-.95-1.21c-.33-.45-.5-.88-.32-1.1s.1-.1.29-.05a2.56,2.56,0,0,1,.61.37,13.45,13.45,0,0,1,1.2,1,14.16,14.16,0,0,1,1.77,2C576.5,437.63,576.91,438.51,577,438.45Z"/><path class="cls-2" d="M577.25,438a4.07,4.07,0,0,0-2.54.26,8.26,8.26,0,0,0-3.7,2.49,2.11,2.11,0,0,0-.62,2,1.19,1.19,0,0,0,1,.74,3.46,3.46,0,0,0,1-.09,5.67,5.67,0,0,0,1.61-.62,5.87,5.87,0,0,0,2.07-2c.88-1.4.78-2.48.69-2.47a20.8,20.8,0,0,1-1.19,2.12,5.88,5.88,0,0,1-1.95,1.62,5.27,5.27,0,0,1-1.39.49c-.53.12-1,.09-1-.12a1.46,1.46,0,0,1,.46-1.13,8.47,8.47,0,0,1,1.06-1.09,9.19,9.19,0,0,1,2.2-1.38C576.3,438.25,577.26,438.16,577.25,438Z"/><path class="cls-8" d="M442.65,351.93s59.85-8.25,72.06-17.35,11.72-11.84,11.72-11.84,1.91-9.38-5.57-10.59S478,320.64,478,320.64L457.2,315.3,440,325.49l-11.45,14.15s3.16,8.29,7.61,9.7a36.65,36.65,0,0,0,6.47,1.62"/><path class="cls-3" d="M445.41,341c-.45-1.17-1-16.55-1-16.55s4.22-6.88,12.47-7S477,321,477,321l35-11.51,2.79,13.25s-26.3,22.31-40.31,22.24A111,111,0,0,1,445.41,341Z"/><path class="cls-3" d="M412.15,305h0a17.28,17.28,0,0,1-11.72-.2,25.74,25.74,0,0,1-11.9-8.87l-3.06-4c-3.55-3.52-25.8-34-25.8-34l11.85-19.16,26.73,31.19,7.66-21.2,22.67,15.88L422.42,290C420.92,296.75,418.54,302.71,412.15,305Z"/><path class="cls-3" d="M357.68,210.3s6.38,9.44,8,12.6c1.32,2.56,6.27,10.74,6,19.37l-12,15.62s-5.77-4.41-6.69-6.06-.07-4-.07-4a15.34,15.34,0,0,0-2.69-1.87s.55,2.95-1.66,3.5-9.58-7.18-9.58-7.18-.55-3.32,1.47-3.5c0,0-1.47-4.61,0-5.89,0,0-1.66-3.68.37-5.34,0,0,.92-4.24,2.39-5.71s16.45,2.95,16.45,2.95-3.55-7.88-3.92-10.09S357.68,210.3,357.68,210.3Z"/><path class="cls-9" d="M348.46,239.4s.24.12.6.42a4.94,4.94,0,0,1,1.3,1.55,3.46,3.46,0,0,1,.51,1.36,3.27,3.27,0,0,1-.27,1.67,2,2,0,0,1-1.55,1.17,2.89,2.89,0,0,1-2-.45,24.4,24.4,0,0,1-2.75-2.39l-2.12-2a11.22,11.22,0,0,1-1.84-2,11.23,11.23,0,0,1,2.15,1.65l2.21,1.92a31.09,31.09,0,0,0,2.69,2.27c1,.66,2.3.49,2.65-.42a2.81,2.81,0,0,0,.28-1.37,3.14,3.14,0,0,0-.38-1.2,5.85,5.85,0,0,0-1.07-1.58C348.57,239.65,348.42,239.43,348.46,239.4Z"/><path class="cls-9" d="M347.65,226.18a19.86,19.86,0,0,1,2.76,2.34c.41.38.88.78,1.33,1.26a6,6,0,0,1,1.28,1.77,2.8,2.8,0,0,1-2.68,3.74A4.22,4.22,0,0,1,348,234l-1.71-1.56-2.86-2.67a19.87,19.87,0,0,1-2.53-2.58,19.87,19.87,0,0,1,2.83,2.24l3,2.57,1.73,1.53a3.71,3.71,0,0,0,2,1.09,2.2,2.2,0,0,0,2.07-2.87,11.18,11.18,0,0,0-2.38-2.93A19.87,19.87,0,0,1,347.65,226.18Z"/><path class="cls-9" d="M350.13,235.3s.3-.07.76.15a2.58,2.58,0,0,1,1.34,1.67,2.64,2.64,0,0,1-3.3,3.07,5.29,5.29,0,0,1-1.77-1,40.85,40.85,0,0,1-5-4.65,9.82,9.82,0,0,1-1.72-2.23c.15-.13,3,3.11,7.1,6.37a4.88,4.88,0,0,0,1.55.91,2,2,0,0,0,1.51-.14,2.08,2.08,0,0,0,1.17-2.22,2.48,2.48,0,0,0-1-1.55C350.38,235.41,350.11,235.36,350.13,235.3Z"/><path class="cls-9" d="M352.59,250.28s0-.21,0-.58a6.21,6.21,0,0,1,.34-1.6,6.79,6.79,0,0,1,3.86-4.13l.08.59h0l0-.61h.07l0,.61h-.2l-.09-.15a13,13,0,0,1-1.5-4,14.14,14.14,0,0,1,1-8.55,11.41,11.41,0,0,1,1.34-2.26c.4-.48.63-.72.67-.7s-.81,1.11-1.59,3.13a14.78,14.78,0,0,0-.76,8.24,13.18,13.18,0,0,0,1.39,3.82l-.26-.15h0l0,.61h-.07l0-.61h0l1.45.07-1.37.53a6.73,6.73,0,0,0-3.7,3.69C352.76,249.47,352.69,250.29,352.59,250.28Z"/><path class="cls-4" d="M401.19,282.73c-.16.06-1.36-2.74-2.14-6.41s-.83-6.71-.66-6.72.52,3,1.3,6.59S401.37,282.67,401.19,282.73Z"/><path class="cls-2" d="M445.41,341c-.36,1.09-3.65,28.82-3.65,28.82s-23.62,58.26-27,75.87-1.09,35.75,17.87,40.85,34.48-9.38,34.48-9.38,6.69,9.38,24.68,7.18c18.23-2.23,82.37-41.57,82.37-41.57L563.23,414.4l-50,18.86s25.13-49.52,26.26-62.38c.87-9.92-13.77-41.77-24.8-48.15,0,0-31.37,23.92-41.95,22.17S445.41,341,445.41,341Z"/><path class="cls-5" d="M481.29,369.83a1.08,1.08,0,0,1,0,.31l-.08.9c-.06.79-.22,1.94-.45,3.43a84.09,84.09,0,0,1-3.08,12.33c-1.64,5.12-4,11-6.85,17.55a221.71,221.71,0,0,0-8.3,21.46c-1.24,3.89-2.27,7.74-3.08,11.5a71.45,71.45,0,0,0-1.62,10.94,41.69,41.69,0,0,0,2.78,18.34,36.08,36.08,0,0,0,6.74,10.6c1,1.09,1.84,1.91,2.43,2.43l.65.62c.14.14.21.22.21.23a1.08,1.08,0,0,1-.25-.18l-.69-.57a31.55,31.55,0,0,1-2.53-2.36,35.07,35.07,0,0,1-7-10.59,41.66,41.66,0,0,1-3-18.55,71,71,0,0,1,1.6-11,119.38,119.38,0,0,1,3.09-11.56,212.89,212.89,0,0,1,8.37-21.5c2.84-6.49,5.28-12.38,7-17.46a92.18,92.18,0,0,0,3.27-12.23c.26-1.47.46-2.62.57-3.4l.14-.89A1.1,1.1,0,0,1,481.29,369.83Z"/><path class="cls-5" d="M563.23,414.4a3,3,0,0,1-.65.3l-1.9.74-7,2.6c-5.94,2.2-14.18,5.19-23.17,8.74s-17.08,7-22.44,10.3l-1.84,1.29c-.52.47-1.07.86-1.49,1.32a11.07,11.07,0,0,0-1.9,2.54l-1,1.79a2.94,2.94,0,0,1-.38.6,3,3,0,0,1,.26-.66c.2-.42.46-1.06.86-1.85a10.8,10.8,0,0,1,1.86-2.67c.42-.48,1-.89,1.5-1.39s1.19-.87,1.84-1.35c5.36-3.49,13.45-7,22.45-10.52s17.27-6.48,23.25-8.57l7.11-2.41,1.94-.62A3,3,0,0,1,563.23,414.4Z"/><path class="cls-5" d="M539.52,370.89a2.82,2.82,0,0,1,0,.7l-.27,2a59.55,59.55,0,0,1-1.94,7.15,231.42,231.42,0,0,1-9.19,22.62c-4,8.67-7.82,16.4-10.67,22-1.43,2.78-2.61,5-3.44,6.55l-1,1.76a.35.35,0,1,1-.12-.06l.87-1.81,3.26-6.64c2.75-5.61,6.53-13.36,10.49-22s7.3-16.61,9.35-22.5a73.27,73.27,0,0,0,2.13-7.05l.38-2A3,3,0,0,1,539.52,370.89Z"/><ellipse class="cls-5" cx="474.96" cy="358.78" rx="0.33" ry="14.18" transform="translate(-54.88 87.53) rotate(-9.96)"/><path class="cls-5" d="M526.8,340.78a4,4,0,0,1-.92.87,14.27,14.27,0,0,1-3,1.79,16,16,0,0,1-20.25-5.84,14.28,14.28,0,0,1-1.54-3.09,4,4,0,0,1-.31-1.23,30.78,30.78,0,0,0,2.24,4.06A16.14,16.14,0,0,0,522.75,343,30.79,30.79,0,0,0,526.8,340.78Z"/><path class="cls-5" d="M462.52,344.63a3.88,3.88,0,0,1,0,1.2,19.45,19.45,0,0,1-.45,3.25,22.72,22.72,0,0,1-13.46,16.07,19.45,19.45,0,0,1-3.12,1,3.87,3.87,0,0,1-1.19.18c0-.11,1.65-.47,4.13-1.61A23.89,23.89,0,0,0,461.65,349C462.35,346.34,462.4,344.62,462.52,344.63Z"/><path class="cls-5" d="M479.95,346.44a3.44,3.44,0,0,0-1.56,1.26,2,2,0,0,0-.1,2,2.1,2.1,0,0,0,3.91-.18,2,2,0,0,0-.28-2,3.44,3.44,0,0,0-1.67-1.11s.21-.1.61,0a2.51,2.51,0,0,1,1.43.86,2.48,2.48,0,0,1,.48,2.45,2.67,2.67,0,0,1-5,.23,2.48,2.48,0,0,1,.25-2.49,2.51,2.51,0,0,1,1.34-1C479.73,346.36,479.95,346.4,479.95,346.44Z"/><path class="cls-6" d="M459.16,207.48l-25.63.81s-8.28,33.35-7.65,55.49c.38,13.56,8.78,32.73,10.8,39.79,1.41,4.92-3.61,11.61-5,16.53l-.06.21c-2.09,7.1-11.85,31.63,12.36,31.63,0,0-12.6-6.94-6.25-19.28,6.12-11.89,17.94-17,28-11.2s13.36,3.34,22.55-.42,41.76-13.36,37.58,3.34c0,0,5-9.6-5-16.7-7.61-5.39-14-20.13-14.28-35.14-.14-7.95,3.23-16.48,9.53-21.33l11-8.15s-11.45.67-8.11-16.86,5.69-21,5.69-21l-21.8,7.19a7.68,7.68,0,0,1-2.33.23l-11-.6Z"/><path class="cls-6" d="M403.64,250.47S415.56,220,420.52,215c4.5-4.51,13-6.73,13-6.73l-6.75,57.4Z"/><path class="cls-2" d="M434.46,297.74a2.4,2.4,0,0,1-.28-.58l-.67-1.71c-.55-1.5-1.43-3.64-2.32-6.36a118.44,118.44,0,0,1-5.59-21.62,52.57,52.57,0,0,1-.31-12.32c.37-3.78,1.06-7.12,1.59-9.92s1-5.07,1.22-6.64l.32-1.81a2.41,2.41,0,0,1,.15-.63,2.4,2.4,0,0,1,0,.64l-.2,1.83c-.18,1.59-.53,3.88-1,6.69s-1.12,6.15-1.45,9.89a53.92,53.92,0,0,0,.36,12.18,131.5,131.5,0,0,0,5.38,21.56c.83,2.73,1.64,4.89,2.12,6.42l.56,1.75A2.42,2.42,0,0,1,434.46,297.74Z"/><path class="cls-2" d="M502.36,280.73a7,7,0,0,1-.33-1.51,40.33,40.33,0,0,1-.48-4.17,55.35,55.35,0,0,1,5-27,40.29,40.29,0,0,1,1.94-3.72,7,7,0,0,1,.85-1.29c.1.06-1,2-2.37,5.19A61.55,61.55,0,0,0,502,275C502.15,278.55,502.47,280.71,502.36,280.73Z"/><g class="cls-10"><path d="M502.53,276.09a72.81,72.81,0,0,1,3.68-14.52c1.88-4.63,4.84-9,9.06-11.66a13.6,13.6,0,0,0,2.66-1.88,3.09,3.09,0,0,0,.9-3c-.57-1.74-2.95-2-4.71-1.56a14.1,14.1,0,0,0-8.3,7.09,33.93,33.93,0,0,0-3.25,10.68,44.44,44.44,0,0,0-.66,13.36"/></g><path class="cls-2" d="M526.12,316.42s-.08-.06-.21-.2l-.57-.62a24.45,24.45,0,0,0-2.33-2.22,23.67,23.67,0,0,0-10.59-5,22,22,0,0,0-8.08,0,37.2,37.2,0,0,0-8.81,3.08c-3,1.4-6.08,3.06-9.46,4.43a32.08,32.08,0,0,1-5.33,1.62,21.51,21.51,0,0,1-5.74.3c-3.89-.37-7.46-1.63-11-2.38a25.89,25.89,0,0,0-10.24-.33,26.4,26.4,0,0,0-8.73,3.15,24.86,24.86,0,0,0-6.25,5.15,26.49,26.49,0,0,0-5.57,10.31,28.1,28.1,0,0,0-.69,3.15l-.13.83a1,1,0,0,1-.07.28,17.73,17.73,0,0,1,.64-4.33,26,26,0,0,1,5.47-10.55,25.08,25.08,0,0,1,6.33-5.32,26.75,26.75,0,0,1,8.91-3.27,26.36,26.36,0,0,1,10.47.29c3.56.75,7.12,2,10.9,2.35a20.94,20.94,0,0,0,5.56-.29,31.67,31.67,0,0,0,5.21-1.58c3.34-1.33,6.42-3,9.44-4.38a37.32,37.32,0,0,1,9-3.07,22.23,22.23,0,0,1,8.26.13,23.35,23.35,0,0,1,10.66,5.21A17,17,0,0,1,526.12,316.42Z"/><path class="cls-2" d="M493.09,264.6a2.15,2.15,0,0,1,0,.61c0,.4,0,1,0,1.75a38.33,38.33,0,0,1-.79,6.38,41.75,41.75,0,0,1-26.55,30.9,38.33,38.33,0,0,1-6.19,1.74c-.74.16-1.33.21-1.72.27a2.16,2.16,0,0,1-.61,0,21,21,0,0,1,2.28-.56,45.45,45.45,0,0,0,6.07-1.92,42.65,42.65,0,0,0,26.27-30.56,45.43,45.43,0,0,0,1-6.29A21,21,0,0,1,493.09,264.6Z"/><g class="cls-10"><path d="M491,277.38a4,4,0,0,0-3.66,1.64,16.08,16.08,0,0,0-1.93,3.73,28.75,28.75,0,0,1-15.16,14.81A27.08,27.08,0,0,0,465,300a5.63,5.63,0,0,0-2.69,4.86s11.91-2.31,19.83-12S491,277.38,491,277.38Z"/></g><path class="cls-11" d="M446.13,228.9c-.82-1.15-1.6-2.47-2.92-3-2.33-.89-4.74,1.26-7.24,1.27-2.95,0-5-2.78-7.35-4.54-3.08-2.3-7.14-3-10.95-3.52l-1.29,2.36c3.36,2.23,8.57-.87,12,1.31,1.53,1,2.28,2.79,3.12,4.4s2.11,3.27,3.92,3.49,3.32-1,5-1.28c5.41-.89,9.24,7.14,14.65,6.24A18.71,18.71,0,0,1,446.13,228.9Z"/><path class="cls-11" d="M425.17,260.1c1.66-2.17,4.69-2.84,7.4-2.52s5.25,1.43,7.86,2.21,5.51,1.19,8,.13a22.17,22.17,0,0,1,3.6-1.66c1.77-.4,3.58.32,5.31.87a29.65,29.65,0,0,0,11.33,1.29,28.09,28.09,0,0,1,4.41-.24,5.8,5.8,0,0,1,4,1.72,16.82,16.82,0,0,1,6-2.1c-2.4,1.68-4.93,3.42-7.85,3.76-3.35.4-6.6-1.1-9.9-1.8-9-1.89-18.41,2.19-27.41.37a45.78,45.78,0,0,0-6.27-1.29c-2.13-.13-4.48.51-5.7,2.26"/><path class="cls-11" d="M431.43,285.72c3.57.77,6.75-2.23,10.24-3.26,3.08-.91,6.4-.26,9.49.63s6.18,2,9.39,2.06c2,0,4-.37,5.91.17a28.56,28.56,0,0,1,4.18,2c4.57,2.14,9.92,1,14.83-.2a21.81,21.81,0,0,1-12,2.77A65.06,65.06,0,0,1,461.22,288l-9.84-2.2c-2.47-.55-5-1.11-7.52-.64-4.21.78-7.81,4.4-12.08,4"/><path class="cls-11" d="M469.22,303q3.91.38,7.83.57a22.19,22.19,0,0,0,6.31-.35c3.42-.84,6.44-3.17,10-3.42s7,1.77,10.63,2a11.17,11.17,0,0,0,9-3.65,31.24,31.24,0,0,1-16.14.39c-2.46-.6-5-1.5-7.45-.94-2,.45-3.62,1.8-5.41,2.76-4.4,2.35-9.64,2.34-14.63,2.26"/><path class="cls-11" d="M490.3,257.74c.26-2.86,10.34-5.39,14.49-9a7.85,7.85,0,0,1-5.42,6.36,30.55,30.55,0,0,1-4.81.63,6.24,6.24,0,0,0-4.27,2"/><path class="cls-11" d="M472.25,237.6c1.69,1.3,4.11.94,6.14.28s4.13-1.55,6.22-1.11,3.6,2.06,5.48,3a9.33,9.33,0,0,0,8.07-.24,12.42,12.42,0,0,0,5.57-6c.53-1.18,1-2.49,2-3.25s2.77-.74,4.14-1.17c2.22-.7,3.72-2.75,4.93-4.74s2.41-4.14,4.42-5.32c-1.75-.53-3.57.64-4.79,2s-2.21,3-3.81,3.91-3.56.9-5.18,1.76c-2.87,1.51-3.81,5.11-5.79,7.68-2.25,2.91-6.51,4.48-9.78,2.79-1.76-.91-3.22-2.68-5.2-2.71a8,8,0,0,0-3.59,1.31,16.11,16.11,0,0,1-8.81,1.67l.68.14"/><path class="cls-11" d="M427.92,337.38a7.13,7.13,0,0,1,1.41-4.76c.93-1.41,2.08-2.68,2.9-4.16,1.14-2.08,1.56-4.47,2.4-6.68s2.3-4.43,4.56-5.13c1.53-.48,3.21-.19,4.78-.52,2.65-.56,4.72-2.79,7.38-3.3,2.17-.41,4.39.39,6.6.28a8.08,8.08,0,0,0,5.32-2.39c-1.73,1-3.92.86-5.91.5s-4-.88-6-.41c-1.29.31-2.44,1-3.72,1.36-2.4.64-5-.06-7.41.53-3.53.87-5.82,4.26-7.24,7.6s-1.6,6-4,8.71C429,329,427.17,336.15,427.92,337.38Z"/><path class="cls-11" d="M449.15,211.8a15.06,15.06,0,0,1-2.91-1.44,3.65,3.65,0,0,1-1.75-2.42l-3.79.12c1.21,2.9,4.24,5.51,7.37,5.82a10.69,10.69,0,0,1,2.67.35,21.42,21.42,0,0,1,2.61,1.62c.9.49,2.2.59,2.82-.23A40.72,40.72,0,0,0,449.15,211.8Z"/><path class="cls-11" d="M425.17,241.72a8.13,8.13,0,0,0-4.73-.17,10.42,10.42,0,0,1-4.75.14,13.7,13.7,0,0,1-3.54-2.1c-1.14-.77-2.22-1.47-3.57-1.18l-.73,1.73c0,.74.68.36,1.4.57a3.88,3.88,0,0,1,2,.89,7.66,7.66,0,0,1,.75,1.7,3.33,3.33,0,0,0,3.23,1.58,10.18,10.18,0,0,0,3.59-1.19,9,9,0,0,1,3.62-1.11,4.76,4.76,0,0,1,4.44,3.07C427.66,244.23,426.63,242.38,425.17,241.72Z"/><path class="cls-12" d="M414.07,245.37"/><path class="cls-2" d="M507.47,207.4c1.47,2.06,4.37,2.6,6.85,2.1s4.7-1.82,7-2.84,4.93-1.76,7.35-1c3,.92,4.89,3.83,7.65,5.29A9,9,0,0,0,547.64,208c1.23-1.89,1.68-4.17,2.41-6.3s1.92-4.31,4-5.23c2.4-1.08,5.26-.14,7.8-.84,3.53-1,5.47-4.83,6-8.45.93-6.61,4.63-19.85-21.19-21.6"/><path class="cls-3" d="M498.48,155.84a24.48,24.48,0,0,0-22-27.42c-13.05-1.24-24.65,8.47-26.61,21.44-1.71,11.36-3.19,22.84-3.14,27,.16,12.56,7.51,17.46,10.49,18.92a16.29,16.29,0,0,0,3.31.82h0a.08.08,0,0,1,.07.1l-2.79,14.42c-1.26,9.45,4,17.88,13.44,19.25s16.87-5.88,18.31-15.34Z"/><path class="cls-2" d="M452,157.28c.21.29,1.87-.6,4-.28s3.53,1.61,3.8,1.38-.05-.6-.66-1.19a5.48,5.48,0,0,0-3-1.42,5.26,5.26,0,0,0-3.22.55C452.22,156.72,451.93,157.15,452,157.28Z"/><path class="cls-2" d="M471.74,160.55c.21.29,1.87-.6,4-.28s3.53,1.61,3.8,1.38,0-.6-.66-1.19a5.48,5.48,0,0,0-3-1.42,5.27,5.27,0,0,0-3.22.55C471.93,160,471.63,160.42,471.74,160.55Z"/><path class="cls-2" d="M463.59,171.36a14.24,14.24,0,0,0-3.36-1.13c-.53-.14-1-.32-1.07-.7a2.79,2.79,0,0,1,.6-1.56l2.21-3.9c3.09-5.56,5.41-10.17,5.18-10.29s-2.91,4.29-6,9.85L459,167.57a3.18,3.18,0,0,0-.59,2.09,1.38,1.38,0,0,0,.78.92,3.73,3.73,0,0,0,.9.26A14,14,0,0,0,463.59,171.36Z"/><path class="cls-4" d="M460.61,196.62s8.11,1.87,19.29-2.81c0,0-4.82,10.38-20,6.69Z"/><path class="cls-9" d="M463.75,176.62a3.87,3.87,0,0,1,3.64-.92,3.54,3.54,0,0,1,2.23,1.65,2.24,2.24,0,0,1-.2,2.56,2.6,2.6,0,0,1-2.89.3,8.13,8.13,0,0,1-2.48-2,2.38,2.38,0,0,1-.52-.72.72.72,0,0,1,.12-.79"/><path class="cls-2" d="M469.64,173.74c-.34-.07-.68,2.24-2.9,3.59s-4.64.74-4.7,1.06c-.05.14.48.53,1.52.71a5.81,5.81,0,0,0,3.9-.75,5.06,5.06,0,0,0,2.28-3C470,174.36,469.8,173.75,469.64,173.74Z"/><path class="cls-2" d="M473.2,152.85c.13.61,2.29.64,4.74,1.31s4.37,1.64,4.78,1.17c.18-.23-.09-.82-.82-1.5a8.55,8.55,0,0,0-7.25-1.89C473.68,152.17,473.15,152.56,473.2,152.85Z"/><path class="cls-2" d="M454.18,149c.3.54,1.84.25,3.61.48s3.21.8,3.62.34c.19-.22,0-.74-.56-1.29a5.27,5.27,0,0,0-5.83-.67C454.33,148.31,454,148.78,454.18,149Z"/><path class="cls-2" d="M515.71,190.3c.79-1.8,1.47-3.46,1.83-4.54,1.4-4.25,1.41-11-.61-15-1.88-3.72-6.63-7.41-8-11-2.12-5.55-.55-7-2.17-18.56-.92-6.56-9.68-15.67-18.86-14.25a18.78,18.78,0,0,0-11-5.83,26.28,26.28,0,0,0-26.7,11c-2.74,4.14-4.39,9.72-2.76,14.69,2.6,4,10.85,1.52,15.84-1.21a11.85,11.85,0,0,0,16.18-3.35,5.58,5.58,0,0,0,4,2.13c.16,1.47.34,2.7.45,3.49.5,3.62,5.94,8.86,6,12.51.12,6.88-5.17,7.22-6.63,13.94-1.1,5.06,2.74,8,3.47,13.16.11.78-9.1,17.54,2.78,24.52,0,0,.31.26.78.73a12.49,12.49,0,0,1,1.34,15.79c-3.11,4.64-6.44,12.28,1.52,16.41,0,0,2.31-7.34,5.57-8.76,8.29-3.61,16.77-4.3,13.35-22.27S513.16,198,515.71,190.3Z"/><path class="cls-13" d="M107.66,116.22l5.81,67.39,33.75-2.7c.21-3.94-.07-19.19-.07-19.19s14-2.18,14.22-16.22c.08-6.82-.89-20.91-1.92-33.61A26,26,0,0,0,132,88h0A26,26,0,0,0,107.66,116.22Z"/><path class="cls-14" d="M147.18,161.52a32.65,32.65,0,0,1-18.31-5.2s4.33,10.1,18.34,8.84Z"/><path class="cls-2" d="M154.51,121.22a2,2,0,0,1-1.93,2,1.92,1.92,0,0,1-2.07-1.81,2,2,0,0,1,1.93-2A1.92,1.92,0,0,1,154.51,121.22Z"/><path class="cls-2" d="M156.45,119c-.25.26-1.77-.86-3.93-.86s-3.74,1.08-4,.82.14-.59.83-1.09a5.5,5.5,0,0,1,3.18-1,5.28,5.28,0,0,1,3.12,1C156.35,118.38,156.57,118.85,156.45,119Z"/><path class="cls-2" d="M132.88,121.73a2,2,0,0,1-1.93,2,1.92,1.92,0,0,1-2.07-1.81,2,2,0,0,1,1.93-2A1.92,1.92,0,0,1,132.88,121.73Z"/><path class="cls-2" d="M135.24,119.37c-.25.26-1.77-.86-3.93-.86s-3.74,1.08-4,.82.14-.59.83-1.09a5.5,5.5,0,0,1,3.18-1,5.29,5.29,0,0,1,3.12,1C135.14,118.78,135.36,119.26,135.24,119.37Z"/><path class="cls-2" d="M143.07,135.37a14.29,14.29,0,0,1,3.5-.63c.55-.06,1.07-.17,1.17-.54a2.8,2.8,0,0,0-.37-1.63l-1.63-4.2c-2.26-6-3.9-10.89-3.66-11s2.27,4.68,4.53,10.65l1.56,4.22a3.19,3.19,0,0,1,.29,2.16,1.38,1.38,0,0,1-.91.81,3.74,3.74,0,0,1-.94.13A14,14,0,0,1,143.07,135.37Z"/><path class="cls-2" d="M136.72,136.87c.35,0,.36,2.32,2.36,4s4.5,1.4,4.52,1.73c0,.15-.56.46-1.61.48a5.83,5.83,0,0,1-3.77-1.31,5.08,5.08,0,0,1-1.83-3.34C136.3,137.43,136.56,136.85,136.72,136.87Z"/><path class="cls-2" d="M135.8,110.92c-.21.59-2.37.31-4.9.61s-4.58,1-4.92.47c-.15-.25.21-.8,1-1.37a8.58,8.58,0,0,1,7.48-.82C135.42,110.18,135.89,110.64,135.8,110.92Z"/><path class="cls-2" d="M155.66,112.72c-.38.49-1.87,0-3.65,0s-3.3.33-3.65-.18c-.15-.25.09-.74.75-1.2a5.29,5.29,0,0,1,5.88.18C155.62,112,155.83,112.49,155.66,112.72Z"/><path class="cls-2" d="M122.91,100.82l-.08.06a11,11,0,0,0-4.11,7.14l0,.28c-.55,4-.45,8.08-1,12.08s-2,8.07-4.93,10.82c-1.22,1.13-3.37,1.91-4.37.59a3.43,3.43,0,0,1-.5-1.84c-.75-9.67-3.39-18.25-3.37-28.36A8.52,8.52,0,0,1,108,94.66c2.12-1.52,4.7-3.09,7.05-2s5.4,5.52,7.23,7.39"/><path class="cls-13" d="M112.4,122.57c-.24-.1-9.65-2.85-9.34,6.75s9.88,7.31,9.89,7S112.4,122.57,112.4,122.57Z"/><path class="cls-14" d="M109.89,132.81s-.16.12-.44.26a1.67,1.67,0,0,1-1.25.07c-1-.34-1.93-1.92-2-3.65a5.52,5.52,0,0,1,.39-2.41,1.93,1.93,0,0,1,1.22-1.32.85.85,0,0,1,1,.43c.14.26.08.46.13.47s.2-.17.11-.56a1.07,1.07,0,0,0-.4-.59,1.26,1.26,0,0,0-.93-.21,2.35,2.35,0,0,0-1.7,1.54,5.68,5.68,0,0,0-.49,2.69c.12,1.93,1.17,3.71,2.57,4.07a1.79,1.79,0,0,0,1.52-.3C109.88,133,109.93,132.82,109.89,132.81Z"/><path class="cls-2" d="M113.76,95.69c-2.93-3.43,2.61-9.88,7.06-12.09s11-.9,15.87-.09c3.09.51,6.23,1.41,9.31.8a21.18,21.18,0,0,0,5.77-2.48,15.53,15.53,0,0,1,5.88-2.15,5.79,5.79,0,0,1,5.49,2.38c1.09,1.8.38,4.61-1.64,5.22a4.71,4.71,0,1,1,2.6,8.43c1.19-1.23,3.52.13,3.62,1.84s-1.24,3.18-2.68,4.1c-3.68,2.36-8.38,2.53-12.69,1.8s-8.44-2.28-12.73-3.12-11.5-2.43-15.35-.35c-2.83,1.53-4.35,5.47-6.17,4.94a5.87,5.87,0,0,1-3.67-3.79,17,17,0,0,1-.66-5.43"/><path class="cls-5" d="M110,122.15s.41-.26.78-1a6.46,6.46,0,0,0,.48-3.48c-.21-3.09-2.95-6.41-3.3-10.68a9.65,9.65,0,0,1,1.06-5.73,7.34,7.34,0,0,1,3.57-3.08,6.25,6.25,0,0,1,3.2-.44c.77.12,1.19.3,1.22.23s-.34-.34-1.14-.59a6,6,0,0,0-3.51.17,7.74,7.74,0,0,0-4.09,3.27A10.18,10.18,0,0,0,107,107a17.47,17.47,0,0,0,1.85,6.05,18.22,18.22,0,0,1,1.72,4.64A7.4,7.4,0,0,1,110,122.15Z"/><path class="cls-2" d="M151.54,72.84s.15.11.38.38a4.85,4.85,0,0,1,.72,1.36,6.47,6.47,0,0,1-.82,5.48,9.54,9.54,0,0,1-7.31,3.75c-3.2.26-6.59-.7-10-1.59a30.53,30.53,0,0,0-5.09-.92,14,14,0,0,0-4.73.43,15.42,15.42,0,0,0-6.91,4.06,15.1,15.1,0,0,0-3.09,4.51c-.54,1.19-.69,1.91-.76,1.89a1.63,1.63,0,0,1,.08-.52,8.81,8.81,0,0,1,.44-1.46,14.25,14.25,0,0,1,3-4.73,15.55,15.55,0,0,1,7.08-4.32,14.39,14.39,0,0,1,4.93-.48,30.23,30.23,0,0,1,5.2.93c3.47.89,6.78,1.83,9.83,1.62a9.16,9.16,0,0,0,7-3.41,6.33,6.33,0,0,0,1-5.15A7.78,7.78,0,0,0,151.54,72.84Z"/><path class="cls-6" d="M100.88,412.9,81.95,388.73s-30.92,11.13-34.86,7l45.54-38.4,31,36.44Z"/><path class="cls-7" d="M97.69,378.83a2.43,2.43,0,0,0-.5-3.21,2.34,2.34,0,0,0-3.18.47,2.57,2.57,0,0,0,.55,3.39c1,.61,2.81.25,3.26-.86"/><path class="cls-7" d="M92.63,357.34l3,3.8L50.83,396.53s-2.77.83-3.75-.79Z"/><path class="cls-2" d="M81.4,389.58c-.18-.23.85-1.27,1.34-2.9s.29-3.06.56-3.15,1,1.48.4,3.45S81.53,389.83,81.4,389.58Z"/><path class="cls-2" d="M75,391.64c-.23-.17.41-1.36.37-2.94s-.66-2.76-.43-2.93,1.43,1,1.44,2.92S75.14,391.84,75,391.64Z"/><path class="cls-2" d="M67.43,388.21c.16-.22,1.41.63,1.86,2.33s-.18,3.06-.43,3-.16-1.3-.55-2.69S67.23,388.41,67.43,388.21Z"/><path class="cls-2" d="M86.33,394.61c-.08-.28,1.2-.83,2.39-2s1.83-2.37,2.11-2.27,0,1.68-1.41,3S86.37,394.88,86.33,394.61Z"/><path class="cls-2" d="M90.24,399.42c-.08-.09.68-1,2.29-1.91a13.4,13.4,0,0,1,3-1.28,14.1,14.1,0,0,1,1.9-.41,3.67,3.67,0,0,1,1.14,0,1.27,1.27,0,0,1,1.1,1.1,1.6,1.6,0,0,1-.55,1.33,3.89,3.89,0,0,1-1,.6,10.7,10.7,0,0,1-1.83.71,10.52,10.52,0,0,1-3.27.39c-1.88-.09-2.94-.61-2.9-.72s1.14.1,2.9,0a11.91,11.91,0,0,0,3-.57,11.13,11.13,0,0,0,1.65-.7c.59-.28,1-.62.95-.94,0-.12,0-.16-.27-.21a3,3,0,0,0-.84,0,15.71,15.71,0,0,0-1.79.33,16.54,16.54,0,0,0-2.92,1A20.54,20.54,0,0,1,90.24,399.42Z"/><path class="cls-2" d="M90.26,398.85c0-.1,1.16.32,2.46,1.7a9.65,9.65,0,0,1,2.38,4.63,2.47,2.47,0,0,1-.48,2.38,1.39,1.39,0,0,1-1.49.17,4,4,0,0,1-.94-.64,6.63,6.63,0,0,1-1.3-1.53,6.86,6.86,0,0,1-1-3.18c-.1-1.93.6-3,.68-2.92a24.25,24.25,0,0,0,0,2.84,6.87,6.87,0,0,0,1.09,2.75,6.14,6.14,0,0,0,1.15,1.28c.48.42,1,.66,1.13.46a1.71,1.71,0,0,0,.17-1.42,9.9,9.9,0,0,0-.48-1.71A10.74,10.74,0,0,0,92.17,401C91.11,399.62,90.17,399,90.26,398.85Z"/><path class="cls-6" d="M53.79,428.93,34.86,404.77S3.93,415.9,0,411.77l45.54-38.4,31,36.44Z"/><path class="cls-7" d="M50.6,394.87a2.43,2.43,0,0,0-.5-3.21,2.34,2.34,0,0,0-3.18.47,2.57,2.57,0,0,0,.55,3.39c1,.61,2.81.25,3.26-.86"/><path class="cls-7" d="M45.54,373.38l3,3.8L3.75,412.57S1,413.39,0,411.77Z"/><path class="cls-2" d="M34.31,405.62c-.18-.23.85-1.27,1.34-2.9s.29-3.06.56-3.15,1,1.48.4,3.45S34.44,405.87,34.31,405.62Z"/><path class="cls-2" d="M27.87,407.67c-.23-.17.41-1.36.37-2.94s-.66-2.76-.43-2.93,1.43,1,1.44,2.92S28.06,407.88,27.87,407.67Z"/><path class="cls-2" d="M20.34,404.24c.16-.22,1.41.63,1.86,2.33s-.18,3.06-.43,3-.16-1.3-.55-2.69S20.14,404.45,20.34,404.24Z"/><path class="cls-2" d="M39.24,410.65c-.08-.28,1.2-.83,2.39-2s1.83-2.37,2.11-2.27,0,1.68-1.41,3S39.28,410.92,39.24,410.65Z"/><path class="cls-2" d="M43.15,415.46c-.08-.09.68-1,2.29-1.91a13.42,13.42,0,0,1,3-1.28,14.13,14.13,0,0,1,1.9-.41,3.67,3.67,0,0,1,1.14,0,1.27,1.27,0,0,1,1.1,1.1,1.6,1.6,0,0,1-.55,1.33,3.89,3.89,0,0,1-1,.6,10.71,10.71,0,0,1-1.83.71,10.52,10.52,0,0,1-3.27.39c-1.88-.09-2.94-.61-2.9-.72s1.14.1,2.9,0a11.9,11.9,0,0,0,3-.57,11.13,11.13,0,0,0,1.65-.7c.59-.28,1-.62.95-.94,0-.12,0-.16-.27-.21a3,3,0,0,0-.84,0,15.7,15.7,0,0,0-1.79.33,16.54,16.54,0,0,0-2.92,1A20.54,20.54,0,0,1,43.15,415.46Z"/><path class="cls-2" d="M43.17,414.89c.05-.1,1.16.32,2.46,1.7A9.65,9.65,0,0,1,48,421.22a2.47,2.47,0,0,1-.48,2.38,1.39,1.39,0,0,1-1.49.17,4,4,0,0,1-.94-.64,6.63,6.63,0,0,1-1.3-1.53,6.86,6.86,0,0,1-1-3.18c-.1-1.93.6-3,.68-2.92a24.32,24.32,0,0,0,0,2.84,6.87,6.87,0,0,0,1.09,2.75,6.15,6.15,0,0,0,1.15,1.28c.48.42,1,.66,1.13.46a1.71,1.71,0,0,0,.17-1.42,9.89,9.89,0,0,0-.48-1.71,10.74,10.74,0,0,0-1.48-2.65C44,415.66,43.08,415,43.17,414.89Z"/><path class="cls-13" d="M75.22,27.52c.46-.13,2.55,16.71,1.43,18.94s-8.44,8.75-11.3,8.75-6.69,4.14-7.48,5.57L39.41,57l4.14-10.19L43,34a14.39,14.39,0,0,1,1.8-7.65c1.43-2.53,3.45-5.17,5.38-4.38,3.5,1.43,3.5,2.55,3.5,2.55s3.31-3,4.44.48c0,0,4.32-3.18,6.39,1,0,0,4.78-2.87,6,3.66L71.08,34S70.6,28.8,75.22,27.52Z"/><path class="cls-14" d="M60.25,47.81a8,8,0,0,1,2-2.31,17.76,17.76,0,0,1,6.38-3.68,18,18,0,0,1,2.89-.69l-.26.31c0-2.13-.23-4-.27-5.29A6.7,6.7,0,0,1,71.08,34a10.49,10.49,0,0,1,.28,2.08,47.36,47.36,0,0,1,.5,5.31v.27l-.27,0a19.59,19.59,0,0,0-2.78.69,20.06,20.06,0,0,0-6.28,3.41C61.09,47,60.34,47.88,60.25,47.81Z"/><path class="cls-14" d="M49.09,28.92a3,3,0,0,1,.45,1A4.49,4.49,0,0,1,49.62,33c-.25.68-1,1.11-1.12,1.69A2.1,2.1,0,0,0,49,36.63a3.06,3.06,0,0,0,4.39-.19A4.55,4.55,0,0,0,54.3,34c.08-.88.09-1.77.09-2.6A40,40,0,0,0,54.13,27a7.21,7.21,0,0,0-.72-2.83,7.06,7.06,0,0,0-.67-.84s.43.1.89.7a6.62,6.62,0,0,1,1,2.91,32.82,32.82,0,0,1,.4,4.48A26.54,26.54,0,0,1,54.93,34a5.1,5.1,0,0,1-1,2.81A3.65,3.65,0,0,1,48.6,37,2.63,2.63,0,0,1,48,34.54a2.54,2.54,0,0,1,.67-1,2.75,2.75,0,0,0,.55-.74A4.56,4.56,0,0,0,49.3,30,4.82,4.82,0,0,1,49.09,28.92Z"/><path class="cls-14" d="M53.44,36.86c.06,0,.12.28.43.67a2.73,2.73,0,0,0,1.79,1,3.12,3.12,0,0,0,2.69-1.16,6.1,6.1,0,0,0,1.36-3.53,15.58,15.58,0,0,0-.89-7.1C58.19,25,57.54,24,57.63,23.92a7,7,0,0,1,1.61,2.62,14.4,14.4,0,0,1,1.11,7.34,6.48,6.48,0,0,1-1.57,3.87A3.54,3.54,0,0,1,55.58,39a2.83,2.83,0,0,1-1.93-1.28C53.37,37.19,53.41,36.86,53.44,36.86Z"/><path class="cls-14" d="M59,37.3s.18.21.51.52a3.11,3.11,0,0,0,1.7.79,3.29,3.29,0,0,0,2.59-.72A5.12,5.12,0,0,0,65.51,35c.47-2.46-.32-4.79-.58-6.45a11.72,11.72,0,0,1-.38-2.74,11.72,11.72,0,0,1,.83,2.64c.21.83.48,1.8.7,2.93a9.66,9.66,0,0,1,.07,3.76,5.53,5.53,0,0,1-2,3.26,3.68,3.68,0,0,1-3,.7A3.07,3.07,0,0,1,59.34,38C59,37.6,59,37.31,59,37.3Z"/><path class="cls-14" d="M65.52,36.82s.11.28.24.79a5.42,5.42,0,0,0,.91,1.94,2.66,2.66,0,0,0,2.65,1,2.8,2.8,0,0,0,1.67-3,42.88,42.88,0,0,0-.63-7.31,26.28,26.28,0,0,1-.52-3,10,10,0,0,1,1,2.93,32.46,32.46,0,0,1,.83,7.4,3.36,3.36,0,0,1-2.18,3.54,3.11,3.11,0,0,1-3.17-1.34,4.87,4.87,0,0,1-.79-2.17C65.45,37.12,65.48,36.82,65.52,36.82Z"/><path class="cls-13" d="M242.5,206.89s-6.25,9.25-7.85,12.35c-1.29,2.51-6.36,13-6.59,19.75l12.49,14.54s5.65-4.32,6.56-5.94.07-3.95.07-3.95a15,15,0,0,1,2.64-1.83s-.54,2.89,1.62,3.43,9.39-7,9.39-7,.54-3.25-1.44-3.43c0,0,1.44-4.51,0-5.78,0,0,1.62-3.61-.36-5.24,0,0-.9-4.15-2.35-5.6S240.55,221,240.55,221s3.48-7.73,3.84-9.89S242.5,206.89,242.5,206.89Z"/><path class="cls-14" d="M251.54,235.41s-.11.24-.41.59a5.74,5.74,0,0,0-1,1.55,3.07,3.07,0,0,0-.37,1.17,2.75,2.75,0,0,0,.27,1.34c.34.89,1.65,1,2.59.41a30.58,30.58,0,0,0,2.63-2.23l2.17-1.88a10.78,10.78,0,0,1,2.11-1.61,10.78,10.78,0,0,1-1.8,2l-2.07,2a23.87,23.87,0,0,1-2.7,2.34,2.84,2.84,0,0,1-2,.44,1.92,1.92,0,0,1-1.52-1.15,3.21,3.21,0,0,1-.27-1.64,3.39,3.39,0,0,1,.5-1.33,4.84,4.84,0,0,1,1.28-1.52C251.3,235.53,251.5,235.38,251.54,235.41Z"/><path class="cls-14" d="M252.33,222.46a19.08,19.08,0,0,1-2.38,2.61,11,11,0,0,0-2.33,2.87,2.15,2.15,0,0,0,2,2.81,3.63,3.63,0,0,0,1.91-1.06l1.7-1.5,2.9-2.51a19.07,19.07,0,0,1,2.78-2.19,19.1,19.1,0,0,1-2.47,2.54l-2.8,2.62L252,230.16a4.14,4.14,0,0,1-2.28,1.23,2.75,2.75,0,0,1-2.64-3.68,5.92,5.92,0,0,1,1.26-1.74c.44-.47.91-.86,1.3-1.23A19.09,19.09,0,0,1,252.33,222.46Z"/><path class="cls-14" d="M249.9,231.39c0,.06-.25.11-.62.37a2.43,2.43,0,0,0-1,1.52,2,2,0,0,0,1.14,2.17,1.94,1.94,0,0,0,1.48.13,4.78,4.78,0,0,0,1.52-.89c4-3.19,6.81-6.37,7-6.24a9.47,9.47,0,0,1-1.68,2.19,39.86,39.86,0,0,1-4.87,4.56,5.19,5.19,0,0,1-1.74,1,2.53,2.53,0,0,1-1.93-4.65C249.61,231.32,249.9,231.36,249.9,231.39Z"/><path class="cls-14" d="M247.48,246.07c-.09,0-.16-.79-.66-2a6.59,6.59,0,0,0-3.63-3.61l-1.37-.53,1.45-.07h0l0,.61h-.07l0-.61h0L243,240a12.92,12.92,0,0,0,1.36-3.75,14.49,14.49,0,0,0-.74-8.07c-.77-2-1.66-3-1.55-3.07s.27.21.66.68a11.15,11.15,0,0,1,1.32,2.21,13.85,13.85,0,0,1,1,8.38,12.74,12.74,0,0,1-1.47,3.92l-.09.15h-.2l0-.61h.07l0,.61h0l.08-.59a6.66,6.66,0,0,1,3.79,4.06,6.07,6.07,0,0,1,.33,1.57C247.52,245.87,247.52,246.07,247.48,246.07Z"/><path class="cls-2" d="M89.65,325.41l-1.86,16.77a105.47,105.47,0,0,0,.08,24l7.32,62.14L71.75,400.5S49.18,414,48.89,427c0,0,44.24,50.23,55.43,57.3s40.07,0,41.24-22.1c0,0,2.65,20.33,28.28,19.74s25.93-61.87,25.93-61.87l-11.19-92.21Z"/><path class="cls-5" d="M145.66,462.75a4.21,4.21,0,0,1,0-.85l0-2.44.3-9,1.25-29.57.77-16.28c.3-5,.29-9.53,1.14-13.28a13.6,13.6,0,0,1,4.43-7.75,8.29,8.29,0,0,1,2.1-1.27,4.73,4.73,0,0,1,.6-.21c.14,0,.21-.06.21,0a11.93,11.93,0,0,0-2.75,1.73,13.64,13.64,0,0,0-4.14,7.65c-.78,3.67-.73,8.22-1,13.22L147.89,421l-1.44,29.56-.51,9-.17,2.43A4.18,4.18,0,0,1,145.66,462.75Z"/><path class="cls-5" d="M152.53,326.74a7,7,0,0,1,.34,1.5c.18,1,.41,2.39.66,4.14.5,3.51,1.07,8.37,1.46,13.77s.54,10.29.55,13.84c0,1.77,0,3.21,0,4.2a7,7,0,0,1-.12,1.54,7,7,0,0,1-.13-1.54l-.16-4.19c-.13-3.54-.35-8.42-.74-13.8s-.88-10.24-1.27-13.76l-.45-4.17A7,7,0,0,1,152.53,326.74Z"/><path class="cls-5" d="M143.56,330.9s.18-.21.65-.32a2.64,2.64,0,0,1,1.95.42,2.73,2.73,0,0,1,1,1.06,2.51,2.51,0,0,1,.19,1.66,3.08,3.08,0,0,1-2.71,2.39,3.22,3.22,0,0,1-3-2,3,3,0,0,1,.37-2.94,3.19,3.19,0,0,1,1.59-1.19c.45-.14.72-.11.72-.07a4.27,4.27,0,0,0-1.93,1.52,2.56,2.56,0,0,0-.2,2.44,2.67,2.67,0,0,0,2.44,1.58,2.52,2.52,0,0,0,2.17-1.88,2.08,2.08,0,0,0-.83-2.21,2.6,2.6,0,0,0-1.65-.55C143.82,330.85,143.58,330.95,143.56,330.9Z"/><path class="cls-5" d="M95.71,428.11c.11,0-.39,1.89-.83,5a50,50,0,0,0,2.3,23.79c1,2.92,1.87,4.65,1.77,4.7a5.42,5.42,0,0,1-.69-1.17A32.27,32.27,0,0,1,96.74,457a44.84,44.84,0,0,1-2.33-24,32.26,32.26,0,0,1,.84-3.6A5.42,5.42,0,0,1,95.71,428.11Z"/><path class="cls-5" d="M95.26,455.51a12.42,12.42,0,0,0,1.2-.54,6,6,0,0,0,2.3-2.9,17.13,17.13,0,0,0,1.11-5.86c.12-2.35.23-5,.25-8,.07-5.93-.17-13-.86-20.81S97.46,401,96,392.1s-3-17.44-4-25.24A139.16,139.16,0,0,1,90.66,346,83.25,83.25,0,0,1,92,332c.27-1.64.64-2.88.83-3.74l.25-1a1.31,1.31,0,0,1,.11-.32,1.34,1.34,0,0,1,0,.34l-.18,1c-.14.86-.48,2.11-.71,3.75a89.5,89.5,0,0,0-1.16,14,144,144,0,0,0,1.46,20.75c1,7.78,2.58,16.27,4.05,25.21s2.59,17.52,3.25,25.35a201.25,201.25,0,0,1,.72,20.87c0,3-.2,5.66-.35,8A17,17,0,0,1,99,452.17a6,6,0,0,1-2.47,2.91A3.52,3.52,0,0,1,95.26,455.51Z"/><path class="cls-5" d="M64,406.16a9.55,9.55,0,0,1,1.4,1.13c.87.77,2.11,1.9,3.57,3.37a92.91,92.91,0,0,1,10.39,12.45c1.83,2.59,3.45,5.14,4.89,7.47a37.4,37.4,0,0,0,4.18,5.88,12,12,0,0,0,3.83,2.89c1.05.45,1.69.56,1.67.63a1.28,1.28,0,0,1-.47,0,7.31,7.31,0,0,1-1.3-.35,11.35,11.35,0,0,1-4.07-2.81,35,35,0,0,1-4.35-5.88c-1.46-2.31-3.09-4.84-4.91-7.42A109.16,109.16,0,0,0,68.64,411c-1.42-1.5-2.6-2.69-3.42-3.51A9.59,9.59,0,0,1,64,406.16Z"/><path class="cls-6" d="M99,159.36s-14.43-5.41-21-10.82-25.48-35.6-25.48-35.6L62,58.5,38.77,47s-27,64.78-24,76.81S66.58,202.7,66.58,202.7l12,47.47,12.63,42.7s-5.41,2.41-2.41,10.82,6.88,12.08,3,13.83c-6.3,2.86-2.14,7.88-2.14,7.88l101.48,2.49s-13-82.39-10.76-97.43c2.28-15.34.08-41.51.08-41.51l-23.11-7Z"/><path class="cls-6" d="M180.45,189c10.53,4.84,21.74,73.47,21.74,73.47l24.58-26.14,15,18.92s-21.23,37.29-26.11,41.08c-4.12,3.21-16.52,12.89-24.88,9.58s-13.58-62.68-13.58-62.68Z"/><path class="cls-6" d="M109.9,165.27s-1.24-8,1.4-6.81c.11.05,37.27,11.72,37,14.31-.22,2.19.26,9.14.26,9.14H124Z"/><path class="cls-2" d="M86.81,217.45a11.73,11.73,0,0,1,0-2c0-.64,0-1.42,0-2.33s0-1.94-.07-3.08a72.89,72.89,0,0,0-.77-8,78.34,78.34,0,0,0-2.15-9.57,78.32,78.32,0,0,0-3.44-9.19,72.9,72.9,0,0,0-3.72-7.1c-.56-1-1.15-1.85-1.63-2.62s-.92-1.42-1.3-1.94A11.73,11.73,0,0,1,72.67,170,11.65,11.65,0,0,1,74,171.51c.4.5.88,1.12,1.39,1.88S76.48,175,77.07,176a64.91,64.91,0,0,1,3.87,7.09,72.75,72.75,0,0,1,3.52,9.25A72.75,72.75,0,0,1,86.58,202a64.9,64.9,0,0,1,.64,8.05c.05,1.15,0,2.19,0,3.1s-.07,1.7-.13,2.34A11.65,11.65,0,0,1,86.81,217.45Z"/><path class="cls-2" d="M106.22,306a10.77,10.77,0,0,1-2.83-1.21,33.28,33.28,0,0,1-11.16-9.71,10.78,10.78,0,0,1-1.59-2.64c.17-.13,2.69,3.87,7,7.63S106.33,305.86,106.22,306Z"/><path class="cls-2" d="M137.31,317.75a8.79,8.79,0,0,1-1.63.59,43.17,43.17,0,0,1-4.57,1.18,56.44,56.44,0,0,1-6.94,1,58.36,58.36,0,0,1-17.09-1.15,56.45,56.45,0,0,1-6.74-1.91A43.17,43.17,0,0,1,96,315.68a8.8,8.8,0,0,1-1.53-.8,8.84,8.84,0,0,1,1.63.57c1,.42,2.54,1,4.42,1.57a64.63,64.63,0,0,0,6.72,1.76,62.85,62.85,0,0,0,16.92,1.14,64.68,64.68,0,0,0,6.89-.85c1.95-.35,3.52-.69,4.59-1A8.85,8.85,0,0,1,137.31,317.75Z"/><path class="cls-2" d="M171.12,255.2a2.19,2.19,0,0,1,.11.61c0,.4.13,1,.15,1.75a37.83,37.83,0,0,1-.21,6.47A41.14,41.14,0,0,1,147,297.09a37.83,37.83,0,0,1-6.11,2.15c-.74.21-1.33.3-1.72.38a2.18,2.18,0,0,1-.61.08,21.5,21.5,0,0,1,2.26-.71,44.6,44.6,0,0,0,6-2.32,42,42,0,0,0,24-32.7,44.6,44.6,0,0,0,.41-6.41A21.5,21.5,0,0,1,171.12,255.2Z"/><path class="cls-2" d="M180.6,211.49a6.87,6.87,0,0,1,0,1.09l-.14,3.12c-.09,1.35-.14,3-.16,4.94s-.09,4.12,0,6.54c0,4.85.27,10.62.66,17s1.1,13.42,1.93,20.77c1.69,14.71,3.62,28,4.9,37.61.64,4.81,1.15,8.71,1.46,11.41l.35,3.11a6.84,6.84,0,0,1,.08,1.09,6.85,6.85,0,0,1-.21-1.07l-.47-3.09-1.66-11.38c-1.39-9.61-3.4-22.87-5.09-37.6-.83-7.36-1.47-14.4-1.88-20.81s-.59-12.2-.52-17.06c0-2.43.05-4.63.14-6.56s.14-3.59.27-4.94l.27-3.12A6.81,6.81,0,0,1,180.6,211.49Z"/><path class="cls-2" d="M148.33,178.43a6.62,6.62,0,0,1-1.56.46,22.05,22.05,0,0,1-4.42.5,28.28,28.28,0,0,1-6.57-.71,45.81,45.81,0,0,1-7.67-2.52,73.6,73.6,0,0,1-12.73-7.2c-1.54-1.06-2.77-1.94-3.61-2.56a7.76,7.76,0,0,1-1.27-1,7.84,7.84,0,0,1,1.41.81l3.72,2.39a85.94,85.94,0,0,0,12.73,7,48.87,48.87,0,0,0,7.56,2.53,30,30,0,0,0,6.43.83A44.81,44.81,0,0,0,148.33,178.43Z"/><ellipse class="cls-2" cx="200.48" cy="271.06" rx="9.53" ry="0.33" transform="translate(-103.16 417.57) rotate(-79.27)"/><g class="cls-10"><path d="M140.36,299.18a51.14,51.14,0,0,1-10.53,2.2c-1.57.16-3.3.2-4.54-.78a4.06,4.06,0,0,1-1-4.6,6.69,6.69,0,0,1,3.55-3.42c5.5-2.52,12.57.18,17.67-3.06,2.56-1.63,4.06-4.44,5.87-6.88a28.66,28.66,0,0,1,12.18-9.43,3,3,0,0,1,2.14-.27c1.55.58,1.22,2.87.52,4.36-5.21,11-13.87,19.49-25.83,21.89"/></g><g class="cls-10"><path d="M180.31,230.63c7.48,18.28,4.85,39.92,14.49,57.16,1.83,3.27,4.13,6.46,4.55,10.18s-2,8.12-5.76,8.1a6.83,6.83,0,0,1-5.79-3.5c-1.07-2.06-1-4.71-1.25-7-1.63-14.11-4-28.24-5.26-42.39-.69-7.48-.47-15-1.06-22.46"/></g><g class="cls-10"><path d="M112,166.49a73.89,73.89,0,0,0,20.12,16.44,20.25,20.25,0,0,0,5.95,2.42,8.34,8.34,0,0,0,6.2-1,4,4,0,0,0,1.71-2.18,2.3,2.3,0,0,0-.85-2.51,3.87,3.87,0,0,0-1.9-.42c-11.3-.6-22.13-6.51-31.23-12.73"/></g><path class="cls-2" d="M122,172.53c-.13.1-1.36-2.17-1.23-5.24s1.5-5.24,1.62-5.13-.88,2.26-1,5.16S122.16,172.46,122,172.53Z"/><path class="cls-2" d="M134.64,177.67c-.19,0,.39-2.54.31-5.65s-.75-5.57-.56-5.63,1.15,2.39,1.21,5.61S134.79,177.73,134.64,177.67Z"/><path class="cls-2" d="M143.57,179.77c-.18-.08.58-2,.71-4.44s-.36-4.45-.17-4.5,1,1.93.82,4.54S143.71,179.86,143.57,179.77Z"/><path class="cls-2" d="M113.37,167.48c-.13.11-1.25-1.73-1-4.26a5.52,5.52,0,0,1,1-3,1.36,1.36,0,0,1,.9-.5c.26,0,.37.08.37.11s-.52.05-.9.67a6.72,6.72,0,0,0-.75,2.78C112.78,165.59,113.55,167.41,113.37,167.48Z"/><path class="cls-2" d="M42.26,116.89c-.1-.13,2-1.79,5.07-2.91s5.74-1.25,5.75-1.08-2.55.58-5.52,1.69S42.37,117.05,42.26,116.89Z"/><path class="cls-11" d="M179.19,235.64l-1.05-.24-3-.75c-1.3-.33-2.9-.73-4.77-1.15s-4-.94-6.34-1.41c-4.7-1-10.34-2.06-16.62-3.06s-13.23-1.85-20.54-2.5-14.31-1-20.67-1.11-12.09-.06-16.9.12c-2.41.05-4.58.19-6.49.28s-3.55.2-4.89.3l-3.09.21-1.08.06s5.92-.65,15.55-1c4.81-.2,10.55-.27,16.91-.17s13.36.47,20.68,1.09,14.26,1.55,20.55,2.52,11.92,2.08,16.62,3.11C173.47,234,179.19,235.64,179.19,235.64Z"/><path class="cls-11" d="M168.87,272.82l-.84-.1-2.41-.35c-1-.17-2.33-.31-3.82-.49s-3.19-.36-5.07-.52c-7.53-.71-18-1.16-29.51-1.13s-22,.53-29.53,1c-3.77.23-6.82.48-8.93.65l-2.43.2-.85.05.84-.1,2.42-.25c2.11-.2,5.15-.48,8.93-.74,7.54-.55,18-1,29.54-1.1s22,.45,29.52,1.21S168.87,272.82,168.87,272.82Z"/><path class="cls-11" d="M183.87,280.35a3.55,3.55,0,0,1-.69,0l-1.88-.12-6.21-.49-6.2-.56L167,279a3.54,3.54,0,0,1-.69-.11,3.53,3.53,0,0,1,.69,0l1.88.12,6.21.49,6.2.56,1.88.2A3.54,3.54,0,0,1,183.87,280.35Z"/><path class="cls-11" d="M189.57,322.5l-1-.19c-.66-.13-1.63-.37-2.89-.55a71.17,71.17,0,0,0-10.78-1,148.89,148.89,0,0,0-16.05.7c-6,.52-12.65,1.27-19.63,1.63a236.65,236.65,0,0,1-35.76-.79c-9.12-.92-14.69-2-14.69-2l1,.13,2.92.41c2.54.34,6.21.81,10.77,1.24a244.25,244.25,0,0,0,35.73.72c7-.35,13.59-1.1,19.63-1.6a145.18,145.18,0,0,1,16.08-.64,68.41,68.41,0,0,1,10.79,1c1.27.2,2.23.45,2.89.6Z"/><path class="cls-11" d="M186.6,205.47l-1.11-.31-3.17-.94-11.65-3.46c-9.84-2.9-23.47-6.81-38.58-10.9s-28.86-7.57-38.82-10L81.48,177l-3.21-.78-1.12-.29,1.13.24,3.22.73,11.82,2.8c10,2.41,23.72,5.87,38.84,9.95s28.73,8,38.56,11l11.63,3.54,3.15,1Z"/><path class="cls-11" d="M83.2,185.42l-.22.08-.64.18-2.37.63-7.84,2c-1.53.39-3,.72-4.31,1.1a10.25,10.25,0,0,0-3.24,1.51,6,6,0,0,0-2,2.57,3,3,0,0,1,.31-.85,5.73,5.73,0,0,1,1.61-1.87,10.1,10.1,0,0,1,3.29-1.59c1.32-.4,2.78-.73,4.32-1.12l7.86-1.91,2.39-.55.65-.14Z"/><path class="cls-11" d="M71.91,143l-.4.05-1.16.1c-1,.07-2.47.22-4.26.48a65,65,0,0,0-26.25,9.83c-1.52,1-2.72,1.82-3.52,2.44l-.94.69a2.37,2.37,0,0,1-.34.23,48.34,48.34,0,0,1,4.7-3.51,62.16,62.16,0,0,1,26.33-9.86A48.36,48.36,0,0,1,71.91,143Z"/><path class="cls-11" d="M53.91,106.66a2,2,0,0,1-.32-.19l-.87-.58c-.75-.52-1.86-1.22-3.27-2A47.24,47.24,0,0,0,37.73,99a44.94,44.94,0,0,0-12.6-1.33c-1.62.07-2.94.17-3.84.29l-1,.12-.37,0a35.85,35.85,0,0,1,5.24-.62,43.1,43.1,0,0,1,12.67,1.26,45.19,45.19,0,0,1,11.75,4.9A38.85,38.85,0,0,1,53.91,106.66Z"/><path class="cls-11" d="M58.29,69.38a1.07,1.07,0,0,1-.2-.18l-.54-.56c-.46-.49-1.16-1.17-2-2a35,35,0,0,0-16.58-8.26c-1.18-.23-2.14-.38-2.81-.45l-.77-.1-.27-.05h.27l.77,0a25.89,25.89,0,0,1,2.83.37,33.27,33.27,0,0,1,16.67,8.3,25.89,25.89,0,0,1,2,2l.51.59A1.06,1.06,0,0,1,58.29,69.38Z"/><path class="cls-11" d="M199.48,250.27a4,4,0,0,1-.73.09c-.47,0-1.16.11-2,.23a28,28,0,0,0-12.18,4.82c-.69.49-1.24.9-1.61,1.2a4,4,0,0,1-.59.44,4,4,0,0,1,.53-.52,19.3,19.3,0,0,1,1.56-1.27,25.79,25.79,0,0,1,12.26-4.86,19.34,19.34,0,0,1,2-.14A4,4,0,0,1,199.48,250.27Z"/><path class="cls-11" d="M227.13,278.24a20.69,20.69,0,0,1-4.06-2,26,26,0,0,1-3.9-3,27.32,27.32,0,0,1-6.73-10,26.06,26.06,0,0,1-1.35-4.75,20.7,20.7,0,0,1-.38-4.53,1.46,1.46,0,0,1,0,.31l.07.9a12.13,12.13,0,0,0,.15,1.42c.08.55.14,1.18.31,1.86a27.19,27.19,0,0,0,1.39,4.7,27.92,27.92,0,0,0,6.67,9.88,27.19,27.19,0,0,0,3.84,3c.57.41,1.13.7,1.61,1a12.17,12.17,0,0,0,1.26.66l.81.4A1.47,1.47,0,0,1,227.13,278.24Z"/><path class="cls-15" d="M401,172.23l.4,1.29a1.83,1.83,0,0,0,1.2,1.2l1.3.4-1.3.44a1.83,1.83,0,0,0-1.14,1.13L401,178l-.51-1.38a1.83,1.83,0,0,0-1.14-1.1l-1.25-.41,1.23-.42a1.83,1.83,0,0,0,1.12-1.07Z"/><path class="cls-15" d="M359.36,113.33l.4,1.29a1.83,1.83,0,0,0,1.2,1.2l1.3.4-1.3.44a1.83,1.83,0,0,0-1.14,1.13l-.46,1.32-.51-1.38a1.83,1.83,0,0,0-1.14-1.1l-1.25-.41,1.23-.42a1.83,1.83,0,0,0,1.12-1.07Z"/><path class="cls-15" d="M217.32,368.39l.4,1.29a1.83,1.83,0,0,0,1.2,1.2l1.3.4-1.3.44a1.83,1.83,0,0,0-1.14,1.13l-.46,1.32-.51-1.38a1.83,1.83,0,0,0-1.14-1.1l-1.25-.41,1.23-.42a1.83,1.83,0,0,0,1.12-1.07Z"/><path class="cls-15" d="M359.36,327.3l.4,1.29a1.83,1.83,0,0,0,1.2,1.2l1.3.4-1.3.44a1.83,1.83,0,0,0-1.14,1.13l-.46,1.32-.51-1.38a1.83,1.83,0,0,0-1.14-1.1l-1.25-.41,1.23-.42a1.83,1.83,0,0,0,1.12-1.07Z"/><path class="cls-15" d="M389.2,121.47l1.65,5.3a7.51,7.51,0,0,0,4.93,4.94l5.31,1.66-5.34,1.82a7.51,7.51,0,0,0-4.67,4.65l-1.88,5.43-2.09-5.67a7.51,7.51,0,0,0-4.68-4.53l-5.12-1.69,5-1.71a7.51,7.51,0,0,0,4.59-4.38Z"/><path class="cls-15" d="M267,426.25l1.65,5.3a7.51,7.51,0,0,0,4.93,4.94l5.31,1.66L273.56,440a7.51,7.51,0,0,0-4.67,4.65L267,450l-2.09-5.67a7.5,7.5,0,0,0-4.68-4.53l-5.12-1.69,5-1.71a7.51,7.51,0,0,0,4.59-4.38Z"/><path class="cls-15" d="M245.13,170.12l.68,2.19a3.1,3.1,0,0,0,2,2L250,175l-2.2.75a3.1,3.1,0,0,0-1.93,1.92l-.78,2.24-.86-2.34a3.1,3.1,0,0,0-1.93-1.87l-2.11-.7,2.08-.71a3.1,3.1,0,0,0,1.89-1.81Z"/><path class="cls-15" d="M302.79,415.32l.68,2.19a3.1,3.1,0,0,0,2,2l2.19.68-2.2.75a3.1,3.1,0,0,0-1.93,1.92l-.78,2.24-.86-2.34a3.1,3.1,0,0,0-1.93-1.87l-2.11-.7,2.08-.7a3.1,3.1,0,0,0,1.89-1.81Z"/><path class="cls-15" d="M274.58,280.35C274.53,281.54,243.77,385,243.77,385l26.48-11.85,14.51,32,18.65-123.19Z"/><polygon class="cls-15" points="297.13 284.71 303.41 403.32 326.48 370.79 356.3 392.11 326.48 275.62 297.13 284.71"/><g class="cls-16"><path d="M272.58,288.18a11.36,11.36,0,0,0,10.16,8c2.71.11,5.7-.71,8,.75s3.26,4.91,5.94,5.29c3.16.44,5-3.77,8-4.76,4.06-1.33,8.32,3.57,12.32,2.07,2.59-1,3.81-4.3,6.48-5a9.11,9.11,0,0,1,3.61.12,7,7,0,0,0,4.08-.77l-1.46-5.72L327.19,277h-53.6Z"/></g><path class="cls-15" d="M303.91,195.83a35.39,35.39,0,0,1,7.74,1.55,3.32,3.32,0,0,1,.24-1.24L318.67,178l.16-.14a5.93,5.93,0,0,1-2.24-2.25,7,7,0,0,0-6.09-3.26c-1.22,5.15-2.74,12.21-3.84,16.6A19.56,19.56,0,0,1,303.91,195.83Z"/><path class="cls-15" d="M271.27,251.08a35.44,35.44,0,0,1-4-8,3,3,0,0,1-1.25.73l-.53.18a6.94,6.94,0,0,1-1,.56,30.73,30.73,0,0,1-3.48,1.11l-4.28,1.19c-3,.83-5.8,1.54-7.81,2a17.06,17.06,0,0,1-3.28.65,17.07,17.07,0,0,1,3.16-1.1l2.72-.8L245.18,249c-.81,3.55-3.32,7.36-1.11,10.08a4,4,0,0,0,.81.74c8-3,18.19-6.77,24.89-8.54A4.29,4.29,0,0,1,271.27,251.08Z"/><path class="cls-15" d="M291.78,194.94c0,.35,0,.66,0,.93s0,.65,0,1a35.61,35.61,0,0,1,8.79-1.15c0-.16,0-.32,0-.48l.41-6.58c0-.44,0-.89,0-1.35.08-4.73.27-8.64.43-9.41-1.32-1.56-2.58-4.84-5.27-5.19-2.22-.29-3.37,0-4.3.9C291.92,180.15,291.76,188.47,291.78,194.94Z"/><path class="cls-17" d="M257.22,218c.56.22,1.11.41,1.66.6-2.35-.93-4.74-1.93-7-2.91C253.42,216.42,255.23,217.22,257.22,218Z"/><path class="cls-15" d="M265.27,229.48a35.46,35.46,0,0,1,1.35-8.11c-.7-.21-1.42-.45-2.16-.7A36.64,36.64,0,0,1,257,218.6a71.2,71.2,0,0,1-7.94-3.71c-1.37-.74-2.35-1.3-2.81-1.61l-1.5-.64c-1,1.59-2.51,2.89-3.56,4.47a5.75,5.75,0,0,0-.89,3c8.14,2.24,18,5.17,24.82,9.25Z"/><path class="cls-15" d="M268,217.42a35.48,35.48,0,0,1,3.72-6.67l-.54-.35a63.39,63.39,0,0,1-11.25-9.55l-.08-.09c-1.53-1.32-3-2.59-4.27-3.74a3.65,3.65,0,0,1-.86,1.46c-1.94,1.94-5.57.68-7.71,2.4a3.84,3.84,0,0,0-1.36,2.49,216.45,216.45,0,0,1,19.72,12.41C266.43,216.42,267.34,217,268,217.42Z"/><path class="cls-15" d="M271.41,205.09c.87,1.22,1.66,2.33,2.24,3.18a35.75,35.75,0,0,1,6.64-6.08c-.75-1-1.68-2.18-2.7-3.57-.92-1.05-2-2.29-3-3.66-1.6-2-3-3.88-3.92-5.27a10.82,10.82,0,0,1-1.42-2.33c.05,0,.39.34.93,1-.88-1.21-1.71-2.32-2.43-3.27a6.63,6.63,0,0,1-2.4,2.84c-1.58.94-3.66.89-5.45,1.28a134.21,134.21,0,0,1,10,13.65Z"/><path class="cls-15" d="M282.49,200.74a35.39,35.39,0,0,1,6.48-3l-.25-.84c-.48-1.69-1.07-4-1.58-6.68s-.86-5-1-6.78a20.18,20.18,0,0,1-.17-2.71l-.07-.49a6.33,6.33,0,0,1-4.66-1.51c-2.07-1.86-5.56-1.62-8.26-.45,2.84,6.86,7.11,16.27,9.47,22.26Z"/><path class="cls-17" d="M273.33,208.64l-.09-.11.07.13Z"/><path class="cls-15" d="M266.61,241.09a35.49,35.49,0,0,1-1.36-8.6l-.21,0c-2.48.13-5.42.09-8.5,0-.94,0-1.9,0-2.92,0-3-.06-5.67-.24-7.61-.43-.88-.09-1.6-.17-2.13-.25l-1.9-.11c-.42.65-.85,1.3-1.23,2-1.08,1.91-1.77,4.32-.74,6.26,0,.06.08.11.11.17q12.41.29,24.81.73A4.29,4.29,0,0,1,266.61,241.09Z"/><path class="cls-15" d="M278.24,259.49l.52-.33a35.76,35.76,0,0,1-6.3-6.42,3,3,0,0,1-1,1,2.57,2.57,0,0,1-.71,1c-1.6,1.22-3.86,2.64-6.36,4.28s-4.79,3.06-6.47,4.07a15.34,15.34,0,0,1-2.78,1.52,15.34,15.34,0,0,1,2.53-1.91c.92-.63,2.05-1.4,3.31-2.23-2.42,1.47-4.86,2.93-7.05,4.27.41,1.84-.24,4,.61,5.73s2.6,2.26,4.56,2.61L274,262A18.35,18.35,0,0,1,278.24,259.49Z"/><path class="cls-17" d="M346.2,265.24l2,1.6.13-.13-.66-.45Z"/><path class="cls-15" d="M327.62,254.55a35.75,35.75,0,0,1-6.37,5.76,20.12,20.12,0,0,1,1.84,2.15l.21.15a13.36,13.36,0,0,1,2.44,3.45l2.58,4.4.09.15c1.67,2.79,3.34,5.69,4.82,8.22a3.89,3.89,0,0,1,.74-1.12c2.6-2.71,7.87-.06,10.63-2.61a4,4,0,0,0,.69-.87c-5.06-5.52-11.82-13.25-16.11-17.77A11.16,11.16,0,0,1,327.62,254.55Zm2,5.93c.17-.09,1.4,2,3.1,4.47s3.22,4.35,3.08,4.48-1.9-1.61-3.62-4.11S329.46,260.55,329.61,260.48Z"/><path class="cls-17" d="M301.68,178.1l-.08-.09c0,.15,0,.35,0,.61Z"/><path class="cls-15" d="M336.1,235.37a35.33,35.33,0,0,1-1.71,7.51c.33.14.66.3,1,.46l3.45,1.8a22.2,22.2,0,0,1-3.35-2.07c.09-.16,4.82,2.21,10.57,5.3,2.55,1.37,4.88,2.65,6.67,3.66l1.16.5a5.16,5.16,0,0,1,.26-1.73c1-2.81,4.57-4.29,5.81-6.77C352.38,241.26,342.67,237.82,336.1,235.37Z"/><path class="cls-15" d="M329.3,252.5l2.56,1.93.34.23c2.05,1.39,4.86,3.34,7.94,5.53s5.84,4.2,7.83,5.69l.75.57c1.21-.9,2.74-1.46,4-2.24-6.43-5.63-14-13.4-19.8-17.83A35.55,35.55,0,0,1,329.3,252.5Z"/><path class="cls-15" d="M288.57,265.22a6.59,6.59,0,0,0-.38-.72,35.41,35.41,0,0,1-6.53-3.28l-.17.22c-.46.56-1,1.17-1.56,1.8-1,1.25-2.43,2.87-4,4.6s-3.33,3.45-4.54,4.57a10.47,10.47,0,0,1-2.05,1.72s.12-.24.4-.57c-1,1-2,2-2.86,3,1.38,2.86.05,7,2.36,9.36a4,4,0,0,0,1.47.93c5-6.71,11.81-15.41,16.66-20.8A2.06,2.06,0,0,1,288.57,265.22Z"/><path class="cls-15" d="M302.83,266.74a3,3,0,0,1,.56,1.64,7.75,7.75,0,0,1,.26,3.83L303,277c-.3,2.27-.6,4.38-.87,6.2-.19,2.4-.38,4.74-.59,6.86,1.39,1,2.7,2.42,4.33,2.95,2.4.78,4.54-.39,6.66-1.94-.48-8-.91-18-.59-25.14l.37.87c-.1-.41-.14-.65-.11-.66a13.81,13.81,0,0,1,1.19,2.84c.65,1.79,1.48,4.28,2.29,7.06.23.77.44,1.52.64,2.25.87,3,1.63,6,2.21,8.74a6.74,6.74,0,0,1,2.81-.58c2.2.07,4.53,1.38,6.61,1.65-3.53-8.54-7.3-19.23-8.74-26.54A35.36,35.36,0,0,1,302.83,266.74Zm4.54,13.6c-.18,0-.21-1.58-.27-3.51s-.12-3.49.07-3.52.53,1.53.58,3.5S307.54,280.36,307.37,280.35Z"/><path class="cls-15" d="M299.41,266.89l.14-.12a35.43,35.43,0,0,1-11.09-2.16,3.83,3.83,0,0,1,.29.4c0,.07.08.15.13.23.73.2,1,1.24.87,2a9.78,9.78,0,0,1-.21,1.17,10.75,10.75,0,0,1-.73,3.24c-.55,1.44-1.28,2.93-2.05,4.5a83.65,83.65,0,0,1-4.41,7.79c-.74,1.15-1.34,2-1.72,2.5a5.86,5.86,0,0,1,1.33.33c3.48,1.36,5.37,6.43,9.09,6l.34-.06c2.18-6.94,4.36-16.54,6.53-23A7.25,7.25,0,0,1,299.41,266.89Z"/><path class="cls-15" d="M330.3,211.41q.61-.56,1.27-1.08a6.85,6.85,0,0,1,1.66-1.64c1-.7,2.09-1.38,3.26-2.1,2.34-1.43,4.52-2.6,6.13-3.4,1.1-.54,1.91-.91,2.34-1.06q1.13-.65,2.22-1.31l0,0c-2.2-3.46.65-8.69-1.94-11.87a4.46,4.46,0,0,0-.38-.4c-6.52,4.83-14.93,10.31-22.24,14.63A35.74,35.74,0,0,1,330.3,211.41Zm1.56-14c2.52-1.62,4.52-3,4.64-2.87s-1.73,1.78-4.28,3.42-4.81,2.63-4.89,2.48S329.34,199.06,331.87,197.43Z"/><path class="cls-15" d="M335.87,225.49a35.79,35.79,0,0,1,.47,5.75c0,.36,0,.71,0,1.06h.59c1,0,2.09.1,3.13.18l.74,0c2.15.06,5.12.2,8.39.45,3.06.23,5.84.51,7.94.76.52-2.36,3.44-3.54,4.3-5.83a4.82,4.82,0,0,0-.25-3.59c-7.64.43-18,1.06-24.33,1.21C336.5,225.51,336.19,225.51,335.87,225.49Z"/><path class="cls-15" d="M327.2,181.24l-12.68,15.94a4.23,4.23,0,0,1-.95.87,35.47,35.47,0,0,1,7.87,4.25l.17-.23h0a3.65,3.65,0,0,1,.77-1.22c.56-.65,1.24-1.41,2-2.23,3.73-4.5,8-9.06,11.6-12.84a5.54,5.54,0,0,1-2-1.24c-1.57-1.59-1.91-4.23-3.78-5.44a4.15,4.15,0,0,0-2-.63s0,.09,0,.14A3.7,3.7,0,0,1,327.2,181.24Z"/><path class="cls-15" d="M335.05,221.75l1-.46a17.2,17.2,0,0,1,2.44-1.11c1.55-.63,3.71-1.46,6.1-2.34s4.58-1.64,6.17-2.16a11.4,11.4,0,0,1,2.63-.72s-.31.22-.9.49l3.22-1.06c-.05-2.61.73-5.37-.59-7.58a5.4,5.4,0,0,0-1.31-1.42c-6.82,2.75-16.13,7.08-22.11,8.34A35.33,35.33,0,0,1,335.05,221.75Z"/><path class="cls-17" d="M357,234.23v0l-2.79-.21Q355.63,234.12,357,234.23Z"/><path class="cls-17" d="M289.17,196.74l.18.83.19-.06c-.18-.45-.35-.94-.52-1.48Z"/><path class="cls-17" d="M342.74,187.3h0Z"/><path d="M321.55,202.38a1.54,1.54,0,0,1,.07-.3l-.17.23Z"/><path class="cls-17" d="M330.9,212.34a3.49,3.49,0,0,1,.22-1.17,3.77,3.77,0,0,1,.45-.83q-.66.52-1.27,1.08C330.51,211.71,330.7,212,330.9,212.34Z"/><path d="M353.86,252.7c0-.06,0-.11,0-.17l-1.16-.5Z"/><path d="M331.85,254.43l-2.56-1.93-.15.19C329.63,253,330.57,253.57,331.85,254.43Z"/><path d="M332.87,278.52l.28.51c0-.06,0-.13.08-.2-1.48-2.53-3.15-5.43-4.82-8.22C330.18,273.68,331.76,276.47,332.87,278.52Z"/><path class="cls-17" d="M302.1,266.77a3.51,3.51,0,0,1,1.21,1.39c0,.07,0,.15.08.22a3,3,0,0,0-.56-1.64Z"/><path class="cls-17" d="M288.89,265.24a5.73,5.73,0,0,1,.67,2.42,6.49,6.49,0,0,1,0,.79,9.78,9.78,0,0,0,.21-1.17C289.84,266.48,289.62,265.45,288.89,265.24Z"/><path d="M281.67,261.22l-.11-.07c-.24.36-.72,1-1.41,1.85l-.2.24c.57-.63,1.1-1.24,1.56-1.8Z"/><path d="M266.87,220.52a2.81,2.81,0,0,1-1.37.3c-.32,0-.69-.1-1-.15.74.25,1.46.49,2.16.7C266.7,221.09,266.78,220.8,266.87,220.52Z"/><path d="M280.72,201.88a12,12,0,0,1-1.94-1.91c-.36-.4-.77-.86-1.2-1.35,1,1.38,1.94,2.61,2.7,3.57Z"/><path d="M291.68,196.86l.11,0c0-.31,0-.64,0-1A4.48,4.48,0,0,1,291.68,196.86Z"/><path d="M300.58,195.69h.48c-.06-1.42-.08-4,0-7.06l-.41,6.58C300.59,195.37,300.59,195.53,300.58,195.69Z"/><path class="cls-15" d="M311.89,196.14a3.32,3.32,0,0,0-.24,1.24c.65.21,1.29.44,1.93.68a4.23,4.23,0,0,0,.95-.87l12.68-15.94a3.7,3.7,0,0,0,1.12-2.63c0-.05,0-.09,0-.14-2.28-.19-4.92,1-7.2.24a16.69,16.69,0,0,1-1.61-.57c-.66,2-1.73,5-3,8.36-2.19,5.85-4.11,10.55-4.27,10.48s1.47-4.86,3.66-10.71c1.27-3.39,2.44-6.38,3.24-8.3l-.28-.15-.16.14Zm6.61-5.22c1.94-2.47,3.52-4.48,3.67-4.37s-1.2,2.29-3.16,4.77-3.76,4.31-3.89,4.2S316.56,193.39,318.5,190.92Z"/><path class="cls-15" d="M327.73,194.92c2.11-2.29,4-4.34,5.47-5.8a16.72,16.72,0,0,1,2.41-2.28,16.73,16.73,0,0,1-2.07,2.59c-1.34,1.54-3.22,3.64-5.33,5.93s-4,4.34-5.47,5.8a2.54,2.54,0,0,0-.87,1.45l.72.55c7.32-4.33,15.72-9.81,22.24-14.63a5.57,5.57,0,0,0-2-1.21h0c-2.1-.73-4.69-.7-6.77-1.52-3.57,3.78-7.88,8.34-11.6,12.84C325.38,197.49,326.51,196.24,327.73,194.92Z"/><path class="cls-15" d="M345.29,202.06a14.32,14.32,0,0,1-2.46,1.55c-1.55.9-3.68,2.13-6,3.55s-4.61,2.58-5.28,4.19a3.3,3.3,0,0,0-.3,1.55c.17.28.33.57.49.85,6-1.25,15.3-5.58,22.11-8.34-2.07-1.66-5.19-2.31-6.67-4.58q-1.09.66-2.22,1.31C345.16,202.07,345.28,202,345.29,202.06Zm-4.39,7.45c-1.94.85-3.53,1.51-3.61,1.35s1.39-1.08,3.35-1.94,3.64-1.32,3.7-1.15S342.84,208.66,340.9,209.51Z"/><path class="cls-15" d="M351,216.12c-1.55.63-3.71,1.46-6.11,2.34s-4.59,1.64-6.18,2.16a11.23,11.23,0,0,1-2.62.71s0,0,0,0l-1,.46a35.34,35.34,0,0,1,.82,3.74c.31,0,.63,0,.94,0,6.37-.15,16.69-.78,24.33-1.21a10.54,10.54,0,0,0-1.48-2.43c-1.36-1.71-3-3.29-3.65-5.39a8,8,0,0,1-.27-2.06l-3.22,1.06Z"/><path class="cls-15" d="M349.12,233.6l-8.36-.63a19.25,19.25,0,0,1-3.46-.4,12.63,12.63,0,0,1,2.74-.07c-1-.08-2.08-.14-3.13-.18h-.59q0,1.55-.22,3.07c6.57,2.46,16.28,5.9,23.83,8.66a3.84,3.84,0,0,0,.43-1.63c.08-3-3.51-5.27-3.33-8.17q-1.39-.11-2.79-.24Z"/><path class="cls-15" d="M338.82,245.14l-3.45-1.8c-.32-.16-.65-.33-1-.46a35.34,35.34,0,0,1-1.43,3.51c5.78,4.43,13.37,12.2,19.8,17.83a5.32,5.32,0,0,0,2-1.86c1.56-2.72-.56-6-.86-9.17-1.94-1-4.89-2.48-8.16-4.24C343.05,247.51,340.64,246.18,338.82,245.14Z"/><path class="cls-15" d="M339.76,260.73c-3.08-2.19-5.85-4.21-7.83-5.69-1.41-1.06-2.42-1.84-2.87-2.23-.46.6-.94,1.18-1.43,1.75a11.16,11.16,0,0,0,1.55,1.91c4.29,4.52,11.05,12.25,16.11,17.77,1.18-1.95.9-4.79,2.3-6.7a4.77,4.77,0,0,1,.64-.68l-2-1.6C344.36,264,342.14,262.43,339.76,260.73Z"/><path class="cls-15" d="M327.76,270.79l-2.53-4.42A14.39,14.39,0,0,0,323,263a2.38,2.38,0,0,0-2.41-.54c-.59.22-.75.6-.8.56s.05-.45.7-.79a2.58,2.58,0,0,1,2.6.27,20.12,20.12,0,0,0-1.84-2.15c-.65.46-1.31.9-2,1.32,1.44,7.3,5.21,18,8.74,26.54a3.73,3.73,0,0,0,2.9-.65c2.22-1.71,1.31-5.28,2.07-8l-.5-.8C331.24,276.73,329.57,273.91,327.76,270.79Z"/><path class="cls-15" d="M317.62,283.28a13.81,13.81,0,0,1,.54,3,15.24,15.24,0,0,1-1-2.92l-2.07-7.11L313,269.18c-.3-1-.52-1.81-.65-2.32L312,266c-.32,7.13.11,17.13.59,25.14,1.95-1.42,3.89-3.15,6-4-.58-2.78-1.34-5.78-2.21-8.74C316.89,280.24,317.32,281.94,317.62,283.28Z"/><path class="cls-15" d="M301.78,285.81a20.54,20.54,0,0,1-.71,3.6,20.51,20.51,0,0,1,.25-3.66c.24-2.25.62-5.36,1.07-8.78l.67-4.83a7.29,7.29,0,0,0-.16-3.79,3.28,3.28,0,0,0-1.36-1.57l-.75,0c-.41,0-.82,0-1.23,0l-.14.12a7.25,7.25,0,0,0-1.48,2.87c-2.18,6.44-4.36,16-6.53,23,2.57-.54,4.24-3.68,6.91-3.85a4.94,4.94,0,0,1,3.26,1.23c.21-2.12.4-4.47.59-6.86C302,284.19,301.9,285,301.78,285.81Z"/><path class="cls-15" d="M286.18,275.89c.76-1.56,1.51-3,2.07-4.42a9.88,9.88,0,0,0,.83-3.79,6,6,0,0,0-.52-2.46,2.06,2.06,0,0,0-1.25.8c-4.85,5.39-11.69,14.08-16.66,20.8,2.75,1,6.52-.73,9.77-.38.29-.54.84-1.48,1.54-2.71C283.1,281.75,284.63,279,286.18,275.89Z"/><path class="cls-15" d="M269.7,273.57c.88-1,3.13-3.39,5.72-6.17,2.82-3,5.17-5.6,6-6.35q-1.22-.8-2.38-1.69A38.69,38.69,0,0,1,275.9,262c-2,1.59-3.79,2.76-3.9,2.62s1.46-1.54,3.51-3.13c1.05-.82,2-1.52,2.73-2A18.35,18.35,0,0,0,274,262L259.13,273.1c2.57.45,5.49.56,7.1,2.46a4.47,4.47,0,0,1,.61,1C267.71,275.58,268.68,274.59,269.7,273.57Z"/><path class="cls-15" d="M264.06,258.49c2.48-1.63,4.84-3,6.42-4.09a2.1,2.1,0,0,0,.73-.93,1.42,1.42,0,0,0,0-.88c-.17-.48-.51-.57-.48-.62s.41,0,.71.52a1.61,1.61,0,0,1,.12,1.07,1.68,1.68,0,0,1-.07.21,3,3,0,0,0,1-1c-.41-.54-.81-1.09-1.19-1.65a4.29,4.29,0,0,0-1.5.2c-6.69,1.76-16.92,5.59-24.89,8.54,2.56,1.83,7.07,1,8.68,3.85a3.84,3.84,0,0,1,.39,1.09c2.19-1.34,4.63-2.8,7.05-4.27Z"/><path class="cls-15" d="M256.49,246.2l4.29-1.14c1.32-.35,2.52-.61,3.46-1a6.66,6.66,0,0,0,2.7-1.77s-.08.33-.46.79a4.53,4.53,0,0,1-1,.85l.53-.18a3,3,0,0,0,1.25-.73c-.23-.65-.44-1.3-.63-2a4.29,4.29,0,0,0-1.67-.29q-12.4-.44-24.81-.73c1.15,1.95,3.71,2.81,4.78,4.83a5.79,5.79,0,0,1,.28,4.1l6.26-1.39C253,247.18,254.67,246.7,256.49,246.2Z"/><path class="cls-15" d="M242.88,231.55a16.53,16.53,0,0,1,3.16,0c1.94.07,4.63.18,7.59.24s5.65.07,7.59.09a16.53,16.53,0,0,1,3.15.13,14.12,14.12,0,0,1-3.14.33c-1.28.07-2.9.12-4.7.13,3.08.12,6,.16,8.5,0l.21,0c0-.41,0-.83,0-1.25,0-.59,0-1.18,0-1.76l-.18-.11c-6.84-4.08-16.68-7-24.82-9.25,0,1.46.54,2.82,1.92,3.2L242,222.2c2,.88,2.56,3.6,1.93,5.7a15,15,0,0,1-1.95,3.77l1.9.11A2.94,2.94,0,0,1,242.88,231.55Zm17.51-1.76c2.29.4,4.13.88,4.11,1.06s-1.91,0-4.22-.41-4.15-.88-4.11-1.06S258.1,229.38,260.39,229.79Z"/><path class="cls-15" d="M245.92,213a21.05,21.05,0,0,1,3.33,1.44l2.58,1.2c2.31,1,4.7,2,7,2.91a38.55,38.55,0,0,0,6.65,1.76,2.41,2.41,0,0,0,1.35-.22,1.42,1.42,0,0,0,.18-.15q.37-1.11.81-2.18c-1.15-.57-2.9-1.51-4.85-2.64-3.35-1.92-6-3.61-5.9-3.76s2.88,1.28,6.23,3.2l2,1.19a216.45,216.45,0,0,0-19.72-12.41c-.4,2.35.5,5.36-.23,7.79a6.35,6.35,0,0,1-.69,1.48l1.5.64C246,213.15,245.91,213.06,245.92,213Z"/><path class="cls-15" d="M258,198.47a16.84,16.84,0,0,1,2.26,2.05c1.36,1.3,3.26,3.07,5.44,4.93s4.24,3.44,5.75,4.57l.52.39c.43-.6.88-1.19,1.35-1.76l-.07-.13c-.66-.78-1.49-1.84-2.36-3.06-1.85-2.58-3.13-4.83-3-4.92a11.13,11.13,0,0,1,1.9,2.32,134.21,134.21,0,0,0-10-13.65,4.58,4.58,0,0,0-2.72,1.46c-1.39,1.69-.87,4.33-1.55,6.34,1.29,1.15,2.74,2.42,4.27,3.74A11.86,11.86,0,0,1,258,198.47Z"/><path class="cls-15" d="M275.05,194.56c3.14,4,5.75,7.11,5.68,7.31q.86-.59,1.76-1.13l-.09-.24c-2.36-6-6.62-15.4-9.47-22.26a10.24,10.24,0,0,0-1.33.68c-2.08,1.3-2.77,4-3.9,6.18.73,1,1.55,2.06,2.43,3.27C271.17,189.62,273,191.94,275.05,194.56Zm3.23-1.81c.17-.06,1,1.8,2,4s2,4,1.82,4.14-1.34-1.58-2.41-3.86S278.11,192.81,278.28,192.75Z"/><path class="cls-15" d="M286,180.55a13.48,13.48,0,0,1,.59,2.78c.3,1.72.71,4.1,1.22,6.72.45,2.28.88,4.34,1.24,6,.17.54.34,1,.52,1.48.67-.22,1.35-.43,2-.62a31.84,31.84,0,0,1-.63-4.14c-.3-2.31-.61-4.18-.43-4.23s.77,1.79,1.08,4.14c.11.83.17,1.6.19,2.26,0-6.46.14-14.78.13-21.36-1,1-1.81,2.71-3.48,5.19a3.43,3.43,0,0,1-2.57,1.43l.07.49C285.93,180.6,285.94,180.55,286,180.55Z"/><path class="cls-15" d="M301.69,187.29c-.06,3.63-.19,6.79-.32,8.41q1.28,0,2.54.13a19.56,19.56,0,0,0,2.74-6.91c1.1-4.39,2.62-11.45,3.84-16.6a5.27,5.27,0,0,0-2.21.65c-1.93,1.06-4.26,5.71-5.48,5.73a1.59,1.59,0,0,1-1.13-.59l0,.52C301.73,180.14,301.75,183.45,301.69,187.29Z"/><path class="cls-2" d="M338.68,220.62c1.59-.52,3.78-1.28,6.18-2.16s4.56-1.71,6.11-2.34l1.56-.66c.59-.26.92-.44.9-.49a11.4,11.4,0,0,0-2.63.72c-1.59.52-3.77,1.28-6.17,2.16s-4.55,1.71-6.1,2.34a17.2,17.2,0,0,0-2.44,1.11s0,0,0,0A11.23,11.23,0,0,0,338.68,220.62Z"/><path class="cls-2" d="M340.78,232.51l-.74,0a12.63,12.63,0,0,0-2.74.07,19.25,19.25,0,0,0,3.46.4l8.36.63,5.12.38,2.79.21a3.25,3.25,0,0,1,0-.33c0-.05,0-.09,0-.14-2.09-.25-4.87-.53-7.94-.76C345.9,232.71,342.93,232.56,340.78,232.51Z"/><path class="cls-2" d="M346,248.37c-5.75-3.09-10.48-5.46-10.57-5.3a22.2,22.2,0,0,0,3.35,2.07c1.82,1,4.24,2.37,6.91,3.8,3.28,1.76,6.22,3.28,8.16,4.24,0-.16,0-.33,0-.49L352.7,252C350.91,251,348.59,249.74,346,248.37Z"/><path class="cls-2" d="M340.13,260.2c-3.08-2.19-5.89-4.15-7.94-5.53l-.34-.23c-1.28-.86-2.22-1.47-2.7-1.75l.15-.19a35.49,35.49,0,0,0,6.8-17.13q.18-1.51.22-3.07c0-.35,0-.7,0-1.06a35.79,35.79,0,0,0-.47-5.75,35.49,35.49,0,0,0-4.14-11.75c-.16-.29-.32-.57-.49-.85a3.3,3.3,0,0,1,.3-1.55c.66-1.61,3-2.74,5.28-4.19s4.46-2.65,6-3.55a14.32,14.32,0,0,0,2.46-1.55s-.14,0-.34.08c-.43.15-1.25.52-2.34,1.06-1.61.8-3.79,2-6.13,3.4-1.17.72-2.27,1.4-3.26,2.1a6.85,6.85,0,0,0-1.66,1.64,3.77,3.77,0,0,0-.45.83,3.49,3.49,0,0,0-.22,1.17c-.2-.31-.39-.62-.6-.93a35.74,35.74,0,0,0-7.72-8.25l-.72-.55a2.54,2.54,0,0,1,.87-1.45c1.42-1.46,3.36-3.51,5.47-5.8s4-4.39,5.33-5.93a16.73,16.73,0,0,0,2.07-2.59,16.72,16.72,0,0,0-2.41,2.28c-1.43,1.46-3.36,3.51-5.47,5.8-1.22,1.33-2.35,2.57-3.36,3.7-.73.82-1.41,1.58-2,2.23a3.65,3.65,0,0,0-.77,1.22h0a1.54,1.54,0,0,0-.07.3l-.11-.08a35.47,35.47,0,0,0-7.87-4.25c-.63-.24-1.28-.47-1.93-.68a35.39,35.39,0,0,0-7.74-1.55q-1.26-.11-2.54-.13c.13-1.62.25-4.77.32-8.41.07-3.84,0-7.15,0-8.67,0-.26,0-.46,0-.61l-.13-.14c-.17.77-.35,4.68-.43,9.41,0,.46,0,.91,0,1.35,0,3.05,0,5.64,0,7.06h-.48a35.61,35.61,0,0,0-8.79,1.15l-.11,0a4.48,4.48,0,0,0,.1-1c0-.27,0-.58,0-.93,0-.66-.08-1.43-.19-2.26-.31-2.35-.91-4.19-1.08-4.14s.13,1.92.43,4.23a31.84,31.84,0,0,0,.63,4.14c-.69.18-1.37.39-2,.62l-.19.06-.18-.83L289,196c-.35-1.63-.79-3.69-1.24-6-.51-2.62-.92-5-1.22-6.72a13.48,13.48,0,0,0-.59-2.78s0,.05,0,.13a20.18,20.18,0,0,0,.17,2.71c.18,1.75.53,4.15,1,6.78s1.1,5,1.58,6.68l.25.84a35.39,35.39,0,0,0-6.48,3q-.9.54-1.76,1.13c.07-.2-2.54-3.36-5.68-7.31-2.09-2.63-3.89-4.94-4.92-6.2-.54-.66-.88-1-.93-1a10.82,10.82,0,0,0,1.42,2.33c1,1.39,2.33,3.26,3.92,5.27,1.09,1.37,2.13,2.61,3,3.66.43.49.84,1,1.2,1.35a12,12,0,0,0,1.94,1.91l-.44.31a35.75,35.75,0,0,0-6.64,6.08c-.58-.85-1.36-2-2.24-3.18l-1.61-2.22a11.13,11.13,0,0,0-1.9-2.32c-.15.1,1.13,2.34,3,4.92.87,1.22,1.7,2.28,2.36,3.06l.09.11,0,0c-.47.57-.91,1.16-1.35,1.76l-.52-.39c-1.51-1.13-3.56-2.71-5.75-4.57s-4.08-3.63-5.44-4.93a16.84,16.84,0,0,0-2.26-2.05,11.86,11.86,0,0,0,1.85,2.29l.08.09a63.39,63.39,0,0,0,11.25,9.55l.54.35a35.48,35.48,0,0,0-3.72,6.67c-.67-.44-1.58-1-2.65-1.64l-2-1.19c-3.35-1.92-6.14-3.36-6.23-3.2s2.55,1.84,5.9,3.76c2,1.12,3.71,2.07,4.85,2.64q-.44,1.07-.81,2.18a1.42,1.42,0,0,1-.18.15,2.41,2.41,0,0,1-1.35.22,38.55,38.55,0,0,1-6.65-1.76c-.55-.19-1.1-.39-1.66-.6-2-.77-3.8-1.57-5.39-2.31l-2.58-1.2a21.05,21.05,0,0,0-3.33-1.44s.1.11.31.25c.46.31,1.44.87,2.81,1.61A71.2,71.2,0,0,0,257,218.6a36.64,36.64,0,0,0,7.48,2.07c.35.05.72.12,1,.15a2.81,2.81,0,0,0,1.37-.3c-.09.28-.17.57-.25.85a35.46,35.46,0,0,0-1.35,8.11c0,.58,0,1.17,0,1.76,0,.42,0,.83,0,1.25a35.49,35.49,0,0,0,1.36,8.6c.19.66.4,1.32.63,2a35.44,35.44,0,0,0,4,8c.38.56.78,1.11,1.19,1.65a35.76,35.76,0,0,0,6.3,6.42l-.52.33c-.71.47-1.68,1.18-2.73,2-2,1.59-3.62,3-3.51,3.13s1.86-1,3.9-2.62a38.69,38.69,0,0,0,3.12-2.64q1.15.89,2.38,1.69c-.82.75-3.16,3.33-6,6.35-2.59,2.78-4.83,5.13-5.72,6.17-.28.33-.43.54-.4.57a10.47,10.47,0,0,0,2.05-1.72c1.2-1.13,2.82-2.73,4.54-4.57s3-3.35,4-4.6l.2-.24c.69-.85,1.18-1.49,1.41-1.85l.11.07a35.41,35.41,0,0,0,6.53,3.28,6.59,6.59,0,0,1,.38.72,6,6,0,0,1,.52,2.46,9.88,9.88,0,0,1-.83,3.79c-.56,1.37-1.31,2.87-2.07,4.42-1.55,3.11-3.08,5.86-4.22,7.84-.7,1.23-1.25,2.16-1.54,2.71l.22,0c.38-.5,1-1.36,1.72-2.5a83.65,83.65,0,0,0,4.41-7.79c.77-1.57,1.5-3.06,2.05-4.5a10.75,10.75,0,0,0,.73-3.24,6.49,6.49,0,0,0,0-.79,5.73,5.73,0,0,0-.67-2.42c0-.08-.08-.17-.13-.23a3.83,3.83,0,0,0-.29-.4,35.43,35.43,0,0,0,11.09,2.16c.41,0,.82,0,1.23,0l.75,0a3.28,3.28,0,0,1,1.36,1.57,7.29,7.29,0,0,1,.16,3.79l-.67,4.83c-.45,3.43-.83,6.53-1.07,8.78a20.51,20.51,0,0,0-.25,3.66,20.54,20.54,0,0,0,.71-3.6c.12-.76.25-1.62.39-2.55.27-1.82.57-3.94.87-6.2l.62-4.83a7.75,7.75,0,0,0-.26-3.83c0-.07,0-.15-.08-.22a3.51,3.51,0,0,0-1.21-1.39l.72,0a35.36,35.36,0,0,0,16.44-5.11c.68-.41,1.34-.86,2-1.32a35.75,35.75,0,0,0,6.37-5.76c.49-.57,1-1.15,1.43-1.75.45.39,1.45,1.17,2.87,2.23,2,1.48,4.75,3.5,7.83,5.69,2.39,1.7,4.61,3.25,6.44,4.51l1.5,1,.66.45c.11-.09.24-.17.35-.26l-.75-.57C346,264.4,343.21,262.39,340.13,260.2Zm-39.35,2.22A31.18,31.18,0,1,1,332,231.24,31.18,31.18,0,0,1,300.78,262.42Z"/><path class="cls-2" d="M335.8,269.43c.14-.13-1.39-2-3.08-4.48s-2.94-4.55-3.1-4.47.83,2.34,2.57,4.84S335.67,269.54,335.8,269.43Z"/><path class="cls-2" d="M328.4,270.61l-.09-.15-2.58-4.4a13.36,13.36,0,0,0-2.44-3.45l-.21-.15a2.58,2.58,0,0,0-2.6-.27c-.65.34-.72.8-.7.79s.21-.34.8-.56A2.38,2.38,0,0,1,323,263a14.39,14.39,0,0,1,2.22,3.4l2.53,4.42c1.81,3.13,3.48,5.94,4.72,8l.5.8a5.54,5.54,0,0,1,.18-.52l-.28-.51C331.76,276.47,330.18,273.68,328.4,270.61Z"/><path class="cls-2" d="M315.1,276.29l2.07,7.11a15.24,15.24,0,0,0,1,2.92,13.81,13.81,0,0,0-.54-3c-.31-1.34-.73-3-1.26-4.93-.2-.73-.41-1.48-.64-2.25-.82-2.78-1.65-5.28-2.29-7.06a13.81,13.81,0,0,0-1.19-2.84s0,.25.11.66.35,1.31.65,2.32Z"/><path class="cls-2" d="M307.17,273.32c-.18,0-.12,1.59-.07,3.52s.08,3.49.27,3.51.44-1.56.38-3.52S307.34,273.3,307.17,273.32Z"/><path class="cls-2" d="M271.44,252.5c-.3-.56-.73-.55-.71-.52s.31.14.48.62a1.42,1.42,0,0,1,0,.88,2.1,2.1,0,0,1-.73.93c-1.57,1.05-3.93,2.46-6.42,4.09l-3.05,2c-1.26.83-2.39,1.6-3.31,2.23a15.34,15.34,0,0,0-2.53,1.91,15.34,15.34,0,0,0,2.78-1.52c1.67-1,4-2.45,6.47-4.07s4.75-3.06,6.36-4.28a2.57,2.57,0,0,0,.71-1,1.68,1.68,0,0,0,.07-.21A1.61,1.61,0,0,0,271.44,252.5Z"/><path class="cls-2" d="M266.47,243.12c.39-.46.49-.78.46-.79a6.66,6.66,0,0,1-2.7,1.77c-.94.35-2.14.61-3.46,1l-4.29,1.14c-1.82.49-3.53,1-5,1.41l-2.72.8a17.07,17.07,0,0,0-3.16,1.1,17.06,17.06,0,0,0,3.28-.65c2-.48,4.77-1.2,7.81-2l4.28-1.19a30.73,30.73,0,0,0,3.48-1.11,6.94,6.94,0,0,0,1-.56A4.53,4.53,0,0,0,266.47,243.12Z"/><path class="cls-2" d="M264.38,232a16.53,16.53,0,0,0-3.15-.13c-1.95,0-4.63,0-7.59-.09s-5.65-.17-7.59-.24a16.53,16.53,0,0,0-3.16,0,2.94,2.94,0,0,0,1,.22c.53.08,1.25.16,2.13.25,1.94.19,4.63.37,7.61.43,1,0,2,0,2.92,0,1.79,0,3.42-.05,4.7-.13A14.12,14.12,0,0,0,264.38,232Z"/><path class="cls-2" d="M260.28,230.43c2.31.41,4.2.59,4.22.41s-1.82-.65-4.11-1.06-4.18-.59-4.22-.41S258,230,260.28,230.43Z"/><path class="cls-2" d="M282.12,200.94c.16-.1-.76-1.89-1.82-4.14s-1.85-4.1-2-4,.36,2,1.44,4.32S282,201,282.12,200.94Z"/><path class="cls-2" d="M312.2,197c.17.06,2.08-4.63,4.27-10.48,1.26-3.37,2.34-6.39,3-8.36l-.37-.17c-.8,1.91-2,4.91-3.24,8.3C313.67,192.12,312,196.92,312.2,197Z"/><path class="cls-2" d="M319,191.32c2-2.48,3.3-4.67,3.16-4.77s-1.73,1.9-3.67,4.37-3.52,4.48-3.38,4.6S317.06,193.81,319,191.32Z"/><path class="cls-2" d="M332.22,198c2.55-1.64,4.39-3.29,4.28-3.42s-2.11,1.25-4.64,2.87-4.62,2.86-4.54,3S329.67,199.62,332.22,198Z"/><path class="cls-2" d="M340.64,208.91c-2,.86-3.43,1.79-3.35,1.94s1.68-.5,3.61-1.35,3.5-1.58,3.44-1.75S342.6,208.05,340.64,208.91Z"/><circle class="cls-11" cx="300.78" cy="231.24" r="31.18"/><path class="cls-2" d="M315.52,296.17a3.42,3.42,0,0,1,.15.75l.3,2.18,1,8c.85,6.77,2.07,16.12,3.57,26.42s3,19.61,4.14,26.34l1.36,8,.35,2.17a3.43,3.43,0,0,1,.08.77,3.41,3.41,0,0,1-.21-.74l-.47-2.15c-.4-1.87-.93-4.58-1.56-7.93-1.26-6.71-2.83-16-4.34-26.33s-2.65-19.67-3.38-26.46c-.37-3.39-.64-6.14-.81-8l-.18-2.19A3.41,3.41,0,0,1,315.52,296.17Z"/><path class="cls-2" d="M297.39,289.61c.18,0,1.67,25.44,3.34,56.84s2.87,56.87,2.69,56.88-1.67-25.43-3.34-56.84S297.21,289.62,297.39,289.61Z"/><path class="cls-2" d="M287.44,295.17a3.37,3.37,0,0,1-.09.76l-.39,2.14-1.57,7.84L280,331.73l-5.6,25.78-1.77,7.8-.51,2.11a3.35,3.35,0,0,1-.22.73,3.34,3.34,0,0,1,.09-.75l.39-2.14,1.57-7.84,5.41-25.83,5.6-25.78,1.77-7.8.51-2.11A3.32,3.32,0,0,1,287.44,295.17Z"/><g class="cls-10"><path d="M311.89,196.14a3.32,3.32,0,0,0-.24,1.24c.65.21,1.29.44,1.93.68a4.23,4.23,0,0,0,.95-.87l12.68-15.94a3.7,3.7,0,0,0,1.12-2.63c0-.05,0-.09,0-.14-2.28-.19-4.92,1-7.2.24a16.69,16.69,0,0,1-1.61-.57c-.66,2-1.73,5-3,8.36-2.19,5.85-4.11,10.55-4.27,10.48s1.47-4.86,3.66-10.71c1.27-3.39,2.44-6.38,3.24-8.3l-.28-.15-.16.14Zm6.61-5.22c1.94-2.47,3.52-4.48,3.67-4.37s-1.2,2.29-3.16,4.77-3.76,4.31-3.89,4.2S316.56,193.39,318.5,190.92Z"/><path d="M327.73,194.92c2.11-2.29,4-4.34,5.47-5.8a16.72,16.72,0,0,1,2.41-2.28,16.73,16.73,0,0,1-2.07,2.59c-1.34,1.54-3.22,3.64-5.33,5.93s-4,4.34-5.47,5.8a2.54,2.54,0,0,0-.87,1.45l.72.55c7.32-4.33,15.72-9.81,22.24-14.63a5.57,5.57,0,0,0-2-1.21h0c-2.1-.73-4.69-.7-6.77-1.52-3.57,3.78-7.88,8.34-11.6,12.84C325.38,197.49,326.51,196.24,327.73,194.92Z"/><path d="M345.29,202.06a14.32,14.32,0,0,1-2.46,1.55c-1.55.9-3.68,2.13-6,3.55s-4.61,2.58-5.28,4.19a3.3,3.3,0,0,0-.3,1.55c.17.28.33.57.49.85,6-1.25,15.3-5.58,22.11-8.34-2.07-1.66-5.19-2.31-6.67-4.58q-1.09.66-2.22,1.31C345.16,202.07,345.28,202,345.29,202.06Zm-4.39,7.45c-1.94.85-3.53,1.51-3.61,1.35s1.39-1.08,3.35-1.94,3.64-1.32,3.7-1.15S342.84,208.66,340.9,209.51Z"/><path d="M351,216.12c-1.55.63-3.71,1.46-6.11,2.34s-4.59,1.64-6.18,2.16a11.23,11.23,0,0,1-2.62.71s0,0,0,0l-1,.46a35.34,35.34,0,0,1,.82,3.74c.31,0,.63,0,.94,0,6.37-.15,16.69-.78,24.33-1.21a10.54,10.54,0,0,0-1.48-2.43c-1.36-1.71-3-3.29-3.65-5.39a8,8,0,0,1-.27-2.06l-3.22,1.06Z"/><path d="M349.12,233.6l-8.36-.63a19.25,19.25,0,0,1-3.46-.4,12.63,12.63,0,0,1,2.74-.07c-1-.08-2.08-.14-3.13-.18h-.59q0,1.55-.22,3.07c6.57,2.46,16.28,5.9,23.83,8.66a3.84,3.84,0,0,0,.43-1.63c.08-3-3.51-5.27-3.33-8.17q-1.39-.11-2.79-.24Z"/><path d="M338.82,245.14l-3.45-1.8c-.32-.16-.65-.33-1-.46a35.34,35.34,0,0,1-1.43,3.51c5.78,4.43,13.37,12.2,19.8,17.83a5.32,5.32,0,0,0,2-1.86c1.56-2.72-.56-6-.86-9.17-1.94-1-4.89-2.48-8.16-4.24C343.05,247.51,340.64,246.18,338.82,245.14Z"/><path d="M339.76,260.73c-3.08-2.19-5.85-4.21-7.83-5.69-1.41-1.06-2.42-1.84-2.87-2.23-.46.6-.94,1.18-1.43,1.75a11.16,11.16,0,0,0,1.55,1.91c4.29,4.52,11.05,12.25,16.11,17.77,1.18-1.95.9-4.79,2.3-6.7a4.77,4.77,0,0,1,.64-.68l-2-1.6C344.36,264,342.14,262.43,339.76,260.73Z"/><path d="M327.76,270.79l-2.53-4.42A14.39,14.39,0,0,0,323,263a2.38,2.38,0,0,0-2.41-.54c-.59.22-.75.6-.8.56s.05-.45.7-.79a2.58,2.58,0,0,1,2.6.27,20.12,20.12,0,0,0-1.84-2.15c-.65.46-1.31.9-2,1.32,1.44,7.3,5.21,18,8.74,26.54a3.73,3.73,0,0,0,2.9-.65c2.22-1.71,1.31-5.28,2.07-8l-.5-.8C331.24,276.73,329.57,273.91,327.76,270.79Z"/><path d="M317.62,283.28a13.81,13.81,0,0,1,.54,3,15.24,15.24,0,0,1-1-2.92l-2.07-7.11L313,269.18c-.3-1-.52-1.81-.65-2.32L312,266c-.32,7.13.11,17.13.59,25.14,1.95-1.42,3.89-3.15,6-4-.58-2.78-1.34-5.78-2.21-8.74C316.89,280.24,317.32,281.94,317.62,283.28Z"/><path d="M301.78,285.81a20.54,20.54,0,0,1-.71,3.6,20.51,20.51,0,0,1,.25-3.66c.24-2.25.62-5.36,1.07-8.78l.67-4.83a7.29,7.29,0,0,0-.16-3.79,3.28,3.28,0,0,0-1.36-1.57l-.75,0c-.41,0-.82,0-1.23,0l-.14.12a7.25,7.25,0,0,0-1.48,2.87c-2.18,6.44-4.36,16-6.53,23,2.57-.54,4.24-3.68,6.91-3.85a4.94,4.94,0,0,1,3.26,1.23c.21-2.12.4-4.47.59-6.86C302,284.19,301.9,285,301.78,285.81Z"/><path d="M286.18,275.89c.76-1.56,1.51-3,2.07-4.42a9.88,9.88,0,0,0,.83-3.79,6,6,0,0,0-.52-2.46,2.06,2.06,0,0,0-1.25.8c-4.85,5.39-11.69,14.08-16.66,20.8,2.75,1,6.52-.73,9.77-.38.29-.54.84-1.48,1.54-2.71C283.1,281.75,284.63,279,286.18,275.89Z"/><path d="M269.7,273.57c.88-1,3.13-3.39,5.72-6.17,2.82-3,5.17-5.6,6-6.35q-1.22-.8-2.38-1.69A38.69,38.69,0,0,1,275.9,262c-2,1.59-3.79,2.76-3.9,2.62s1.46-1.54,3.51-3.13c1.05-.82,2-1.52,2.73-2A18.35,18.35,0,0,0,274,262L259.13,273.1c2.57.45,5.49.56,7.1,2.46a4.47,4.47,0,0,1,.61,1C267.71,275.58,268.68,274.59,269.7,273.57Z"/><path d="M264.06,258.49c2.48-1.63,4.84-3,6.42-4.09a2.1,2.1,0,0,0,.73-.93,1.42,1.42,0,0,0,0-.88c-.17-.48-.51-.57-.48-.62s.41,0,.71.52a1.61,1.61,0,0,1,.12,1.07,1.68,1.68,0,0,1-.07.21,3,3,0,0,0,1-1c-.41-.54-.81-1.09-1.19-1.65a4.29,4.29,0,0,0-1.5.2c-6.69,1.76-16.92,5.59-24.89,8.54,2.56,1.83,7.07,1,8.68,3.85a3.84,3.84,0,0,1,.39,1.09c2.19-1.34,4.63-2.8,7.05-4.27Z"/><path d="M256.49,246.2l4.29-1.14c1.32-.35,2.52-.61,3.46-1a6.66,6.66,0,0,0,2.7-1.77s-.08.33-.46.79a4.53,4.53,0,0,1-1,.85l.53-.18a3,3,0,0,0,1.25-.73c-.23-.65-.44-1.3-.63-2a4.29,4.29,0,0,0-1.67-.29q-12.4-.44-24.81-.73c1.15,1.95,3.71,2.81,4.78,4.83a5.79,5.79,0,0,1,.28,4.1l6.26-1.39C253,247.18,254.67,246.7,256.49,246.2Z"/><path d="M242.88,231.55a16.53,16.53,0,0,1,3.16,0c1.94.07,4.63.18,7.59.24s5.65.07,7.59.09a16.53,16.53,0,0,1,3.15.13,14.12,14.12,0,0,1-3.14.33c-1.28.07-2.9.12-4.7.13,3.08.12,6,.16,8.5,0l.21,0c0-.41,0-.83,0-1.25,0-.59,0-1.18,0-1.76l-.18-.11c-6.84-4.08-16.68-7-24.82-9.25,0,1.46.54,2.82,1.92,3.2L242,222.2c2,.88,2.56,3.6,1.93,5.7a15,15,0,0,1-1.95,3.77l1.9.11A2.94,2.94,0,0,1,242.88,231.55Zm17.51-1.76c2.29.4,4.13.88,4.11,1.06s-1.91,0-4.22-.41-4.15-.88-4.11-1.06S258.1,229.38,260.39,229.79Z"/><path d="M245.92,213a21.05,21.05,0,0,1,3.33,1.44l2.58,1.2c2.31,1,4.7,2,7,2.91a38.55,38.55,0,0,0,6.65,1.76,2.41,2.41,0,0,0,1.35-.22,1.42,1.42,0,0,0,.18-.15q.37-1.11.81-2.18c-1.15-.57-2.9-1.51-4.85-2.64-3.35-1.92-6-3.61-5.9-3.76s2.88,1.28,6.23,3.2l2,1.19a216.45,216.45,0,0,0-19.72-12.41c-.4,2.35.5,5.36-.23,7.79a6.35,6.35,0,0,1-.69,1.48l1.5.64C246,213.15,245.91,213.06,245.92,213Z"/><path d="M258,198.47a16.84,16.84,0,0,1,2.26,2.05c1.36,1.3,3.26,3.07,5.44,4.93s4.24,3.44,5.75,4.57l.52.39c.43-.6.88-1.19,1.35-1.76l-.07-.13c-.66-.78-1.49-1.84-2.36-3.06-1.85-2.58-3.13-4.83-3-4.92a11.13,11.13,0,0,1,1.9,2.32,134.21,134.21,0,0,0-10-13.65,4.58,4.58,0,0,0-2.72,1.46c-1.39,1.69-.87,4.33-1.55,6.34,1.29,1.15,2.74,2.42,4.27,3.74A11.86,11.86,0,0,1,258,198.47Z"/><path d="M275.05,194.56c3.14,4,5.75,7.11,5.68,7.31q.86-.59,1.76-1.13l-.09-.24c-2.36-6-6.62-15.4-9.47-22.26a10.24,10.24,0,0,0-1.33.68c-2.08,1.3-2.77,4-3.9,6.18.73,1,1.55,2.06,2.43,3.27C271.17,189.62,273,191.94,275.05,194.56Zm3.23-1.81c.17-.06,1,1.8,2,4s2,4,1.82,4.14-1.34-1.58-2.41-3.86S278.11,192.81,278.28,192.75Z"/><path d="M286,180.55a13.48,13.48,0,0,1,.59,2.78c.3,1.72.71,4.1,1.22,6.72.45,2.28.88,4.34,1.24,6,.17.54.34,1,.52,1.48.67-.22,1.35-.43,2-.62a31.84,31.84,0,0,1-.63-4.14c-.3-2.31-.61-4.18-.43-4.23s.77,1.79,1.08,4.14c.11.83.17,1.6.19,2.26,0-6.46.14-14.78.13-21.36-1,1-1.81,2.71-3.48,5.19a3.43,3.43,0,0,1-2.57,1.43l.07.49C285.93,180.6,285.94,180.55,286,180.55Z"/><path d="M301.69,187.29c-.06,3.63-.19,6.79-.32,8.41q1.28,0,2.54.13a19.56,19.56,0,0,0,2.74-6.91c1.1-4.39,2.62-11.45,3.84-16.6a5.27,5.27,0,0,0-2.21.65c-1.93,1.06-4.26,5.71-5.48,5.73a1.59,1.59,0,0,1-1.13-.59l0,.52C301.73,180.14,301.75,183.45,301.69,187.29Z"/></g><path class="cls-15" d="M314,224.85l-.91-.91a1.52,1.52,0,0,0-2.14,0l-12.74,12.73-8-8a1.52,1.52,0,0,0-2.14,0l-.91.91a1.52,1.52,0,0,0,0,2.14l9,9,0,0,.91.89a1.49,1.49,0,0,0,1.07.43h0a1.49,1.49,0,0,0,1.07-.43l.91-.9,0,0L314,227A1.51,1.51,0,0,0,314,224.85Z"/></g></g></svg>