<svg xmlns="http://www.w3.org/2000/svg" viewBox="0 0 488.46 438.3"><defs><style>.cls-1{fill:#e5e7fb;}.cls-2{fill:#1b2e35;}.cls-3{fill:#f7a27c;}.cls-4{fill:#dd8562;}.cls-5{fill:#395a64;}.cls-6{opacity:0.3;}.cls-7{fill:#e1e1e1;}.cls-8{fill:#132d60;}.cls-9{fill:#895041;}.cls-10{fill:#346bec;}.cls-11{fill:#fafafa;}.cls-12{fill:none;stroke:#fff;stroke-miterlimit:10;}.cls-13{fill:#ffbfa0;}.cls-14{fill:#ff9a71;}.cls-15{fill:#56cc95;}.cls-16{opacity:0.5;}.cls-17{fill:#ff515f;}</style></defs><title>Ресурс 14</title><g id="Слой_2" data-name="Слой 2"><g id="OBJECTS"><path class="cls-1" d="M449,345.62q-43.86,62.7-149.57,85.22Q238.27,443.9,189.56,434t-83.73-36.66a217.8,217.8,0,0,1-57.31-65.7A285.57,285.57,0,0,1,16.89,249Q5.75,196.85,13.15,156.7C18.06,129.83,28,106.63,42.84,86.89s34.24-36,58.08-49.12,51.45-23,82.86-29.74Q242.36-4.48,286.47,2.54c29.41,4.72,54.77,13.32,76,25.57s38.84,27,52.67,44,24.86,33.26,33.17,49.32,14.24,30.31,17.86,43.09,5.77,20.77,6.46,24Q492.85,283,449,345.62Z"/><path class="cls-2" d="M388.8,149a20.54,20.54,0,0,0,27.81,22.31c8.58-3.37,14.27-12.21,23.06-15,3.8-1.19,7.91-1.15,11.67-2.44,4.53-1.55,8.47-5.27,9.49-10s-1.39-10.1-5.86-11.83c-2.34-.91-5.27-1-6.77-3-2.15-2.9.51-6.8,1.15-10.36.92-5.09-3-10.26-8-11.65s-10.48.5-14.36,3.91c-3.32,2.92-6.64,5.71-11,6.38a10.78,10.78,0,0,1-11.14-5.87"/><path class="cls-2" d="M424.58,107.14a1.82,1.82,0,0,1,.1.49,7.35,7.35,0,0,1,0,1.44,9.49,9.49,0,0,1-1.78,5,9.21,9.21,0,0,1-2.69,2.53,9,9,0,0,1-4,1.28,10,10,0,0,1-4.63-.75,9.42,9.42,0,0,1-3.93-3.14,27.52,27.52,0,0,1-2.5-4.33,25.44,25.44,0,0,0-2.29-3.95,11.75,11.75,0,0,0-6.25-4.22,12.6,12.6,0,0,0-5.16-.34c-1.22.19-1.87.44-1.89.39a1.81,1.81,0,0,1,.46-.2,9.14,9.14,0,0,1,1.39-.39,12.12,12.12,0,0,1,5.29.19,12,12,0,0,1,6.54,4.28c1.86,2.37,2.84,5.57,4.83,8.25a9,9,0,0,0,3.71,3,9.55,9.55,0,0,0,4.39.74,8.69,8.69,0,0,0,3.86-1.17,9,9,0,0,0,2.62-2.37,9.67,9.67,0,0,0,1.87-4.77C424.65,107.84,424.53,107.15,424.58,107.14Z"/><path class="cls-3" d="M446.94,100.07l-3.83,48.11L410.26,169.4s4.77,28.84,5,29.46L455.52,168a20.76,20.76,0,0,0,8.32-16l-1.69-55.59"/><path class="cls-3" d="M442.92,77.9c-.28-.16-4.34,10.63-4,12.28s4.4,6.59,6.07,7.58c3.13,1.86,1,8.6,1.32,9.68l16.15.84-.43-12.49,1.07-8.5a9.77,9.77,0,0,0,0-5.34c-.54-1.9-1.46-4-2.86-3.75-2.54.39-2.72,1.12-2.72,1.12s-1.7-2.52-3-.39c0,0-2.34-2.79-4.37-.39,0,0-2.7-2.65-4.58,1.45l-1,2.87S445.77,79.48,442.92,77.9Z"/><path class="cls-4" d="M450,91.84c-.08,0-.46-.75-1.37-1.76A6.45,6.45,0,0,0,444,87.94c-.29,0-.58,0-.85,0h-.34l.08-.32c.48-1.86.93-3.5,1.28-4.68a8,8,0,0,1,.65-1.86,8,8,0,0,1-.32,2c-.26,1.2-.65,2.86-1.11,4.72l-.26-.32c.29,0,.59,0,.9,0a6.93,6.93,0,0,1,3,.8,6.62,6.62,0,0,1,1.92,1.62A4.84,4.84,0,0,1,450,91.84Z"/><path class="cls-4" d="M460,83s-.09.26-.3.69a3.1,3.1,0,0,0-.37,1.87,1.84,1.84,0,0,0,.25.56,1.75,1.75,0,0,1,.29.77,1.82,1.82,0,0,1-.82,1.58,2.51,2.51,0,0,1-3.56-1,3.5,3.5,0,0,1-.21-2,17.88,17.88,0,0,1,.39-1.78,22,22,0,0,1,1-2.9A4.48,4.48,0,0,1,457.73,79c.4-.33.71-.33.71-.31s-.25.12-.57.46a5,5,0,0,0-.91,1.75,27.69,27.69,0,0,0-.87,2.88c-.21,1.08-.67,2.38-.18,3.47a2,2,0,0,0,2.82.81,1.4,1.4,0,0,0,.66-1.15c0-.39-.41-.79-.47-1.29a3,3,0,0,1,.56-2C459.75,83.16,459.93,83,460,83Z"/><path class="cls-4" d="M455.82,87.54s0,.23-.26.52a1.93,1.93,0,0,1-1.49.55,2.43,2.43,0,0,1-2-1.32,4.42,4.42,0,0,1-.43-2.83,9.72,9.72,0,0,1,1.92-4.68,4.43,4.43,0,0,1,1.5-1.46c.05.06-.52.61-1.2,1.67a10.66,10.66,0,0,0-1.7,4.54,4.12,4.12,0,0,0,.33,2.53,2.09,2.09,0,0,0,1.56,1.18,1.85,1.85,0,0,0,1.32-.34C455.69,87.7,455.78,87.51,455.82,87.54Z"/><path class="cls-4" d="M452.07,86.94s0,.2-.31.42a2.09,2.09,0,0,1-1.37.43,2.52,2.52,0,0,1-1.92-1,3.78,3.78,0,0,1-.79-2.49,6.55,6.55,0,0,1,.65-2.49c.32-.71.66-1.31.93-1.82a6.81,6.81,0,0,1,1-1.6,6.82,6.82,0,0,1-.67,1.76,12.15,12.15,0,0,0-1.39,4.16,3.46,3.46,0,0,0,.64,2.18,2.21,2.21,0,0,0,1.57.88A2.55,2.55,0,0,0,452.07,86.94Z"/><path class="cls-4" d="M447.85,85.59s0,.21-.12.56a3.28,3.28,0,0,1-.86,1.32,2.14,2.14,0,0,1-2.34.39,2.31,2.31,0,0,1-.9-2.72,21.59,21.59,0,0,1,1.74-4.76,6.07,6.07,0,0,1,1.13-1.77,49.06,49.06,0,0,0-2.37,6.64,1.87,1.87,0,0,0,.61,2.18,1.78,1.78,0,0,0,1.88-.25,3.72,3.72,0,0,0,.91-1.12C447.73,85.75,447.81,85.57,447.85,85.59Z"/><path class="cls-4" d="M457.76,89.58a9.69,9.69,0,0,0-7.53,1.85s.22-.44.8-.92a6.91,6.91,0,0,1,5.59-1.37C457.37,89.3,457.78,89.52,457.76,89.58Z"/><path class="cls-2" d="M356.79,181.52c-9.69.9-18.22-6.22-19.62-10.47a11.43,11.43,0,0,1,3.55-12.13c2.76-2.25,6.76-3.39,8.08-6.69,2.3-5.75-5.71-12.21-2.85-17.71,2-3.89,7.95-3.83,10.72-7.22,2.45-3,1.56-7.4,2.33-11.19,1.31-6.44,7.87-11,14.44-11.18s12.85,3.22,17.38,8,7.55,10.73,10.19,16.74c2.14,4.87,4.13,10.14,3.23,15.38-1.34,7.76-8.48,13-15.25,17-11,6.56-19.42,20.53-32.21,19.47"/><path class="cls-2" d="M341.2,163.9l-.18,0a3.46,3.46,0,0,1-.52,0,5,5,0,0,1-1.9-.61,5.25,5.25,0,0,1-2.18-2.28,5.38,5.38,0,0,1-.14-4.17,5.15,5.15,0,0,1,1.4-2,11.12,11.12,0,0,1,2.21-1.48,21.4,21.4,0,0,0,2.38-1.41,5.36,5.36,0,0,0,1.79-2.18c.81-1.8.57-4,0-6.09s-1.53-4.22-1.95-6.58a10.85,10.85,0,0,1-.13-3.54,5.94,5.94,0,0,1,1.47-3.14,7.09,7.09,0,0,1,2.81-1.8,28.14,28.14,0,0,1,3-.88,11.26,11.26,0,0,0,5.11-2.3,10.39,10.39,0,0,0,2.69-4.07,20.76,20.76,0,0,0,1-7.11c0-.82,0-1.47,0-2a3.48,3.48,0,0,1,0-.69,3.43,3.43,0,0,1,.08.69c0,.45.08,1.12.1,2a19.93,19.93,0,0,1-.9,7.24,10.68,10.68,0,0,1-2.75,4.27,11.61,11.61,0,0,1-5.28,2.44c-1.93.52-4.13,1-5.58,2.56a5.44,5.44,0,0,0-1.34,2.88,10.39,10.39,0,0,0,.13,3.37c.4,2.28,1.38,4.37,1.93,6.54s.8,4.45-.1,6.42a5.82,5.82,0,0,1-2,2.35,21.39,21.39,0,0,1-2.45,1.42,10.82,10.82,0,0,0-2.14,1.4,4.78,4.78,0,0,0-1.32,1.88,4.92,4.92,0,0,0,2.09,6.14A6.07,6.07,0,0,0,341.2,163.9Z"/><path class="cls-5" d="M429.32,347.21l19.07-8.83s15.38,16.42,19.07,15.13l-15.8-37.59-30.28,12.55Z"/><g class="cls-6"><path d="M429.32,347.21l19.07-8.83s15.38,16.42,19.07,15.13l-15.8-37.59-30.28,12.55Z"/></g><path class="cls-7" d="M441.88,327.43a1.67,1.67,0,0,1,1.31-1.8,1.6,1.6,0,0,1,1.79,1.28,1.76,1.76,0,0,1-1.39,1.9,1.66,1.66,0,0,1-1.72-1.54"/><path class="cls-7" d="M451.66,315.91l-3,1.38,16.27,35.52s1.43,1.37,2.53.68Z"/><path class="cls-2" d="M448.46,339.06c.18-.08-.12-1,.09-2.19s.78-2,.64-2.1-1.09.58-1.32,2S448.31,339.17,448.46,339.06Z"/><path class="cls-2" d="M451.74,342.32c.2,0,.17-1,.69-1.91s1.26-1.47,1.17-1.65-1.17.14-1.79,1.33S451.57,342.39,451.74,342.32Z"/><path class="cls-2" d="M457.4,342.57c0-.18-1.06-.05-1.86.84s-.85,1.92-.66,1.93.5-.74,1.17-1.47S457.46,342.76,457.4,342.57Z"/><path class="cls-2" d="M443.89,340.59c.13-.15-.47-.88-.84-1.95s-.38-2-.58-2-.53,1-.08,2.27S443.78,340.74,443.89,340.59Z"/><path class="cls-2" d="M440,342.3a3.82,3.82,0,0,0-.8-1.88,9.18,9.18,0,0,0-1.43-1.72,9.66,9.66,0,0,0-1-.84,2.51,2.51,0,0,0-.68-.38.87.87,0,0,0-1,.33,1.09,1.09,0,0,0-.08,1,2.66,2.66,0,0,0,.39.66,7.33,7.33,0,0,0,.89,1,7.2,7.2,0,0,0,1.87,1.26,3.41,3.41,0,0,0,2,.46c0-.11-.73-.29-1.77-.9A8.15,8.15,0,0,1,436.7,340a7.61,7.61,0,0,1-.79-.94c-.27-.35-.42-.69-.28-.87s.08-.08.23,0a2,2,0,0,1,.5.28,10.73,10.73,0,0,1,1,.76,11.31,11.31,0,0,1,1.46,1.53C439.56,341.66,439.91,342.35,440,342.3Z"/><path class="cls-2" d="M440.17,342a3.25,3.25,0,0,0-2,.27,6.61,6.61,0,0,0-2.89,2.08,1.69,1.69,0,0,0-.45,1.6,1,1,0,0,0,.86.57,2.76,2.76,0,0,0,.77-.1,4.54,4.54,0,0,0,1.27-.53,4.69,4.69,0,0,0,1.61-1.62c.67-1.14.56-2,.49-2a16.62,16.62,0,0,1-.9,1.72,4.7,4.7,0,0,1-1.52,1.34,4.21,4.21,0,0,1-1.1.42c-.42.11-.81.09-.83-.07a1.17,1.17,0,0,1,.34-.92,6.79,6.79,0,0,1,.82-.9,7.35,7.35,0,0,1,1.73-1.15C439.41,342.16,440.18,342.07,440.17,342Z"/><polygon class="cls-2" points="431.52 338.96 425.4 325.44 412.72 331.42 400.84 354.93 431.52 338.96"/><path class="cls-5" d="M450.53,355.13l19.33-8.25s14.87,16.88,18.6,15.7l-14.64-38.06-30.65,11.61Z"/><path class="cls-7" d="M463.69,335.76A1.67,1.67,0,0,1,465,334a1.6,1.6,0,0,1,1.75,1.33,1.76,1.76,0,0,1-1.45,1.85c-.82,0-1.77-.78-1.67-1.59"/><path class="cls-7" d="M473.81,324.54l-3,1.29,15.18,36s1.39,1.41,2.51.76Z"/><path class="cls-2" d="M469.91,347.58c.18-.08-.09-1,.16-2.18s.84-1.93.7-2.07-1.11.55-1.38,1.94S469.75,347.69,469.91,347.58Z"/><path class="cls-2" d="M473.09,350.94c.2,0,.2-1,.75-1.89s1.3-1.44,1.22-1.62-1.18.1-1.83,1.28S472.91,351,473.09,350.94Z"/><path class="cls-2" d="M478.74,351.36c0-.18-1.05-.09-1.89.78s-.9,1.89-.72,1.91.52-.73,1.22-1.43S478.79,351.56,478.74,351.36Z"/><path class="cls-2" d="M465.29,349c.14-.14-.44-.9-.78-2s-.32-2-.51-2.06-.56,1-.15,2.27S465.18,349.12,465.29,349Z"/><path class="cls-2" d="M461.36,350.56a3.83,3.83,0,0,0-.74-1.9,9.18,9.18,0,0,0-1.38-1.76,9.65,9.65,0,0,0-1-.87,2.51,2.51,0,0,0-.67-.4.87.87,0,0,0-1,.3,1.09,1.09,0,0,0-.11,1,2.67,2.67,0,0,0,.37.68,7.33,7.33,0,0,0,.86,1,7.2,7.2,0,0,0,1.83,1.31,3.41,3.41,0,0,0,2,.53c0-.11-.72-.31-1.74-1a8.15,8.15,0,0,1-1.61-1.33,7.62,7.62,0,0,1-.76-1c-.26-.36-.4-.7-.26-.88s.08-.08.23,0a2,2,0,0,1,.49.3,10.75,10.75,0,0,1,1,.79,11.32,11.32,0,0,1,1.42,1.57C460.93,349.91,461.26,350.6,461.36,350.56Z"/><path class="cls-2" d="M461.53,350.22a3.25,3.25,0,0,0-2,.21,6.61,6.61,0,0,0-3,2A1.69,1.69,0,0,0,456,354a1,1,0,0,0,.84.59,2.76,2.76,0,0,0,.77-.07,4.54,4.54,0,0,0,1.28-.49,4.69,4.69,0,0,0,1.66-1.57c.7-1.12.62-2,.55-2a16.63,16.63,0,0,1-1,1.69,4.7,4.7,0,0,1-1.56,1.29,4.21,4.21,0,0,1-1.11.39c-.43.1-.81.07-.83-.1a1.17,1.17,0,0,1,.37-.91,6.78,6.78,0,0,1,.85-.87,7.35,7.35,0,0,1,1.76-1.1C460.77,350.4,461.54,350.33,461.53,350.22Z"/><path class="cls-8" d="M353.92,281.38s47.85-6.6,57.62-13.87,9.37-9.47,9.37-9.47,1.53-7.5-4.45-8.47-34.26,6.79-34.26,6.79l-16.64-4.27-13.74,8.15-9.15,11.31s2.53,6.63,6.08,7.76a29.3,29.3,0,0,0,5.17,1.29"/><path class="cls-3" d="M356.12,272.63c-.36-.93-.82-13.23-.82-13.23s3.37-5.5,10-5.58,16.08,2.84,16.08,2.84l27.95-9.2L411.54,258s-21,17.84-32.23,17.79A88.73,88.73,0,0,1,356.12,272.63Z"/><path class="cls-3" d="M329.54,243.86h0a13.81,13.81,0,0,1-9.37-.16,20.58,20.58,0,0,1-9.52-7.09l-2.45-3.2c-2.84-2.81-20.63-27.22-20.63-27.22L297,190.87l21.37,24.94,6.12-17,18.13,12.7-4.92,20.34C336.54,237.26,334.64,242,329.54,243.86Z"/><path class="cls-3" d="M286,168.14s5.1,7.55,6.4,10.07c1.06,2,5,8.59,4.79,15.49l-9.6,12.49s-4.61-3.52-5.35-4.85a4.54,4.54,0,0,1-.06-3.22,12.27,12.27,0,0,0-2.15-1.49s.44,2.36-1.33,2.8-7.66-5.74-7.66-5.74-.44-2.65,1.18-2.8c0,0-1.18-3.68,0-4.71,0,0-1.33-2.95.29-4.27,0,0,.74-3.39,1.91-4.57s13.15,2.36,13.15,2.36-2.84-6.3-3.13-8.07S286,168.14,286,168.14Z"/><path class="cls-9" d="M278.61,191.41s.19.1.48.34a4,4,0,0,1,1,1.24,2.76,2.76,0,0,1,.41,1.09,2.62,2.62,0,0,1-.22,1.34,1.56,1.56,0,0,1-1.24.94,2.31,2.31,0,0,1-1.59-.36,19.51,19.51,0,0,1-2.2-1.91l-1.69-1.62a9,9,0,0,1-1.47-1.59,9,9,0,0,1,1.72,1.32l1.77,1.54a24.86,24.86,0,0,0,2.15,1.82,1.41,1.41,0,0,0,2.12-.34,2.25,2.25,0,0,0,.22-1.1,2.51,2.51,0,0,0-.3-1,4.68,4.68,0,0,0-.86-1.26C278.7,191.61,278.58,191.44,278.61,191.41Z"/><path class="cls-9" d="M278,180.84a15.88,15.88,0,0,1,2.21,1.87c.32.31.7.62,1.06,1a4.82,4.82,0,0,1,1,1.42,2.24,2.24,0,0,1-2.14,3,3.38,3.38,0,0,1-1.86-1l-1.37-1.25-2.29-2.13a15.89,15.89,0,0,1-2-2.07,15.89,15.89,0,0,1,2.27,1.79l2.36,2.05,1.38,1.22a3,3,0,0,0,1.56.87,1.76,1.76,0,0,0,1.65-2.3,8.94,8.94,0,0,0-1.9-2.34A15.88,15.88,0,0,1,278,180.84Z"/><path class="cls-9" d="M279.94,188.13s.24-.06.61.12a2.07,2.07,0,0,1,1.07,1.33A2.11,2.11,0,0,1,279,192a4.23,4.23,0,0,1-1.42-.81,32.66,32.66,0,0,1-4-3.71,7.85,7.85,0,0,1-1.38-1.79c.12-.1,2.37,2.49,5.67,5.09a3.9,3.9,0,0,0,1.24.72,1.59,1.59,0,0,0,1.21-.11,1.66,1.66,0,0,0,.93-1.77,2,2,0,0,0-.81-1.24C280.15,188.22,279.93,188.18,279.94,188.13Z"/><path class="cls-9" d="M281.91,200.11s0-.16,0-.47a5,5,0,0,1,.27-1.28,5.43,5.43,0,0,1,3.09-3.3l.07.47h0l0-.49h.06l0,.49h-.16l-.07-.12a10.39,10.39,0,0,1-1.2-3.2,11.31,11.31,0,0,1,.78-6.84,9.12,9.12,0,0,1,1.08-1.81c.32-.38.51-.58.54-.56s-.65.89-1.27,2.51a11.81,11.81,0,0,0-.6,6.59,10.54,10.54,0,0,0,1.11,3.06l-.2-.12h0l0,.49h-.06l0-.49h0l1.16.05-1.1.42a5.38,5.38,0,0,0-3,2.95C282,199.47,282,200.12,281.91,200.11Z"/><path class="cls-4" d="M320.77,226.06a24.12,24.12,0,0,1-2.23-10.5c.15,0,.41,2.38,1,5.27S320.91,226,320.77,226.06Z"/><path class="cls-2" d="M356.12,272.63c-.29.87-2.92,23-2.92,23s-18.88,46.58-21.58,60.66-.87,28.58,14.29,32.67,27.57-7.5,27.57-7.5,5.35,7.5,19.74,5.74C407.8,385.45,459.08,354,459.08,354l-8.75-22.67-40,15.08s20.09-39.59,21-49.87c.7-7.93-11-33.4-19.83-38.5,0,0-25.08,19.12-33.54,17.73S356.12,272.63,356.12,272.63Z"/><path class="cls-5" d="M384.81,295.7a.87.87,0,0,1,0,.25l-.06.72c0,.63-.18,1.55-.36,2.74a67.23,67.23,0,0,1-2.47,9.86c-1.31,4.09-3.23,8.83-5.48,14a177.27,177.27,0,0,0-6.64,17.16c-1,3.11-1.82,6.19-2.46,9.19a57.13,57.13,0,0,0-1.3,8.75,33.33,33.33,0,0,0,2.22,14.66,28.85,28.85,0,0,0,5.39,8.47c.82.87,1.47,1.53,1.94,1.95l.52.5c.12.11.17.18.17.18a.86.86,0,0,1-.2-.14l-.55-.46a25.23,25.23,0,0,1-2-1.89,28,28,0,0,1-5.58-8.47,33.31,33.31,0,0,1-2.36-14.83,56.74,56.74,0,0,1,1.28-8.83,95.45,95.45,0,0,1,2.47-9.24A170.22,170.22,0,0,1,376,323.1c2.27-5.19,4.22-9.9,5.57-14a73.7,73.7,0,0,0,2.62-9.78c.21-1.18.37-2.09.45-2.72l.11-.71A.88.88,0,0,1,384.81,295.7Z"/><path class="cls-5" d="M450.33,331.33a2.37,2.37,0,0,1-.52.24l-1.52.59-5.63,2.08c-4.75,1.76-11.33,4.15-18.52,7s-13.66,5.56-17.94,8.24l-1.47,1c-.42.37-.86.69-1.19,1.05a8.85,8.85,0,0,0-1.52,2l-.78,1.43a2.35,2.35,0,0,1-.31.48,2.37,2.37,0,0,1,.21-.53c.16-.33.37-.85.69-1.48a8.63,8.63,0,0,1,1.49-2.14c.34-.38.77-.71,1.2-1.11s1-.7,1.47-1.08c4.29-2.79,10.76-5.57,17.95-8.41s13.8-5.18,18.59-6.85l5.69-1.93,1.55-.5A2.37,2.37,0,0,1,450.33,331.33Z"/><path class="cls-5" d="M431.37,296.54a2.25,2.25,0,0,1,0,.56l-.21,1.6a47.61,47.61,0,0,1-1.56,5.72,185,185,0,0,1-7.35,18.09c-3.18,6.93-6.25,13.11-8.54,17.56-1.14,2.22-2.09,4-2.75,5.23l-.78,1.41a.28.28,0,1,1-.09,0l.7-1.45,2.61-5.31c2.2-4.48,5.22-10.68,8.39-17.61s5.83-13.28,7.47-18a58.58,58.58,0,0,0,1.71-5.64l.31-1.57A2.36,2.36,0,0,1,431.37,296.54Z"/><ellipse class="cls-5" cx="379.75" cy="286.86" rx="0.26" ry="11.34" transform="matrix(0.98, -0.17, 0.17, 0.98, -43.88, 69.98)"/><path class="cls-5" d="M421.2,272.46a3.21,3.21,0,0,1-.73.7,11.41,11.41,0,0,1-2.36,1.43,12.78,12.78,0,0,1-16.19-4.67,11.41,11.41,0,0,1-1.23-2.47,3.21,3.21,0,0,1-.25-1,24.61,24.61,0,0,0,1.79,3.24A12.91,12.91,0,0,0,418,274.26,24.62,24.62,0,0,0,421.2,272.46Z"/><path class="cls-5" d="M369.8,275.55a3.1,3.1,0,0,1,0,1,15.55,15.55,0,0,1-.36,2.6A18.16,18.16,0,0,1,358.71,292a15.55,15.55,0,0,1-2.5.81,3.1,3.1,0,0,1-1,.14c0-.09,1.32-.37,3.3-1.29A19.1,19.1,0,0,0,369.11,279C369.67,276.91,369.71,275.54,369.8,275.55Z"/><path class="cls-5" d="M383.74,277a2.75,2.75,0,0,0-1.25,1,1.63,1.63,0,0,0-.08,1.58,1.68,1.68,0,0,0,3.13-.14,1.63,1.63,0,0,0-.22-1.57A2.75,2.75,0,0,0,384,277s.17-.08.48,0a2,2,0,0,1,1.14.69,2,2,0,0,1,.38,2,2.14,2.14,0,0,1-4,.18,2,2,0,0,1,.2-2,2,2,0,0,1,1.07-.79C383.56,276.93,383.74,277,383.74,277Z"/><path class="cls-10" d="M367.12,165.89l-20.5.65S340,193.2,340.5,210.9c.31,10.84,7,26.17,8.64,31.81,1.13,3.93-2.88,9.28-4,13.21l0,.17c-1.67,5.68-9.48,25.29,9.89,25.29,0,0-10.07-5.55-5-15.41,4.89-9.5,14.35-13.63,22.36-9s10.68,2.67,18-.33,33.39-10.68,30,2.67c0,0,4-7.68-4-13.35-6.09-4.31-11.21-16.09-11.42-28.09-.11-6.35,2.59-13.18,7.62-17.06l8.81-6.52s-9.16.54-6.49-13.48S419.47,164,419.47,164L402,169.79a6.14,6.14,0,0,1-1.86.18l-8.83-.48Z"/><path class="cls-10" d="M322.72,200.26s9.53-24.38,13.5-28.35c3.6-3.61,10.4-5.38,10.4-5.38l-5.4,45.9Z"/><path class="cls-2" d="M347.37,238.06a1.92,1.92,0,0,1-.22-.46l-.54-1.37c-.44-1.2-1.14-2.91-1.85-5.08a94.7,94.7,0,0,1-4.47-17.29A42,42,0,0,1,340,204c.29-3,.85-5.69,1.27-7.93s.77-4.05,1-5.31l.25-1.45a1.93,1.93,0,0,1,.12-.5,1.92,1.92,0,0,1,0,.51l-.16,1.46c-.14,1.27-.43,3.1-.82,5.35s-.89,4.92-1.16,7.91a43.11,43.11,0,0,0,.29,9.74,105.14,105.14,0,0,0,4.3,17.24c.66,2.18,1.31,3.91,1.69,5.13l.45,1.4A1.93,1.93,0,0,1,347.37,238.06Z"/><path class="cls-2" d="M401.66,224.45a5.57,5.57,0,0,1-.26-1.2,32.25,32.25,0,0,1-.38-3.33,44.26,44.26,0,0,1,4-21.59,32.21,32.21,0,0,1,1.55-3,5.56,5.56,0,0,1,.68-1c.08,0-.78,1.57-1.89,4.15a49.21,49.21,0,0,0-4,21.42C401.49,222.71,401.75,224.44,401.66,224.45Z"/><g class="cls-6"><path d="M401.8,220.74a58.22,58.22,0,0,1,2.94-11.61,19.54,19.54,0,0,1,7.25-9.32,10.87,10.87,0,0,0,2.12-1.5,2.47,2.47,0,0,0,.72-2.38c-.46-1.39-2.36-1.63-3.77-1.25a11.28,11.28,0,0,0-6.63,5.67,27.13,27.13,0,0,0-2.6,8.54,35.53,35.53,0,0,0-.53,10.68"/></g><path class="cls-2" d="M420.65,253s-.06,0-.17-.16l-.45-.5a19.55,19.55,0,0,0-1.86-1.77,18.92,18.92,0,0,0-8.46-4,17.55,17.55,0,0,0-6.46,0,29.74,29.74,0,0,0-7,2.46c-2.4,1.12-4.86,2.45-7.56,3.54a25.65,25.65,0,0,1-4.26,1.3,17.2,17.2,0,0,1-4.59.24c-3.11-.3-6-1.3-8.77-1.9a20.7,20.7,0,0,0-8.19-.26,21.11,21.11,0,0,0-7,2.52,19.88,19.88,0,0,0-5,4.12,21.18,21.18,0,0,0-4.46,8.24,22.46,22.46,0,0,0-.55,2.52l-.1.66a.77.77,0,0,1-.05.23,14.18,14.18,0,0,1,.51-3.46,20.79,20.79,0,0,1,4.37-8.43,20,20,0,0,1,5.06-4.25,21.39,21.39,0,0,1,7.12-2.62,21.07,21.07,0,0,1,8.37.24c2.85.6,5.69,1.59,8.71,1.88a16.74,16.74,0,0,0,4.45-.23,25.32,25.32,0,0,0,4.17-1.26c2.67-1.07,5.13-2.38,7.55-3.5a29.84,29.84,0,0,1,7.17-2.45,17.77,17.77,0,0,1,6.61.1,18.67,18.67,0,0,1,8.52,4.17A13.57,13.57,0,0,1,420.65,253Z"/><path class="cls-2" d="M394.25,211.56a1.72,1.72,0,0,1,0,.49c0,.32,0,.79,0,1.4a30.65,30.65,0,0,1-.63,5.1,33.38,33.38,0,0,1-21.23,24.7,30.65,30.65,0,0,1-4.95,1.39c-.59.13-1.06.17-1.38.22a1.73,1.73,0,0,1-.49,0,16.76,16.76,0,0,1,1.82-.45,36.34,36.34,0,0,0,4.86-1.53,34.1,34.1,0,0,0,21-24.44,36.32,36.32,0,0,0,.79-5A16.8,16.8,0,0,1,394.25,211.56Z"/><g class="cls-6"><path d="M392.58,221.78a3.18,3.18,0,0,0-2.92,1.31,12.86,12.86,0,0,0-1.54,3A23,23,0,0,1,376,237.91a21.65,21.65,0,0,0-4.23,1.94,4.5,4.5,0,0,0-2.15,3.89s9.53-1.85,15.85-9.58S392.58,221.78,392.58,221.78Z"/></g><path class="cls-11" d="M356.7,183a5.83,5.83,0,0,0-2.33-2.38c-1.86-.71-3.79,1-5.79,1-2.36,0-4-2.22-5.88-3.63-2.47-1.84-5.71-2.37-8.75-2.81l-1,1.88c2.69,1.79,6.85-.7,9.57,1,1.22.79,1.82,2.23,2.5,3.52s1.69,2.62,3.13,2.79,2.65-.8,4-1c4.32-.71,7.39,5.71,11.71,5A15,15,0,0,1,356.7,183Z"/><path class="cls-11" d="M339.94,208c1.32-1.73,3.75-2.27,5.92-2a38,38,0,0,1,6.29,1.77,9.59,9.59,0,0,0,6.41.1,17.73,17.73,0,0,1,2.88-1.33c1.42-.32,2.86.26,4.25.7a23.7,23.7,0,0,0,9.06,1,22.46,22.46,0,0,1,3.53-.19,4.64,4.64,0,0,1,3.16,1.38,13.45,13.45,0,0,1,4.77-1.68c-1.92,1.35-3.95,2.73-6.27,3-2.68.32-5.28-.88-7.92-1.44-7.18-1.51-14.72,1.75-21.91.3a36.6,36.6,0,0,0-5-1,5.11,5.11,0,0,0-4.56,1.81"/><path class="cls-11" d="M344.95,228.45c2.85.62,5.39-1.78,8.19-2.61,2.47-.73,5.12-.21,7.59.5s4.94,1.62,7.51,1.65c1.58,0,3.2-.29,4.73.14a22.83,22.83,0,0,1,3.34,1.63c3.65,1.71,7.93.79,11.85-.16a17.44,17.44,0,0,1-9.57,2.21,52,52,0,0,1-9.82-1.54l-7.86-1.76a15.12,15.12,0,0,0-6-.51c-3.37.63-6.25,3.52-9.66,3.19"/><path class="cls-11" d="M375.16,242.26q3.13.31,6.26.45a17.74,17.74,0,0,0,5-.28c2.74-.67,5.15-2.54,8-2.73s5.61,1.42,8.5,1.61a8.93,8.93,0,0,0,7.17-2.92,25,25,0,0,1-12.9.31c-2-.48-4-1.2-6-.75-1.58.36-2.89,1.44-4.33,2.21-3.52,1.88-7.71,1.87-11.7,1.81"/><path class="cls-11" d="M392,206.08c.2-2.29,8.27-4.31,11.59-7.22a6.28,6.28,0,0,1-4.33,5.09,24.43,24.43,0,0,1-3.84.5,5,5,0,0,0-3.41,1.63"/><path class="cls-11" d="M377.59,190c1.35,1,3.28.75,4.91.22s3.3-1.24,5-.89,2.88,1.65,4.38,2.36a7.46,7.46,0,0,0,6.45-.19,9.93,9.93,0,0,0,4.45-4.81,6,6,0,0,1,1.61-2.6c.94-.68,2.21-.59,3.31-.94,1.78-.56,3-2.2,3.94-3.79s1.93-3.31,3.54-4.25c-1.4-.43-2.85.51-3.83,1.6s-1.77,2.41-3,3.12-2.85.72-4.14,1.4c-2.3,1.21-3,4.08-4.63,6.14-1.8,2.33-5.21,3.58-7.82,2.23-1.41-.73-2.57-2.14-4.16-2.17a6.43,6.43,0,0,0-2.87,1,12.88,12.88,0,0,1-7,1.33l.54.11"/><path class="cls-11" d="M342.14,269.75a5.7,5.7,0,0,1,1.13-3.8c.74-1.13,1.66-2.14,2.32-3.33a40.13,40.13,0,0,0,1.92-5.34c.67-1.77,1.84-3.54,3.65-4.1,1.23-.38,2.57-.15,3.82-.41,2.12-.44,3.78-2.23,5.9-2.64,1.73-.33,3.51.31,5.27.23a6.46,6.46,0,0,0,4.26-1.91,6.81,6.81,0,0,1-4.73.4,11.8,11.8,0,0,0-4.8-.33c-1,.24-2,.81-3,1.08-1.92.51-4,0-5.92.43-2.82.69-4.65,3.41-5.79,6.07s-1.28,4.78-3.19,7C343,263.05,341.54,268.77,342.14,269.75Z"/><path class="cls-11" d="M359.12,169.35a12,12,0,0,1-2.33-1.15,2.92,2.92,0,0,1-1.4-1.94l-3,.1a7.78,7.78,0,0,0,5.89,4.66,8.55,8.55,0,0,1,2.13.28,17.12,17.12,0,0,1,2.09,1.3,1.79,1.79,0,0,0,2.25-.18A32.56,32.56,0,0,0,359.12,169.35Z"/><path class="cls-11" d="M339.94,193.26a6.5,6.5,0,0,0-3.78-.14,8.33,8.33,0,0,1-3.8.11,11,11,0,0,1-2.83-1.68,3.68,3.68,0,0,0-2.85-.94l-.58,1.38c0,.59.55.29,1.12.46a3.1,3.1,0,0,1,1.6.71,6.13,6.13,0,0,1,.6,1.36,2.66,2.66,0,0,0,2.58,1.26,8.14,8.14,0,0,0,2.87-1,7.23,7.23,0,0,1,2.89-.88,3.8,3.8,0,0,1,3.55,2.45C341.94,195.28,341.11,193.79,339.94,193.26Z"/><path class="cls-12" d="M331.06,196.19"/><path class="cls-2" d="M405.75,165.82c1.17,1.65,3.5,2.08,5.48,1.68a27.93,27.93,0,0,0,5.61-2.27,8.58,8.58,0,0,1,5.88-.81c2.38.73,3.91,3.06,6.11,4.23a7.17,7.17,0,0,0,9-2.33,21.91,21.91,0,0,0,1.93-5c.59-1.71,1.54-3.45,3.18-4.19,1.92-.86,4.21-.11,6.23-.67,2.82-.78,4.38-3.86,4.78-6.76.74-5.28,3.7-15.87-16.94-17.27"/><path class="cls-3" d="M398.55,124.6A19.58,19.58,0,0,0,381,102.68c-10.44-1-19.71,6.78-21.27,17.14-1.37,9.09-2.55,18.26-2.51,21.59.13,10,6,14,8.39,15.13a13,13,0,0,0,2.64.66h0a.07.07,0,0,1,.06.08L366,168.81c-1,7.56,3.21,14.29,10.75,15.39s13.48-4.7,14.64-12.26Z"/><path class="cls-2" d="M361.42,125.76c.17.23,1.49-.48,3.19-.22s2.82,1.28,3,1.1,0-.48-.53-1a4.38,4.38,0,0,0-2.39-1.14,4.21,4.21,0,0,0-2.58.44C361.57,125.3,361.34,125.65,361.42,125.76Z"/><path class="cls-2" d="M377.17,128.37c.17.23,1.49-.48,3.19-.22s2.82,1.28,3,1.1,0-.48-.53-1a4.38,4.38,0,0,0-2.39-1.14,4.21,4.21,0,0,0-2.58.44C377.32,127.92,377.09,128.26,377.17,128.37Z"/><path class="cls-2" d="M370.66,137a11.38,11.38,0,0,0-2.69-.9c-.43-.11-.83-.25-.86-.56a2.23,2.23,0,0,1,.48-1.24l1.77-3.12c2.47-4.45,4.32-8.13,4.14-8.23s-2.33,3.43-4.8,7.88L367,134a2.54,2.54,0,0,0-.47,1.67,1.1,1.1,0,0,0,.62.74,3,3,0,0,0,.72.21A11.18,11.18,0,0,0,370.66,137Z"/><path class="cls-4" d="M368.28,157.21s6.49,1.5,15.42-2.24c0,0-3.86,8.3-16,5.35Z"/><path class="cls-9" d="M370.79,141.21a3.1,3.1,0,0,1,2.91-.74,2.83,2.83,0,0,1,1.78,1.32,1.79,1.79,0,0,1-.16,2,2.08,2.08,0,0,1-2.31.24,6.5,6.5,0,0,1-2-1.61,1.91,1.91,0,0,1-.41-.57.57.57,0,0,1,.09-.63"/><path class="cls-2" d="M375.5,138.92c-.27-.06-.55,1.79-2.32,2.87s-3.71.59-3.76.85.39.42,1.21.57a4.65,4.65,0,0,0,3.12-.6,4,4,0,0,0,1.82-2.42C375.76,139.41,375.62,138.92,375.5,138.92Z"/><path class="cls-2" d="M378.34,122.21c.1.49,1.83.52,3.79,1s3.49,1.31,3.82.93c.15-.18-.07-.66-.66-1.2a6.84,6.84,0,0,0-5.8-1.51C378.72,121.67,378.3,122,378.34,122.21Z"/><path class="cls-2" d="M363.14,119.16c.24.43,1.47.2,2.88.39s2.56.64,2.9.27c.15-.18,0-.59-.45-1a4.21,4.21,0,0,0-4.66-.53C363.25,118.58,363,119,363.14,119.16Z"/><path class="cls-2" d="M412.33,152.15c.63-1.44,1.18-2.77,1.46-3.63,1.12-3.4,1.13-8.8-.49-12-1.5-3-5.3-5.93-6.4-8.81-1.69-4.44-.44-5.59-1.74-14.84-.74-5.25-7.74-12.53-15.08-11.39a15,15,0,0,0-8.82-4.66,21,21,0,0,0-21.35,8.79c-2.19,3.31-3.51,7.78-2.21,11.74,2.08,3.17,8.68,1.21,12.66-1a9.48,9.48,0,0,0,12.94-2.68,4.46,4.46,0,0,0,3.18,1.71c.13,1.17.27,2.16.36,2.79.4,2.89,4.75,7.08,4.8,10,.09,5.5-4.13,5.77-5.3,11.15-.88,4,2.19,6.42,2.78,10.52.09.63-7.27,14,2.22,19.61,0,0,.25.2.62.58A10,10,0,0,1,393,182.7c-2.48,3.71-5.15,9.82,1.21,13.12,0,0,1.84-5.87,4.46-7,6.63-2.89,13.41-3.44,10.68-17.8S410.29,158.3,412.33,152.15Z"/><path class="cls-13" d="M86.08,92.92l4.65,53.88,27-2.16c.17-3.15-.06-15.34-.06-15.34s11.23-1.75,11.37-13c.07-5.45-.71-16.72-1.53-26.87a20.78,20.78,0,0,0-21.92-19.07h0A20.78,20.78,0,0,0,86.08,92.92Z"/><path class="cls-14" d="M117.67,129.14A26.11,26.11,0,0,1,103,125s3.46,8.08,14.66,7.07Z"/><path class="cls-2" d="M123.53,96.92A1.6,1.6,0,0,1,122,98.54a1.53,1.53,0,0,1-1.65-1.45,1.6,1.6,0,0,1,1.54-1.62A1.53,1.53,0,0,1,123.53,96.92Z"/><path class="cls-2" d="M125.09,95.12c-.2.21-1.41-.69-3.14-.69s-3,.87-3.18.66.11-.47.66-.87a4.4,4.4,0,0,1,2.54-.78,4.22,4.22,0,0,1,2.5.81C125,94.65,125.19,95,125.09,95.12Z"/><path class="cls-2" d="M106.24,97.33a1.6,1.6,0,0,1-1.55,1.62A1.53,1.53,0,0,1,103,97.5a1.6,1.6,0,0,1,1.54-1.62A1.53,1.53,0,0,1,106.24,97.33Z"/><path class="cls-2" d="M108.13,95.44c-.2.21-1.42-.69-3.14-.68s-3,.87-3.18.66.11-.47.66-.87a4.4,4.4,0,0,1,2.54-.78,4.23,4.23,0,0,1,2.5.81C108,95,108.23,95.35,108.13,95.44Z"/><path class="cls-2" d="M114.39,108.24a11.42,11.42,0,0,1,2.8-.51c.44,0,.86-.13.93-.43a2.24,2.24,0,0,0-.29-1.31l-1.3-3.35c-1.81-4.78-3.12-8.7-2.93-8.77s1.82,3.74,3.63,8.52l1.25,3.37a2.55,2.55,0,0,1,.23,1.73,1.1,1.1,0,0,1-.72.64,3,3,0,0,1-.75.1A11.22,11.22,0,0,1,114.39,108.24Z"/><path class="cls-2" d="M109.32,109.43c.28,0,.28,1.86,1.89,3.19s3.6,1.12,3.61,1.38-.44.36-1.29.39a4.66,4.66,0,0,1-3-1.05,4.06,4.06,0,0,1-1.46-2.67C109,109.88,109.19,109.42,109.32,109.43Z"/><path class="cls-2" d="M108.58,88.68c-.17.47-1.89.25-3.92.49s-3.66.8-3.93.38c-.12-.2.16-.64.82-1.1a6.86,6.86,0,0,1,6-.66C108.28,88.09,108.65,88.46,108.58,88.68Z"/><path class="cls-2" d="M124.46,90.13c-.3.39-1.49,0-2.92,0s-2.64.26-2.92-.15c-.12-.2.07-.59.6-1a4.23,4.23,0,0,1,4.7.15C124.42,89.53,124.59,89.94,124.46,90.13Z"/><path class="cls-2" d="M98.27,80.61l-.06,0a8.83,8.83,0,0,0-3.28,5.71l0,.23c-.44,3.2-.36,6.46-.83,9.66s-1.58,6.45-3.94,8.65c-1,.91-2.69,1.53-3.49.47a2.74,2.74,0,0,1-.4-1.47c-.6-7.73-2.71-14.59-2.7-22.68a6.82,6.82,0,0,1,2.83-5.55c1.69-1.21,3.76-2.47,5.64-1.58s4.32,4.41,5.78,5.9"/><path class="cls-13" d="M89.86,98c-.19-.08-7.71-2.28-7.47,5.39s7.9,5.85,7.91,5.63S89.86,98,89.86,98Z"/><path class="cls-14" d="M87.87,106.18s-.13.1-.35.21a1.34,1.34,0,0,1-1,.05c-.82-.27-1.54-1.54-1.63-2.92a4.42,4.42,0,0,1,.31-1.93,1.55,1.55,0,0,1,1-1.06.68.68,0,0,1,.8.34c.11.21.07.37.11.38s.16-.13.09-.45a.85.85,0,0,0-.32-.47,1,1,0,0,0-.75-.17,1.88,1.88,0,0,0-1.36,1.23,4.54,4.54,0,0,0-.4,2.15c.1,1.54.94,3,2.06,3.25a1.43,1.43,0,0,0,1.22-.24C87.86,106.37,87.89,106.2,87.87,106.18Z"/><path class="cls-2" d="M91,76.51c-2.34-2.74,2.09-7.9,5.64-9.67s8.77-.72,12.69-.07c2.47.41,5,1.13,7.44.64a16.93,16.93,0,0,0,4.61-2,12.41,12.41,0,0,1,4.7-1.72,4.63,4.63,0,0,1,4.39,1.9c.87,1.44.3,3.68-1.31,4.17a3.77,3.77,0,1,1,2.08,6.74c.95-1,2.81.1,2.89,1.47A4,4,0,0,1,132,81.27c-2.94,1.89-6.7,2-10.15,1.44s-6.75-1.83-10.18-2.5-9.2-1.94-12.27-.28c-2.26,1.22-3.48,4.37-4.93,3.95a4.69,4.69,0,0,1-2.94-3A13.59,13.59,0,0,1,91,76.51"/><path class="cls-5" d="M87.91,97.66s.33-.21.62-.82a5.16,5.16,0,0,0,.38-2.78c-.17-2.47-2.36-5.13-2.63-8.54a7.72,7.72,0,0,1,.85-4.58A5.86,5.86,0,0,1,90,78.47a5,5,0,0,1,2.56-.35c.62.1.95.24,1,.18s-.27-.27-.92-.47A4.78,4.78,0,0,0,89.8,78a6.19,6.19,0,0,0-3.27,2.61,8.14,8.14,0,0,0-1,5A14,14,0,0,0,87,90.43a14.57,14.57,0,0,1,1.38,3.71A5.92,5.92,0,0,1,87.91,97.66Z"/><path class="cls-2" d="M121.17,58.24s.12.09.3.3a3.88,3.88,0,0,1,.58,1.09,5.17,5.17,0,0,1-.66,4.38,7.63,7.63,0,0,1-5.84,3c-2.56.2-5.27-.56-8-1.27a24.41,24.41,0,0,0-4.07-.74,11.18,11.18,0,0,0-3.78.34,12.33,12.33,0,0,0-5.52,3.25,12.07,12.07,0,0,0-2.47,3.6c-.43.95-.55,1.53-.61,1.51a1.3,1.3,0,0,1,.07-.42,7,7,0,0,1,.35-1.17,11.4,11.4,0,0,1,2.39-3.78,12.44,12.44,0,0,1,5.66-3.46,11.51,11.51,0,0,1,3.94-.39,24.17,24.17,0,0,1,4.16.74c2.77.71,5.42,1.47,7.86,1.29a7.32,7.32,0,0,0,5.57-2.73,5.06,5.06,0,0,0,.77-4.12A6.22,6.22,0,0,0,121.17,58.24Z"/><path class="cls-5" d="M80.66,330.13,65.52,310.81s-24.72,8.9-27.87,5.6l36.41-30.7,24.82,29.14Z"/><path class="cls-7" d="M78.11,302.89a1.94,1.94,0,0,0-.4-2.56,1.87,1.87,0,0,0-2.54.38,2.05,2.05,0,0,0,.44,2.71,1.94,1.94,0,0,0,2.6-.69"/><path class="cls-7" d="M74.06,285.71l2.39,3L40.64,317s-2.22.66-3-.63Z"/><path class="cls-2" d="M65.08,311.49c-.14-.18.68-1,1.07-2.32s.23-2.45.45-2.52.82,1.18.32,2.76S65.18,311.68,65.08,311.49Z"/><path class="cls-2" d="M59.93,313.13c-.19-.14.33-1.09.3-2.35s-.53-2.2-.34-2.34,1.14.77,1.15,2.34S60.08,313.3,59.93,313.13Z"/><path class="cls-2" d="M53.91,310.39c.13-.17,1.13.51,1.49,1.86s-.14,2.45-.34,2.36-.12-1-.44-2.15S53.75,310.55,53.91,310.39Z"/><path class="cls-2" d="M69,315.51c-.06-.22,1-.67,1.91-1.58s1.46-1.89,1.68-1.82,0,1.34-1.13,2.41S69.05,315.72,69,315.51Z"/><path class="cls-2" d="M72.15,319.35c-.06-.07.55-.77,1.83-1.53a10.72,10.72,0,0,1,2.4-1,11.27,11.27,0,0,1,1.52-.33,2.94,2.94,0,0,1,.91,0,1,1,0,0,1,.88.88,1.28,1.28,0,0,1-.44,1.06,3.11,3.11,0,0,1-.76.48,8.56,8.56,0,0,1-1.46.57,8.41,8.41,0,0,1-2.61.31,4,4,0,0,1-2.32-.58c0-.13.91.08,2.32,0a9.52,9.52,0,0,0,2.4-.45,8.9,8.9,0,0,0,1.32-.56c.47-.22.8-.5.76-.75,0-.1,0-.13-.21-.17a2.39,2.39,0,0,0-.67,0,12.56,12.56,0,0,0-1.43.26,13.22,13.22,0,0,0-2.33.81A16.43,16.43,0,0,1,72.15,319.35Z"/><path class="cls-2" d="M72.17,318.9c0-.08.93.26,2,1.36A7.71,7.71,0,0,1,76,324a2,2,0,0,1-.39,1.9,1.11,1.11,0,0,1-1.19.13,3.23,3.23,0,0,1-.75-.51,5.3,5.3,0,0,1-1-1.23,5.48,5.48,0,0,1-.81-2.54,3.07,3.07,0,0,1,.54-2.33,19.39,19.39,0,0,0,0,2.27,5.49,5.49,0,0,0,.87,2.2,4.91,4.91,0,0,0,.92,1c.38.34.79.53.9.37a1.36,1.36,0,0,0,.13-1.13,7.91,7.91,0,0,0-.38-1.37,8.59,8.59,0,0,0-1.18-2.12C72.84,319.52,72.09,319,72.17,318.9Z"/><path class="cls-5" d="M43,343,27.87,323.63S3.15,332.53,0,329.23l36.41-30.7,24.82,29.14Z"/><path class="cls-7" d="M40.46,315.71a2,2,0,0,0-.4-2.56,1.87,1.87,0,0,0-2.54.38,2.05,2.05,0,0,0,.44,2.71,1.94,1.94,0,0,0,2.6-.69"/><path class="cls-7" d="M36.41,298.53l2.39,3L3,329.86s-2.22.66-3-.63Z"/><path class="cls-2" d="M27.44,324.31c-.14-.18.68-1,1.07-2.32s.23-2.45.45-2.52.82,1.18.32,2.76S27.53,324.51,27.44,324.31Z"/><path class="cls-2" d="M22.28,326c-.19-.14.33-1.09.3-2.35s-.53-2.2-.34-2.35,1.14.77,1.15,2.34S22.43,326.12,22.28,326Z"/><path class="cls-2" d="M16.26,323.21c.13-.17,1.13.51,1.49,1.86s-.14,2.45-.34,2.36-.12-1-.44-2.15S16.1,323.38,16.26,323.21Z"/><path class="cls-2" d="M31.37,328.33c-.06-.22,1-.67,1.91-1.58s1.46-1.89,1.68-1.82,0,1.34-1.13,2.41S31.4,328.55,31.37,328.33Z"/><path class="cls-2" d="M34.5,332.17c-.06-.07.55-.77,1.83-1.53a10.73,10.73,0,0,1,2.4-1,11.3,11.3,0,0,1,1.52-.33,2.94,2.94,0,0,1,.91,0,1,1,0,0,1,.88.88,1.28,1.28,0,0,1-.44,1.06,3.11,3.11,0,0,1-.76.48,8.56,8.56,0,0,1-1.46.57,8.41,8.41,0,0,1-2.61.31,4,4,0,0,1-2.32-.58c0-.13.91.08,2.32,0a9.51,9.51,0,0,0,2.4-.45,8.9,8.9,0,0,0,1.32-.56c.47-.22.8-.5.76-.75,0-.1,0-.13-.21-.17a2.38,2.38,0,0,0-.67,0,12.55,12.55,0,0,0-1.43.26,13.22,13.22,0,0,0-2.33.81A16.42,16.42,0,0,1,34.5,332.17Z"/><path class="cls-2" d="M34.52,331.72c0-.08.93.26,2,1.36a7.71,7.71,0,0,1,1.9,3.7,2,2,0,0,1-.39,1.9,1.11,1.11,0,0,1-1.19.13,3.23,3.23,0,0,1-.75-.51,5.3,5.3,0,0,1-1-1.23,5.48,5.48,0,0,1-.81-2.54,3.07,3.07,0,0,1,.54-2.33,19.44,19.44,0,0,0,0,2.27,5.5,5.5,0,0,0,.87,2.2,4.91,4.91,0,0,0,.92,1c.38.34.79.53.9.37a1.36,1.36,0,0,0,.13-1.13,7.91,7.91,0,0,0-.38-1.37A8.59,8.59,0,0,0,36,333.45C35.19,332.34,34.44,331.83,34.52,331.72Z"/><path class="cls-13" d="M60.14,22c.37-.1,2,13.36,1.15,15.14s-6.75,7-9,7-5.35,3.31-6,4.45L31.51,45.55l3.31-8.15-.4-10.24a11.51,11.51,0,0,1,1.44-6.11c1.14-2,2.76-4.13,4.3-3.5,2.8,1.15,2.8,2,2.8,2s2.64-2.42,3.55.38c0,0,3.45-2.55,5.11.76,0,0,3.82-2.29,4.84,2.93l.38,3.56S56.45,23,60.14,22Z"/><path class="cls-14" d="M48.18,38.23a6.37,6.37,0,0,1,1.59-1.85,14.2,14.2,0,0,1,5.1-2.94,14.35,14.35,0,0,1,2.31-.55l-.21.25c0-1.7-.18-3.16-.21-4.23a5.35,5.35,0,0,1,.09-1.68,8.39,8.39,0,0,1,.22,1.66,37.87,37.87,0,0,1,.4,4.24v.21l-.21,0a15.66,15.66,0,0,0-2.22.55,16,16,0,0,0-5,2.73C48.84,37.58,48.24,38.29,48.18,38.23Z"/><path class="cls-14" d="M39.25,23.12a2.4,2.4,0,0,1,.36.82,3.59,3.59,0,0,1,.06,2.47c-.2.54-.78.88-.9,1.35a1.68,1.68,0,0,0,.45,1.54,2.45,2.45,0,0,0,3.51-.15,3.64,3.64,0,0,0,.68-2c.07-.71.07-1.42.08-2.08a31.94,31.94,0,0,0-.21-3.54,5.76,5.76,0,0,0-.57-2.26,5.64,5.64,0,0,0-.54-.67s.35.08.71.56a5.3,5.3,0,0,1,.77,2.33A26.24,26.24,0,0,1,44,25.08a21.22,21.22,0,0,1,0,2.14,4.08,4.08,0,0,1-.79,2.25,2.91,2.91,0,0,1-4.27.14,2.11,2.11,0,0,1-.5-2,2,2,0,0,1,.54-.78,2.2,2.2,0,0,0,.44-.59A3.64,3.64,0,0,0,39.41,24,3.85,3.85,0,0,1,39.25,23.12Z"/><path class="cls-14" d="M42.72,29.47s.09.23.34.54a2.18,2.18,0,0,0,1.43.77,2.5,2.5,0,0,0,2.15-.93A4.88,4.88,0,0,0,47.74,27,12.46,12.46,0,0,0,47,21.36c-.5-1.4-1-2.18-.95-2.23a5.63,5.63,0,0,1,1.29,2.09,11.52,11.52,0,0,1,.89,5.87A5.18,5.18,0,0,1,47,30.18a2.83,2.83,0,0,1-2.56,1,2.26,2.26,0,0,1-1.54-1C42.68,29.73,42.7,29.47,42.72,29.47Z"/><path class="cls-14" d="M47.18,29.83s.14.17.41.42a2.49,2.49,0,0,0,1.36.63A2.63,2.63,0,0,0,51,30.3,4.1,4.1,0,0,0,52.38,28c.38-2-.26-3.83-.46-5.16a9.37,9.37,0,0,1-.31-2.19,9.37,9.37,0,0,1,.67,2.11c.17.66.39,1.44.56,2.34a7.72,7.72,0,0,1,.05,3,4.42,4.42,0,0,1-1.57,2.61,2.94,2.94,0,0,1-2.43.56,2.46,2.46,0,0,1-1.44-.85C47.2,30.06,47.16,29.83,47.18,29.83Z"/><path class="cls-14" d="M52.38,29.44s.08.23.19.63a4.34,4.34,0,0,0,.73,1.55,2.13,2.13,0,0,0,2.12.82,2.24,2.24,0,0,0,1.34-2.37,34.29,34.29,0,0,0-.51-5.84,21,21,0,0,1-.41-2.41,8,8,0,0,1,.78,2.34,26,26,0,0,1,.67,5.92,2.68,2.68,0,0,1-1.74,2.83A2.49,2.49,0,0,1,53,31.84a3.89,3.89,0,0,1-.63-1.73C52.33,29.68,52.35,29.44,52.38,29.44Z"/><path class="cls-13" d="M193.89,165.42s-5,7.4-6.28,9.87c-1,2-5.08,10.38-5.27,15.79l10,11.62s4.52-3.45,5.24-4.75a4.46,4.46,0,0,0,.06-3.16,12,12,0,0,1,2.11-1.46s-.43,2.31,1.3,2.74,7.51-5.63,7.51-5.63.43-2.6-1.15-2.74c0,0,1.15-3.61,0-4.62,0,0,1.3-2.89-.29-4.19,0,0-.72-3.32-1.88-4.47s-12.89,2.31-12.89,2.31,2.78-6.18,3.07-7.91S193.89,165.42,193.89,165.42Z"/><path class="cls-14" d="M201.11,188.22s-.09.19-.33.47a4.59,4.59,0,0,0-.84,1.24,2.46,2.46,0,0,0-.3.94,2.2,2.2,0,0,0,.22,1.07,1.38,1.38,0,0,0,2.07.33,24.45,24.45,0,0,0,2.1-1.78l1.73-1.5a8.62,8.62,0,0,1,1.69-1.29,8.62,8.62,0,0,1-1.44,1.56l-1.66,1.59a19.08,19.08,0,0,1-2.16,1.87,2.27,2.27,0,0,1-1.56.35,1.54,1.54,0,0,1-1.22-.92,2.57,2.57,0,0,1-.21-1.31,2.71,2.71,0,0,1,.4-1.07,3.87,3.87,0,0,1,1-1.21C200.92,188.32,201.09,188.2,201.11,188.22Z"/><path class="cls-14" d="M201.75,177.86a15.26,15.26,0,0,1-1.9,2.09,8.77,8.77,0,0,0-1.87,2.29,1.72,1.72,0,0,0,1.61,2.24,2.9,2.9,0,0,0,1.53-.85l1.36-1.2,2.32-2a15.25,15.25,0,0,1,2.22-1.75,15.27,15.27,0,0,1-2,2l-2.24,2.09L201.46,184a3.31,3.31,0,0,1-1.82,1,2.2,2.2,0,0,1-2.11-2.94,4.73,4.73,0,0,1,1-1.39c.35-.38.72-.68,1-1A15.27,15.27,0,0,1,201.75,177.86Z"/><path class="cls-14" d="M199.81,185s-.2.09-.5.29a2,2,0,0,0-.79,1.21,1.62,1.62,0,0,0,.91,1.73,1.55,1.55,0,0,0,1.18.11,3.82,3.82,0,0,0,1.21-.71c3.24-2.55,5.45-5.09,5.56-5a7.58,7.58,0,0,1-1.35,1.75,31.87,31.87,0,0,1-3.9,3.64,4.15,4.15,0,0,1-1.39.79,2,2,0,0,1-1.54-3.72C199.57,185,199.81,185,199.81,185Z"/><path class="cls-14" d="M197.87,196.75c-.08,0-.13-.63-.53-1.61a5.27,5.27,0,0,0-2.9-2.89l-1.1-.42,1.16-.05h0l0,.49h-.06l0-.49h0l-.2.12a10.33,10.33,0,0,0,1.09-3,11.59,11.59,0,0,0-.59-6.46c-.61-1.58-1.33-2.4-1.24-2.46s.21.17.53.54a8.91,8.91,0,0,1,1.06,1.77,11.08,11.08,0,0,1,.76,6.7,10.18,10.18,0,0,1-1.17,3.13l-.07.12h-.16l0-.49h.06l0,.49h0l.07-.47a5.32,5.32,0,0,1,3,3.24,4.85,4.85,0,0,1,.26,1.25C197.91,196.58,197.9,196.74,197.87,196.75Z"/><path class="cls-2" d="M71.68,260.18l-1.49,13.41a84.33,84.33,0,0,0,.06,19.18l5.85,49.69L57.37,320.22s-18,10.81-18.28,21.18c0,0,35.37,40.16,44.32,45.81s32,0,33-17.67c0,0,2.12,16.25,22.61,15.78s20.73-49.47,20.73-49.47l-9-73.73Z"/><path class="cls-5" d="M116.46,370a3.37,3.37,0,0,1,0-.68l0-2,.24-7.17,1-23.65.61-13c.24-4,.23-7.62.91-10.62a10.88,10.88,0,0,1,3.54-6.19,6.63,6.63,0,0,1,1.68-1,3.78,3.78,0,0,1,.48-.17l.17,0a9.54,9.54,0,0,0-2.2,1.38,10.9,10.9,0,0,0-3.31,6.12c-.63,2.94-.58,6.57-.79,10.57l-.57,13-1.15,23.64-.41,7.16-.14,1.95A3.34,3.34,0,0,1,116.46,370Z"/><path class="cls-5" d="M122,261.24a5.61,5.61,0,0,1,.27,1.2c.14.78.32,1.91.52,3.31.4,2.8.85,6.69,1.17,11s.43,8.23.44,11.06c0,1.42,0,2.56,0,3.35a5.6,5.6,0,0,1-.1,1.23,5.62,5.62,0,0,1-.11-1.23l-.13-3.35c-.1-2.83-.28-6.73-.59-11s-.71-8.19-1-11l-.36-3.33A5.62,5.62,0,0,1,122,261.24Z"/><path class="cls-5" d="M114.78,264.57s.15-.17.52-.25a2.11,2.11,0,0,1,1.56.34,2.18,2.18,0,0,1,.77.85,2,2,0,0,1,.15,1.33,2.46,2.46,0,0,1-2.17,1.91,2.58,2.58,0,0,1-2.42-1.59,2.39,2.39,0,0,1,.3-2.35,2.55,2.55,0,0,1,1.27-.95c.36-.11.57-.09.58-.06a3.41,3.41,0,0,0-1.54,1.21,2,2,0,0,0-.16,2,2.13,2.13,0,0,0,2,1.26,2,2,0,0,0,1.73-1.5,1.67,1.67,0,0,0-.66-1.77,2.08,2.08,0,0,0-1.32-.44C115,264.53,114.8,264.61,114.78,264.57Z"/><path class="cls-5" d="M76.52,342.29c.09,0-.31,1.51-.67,4a40,40,0,0,0,1.84,19c.82,2.33,1.5,3.72,1.41,3.76a4.34,4.34,0,0,1-.55-.93,25.8,25.8,0,0,1-1.21-2.7,35.85,35.85,0,0,1-1.86-19.21,25.8,25.8,0,0,1,.67-2.88A4.33,4.33,0,0,1,76.52,342.29Z"/><path class="cls-5" d="M76.17,364.2a9.93,9.93,0,0,0,1-.43A4.83,4.83,0,0,0,79,361.45a13.69,13.69,0,0,0,.89-4.69c.09-1.88.19-4,.2-6.4.06-4.74-.14-10.39-.69-16.64s-1.45-13.09-2.63-20.23-2.42-13.94-3.2-20.18a111.26,111.26,0,0,1-1.06-16.66,66.57,66.57,0,0,1,1.1-11.2c.22-1.31.51-2.31.66-3l.2-.77a1,1,0,0,1,.08-.26,1.07,1.07,0,0,1,0,.27l-.15.78c-.11.69-.38,1.69-.57,3a71.56,71.56,0,0,0-.93,11.17A115.16,115.16,0,0,0,74,293.26c.8,6.22,2.06,13,3.24,20.16s2.07,14,2.59,20.27a160.91,160.91,0,0,1,.58,16.68c0,2.38-.16,4.52-.28,6.41a13.61,13.61,0,0,1-1,4.75,4.81,4.81,0,0,1-2,2.33A2.82,2.82,0,0,1,76.17,364.2Z"/><path class="cls-5" d="M51.16,324.75a7.64,7.64,0,0,1,1.12.91c.7.61,1.69,1.52,2.86,2.7a74.29,74.29,0,0,1,8.3,10c1.46,2.07,2.76,4.11,3.91,6a29.9,29.9,0,0,0,3.34,4.7,9.57,9.57,0,0,0,3.06,2.31c.84.36,1.35.45,1.34.5a1,1,0,0,1-.37,0,5.84,5.84,0,0,1-1-.28,9.08,9.08,0,0,1-3.25-2.24,28,28,0,0,1-3.48-4.7c-1.17-1.85-2.47-3.87-3.93-5.93a87.28,87.28,0,0,0-8.14-10c-1.13-1.2-2.08-2.15-2.73-2.81A7.67,7.67,0,0,1,51.16,324.75Z"/><path class="cls-10" d="M79.16,127.41s-11.54-4.33-16.83-8.66S42,90.3,42,90.3l7.63-43.53L31,37.54S9.42,89.33,11.82,98.95s41.41,63.12,41.41,63.12l9.58,38,10.1,34.14s-4.33,1.92-1.92,8.65,5.5,9.65,2.4,11.06c-5,2.28-1.71,6.3-1.71,6.3l81.14,2s-10.39-65.87-8.6-77.9c1.82-12.27.06-33.19.06-33.19l-18.48-5.63Z"/><path class="cls-10" d="M144.28,151.08c8.42,3.87,17.38,58.74,17.38,58.74l19.65-20.9,12,15.13s-17,29.81-20.87,32.85c-3.29,2.57-13.21,10.31-19.89,7.66s-10.85-50.11-10.85-50.11Z"/><path class="cls-10" d="M87.87,132.14s-1-6.41,1.12-5.44c.09,0,29.8,9.37,29.59,11.44-.18,1.75.21,7.31.21,7.31H99.18Z"/><path class="cls-2" d="M69.41,173.86a9.38,9.38,0,0,1,0-1.59c0-.51,0-1.14,0-1.86s0-1.55-.05-2.46a58.28,58.28,0,0,0-.62-6.38A62.64,62.64,0,0,0,67,153.91a62.62,62.62,0,0,0-2.75-7.34,58.28,58.28,0,0,0-3-5.68c-.45-.8-.92-1.48-1.3-2.09s-.74-1.13-1-1.55a9.38,9.38,0,0,1-.86-1.34,9.31,9.31,0,0,1,1,1.22c.32.4.71.9,1.11,1.5s.91,1.27,1.38,2.06a51.9,51.9,0,0,1,3.1,5.67,58.17,58.17,0,0,1,2.82,7.4,58.16,58.16,0,0,1,1.69,7.73,51.89,51.89,0,0,1,.51,6.44c0,.92,0,1.75,0,2.48s-.06,1.36-.11,1.87A9.32,9.32,0,0,1,69.41,173.86Z"/><path class="cls-2" d="M84.93,244.7a8.61,8.61,0,0,1-2.27-1A26.61,26.61,0,0,1,73.74,236a8.62,8.62,0,0,1-1.27-2.11,54.66,54.66,0,0,0,5.64,6.1A54.66,54.66,0,0,0,84.93,244.7Z"/><path class="cls-2" d="M109.78,254.05a7,7,0,0,1-1.3.47,34.52,34.52,0,0,1-3.65.94,45.12,45.12,0,0,1-5.55.79,46.66,46.66,0,0,1-13.66-.92,45.13,45.13,0,0,1-5.39-1.53,34.52,34.52,0,0,1-3.5-1.42,7,7,0,0,1-1.23-.64,7.07,7.07,0,0,1,1.31.46c.82.34,2,.77,3.53,1.26a51.68,51.68,0,0,0,5.37,1.41,50.25,50.25,0,0,0,13.53.91,51.71,51.71,0,0,0,5.51-.68c1.56-.28,2.81-.55,3.67-.77A7.08,7.08,0,0,1,109.78,254.05Z"/><path class="cls-2" d="M136.81,204a1.75,1.75,0,0,1,.08.48c0,.32.1.79.12,1.4a30.25,30.25,0,0,1-.16,5.17,32.89,32.89,0,0,1-19.36,26.43,30.25,30.25,0,0,1-4.88,1.72c-.59.17-1.06.24-1.37.31a1.74,1.74,0,0,1-.49.07,17.19,17.19,0,0,1,1.81-.57,35.66,35.66,0,0,0,4.78-1.86,33.56,33.56,0,0,0,19.15-26.14,35.66,35.66,0,0,0,.33-5.12A17.19,17.19,0,0,1,136.81,204Z"/><path class="cls-2" d="M144.4,169.09a5.49,5.49,0,0,1,0,.87l-.12,2.5c-.07,1.08-.11,2.41-.13,3.95s-.07,3.29,0,5.23c0,3.88.21,8.49.53,13.61s.88,10.73,1.54,16.61c1.35,11.76,2.9,22.38,3.92,30.07.51,3.85.92,7,1.16,9.12l.28,2.48a5.47,5.47,0,0,1,.06.87,5.47,5.47,0,0,1-.17-.86l-.37-2.47L149.73,242c-1.11-7.68-2.71-18.29-4.07-30.06-.66-5.89-1.17-11.51-1.5-16.64s-.47-9.75-.42-13.64c0-1.94,0-3.7.11-5.24s.12-2.87.22-4l.21-2.49A5.45,5.45,0,0,1,144.4,169.09Z"/><path class="cls-2" d="M118.59,142.66a5.3,5.3,0,0,1-1.25.37,17.63,17.63,0,0,1-3.54.4,22.61,22.61,0,0,1-5.25-.56,36.63,36.63,0,0,1-6.14-2,58.85,58.85,0,0,1-10.18-5.76C91,134.25,90,133.54,89.35,133a6.21,6.21,0,0,1-1-.82,6.27,6.27,0,0,1,1.13.65l3,1.91a68.71,68.71,0,0,0,10.18,5.59,39.07,39.07,0,0,0,6,2,24,24,0,0,0,5.14.66A35.83,35.83,0,0,0,118.59,142.66Z"/><ellipse class="cls-2" cx="160.29" cy="216.72" rx="7.62" ry="0.26" transform="translate(-82.48 333.87) rotate(-79.27)"/><g class="cls-6"><path d="M112.22,239.21A40.88,40.88,0,0,1,103.8,241a5,5,0,0,1-3.63-.62,3.24,3.24,0,0,1-.82-3.68,5.35,5.35,0,0,1,2.84-2.74c4.4-2,10,.15,14.13-2.45,2-1.3,3.25-3.55,4.7-5.5a22.91,22.91,0,0,1,9.74-7.54,2.4,2.4,0,0,1,1.71-.21c1.24.47,1,2.29.41,3.49-4.16,8.82-11.09,15.59-20.65,17.5"/></g><g class="cls-6"><path d="M144.16,184.4c6,14.61,3.88,31.92,11.58,45.7,1.46,2.61,3.3,5.17,3.64,8.14s-1.61,6.5-4.6,6.48a5.46,5.46,0,0,1-4.63-2.79c-.85-1.64-.78-3.76-1-5.6-1.3-11.28-3.16-22.58-4.2-33.89-.55-6-.37-12-.85-18"/></g><g class="cls-6"><path d="M89.54,133.11a59.08,59.08,0,0,0,16.08,13.14,16.19,16.19,0,0,0,4.76,1.94,6.67,6.67,0,0,0,5-.82,3.19,3.19,0,0,0,1.36-1.75,1.84,1.84,0,0,0-.68-2,3.09,3.09,0,0,0-1.52-.33c-9-.48-17.7-5.2-25-10.18"/></g><path class="cls-2" d="M97.52,137.95a8.11,8.11,0,0,1,.31-8.29,24.15,24.15,0,0,0-.78,4.12A24.15,24.15,0,0,0,97.52,137.95Z"/><path class="cls-2" d="M107.65,142.05c-.15,0,.31-2,.25-4.51s-.6-4.46-.45-4.5a12.15,12.15,0,0,1,.2,9Z"/><path class="cls-2" d="M114.79,143.73c-.14-.06.46-1.58.57-3.55s-.29-3.55-.14-3.6a7.76,7.76,0,0,1-.43,7.15Z"/><path class="cls-2" d="M90.65,133.91a4.53,4.53,0,0,1-.82-3.41,4.41,4.41,0,0,1,.83-2.41,1.09,1.09,0,0,1,.72-.4c.2,0,.3.06.29.09s-.41,0-.72.54a5.37,5.37,0,0,0-.6,2.22A16.64,16.64,0,0,0,90.65,133.91Z"/><path class="cls-2" d="M33.79,93.46a10.64,10.64,0,0,1,4.06-2.33,10.64,10.64,0,0,1,4.6-.87c0,.16-2,.47-4.42,1.35S33.88,93.59,33.79,93.46Z"/><path class="cls-11" d="M143.27,188.4l-.84-.19-2.41-.6c-1-.27-2.32-.58-3.81-.92s-3.18-.75-5.07-1.13c-3.76-.81-8.27-1.65-13.29-2.44s-10.58-1.48-16.42-2-11.44-.77-16.52-.89-9.67-.05-13.51.09c-1.92,0-3.66.15-5.19.23s-2.84.16-3.91.24l-2.47.17L59,181s4.74-.52,12.43-.83c3.85-.16,8.43-.22,13.52-.14s10.68.37,16.54.87,11.4,1.24,16.43,2,9.53,1.66,13.29,2.49C138.69,187.07,143.27,188.4,143.27,188.4Z"/><path class="cls-11" d="M135,218.13l-.67-.08-1.93-.28c-.83-.14-1.86-.25-3.05-.39s-2.55-.29-4.06-.42c-6-.57-14.37-.93-23.59-.9s-17.57.42-23.61.82c-3,.19-5.46.39-7.14.52l-1.94.16-.68,0,.67-.08,1.94-.2c1.68-.16,4.12-.38,7.14-.59,6-.44,14.38-.84,23.62-.88s17.59.36,23.61,1S135,218.13,135,218.13Z"/><path class="cls-11" d="M147,224.15a2.84,2.84,0,0,1-.55,0L145,224l-5-.39-5-.45-1.5-.16A2.83,2.83,0,0,1,133,223a2.82,2.82,0,0,1,.55,0l1.51.09,5,.39,5,.45,1.5.16A2.83,2.83,0,0,1,147,224.15Z"/><path class="cls-11" d="M151.57,257.85l-.81-.16c-.53-.1-1.3-.29-2.31-.44a56.9,56.9,0,0,0-8.62-.77A119,119,0,0,0,127,257c-4.82.42-10.11,1-15.7,1.3a189.21,189.21,0,0,1-28.59-.64C75.41,257,71,256.14,71,256.14l.82.1,2.33.33c2,.27,5,.65,8.61,1a195.29,195.29,0,0,0,28.57.57c5.58-.28,10.87-.88,15.69-1.28a116.08,116.08,0,0,1,12.85-.52,54.7,54.7,0,0,1,8.63.83c1,.16,1.78.36,2.31.48Z"/><path class="cls-11" d="M149.2,164.28l-.89-.25-2.53-.75-9.31-2.77c-7.87-2.32-18.76-5.44-30.84-8.71s-23.07-6.05-31-8l-9.44-2.3-2.57-.63-.89-.23.9.19,2.58.59,9.45,2.24c8,1.92,19,4.69,31.06,8s23,6.42,30.83,8.77l9.3,2.83,2.52.79Z"/><path class="cls-11" d="M66.53,148.25l-.18.07-.51.15-1.89.5-6.27,1.59c-1.22.31-2.4.57-3.44.88a8.2,8.2,0,0,0-2.59,1.21A4.77,4.77,0,0,0,50,154.69a2.41,2.41,0,0,1,.25-.68,4.59,4.59,0,0,1,1.28-1.49,8.08,8.08,0,0,1,2.63-1.27c1.05-.32,2.23-.58,3.45-.89l6.28-1.53,1.91-.44.52-.11Z"/><path class="cls-11" d="M57.49,114.31l-.32,0-.93.08c-.81.05-2,.18-3.4.38a52,52,0,0,0-21,7.86c-1.21.79-2.17,1.46-2.82,1.95l-.75.55-.27.18a38.65,38.65,0,0,1,3.76-2.81,49.7,49.7,0,0,1,21.05-7.88A38.67,38.67,0,0,1,57.49,114.31Z"/><path class="cls-11" d="M43.1,85.28l-.25-.15-.7-.47c-.6-.42-1.49-1-2.61-1.63a37.77,37.77,0,0,0-9.37-3.85,35.93,35.93,0,0,0-10.07-1.06c-1.3.05-2.35.14-3.07.24l-.83.09-.29,0A28.67,28.67,0,0,1,20.09,78a34.46,34.46,0,0,1,10.13,1,36.14,36.14,0,0,1,9.39,3.92A31.06,31.06,0,0,1,43.1,85.28Z"/><path class="cls-11" d="M46.6,55.48l-.16-.15L46,54.89c-.37-.39-.92-.94-1.64-1.58a28,28,0,0,0-13.26-6.6c-.94-.18-1.71-.3-2.25-.36l-.61-.08-.21,0h.22l.62,0a20.7,20.7,0,0,1,2.26.29A26.6,26.6,0,0,1,44.47,53.2a20.7,20.7,0,0,1,1.6,1.63l.4.47A.84.84,0,0,1,46.6,55.48Z"/><path class="cls-11" d="M159.5,200.1a3.22,3.22,0,0,1-.59.07c-.38,0-.92.08-1.59.18a22.42,22.42,0,0,0-9.73,3.86c-.55.39-1,.72-1.28,1a3.23,3.23,0,0,1-.47.35,3.2,3.2,0,0,1,.42-.41,15.43,15.43,0,0,1,1.25-1,20.62,20.62,0,0,1,9.8-3.88,15.47,15.47,0,0,1,1.61-.12A3.2,3.2,0,0,1,159.5,200.1Z"/><path class="cls-11" d="M181.6,222.46a16.54,16.54,0,0,1-3.24-1.63,20.83,20.83,0,0,1-3.12-2.42,21.85,21.85,0,0,1-5.38-8,20.83,20.83,0,0,1-1.08-3.8,16.55,16.55,0,0,1-.3-3.62,1.17,1.17,0,0,1,0,.25l.05.72a9.7,9.7,0,0,0,.12,1.13c.07.44.11.94.24,1.49a21.74,21.74,0,0,0,1.11,3.76,22.33,22.33,0,0,0,5.34,7.9,21.74,21.74,0,0,0,3.07,2.44c.45.33.91.56,1.29.78a9.73,9.73,0,0,0,1,.53l.65.32Z"/><path class="cls-15" d="M320.65,137.71l.32,1a1.46,1.46,0,0,0,1,1l1,.32-1,.35a1.46,1.46,0,0,0-.91.91l-.37,1.06-.41-1.11a1.46,1.46,0,0,0-.91-.88l-1-.33,1-.33a1.46,1.46,0,0,0,.89-.85Z"/><path class="cls-15" d="M287.32,90.61l.32,1a1.46,1.46,0,0,0,1,1l1,.32-1,.35a1.46,1.46,0,0,0-.91.91l-.37,1.06-.41-1.11a1.46,1.46,0,0,0-.91-.88l-1-.33,1-.33a1.46,1.46,0,0,0,.89-.85Z"/><path class="cls-15" d="M173.75,294.55l.32,1a1.46,1.46,0,0,0,1,1l1,.32-1,.35a1.46,1.46,0,0,0-.91.91l-.37,1.06-.41-1.11a1.46,1.46,0,0,0-.91-.88l-1-.33,1-.33a1.46,1.46,0,0,0,.89-.85Z"/><path class="cls-15" d="M287.32,261.69l.32,1a1.46,1.46,0,0,0,1,1l1,.32-1,.35a1.46,1.46,0,0,0-.91.91l-.37,1.06-.41-1.11a1.46,1.46,0,0,0-.91-.88l-1-.33,1-.33a1.46,1.46,0,0,0,.89-.85Z"/><path class="cls-15" d="M311.18,97.12l1.32,4.24a6,6,0,0,0,3.94,3.95l4.25,1.32-4.27,1.45a6,6,0,0,0-3.74,3.72l-1.5,4.34-1.67-4.53a6,6,0,0,0-3.75-3.62l-4.09-1.35,4-1.37a6,6,0,0,0,3.67-3.51Z"/><path class="cls-15" d="M213.48,340.81,214.8,345a6,6,0,0,0,3.94,3.95l4.25,1.32-4.27,1.45a6,6,0,0,0-3.74,3.72l-1.5,4.34-1.67-4.53a6,6,0,0,0-3.75-3.62L204,350.32l4-1.37a6,6,0,0,0,3.67-3.51Z"/><path class="cls-15" d="M196,136l.54,1.75a2.48,2.48,0,0,0,1.63,1.63l1.75.55-1.76.6a2.48,2.48,0,0,0-1.54,1.53l-.62,1.79L195.3,142a2.48,2.48,0,0,0-1.55-1.49l-1.69-.56,1.67-.56a2.48,2.48,0,0,0,1.51-1.45Z"/><path class="cls-15" d="M242.1,332.07l.54,1.75a2.48,2.48,0,0,0,1.63,1.63L246,336l-1.76.6a2.48,2.48,0,0,0-1.54,1.53l-.62,1.79-.69-1.87a2.48,2.48,0,0,0-1.55-1.49l-1.69-.56,1.67-.56a2.48,2.48,0,0,0,1.51-1.45Z"/><path class="cls-15" d="M219.54,224.15c0,1-24.64,83.68-24.64,83.68l21.18-9.47,11.6,25.57,14.91-98.5Z"/><polygon class="cls-15" points="237.57 227.64 242.59 322.48 261.04 296.46 284.87 313.51 261.04 220.37 237.57 227.64"/><g class="cls-16"><path d="M217.94,230.41a9.08,9.08,0,0,0,8.12,6.36c2.17.09,4.56-.57,6.38.6s2.61,3.93,4.75,4.23c2.53.35,4-3,6.39-3.8,3.25-1.06,6.66,2.86,9.85,1.65,2.07-.78,3-3.44,5.18-4a7.28,7.28,0,0,1,2.88.09,5.6,5.6,0,0,0,3.26-.61l-1.17-4.57-2-8.87H218.75Z"/></g><path class="cls-15" d="M243,156.57a28.3,28.3,0,0,1,6.18,1.24,2.65,2.65,0,0,1,.19-1l5.42-14.53.13-.11a4.74,4.74,0,0,1-1.79-1.8,5.63,5.63,0,0,0-4.87-2.6c-1,4.12-2.19,9.76-3.07,13.27A15.64,15.64,0,0,1,243,156.57Z"/><path class="cls-15" d="M216.89,200.75a28.33,28.33,0,0,1-3.22-6.42,2.39,2.39,0,0,1-1,.58l-.43.15a5.55,5.55,0,0,1-.84.45,24.57,24.57,0,0,1-2.78.89l-3.42.95c-2.43.66-4.64,1.23-6.24,1.62a13.64,13.64,0,0,1-2.62.52,13.65,13.65,0,0,1,2.53-.88L201,198l-5,1.11c-.65,2.84-2.66,5.88-.88,8.06a3.23,3.23,0,0,0,.64.59c6.37-2.36,14.55-5.42,19.9-6.83A3.43,3.43,0,0,1,216.89,200.75Z"/><path class="cls-15" d="M233.29,155.86c0,.28,0,.53,0,.75s0,.52,0,.77a28.47,28.47,0,0,1,7-.92c0-.13,0-.26,0-.38l.33-5.26c0-.35,0-.71,0-1.08.06-3.78.21-6.91.35-7.52-1.05-1.25-2.06-3.87-4.21-4.15-1.77-.23-2.69,0-3.43.72C233.4,144,233.27,150.69,233.29,155.86Z"/><path class="cls-17" d="M205.66,174.29l1.32.48c-1.88-.74-3.79-1.54-5.63-2.33C202.62,173,204.06,173.68,205.66,174.29Z"/><path class="cls-15" d="M212.09,183.48a28.35,28.35,0,0,1,1.08-6.49c-.56-.17-1.14-.36-1.73-.56a29.3,29.3,0,0,1-6-1.66,56.93,56.93,0,0,1-6.35-3c-1.1-.59-1.88-1-2.25-1.29l-1.2-.51c-.78,1.27-2,2.31-2.85,3.57a4.6,4.6,0,0,0-.71,2.41c6.51,1.79,14.37,4.13,19.84,7.39Z"/><path class="cls-15" d="M214.28,173.84a28.37,28.37,0,0,1,3-5.33l-.43-.28a50.68,50.68,0,0,1-9-7.64l-.07-.07c-1.22-1.06-2.38-2.07-3.42-3a2.92,2.92,0,0,1-.69,1.17c-1.55,1.55-4.46.55-6.17,1.92a3.07,3.07,0,0,0-1.09,2,173.06,173.06,0,0,1,15.77,9.93C213,173,213.75,173.49,214.28,173.84Z"/><path class="cls-15" d="M217,164c.7,1,1.33,1.86,1.79,2.54a28.59,28.59,0,0,1,5.31-4.86c-.6-.76-1.34-1.75-2.16-2.85-.73-.84-1.56-1.83-2.43-2.93-1.28-1.61-2.37-3.1-3.14-4.21a8.65,8.65,0,0,1-1.13-1.86s.31.27.74.8c-.71-1-1.37-1.85-1.95-2.61a5.3,5.3,0,0,1-1.92,2.27c-1.26.75-2.93.71-4.36,1a107.31,107.31,0,0,1,8,10.92Z"/><path class="cls-15" d="M225.87,160.5a28.3,28.3,0,0,1,5.18-2.43l-.2-.67c-.39-1.35-.85-3.23-1.26-5.34s-.68-4-.83-5.42a16.14,16.14,0,0,1-.14-2.17l-.06-.39a5.06,5.06,0,0,1-3.72-1.21c-1.65-1.48-4.45-1.3-6.61-.36,2.27,5.49,5.68,13,7.57,17.8Z"/><path class="cls-17" d="M218.54,166.81l-.07-.08.06.1Z"/><path class="cls-15" d="M213.17,192.76a28.38,28.38,0,0,1-1.09-6.88h-.17c-2,.1-4.34.07-6.8,0-.75,0-1.52,0-2.34,0-2.38-.05-4.53-.19-6.08-.35-.7-.07-1.28-.14-1.7-.2l-1.52-.08c-.34.52-.68,1-1,1.58-.86,1.53-1.42,3.45-.6,5l.09.13q9.92.23,19.84.58A3.43,3.43,0,0,1,213.17,192.76Z"/><path class="cls-15" d="M222.46,207.47l.42-.27a28.59,28.59,0,0,1-5-5.13,2.38,2.38,0,0,1-.78.84,2.06,2.06,0,0,1-.57.78c-1.28,1-3.08,2.11-5.08,3.42s-3.83,2.44-5.17,3.25a12.26,12.26,0,0,1-2.22,1.22,12.27,12.27,0,0,1,2-1.53c.73-.51,1.64-1.12,2.65-1.78-1.94,1.17-3.89,2.34-5.64,3.42.33,1.47-.19,3.2.49,4.58s2.08,1.81,3.65,2.08l11.9-8.84A14.67,14.67,0,0,1,222.46,207.47Z"/><path class="cls-17" d="M276.8,212.07l1.62,1.28.1-.11-.53-.36Z"/><path class="cls-15" d="M262,203.53a28.58,28.58,0,0,1-5.1,4.6,16.09,16.09,0,0,1,1.47,1.72l.17.12a10.68,10.68,0,0,1,2,2.76l2.06,3.51.07.12c1.34,2.23,2.67,4.55,3.86,6.57a3.11,3.11,0,0,1,.59-.9c2.08-2.17,6.29-.05,8.5-2.09a3.17,3.17,0,0,0,.55-.7c-4-4.41-9.45-10.59-12.88-14.2A8.92,8.92,0,0,1,262,203.53Zm1.59,4.74a35.16,35.16,0,0,1,2.48,3.57,35.19,35.19,0,0,1,2.47,3.58,18.72,18.72,0,0,1-4.95-7.15Z"/><path class="cls-17" d="M241.21,142.4l-.06-.07c0,.12,0,.28,0,.49Z"/><path class="cls-15" d="M268.72,188.19a28.25,28.25,0,0,1-1.37,6c.27.11.53.24.78.37L270.9,196a17.75,17.75,0,0,1-2.68-1.66,86,86,0,0,1,8.45,4.24c2,1.1,3.9,2.12,5.33,2.93l.92.4a4.13,4.13,0,0,1,.21-1.39c.78-2.25,3.66-3.43,4.65-5.41C281.74,192.9,274,190.15,268.72,188.19Z"/><path class="cls-15" d="M263.29,201.88l2,1.55.27.18c1.64,1.11,3.89,2.67,6.35,4.43s4.67,3.36,6.26,4.55l.6.45c1-.72,2.19-1.17,3.23-1.79-5.14-4.5-11.21-10.71-15.83-14.25A28.42,28.42,0,0,1,263.29,201.88Z"/><path class="cls-15" d="M230.73,212.06a5.27,5.27,0,0,0-.3-.57,28.31,28.31,0,0,1-5.22-2.62l-.14.18c-.36.45-.79.93-1.24,1.44-.82,1-1.94,2.29-3.24,3.68s-2.67,2.76-3.63,3.66a8.37,8.37,0,0,1-1.64,1.37s.09-.19.32-.45c-.82.82-1.59,1.61-2.29,2.37,1.1,2.29,0,5.63,1.89,7.48a3.23,3.23,0,0,0,1.17.75c4-5.37,9.44-12.32,13.32-16.63A1.65,1.65,0,0,1,230.73,212.06Z"/><path class="cls-15" d="M242.12,213.27a2.36,2.36,0,0,1,.45,1.31,6.2,6.2,0,0,1,.21,3.06l-.49,3.87c-.24,1.81-.48,3.5-.69,5-.15,1.91-.31,3.79-.47,5.49a13.3,13.3,0,0,0,3.46,2.36c1.92.62,3.63-.31,5.33-1.55-.39-6.41-.73-14.4-.47-20.1l.3.7c-.08-.33-.11-.52-.08-.53a11,11,0,0,1,1,2.27c.52,1.43,1.18,3.42,1.83,5.65.18.62.35,1.22.51,1.8.69,2.37,1.3,4.76,1.77,7a5.39,5.39,0,0,1,2.25-.46c1.76.06,3.62,1.1,5.29,1.32-2.82-6.83-5.83-15.38-7-21.22A28.27,28.27,0,0,1,242.12,213.27Zm3.63,10.88a29.58,29.58,0,0,1-.16-5.61,10.38,10.38,0,0,1,.16,5.61Z"/><path class="cls-15" d="M239.39,213.39l.11-.1a28.33,28.33,0,0,1-8.86-1.73,3.06,3.06,0,0,1,.23.32l.1.19c.59.16.77,1,.7,1.63a7.82,7.82,0,0,1-.17.93,8.6,8.6,0,0,1-.59,2.59c-.44,1.15-1,2.34-1.64,3.6a66.88,66.88,0,0,1-3.52,6.23c-.59.92-1.07,1.6-1.37,2a4.68,4.68,0,0,1,1.06.26c2.79,1.09,4.3,5.14,7.27,4.8l.27-.05c1.74-5.55,3.48-13.23,5.22-18.37A5.8,5.8,0,0,1,239.39,213.39Z"/><path class="cls-15" d="M264.09,169q.49-.45,1-.86a5.47,5.47,0,0,1,1.32-1.31c.79-.56,1.67-1.1,2.6-1.68,1.87-1.14,3.62-2.08,4.9-2.72.88-.43,1.53-.72,1.87-.85q.91-.52,1.78-1l0,0c-1.76-2.76.52-6.95-1.55-9.49a3.57,3.57,0,0,0-.31-.32c-5.21,3.86-11.93,8.24-17.78,11.7A28.58,28.58,0,0,1,264.09,169Zm1.25-11.18a28.64,28.64,0,0,1,3.71-2.3,21.45,21.45,0,0,1-7.34,4.72A28.64,28.64,0,0,1,265.34,157.85Z"/><path class="cls-15" d="M268.55,180.29a28.61,28.61,0,0,1,.38,4.6c0,.28,0,.56,0,.85h.47c.84,0,1.67.08,2.5.14h.59c1.72,0,4.09.16,6.71.36,2.45.18,4.67.41,6.34.61.42-1.89,2.75-2.83,3.43-4.66a3.85,3.85,0,0,0-.2-2.87c-6.11.34-14.36.85-19.46,1C269,180.31,268.8,180.31,268.55,180.29Z"/><path class="cls-15" d="M261.61,144.91l-10.14,12.75a3.38,3.38,0,0,1-.76.7,28.36,28.36,0,0,1,6.29,3.4l.14-.18h0a2.92,2.92,0,0,1,.62-1l1.58-1.79c3-3.6,6.43-7.24,9.28-10.26a4.43,4.43,0,0,1-1.56-1c-1.25-1.27-1.53-3.38-3-4.35a3.32,3.32,0,0,0-1.57-.5s0,.07,0,.11A3,3,0,0,1,261.61,144.91Z"/><path class="cls-15" d="M267.89,177.3l.83-.37a13.76,13.76,0,0,1,1.95-.88c1.24-.5,3-1.17,4.88-1.87s3.66-1.31,4.93-1.72a9.11,9.11,0,0,1,2.1-.57s-.25.18-.72.39l2.57-.85c0-2.09.58-4.29-.48-6.06a4.32,4.32,0,0,0-1-1.14c-5.45,2.2-12.9,5.66-17.68,6.66A28.25,28.25,0,0,1,267.89,177.3Z"/><path class="cls-17" d="M285.46,187.27v0l-2.23-.17Z"/><path class="cls-17" d="M231.2,157.31l.14.66.15-.05c-.14-.36-.28-.75-.41-1.18Z"/><path class="cls-17" d="M274,149.75h0Z"/><path d="M257.09,161.81a1.23,1.23,0,0,1,.05-.24l-.14.18Z"/><path class="cls-17" d="M264.57,169.77a2.79,2.79,0,0,1,.18-.94,3,3,0,0,1,.36-.67q-.53.41-1,.86C264.25,169.27,264.41,169.52,264.57,169.77Z"/><path d="M282.93,202s0-.09,0-.13l-.92-.4Z"/><path d="M265.33,203.43l-2-1.55-.12.15C263.55,202.25,264.31,202.74,265.33,203.43Z"/><path d="M266.15,222.69l.22.41.06-.16c-1.18-2-2.52-4.34-3.86-6.57C264,218.82,265.25,221.05,266.15,222.69Z"/><path class="cls-17" d="M241.55,213.29a2.81,2.81,0,0,1,1,1.11c0,.05,0,.12.06.18a2.36,2.36,0,0,0-.45-1.31Z"/><path class="cls-17" d="M231,212.07a4.58,4.58,0,0,1,.53,1.93,5.19,5.19,0,0,1,0,.63,7.82,7.82,0,0,0,.17-.93C231.74,213.06,231.56,212.24,231,212.07Z"/><path d="M225.2,208.86l-.09-.06c-.19.29-.58.8-1.13,1.48l-.16.19c.46-.5.88-1,1.24-1.44Z"/><path d="M213.38,176.31a2.24,2.24,0,0,1-1.1.24c-.26,0-.55-.08-.83-.12.59.2,1.17.39,1.73.56C213.24,176.77,213.3,176.54,213.38,176.31Z"/><path d="M224.45,161.41a9.6,9.6,0,0,1-1.55-1.52l-1-1.08c.81,1.11,1.55,2.09,2.16,2.85Z"/><path d="M233.21,157.4l.09,0c0-.25,0-.51,0-.77A3.58,3.58,0,0,1,233.21,157.4Z"/><path d="M240.33,156.46h.38c-.05-1.13-.07-3.2,0-5.64l-.33,5.26C240.34,156.2,240.33,156.33,240.33,156.46Z"/><path class="cls-15" d="M249.37,156.82a2.65,2.65,0,0,0-.19,1c.52.17,1,.35,1.54.55a3.38,3.38,0,0,0,.76-.7l10.14-12.75a3,3,0,0,0,.9-2.1s0-.07,0-.11c-1.83-.15-3.93.76-5.76.2a13.34,13.34,0,0,1-1.29-.46c-.52,1.57-1.39,4-2.4,6.68a78.79,78.79,0,0,1-3.42,8.38,78.85,78.85,0,0,1,2.93-8.56c1-2.71,2-5.1,2.59-6.63l-.22-.12-.13.11Zm5.28-4.18a25.72,25.72,0,0,1,2.93-3.49,16.67,16.67,0,0,1-2.53,3.82,16.68,16.68,0,0,1-3.11,3.35A25.71,25.71,0,0,1,254.65,152.65Z"/><path class="cls-15" d="M262,155.84c1.69-1.83,3.24-3.47,4.38-4.64a13.36,13.36,0,0,1,1.93-1.82,13.37,13.37,0,0,1-1.65,2.07c-1.07,1.23-2.58,2.91-4.26,4.74s-3.24,3.47-4.38,4.64a2,2,0,0,0-.69,1.16l.57.44c5.85-3.46,12.57-7.84,17.78-11.7a4.45,4.45,0,0,0-1.64-1h0c-1.68-.58-3.75-.56-5.41-1.22-2.85,3-6.3,6.66-9.28,10.26C260.15,157.9,261.06,156.91,262,155.84Z"/><path class="cls-15" d="M276.08,161.56a11.45,11.45,0,0,1-2,1.24c-1.24.72-2.95,1.7-4.81,2.84s-3.69,2.06-4.22,3.35a2.64,2.64,0,0,0-.24,1.24c.14.22.26.45.39.68,4.78-1,12.23-4.46,17.68-6.66-1.66-1.33-4.15-1.85-5.33-3.66q-.87.53-1.78,1C276,161.56,276.07,161.54,276.08,161.56Zm-3.51,6a11.08,11.08,0,0,1-2.89,1.08,13.92,13.92,0,0,1,5.64-2.47A11.07,11.07,0,0,1,272.57,167.51Z"/><path class="cls-15" d="M280.62,172.8c-1.24.5-3,1.17-4.89,1.87s-3.67,1.31-4.94,1.73a9,9,0,0,1-2.09.57s0,0,0,0l-.83.37a28.26,28.26,0,0,1,.66,3c.25,0,.5,0,.75,0,5.09-.12,13.34-.62,19.46-1a8.42,8.42,0,0,0-1.18-1.95c-1.09-1.37-2.44-2.63-2.92-4.31a6.39,6.39,0,0,1-.22-1.65l-2.57.85Z"/><path class="cls-15" d="M279.14,186.77l-6.69-.51a15.39,15.39,0,0,1-2.77-.32,10.1,10.1,0,0,1,2.19-.06c-.83-.06-1.67-.11-2.5-.14h-.47q0,1.24-.18,2.45c5.26,2,13,4.72,19.05,6.93a3.07,3.07,0,0,0,.34-1.31c.07-2.39-2.81-4.22-2.66-6.53l-2.23-.2Z"/><path class="cls-15" d="M270.9,196l-2.76-1.44c-.26-.13-.52-.26-.78-.37a28.26,28.26,0,0,1-1.14,2.81c4.62,3.54,10.69,9.75,15.83,14.25a4.25,4.25,0,0,0,1.59-1.49c1.25-2.18-.45-4.83-.69-7.33-1.55-.77-3.91-2-6.53-3.39C274.28,197.89,272.35,196.83,270.9,196Z"/><path class="cls-15" d="M271.65,208.46c-2.46-1.75-4.68-3.37-6.26-4.55-1.13-.85-1.93-1.47-2.29-1.78-.37.48-.75.95-1.14,1.4a8.92,8.92,0,0,0,1.24,1.52c3.43,3.61,8.84,9.79,12.88,14.2.94-1.56.72-3.83,1.84-5.36a3.81,3.81,0,0,1,.51-.54l-1.62-1.28C275.33,211.06,273.56,209.82,271.65,208.46Z"/><path class="cls-15" d="M262.05,216.51,260,213a11.5,11.5,0,0,0-1.77-2.72,1.9,1.9,0,0,0-1.93-.44c-.47.18-.6.48-.64.45s0-.36.56-.63a2.07,2.07,0,0,1,2.08.22,16.09,16.09,0,0,0-1.47-1.72c-.52.37-1,.72-1.59,1.05,1.15,5.84,4.17,14.39,7,21.22a3,3,0,0,0,2.32-.52c1.78-1.36,1-4.22,1.65-6.36l-.4-.64C264.84,221.26,263.5,219,262.05,216.51Z"/><path class="cls-15" d="M254,226.5a11,11,0,0,1,.43,2.43,12.19,12.19,0,0,1-.79-2.33l-1.66-5.69-1.69-5.68c-.24-.81-.42-1.44-.52-1.86l-.3-.7c-.26,5.7.09,13.69.47,20.1a25.77,25.77,0,0,1,4.81-3.23c-.46-2.22-1.07-4.62-1.77-7C253.37,224.06,253.71,225.43,254,226.5Z"/><path class="cls-15" d="M241.28,228.51a16.42,16.42,0,0,1-.57,2.88,16.4,16.4,0,0,1,.2-2.93c.19-1.8.49-4.28.86-7l.53-3.86a5.83,5.83,0,0,0-.13-3,2.62,2.62,0,0,0-1.09-1.25l-.6,0-1,0-.11.1a5.8,5.8,0,0,0-1.18,2.29c-1.74,5.15-3.48,12.83-5.22,18.37,2.06-.43,3.39-2.95,5.52-3.08a4,4,0,0,1,2.61,1c.17-1.7.32-3.57.47-5.49C241.48,227.22,241.38,227.91,241.28,228.51Z"/><path class="cls-15" d="M228.82,220.59c.61-1.25,1.21-2.44,1.66-3.54a7.9,7.9,0,0,0,.67-3,4.84,4.84,0,0,0-.42-2,1.65,1.65,0,0,0-1,.64c-3.88,4.31-9.35,11.26-13.32,16.63,2.2.83,5.21-.58,7.81-.3.23-.44.67-1.18,1.23-2.17C226.35,225.27,227.58,223.07,228.82,220.59Z"/><path class="cls-15" d="M215.64,218.73c.71-.83,2.5-2.71,4.57-4.93,2.26-2.41,4.13-4.48,4.79-5.08q-1-.64-1.9-1.35a30.93,30.93,0,0,1-2.5,2.11,13.73,13.73,0,0,1-3.12,2.09,13.73,13.73,0,0,1,2.8-2.5c.84-.65,1.62-1.21,2.19-1.59a14.67,14.67,0,0,0-3.38,2l-11.9,8.84c2.06.36,4.39.45,5.67,2a3.58,3.58,0,0,1,.49.77C214,220.34,214.82,219.55,215.64,218.73Z"/><path class="cls-15" d="M211.13,206.67c2-1.3,3.87-2.43,5.13-3.27a1.68,1.68,0,0,0,.58-.74,1.14,1.14,0,0,0,0-.7c-.13-.38-.4-.45-.38-.5s.33,0,.57.42a1.29,1.29,0,0,1,.09.86,1.34,1.34,0,0,1-.06.17,2.38,2.38,0,0,0,.78-.84c-.33-.43-.65-.87-.95-1.32a3.43,3.43,0,0,0-1.2.16c-5.35,1.41-13.53,4.47-19.9,6.83,2,1.46,5.65.83,6.94,3.08a3.07,3.07,0,0,1,.32.87c1.75-1.07,3.7-2.24,5.64-3.42Z"/><path class="cls-15" d="M205.07,196.85l3.43-.91c1.06-.28,2-.49,2.77-.77a5.32,5.32,0,0,0,2.16-1.42s-.06.27-.37.63a3.62,3.62,0,0,1-.81.68l.43-.15a2.39,2.39,0,0,0,1-.58c-.18-.52-.35-1-.5-1.57a3.43,3.43,0,0,0-1.34-.23q-9.92-.36-19.84-.58c.92,1.56,3,2.25,3.82,3.86a4.63,4.63,0,0,1,.22,3.28l5-1.11C202.25,197.63,203.62,197.24,205.07,196.85Z"/><path class="cls-15" d="M194.2,185.14a13.22,13.22,0,0,1,2.52,0c1.55.06,3.7.14,6.07.19s4.52.06,6.07.07a13.21,13.21,0,0,1,2.52.1,11.29,11.29,0,0,1-2.51.27c-1,.06-2.32.09-3.75.1,2.46.09,4.82.13,6.8,0h.17c0-.33,0-.66,0-1s0-.94,0-1.41l-.14-.09c-5.47-3.26-13.34-5.61-19.84-7.39a2.38,2.38,0,0,0,1.53,2.56l-.14-.9c1.61.71,2,2.88,1.54,4.56a12,12,0,0,1-1.56,3l1.52.08A2.35,2.35,0,0,1,194.2,185.14Zm14-1.41a11.28,11.28,0,0,1,3.28.84,22.06,22.06,0,0,1-6.66-1.18A11.28,11.28,0,0,1,208.19,183.73Z"/><path class="cls-15" d="M196.62,170.33a16.83,16.83,0,0,1,2.66,1.15l2.06,1c1.85.79,3.76,1.59,5.63,2.33a30.82,30.82,0,0,0,5.32,1.41,1.92,1.92,0,0,0,1.08-.18,1.13,1.13,0,0,0,.15-.12q.3-.88.64-1.74c-.92-.46-2.32-1.21-3.88-2.11a30.25,30.25,0,0,1-4.72-3,30.26,30.26,0,0,1,5,2.56l1.62,1a173.06,173.06,0,0,0-15.77-9.93c-.32,1.88.4,4.29-.19,6.23a5.07,5.07,0,0,1-.55,1.18l1.2.51C196.7,170.42,196.61,170.35,196.62,170.33Z"/><path class="cls-15" d="M206.28,158.69a13.46,13.46,0,0,1,1.81,1.64c1.09,1,2.6,2.46,4.35,3.94s3.39,2.75,4.6,3.65l.41.31c.35-.48.7-.95,1.08-1.41l-.06-.1c-.53-.63-1.19-1.47-1.89-2.45a17.41,17.41,0,0,1-2.38-3.94,8.9,8.9,0,0,1,1.52,1.86,107.31,107.31,0,0,0-8-10.92,3.66,3.66,0,0,0-2.17,1.17c-1.11,1.35-.7,3.46-1.24,5.07,1,.92,2.19,1.93,3.42,3A9.48,9.48,0,0,1,206.28,158.69Z"/><path class="cls-15" d="M219.92,155.56c2.51,3.16,4.6,5.69,4.54,5.85q.69-.47,1.41-.9l-.07-.19c-1.89-4.79-5.3-12.32-7.57-17.8a8.18,8.18,0,0,0-1.06.55c-1.67,1-2.21,3.17-3.12,4.94.58.76,1.24,1.65,1.95,2.61S218.25,153.46,219.92,155.56Zm2.58-1.45a18.68,18.68,0,0,1,1.62,3.23,18.68,18.68,0,0,1,1.45,3.31,15.48,15.48,0,0,1-3.07-6.54Z"/><path class="cls-15" d="M228.64,144.36a10.78,10.78,0,0,1,.48,2.22c.24,1.38.57,3.28,1,5.38.36,1.83.71,3.47,1,4.78.14.43.27.82.41,1.18.54-.18,1.08-.34,1.63-.49a25.45,25.45,0,0,1-.5-3.31,16.27,16.27,0,0,1-.35-3.38,8.72,8.72,0,0,1,.86,3.31c.09.67.13,1.28.15,1.81,0-5.17.11-11.82.1-17.07-.83.79-1.45,2.17-2.79,4.15a2.74,2.74,0,0,1-2.05,1.14l.06.39C228.62,144.4,228.63,144.36,228.64,144.36Z"/><path class="cls-15" d="M241.21,149.75c0,2.9-.15,5.43-.25,6.72q1,0,2,.1a15.64,15.64,0,0,0,2.19-5.53c.88-3.51,2.09-9.15,3.07-13.27a4.22,4.22,0,0,0-1.76.52c-1.54.85-3.41,4.57-4.38,4.58a1.27,1.27,0,0,1-.9-.47l0,.41C241.25,144,241.27,146.67,241.21,149.75Z"/><path class="cls-2" d="M270.79,176.4c1.27-.42,3-1,4.94-1.73s3.65-1.37,4.89-1.87l1.25-.53c.47-.21.74-.35.72-.39a9.11,9.11,0,0,0-2.1.57c-1.27.42-3,1-4.93,1.72s-3.64,1.36-4.88,1.87a13.76,13.76,0,0,0-1.95.88s0,0,0,0A9,9,0,0,0,270.79,176.4Z"/><path class="cls-2" d="M272.47,185.9h-.59a10.1,10.1,0,0,0-2.19.06,15.39,15.39,0,0,0,2.77.32l6.69.51,4.09.3,2.23.17a2.6,2.6,0,0,1,0-.27s0-.07,0-.11c-1.67-.2-3.89-.42-6.34-.61C276.56,186.06,274.19,185.94,272.47,185.9Z"/><path class="cls-2" d="M276.67,198.58a86,86,0,0,0-8.45-4.24A17.75,17.75,0,0,0,270.9,196c1.46.83,3.39,1.89,5.53,3,2.62,1.41,5,2.62,6.53,3.39,0-.13,0-.26,0-.39l-.93-.53C280.57,200.7,278.71,199.68,276.67,198.58Z"/><path class="cls-2" d="M272,208c-2.46-1.75-4.71-3.31-6.35-4.43l-.27-.18c-1-.69-1.78-1.18-2.16-1.4l.12-.15a28.37,28.37,0,0,0,5.44-13.7q.14-1.21.18-2.45c0-.28,0-.56,0-.85a28.61,28.61,0,0,0-.38-4.6,28.37,28.37,0,0,0-3.31-9.39c-.13-.23-.26-.46-.39-.68a2.64,2.64,0,0,1,.24-1.24c.53-1.28,2.39-2.19,4.22-3.35s3.57-2.12,4.81-2.84a11.45,11.45,0,0,0,2-1.24s-.11,0-.27.06c-.34.12-1,.41-1.87.85-1.29.64-3,1.58-4.9,2.72-.94.58-1.81,1.12-2.6,1.68a5.47,5.47,0,0,0-1.32,1.31,3,3,0,0,0-.36.67,2.79,2.79,0,0,0-.18.94c-.16-.25-.31-.5-.48-.74a28.58,28.58,0,0,0-6.17-6.6l-.57-.44a2,2,0,0,1,.69-1.16c1.14-1.17,2.69-2.81,4.38-4.64s3.19-3.51,4.26-4.74a13.37,13.37,0,0,0,1.65-2.07,13.36,13.36,0,0,0-1.93,1.82c-1.14,1.17-2.69,2.81-4.38,4.64-1,1.06-1.88,2.06-2.69,3l-1.58,1.79a2.92,2.92,0,0,0-.62,1h0a1.23,1.23,0,0,0-.05.24l-.09-.06a28.36,28.36,0,0,0-6.29-3.4c-.51-.2-1-.38-1.54-.55a28.3,28.3,0,0,0-6.18-1.24q-1-.09-2-.1c.1-1.29.2-3.82.25-6.72.05-3.07,0-5.72,0-6.93,0-.2,0-.37,0-.49l-.1-.11c-.13.61-.28,3.74-.35,7.52,0,.37,0,.73,0,1.08,0,2.44,0,4.51,0,5.64h-.38a28.47,28.47,0,0,0-7,.92l-.09,0a3.58,3.58,0,0,0,.08-.79c0-.22,0-.47,0-.75,0-.53-.06-1.14-.15-1.81a8.72,8.72,0,0,0-.86-3.31,16.27,16.27,0,0,0,.35,3.38,25.45,25.45,0,0,0,.5,3.31c-.55.15-1.09.31-1.63.49l-.15.05-.14-.66-.12-.57c-.28-1.3-.63-3-1-4.78-.41-2.09-.74-4-1-5.38a10.78,10.78,0,0,0-.48-2.22s0,0,0,.11a16.14,16.14,0,0,0,.14,2.17c.15,1.4.42,3.32.83,5.42s.88,4,1.26,5.34l.2.67a28.3,28.3,0,0,0-5.18,2.43q-.72.43-1.41.9c.05-.16-2-2.69-4.54-5.85-1.67-2.1-3.11-4-3.93-5-.43-.53-.7-.82-.74-.8a8.65,8.65,0,0,0,1.13,1.86c.76,1.11,1.86,2.61,3.14,4.21.87,1.09,1.7,2.08,2.43,2.93l1,1.08a9.6,9.6,0,0,0,1.55,1.52l-.35.25a28.59,28.59,0,0,0-5.31,4.86c-.46-.68-1.09-1.56-1.79-2.54l-1.28-1.78a8.9,8.9,0,0,0-1.52-1.86,17.41,17.41,0,0,0,2.38,3.94c.7,1,1.36,1.82,1.89,2.45l.07.08v0c-.37.46-.73.93-1.08,1.41l-.41-.31c-1.2-.9-2.85-2.17-4.6-3.65s-3.26-2.9-4.35-3.94a13.46,13.46,0,0,0-1.81-1.64,9.48,9.48,0,0,0,1.48,1.83l.07.07a50.68,50.68,0,0,0,9,7.64l.43.28a28.37,28.37,0,0,0-3,5.33c-.54-.35-1.26-.8-2.12-1.31l-1.62-1a30.26,30.26,0,0,0-5-2.56,30.25,30.25,0,0,0,4.72,3c1.57.9,3,1.65,3.88,2.11q-.35.86-.64,1.74a1.13,1.13,0,0,1-.15.12,1.92,1.92,0,0,1-1.08.18,30.82,30.82,0,0,1-5.32-1.41l-1.32-.48c-1.59-.61-3-1.26-4.31-1.84l-2.06-1a16.83,16.83,0,0,0-2.66-1.15s.08.09.24.2c.37.24,1.15.69,2.25,1.29a56.93,56.93,0,0,0,6.35,3,29.3,29.3,0,0,0,6,1.66c.28,0,.57.09.83.12a2.24,2.24,0,0,0,1.1-.24c-.07.22-.13.45-.2.68a28.35,28.35,0,0,0-1.08,6.49c0,.47,0,.94,0,1.41s0,.67,0,1a28.38,28.38,0,0,0,1.09,6.88c.15.53.32,1.06.5,1.57a28.33,28.33,0,0,0,3.22,6.42c.3.45.62.89.95,1.32a28.59,28.59,0,0,0,5,5.13l-.42.27c-.57.38-1.34.94-2.19,1.59a13.73,13.73,0,0,0-2.8,2.5,13.73,13.73,0,0,0,3.12-2.09,30.93,30.93,0,0,0,2.5-2.11q.92.71,1.9,1.35c-.65.6-2.53,2.66-4.79,5.08-2.07,2.22-3.87,4.1-4.57,4.93-.23.27-.35.43-.32.45a8.37,8.37,0,0,0,1.64-1.37c1-.9,2.26-2.19,3.63-3.66s2.41-2.68,3.24-3.68l.16-.19c.55-.68.94-1.19,1.13-1.48l.09.06a28.31,28.31,0,0,0,5.22,2.62,5.27,5.27,0,0,1,.3.57,4.84,4.84,0,0,1,.42,2,7.9,7.9,0,0,1-.67,3c-.45,1.1-1,2.29-1.66,3.54-1.24,2.49-2.46,4.69-3.37,6.27-.56,1-1,1.73-1.23,2.17l.17,0c.31-.4.78-1.09,1.37-2a66.88,66.88,0,0,0,3.52-6.23c.62-1.26,1.2-2.45,1.64-3.6a8.6,8.6,0,0,0,.59-2.59,5.19,5.19,0,0,0,0-.63,4.58,4.58,0,0,0-.53-1.93l-.1-.19a3.06,3.06,0,0,0-.23-.32,28.33,28.33,0,0,0,8.86,1.73l1,0,.6,0a2.62,2.62,0,0,1,1.09,1.25,5.83,5.83,0,0,1,.13,3l-.53,3.86c-.36,2.74-.66,5.22-.86,7a16.4,16.4,0,0,0-.2,2.93,16.42,16.42,0,0,0,.57-2.88c.1-.61.2-1.3.31-2,.22-1.46.45-3.15.69-5l.49-3.87a6.2,6.2,0,0,0-.21-3.06c0-.06,0-.12-.06-.18a2.81,2.81,0,0,0-1-1.11l.58,0a28.27,28.27,0,0,0,13.14-4.09c.54-.33,1.07-.69,1.59-1.05a28.58,28.58,0,0,0,5.1-4.6c.4-.45.78-.92,1.14-1.4.36.31,1.16.94,2.29,1.78,1.59,1.19,3.8,2.8,6.26,4.55,1.91,1.36,3.68,2.6,5.15,3.61l1.2.82.53.36c.09-.08.19-.14.28-.21l-.6-.45C276.62,211.4,274.41,209.79,272,208Zm-31.46,1.78a24.93,24.93,0,1,1,24.93-24.93A24.93,24.93,0,0,1,240.49,209.82Z"/><path class="cls-2" d="M268.48,215.42a35.19,35.19,0,0,0-2.47-3.58,35.16,35.16,0,0,0-2.48-3.57,18.72,18.72,0,0,0,4.95,7.15Z"/><path class="cls-2" d="M262.57,216.36l-.07-.12-2.06-3.51a10.68,10.68,0,0,0-2-2.76l-.17-.12a2.07,2.07,0,0,0-2.08-.22c-.52.27-.58.64-.56.63s.17-.27.64-.45a1.9,1.9,0,0,1,1.93.44A11.5,11.5,0,0,1,260,213l2,3.54c1.45,2.5,2.78,4.75,3.77,6.36l.4.64a4.43,4.43,0,0,1,.14-.42l-.22-.41C265.25,221.05,264,218.82,262.57,216.36Z"/><path class="cls-2" d="M251.94,220.9l1.66,5.69a12.19,12.19,0,0,0,.79,2.33,11,11,0,0,0-.43-2.43c-.24-1.07-.59-2.43-1-3.94-.16-.58-.33-1.18-.51-1.8-.66-2.23-1.32-4.22-1.83-5.65a11,11,0,0,0-1-2.27s0,.2.08.53.28,1,.52,1.86Z"/><path class="cls-2" d="M245.59,218.53a29.58,29.58,0,0,0,.16,5.61,10.38,10.38,0,0,0-.16-5.61Z"/><path class="cls-2" d="M217,201.88c-.24-.45-.58-.44-.57-.42s.25.11.38.5a1.14,1.14,0,0,1,0,.7,1.68,1.68,0,0,1-.58.74c-1.26.84-3.14,2-5.13,3.27l-2.44,1.6c-1,.67-1.91,1.28-2.65,1.78a12.27,12.27,0,0,0-2,1.53,12.26,12.26,0,0,0,2.22-1.22c1.34-.81,3.17-2,5.17-3.25s3.8-2.45,5.08-3.42a2.06,2.06,0,0,0,.57-.78,1.34,1.34,0,0,0,.06-.17A1.29,1.29,0,0,0,217,201.88Z"/><path class="cls-2" d="M213.06,194.39c.31-.37.39-.62.37-.63a5.32,5.32,0,0,1-2.16,1.42c-.75.28-1.71.49-2.77.77l-3.43.91c-1.46.4-2.82.78-4,1.12l-2.17.64a13.65,13.65,0,0,0-2.53.88A13.64,13.64,0,0,0,199,199c1.6-.39,3.81-1,6.24-1.62l3.42-.95a24.57,24.57,0,0,0,2.78-.89,5.55,5.55,0,0,0,.84-.45A3.62,3.62,0,0,0,213.06,194.39Z"/><path class="cls-2" d="M211.38,185.51a13.21,13.21,0,0,0-2.52-.1c-1.56,0-3.7,0-6.07-.07s-4.52-.13-6.07-.19a13.22,13.22,0,0,0-2.52,0,2.35,2.35,0,0,0,.8.18c.42.06,1,.13,1.7.2,1.55.15,3.7.29,6.08.35.82,0,1.59,0,2.34,0,1.43,0,2.73,0,3.75-.1A11.29,11.29,0,0,0,211.38,185.51Z"/><ellipse class="cls-2" cx="208.15" cy="183.98" rx="0.26" ry="3.38" transform="translate(-9.24 356.95) rotate(-79.98)"/><path class="cls-2" d="M225.57,160.66a18.68,18.68,0,0,0-1.45-3.31,18.68,18.68,0,0,0-1.62-3.23,15.48,15.48,0,0,0,3.07,6.54Z"/><path class="cls-2" d="M249.62,157.49a78.79,78.79,0,0,0,3.42-8.38c1-2.7,1.87-5.11,2.4-6.68l-.29-.13c-.64,1.53-1.58,3.92-2.59,6.63A78.85,78.85,0,0,0,249.62,157.49Z"/><path class="cls-2" d="M255.06,153a16.67,16.67,0,0,0,2.53-3.82,25.72,25.72,0,0,0-2.93,3.49,25.71,25.71,0,0,0-2.7,3.68A16.68,16.68,0,0,0,255.06,153Z"/><path class="cls-2" d="M265.62,158.29a13.72,13.72,0,0,0,3.43-2.74,28.64,28.64,0,0,0-3.71,2.3,28.64,28.64,0,0,0-3.63,2.42A13.73,13.73,0,0,0,265.62,158.29Z"/><path class="cls-2" d="M272.36,167a8.07,8.07,0,0,0-2.68,1.55,27,27,0,0,0,5.64-2.47A8.07,8.07,0,0,0,272.36,167Z"/><circle class="cls-11" cx="240.49" cy="184.89" r="24.93"/><path class="cls-2" d="M252.27,236.8a2.73,2.73,0,0,1,.12.6l.24,1.74.81,6.41c.68,5.41,1.66,12.89,2.86,21.12s2.4,15.68,3.31,21.06l1.08,6.37.28,1.73a2.74,2.74,0,0,1,.06.61,2.72,2.72,0,0,1-.17-.59l-.38-1.72c-.32-1.49-.75-3.66-1.25-6.34-1-5.37-2.27-12.8-3.47-21s-2.12-15.73-2.71-21.16c-.3-2.71-.51-4.91-.65-6.43l-.14-1.75A2.73,2.73,0,0,1,252.27,236.8Z"/><path class="cls-2" d="M237.77,231.56c.14,0,1.34,20.34,2.67,45.44s2.29,45.47,2.15,45.47-1.34-20.34-2.67-45.45S237.63,231.57,237.77,231.56Z"/><path class="cls-2" d="M229.82,236a2.7,2.7,0,0,1-.08.61l-.32,1.71-1.25,6.27-4.33,20.64-4.48,20.61L218,292.08l-.41,1.69a2.68,2.68,0,0,1-.18.58,2.67,2.67,0,0,1,.08-.6l.31-1.71,1.25-6.27,4.33-20.65,4.48-20.61,1.41-6.23.41-1.69A2.66,2.66,0,0,1,229.82,236Z"/><g class="cls-6"><path d="M249.37,156.82a2.65,2.65,0,0,0-.19,1c.52.17,1,.35,1.54.55a3.38,3.38,0,0,0,.76-.7l10.14-12.75a3,3,0,0,0,.9-2.1s0-.07,0-.11c-1.83-.15-3.93.76-5.76.2a13.34,13.34,0,0,1-1.29-.46c-.52,1.57-1.39,4-2.4,6.68a78.79,78.79,0,0,1-3.42,8.38,78.85,78.85,0,0,1,2.93-8.56c1-2.71,2-5.1,2.59-6.63l-.22-.12-.13.11Zm5.28-4.18a25.72,25.72,0,0,1,2.93-3.49,16.67,16.67,0,0,1-2.53,3.82,16.68,16.68,0,0,1-3.11,3.35A25.71,25.71,0,0,1,254.65,152.65Z"/><path d="M262,155.84c1.69-1.83,3.24-3.47,4.38-4.64a13.36,13.36,0,0,1,1.93-1.82,13.37,13.37,0,0,1-1.65,2.07c-1.07,1.23-2.58,2.91-4.26,4.74s-3.24,3.47-4.38,4.64a2,2,0,0,0-.69,1.16l.57.44c5.85-3.46,12.57-7.84,17.78-11.7a4.45,4.45,0,0,0-1.64-1h0c-1.68-.58-3.75-.56-5.41-1.22-2.85,3-6.3,6.66-9.28,10.26C260.15,157.9,261.06,156.91,262,155.84Z"/><path d="M276.08,161.56a11.45,11.45,0,0,1-2,1.24c-1.24.72-2.95,1.7-4.81,2.84s-3.69,2.06-4.22,3.35a2.64,2.64,0,0,0-.24,1.24c.14.22.26.45.39.68,4.78-1,12.23-4.46,17.68-6.66-1.66-1.33-4.15-1.85-5.33-3.66q-.87.53-1.78,1C276,161.56,276.07,161.54,276.08,161.56Zm-3.51,6a11.08,11.08,0,0,1-2.89,1.08,13.92,13.92,0,0,1,5.64-2.47A11.07,11.07,0,0,1,272.57,167.51Z"/><path d="M280.62,172.8c-1.24.5-3,1.17-4.89,1.87s-3.67,1.31-4.94,1.73a9,9,0,0,1-2.09.57s0,0,0,0l-.83.37a28.26,28.26,0,0,1,.66,3c.25,0,.5,0,.75,0,5.09-.12,13.34-.62,19.46-1a8.42,8.42,0,0,0-1.18-1.95c-1.09-1.37-2.44-2.63-2.92-4.31a6.39,6.39,0,0,1-.22-1.65l-2.57.85Z"/><path d="M279.14,186.77l-6.69-.51a15.39,15.39,0,0,1-2.77-.32,10.1,10.1,0,0,1,2.19-.06c-.83-.06-1.67-.11-2.5-.14h-.47q0,1.24-.18,2.45c5.26,2,13,4.72,19.05,6.93a3.07,3.07,0,0,0,.34-1.31c.07-2.39-2.81-4.22-2.66-6.53l-2.23-.2Z"/><path d="M270.9,196l-2.76-1.44c-.26-.13-.52-.26-.78-.37a28.26,28.26,0,0,1-1.14,2.81c4.62,3.54,10.69,9.75,15.83,14.25a4.25,4.25,0,0,0,1.59-1.49c1.25-2.18-.45-4.83-.69-7.33-1.55-.77-3.91-2-6.53-3.39C274.28,197.89,272.35,196.83,270.9,196Z"/><path d="M271.65,208.46c-2.46-1.75-4.68-3.37-6.26-4.55-1.13-.85-1.93-1.47-2.29-1.78-.37.48-.75.95-1.14,1.4a8.92,8.92,0,0,0,1.24,1.52c3.43,3.61,8.84,9.79,12.88,14.2.94-1.56.72-3.83,1.84-5.36a3.81,3.81,0,0,1,.51-.54l-1.62-1.28C275.33,211.06,273.56,209.82,271.65,208.46Z"/><path d="M262.05,216.51,260,213a11.5,11.5,0,0,0-1.77-2.72,1.9,1.9,0,0,0-1.93-.44c-.47.18-.6.48-.64.45s0-.36.56-.63a2.07,2.07,0,0,1,2.08.22,16.09,16.09,0,0,0-1.47-1.72c-.52.37-1,.72-1.59,1.05,1.15,5.84,4.17,14.39,7,21.22a3,3,0,0,0,2.32-.52c1.78-1.36,1-4.22,1.65-6.36l-.4-.64C264.84,221.26,263.5,219,262.05,216.51Z"/><path d="M254,226.5a11,11,0,0,1,.43,2.43,12.19,12.19,0,0,1-.79-2.33l-1.66-5.69-1.69-5.68c-.24-.81-.42-1.44-.52-1.86l-.3-.7c-.26,5.7.09,13.69.47,20.1a25.77,25.77,0,0,1,4.81-3.23c-.46-2.22-1.07-4.62-1.77-7C253.37,224.06,253.71,225.43,254,226.5Z"/><path d="M241.28,228.51a16.42,16.42,0,0,1-.57,2.88,16.4,16.4,0,0,1,.2-2.93c.19-1.8.49-4.28.86-7l.53-3.86a5.83,5.83,0,0,0-.13-3,2.62,2.62,0,0,0-1.09-1.25l-.6,0-1,0-.11.1a5.8,5.8,0,0,0-1.18,2.29c-1.74,5.15-3.48,12.83-5.22,18.37,2.06-.43,3.39-2.95,5.52-3.08a4,4,0,0,1,2.61,1c.17-1.7.32-3.57.47-5.49C241.48,227.22,241.38,227.91,241.28,228.51Z"/><path d="M228.82,220.59c.61-1.25,1.21-2.44,1.66-3.54a7.9,7.9,0,0,0,.67-3,4.84,4.84,0,0,0-.42-2,1.65,1.65,0,0,0-1,.64c-3.88,4.31-9.35,11.26-13.32,16.63,2.2.83,5.21-.58,7.81-.3.23-.44.67-1.18,1.23-2.17C226.35,225.27,227.58,223.07,228.82,220.59Z"/><path d="M215.64,218.73c.71-.83,2.5-2.71,4.57-4.93,2.26-2.41,4.13-4.48,4.79-5.08q-1-.64-1.9-1.35a30.93,30.93,0,0,1-2.5,2.11,13.73,13.73,0,0,1-3.12,2.09,13.73,13.73,0,0,1,2.8-2.5c.84-.65,1.62-1.21,2.19-1.59a14.67,14.67,0,0,0-3.38,2l-11.9,8.84c2.06.36,4.39.45,5.67,2a3.58,3.58,0,0,1,.49.77C214,220.34,214.82,219.55,215.64,218.73Z"/><path d="M211.13,206.67c2-1.3,3.87-2.43,5.13-3.27a1.68,1.68,0,0,0,.58-.74,1.14,1.14,0,0,0,0-.7c-.13-.38-.4-.45-.38-.5s.33,0,.57.42a1.29,1.29,0,0,1,.09.86,1.34,1.34,0,0,1-.06.17,2.38,2.38,0,0,0,.78-.84c-.33-.43-.65-.87-.95-1.32a3.43,3.43,0,0,0-1.2.16c-5.35,1.41-13.53,4.47-19.9,6.83,2,1.46,5.65.83,6.94,3.08a3.07,3.07,0,0,1,.32.87c1.75-1.07,3.7-2.24,5.64-3.42Z"/><path d="M205.07,196.85l3.43-.91c1.06-.28,2-.49,2.77-.77a5.32,5.32,0,0,0,2.16-1.42s-.06.27-.37.63a3.62,3.62,0,0,1-.81.68l.43-.15a2.39,2.39,0,0,0,1-.58c-.18-.52-.35-1-.5-1.57a3.43,3.43,0,0,0-1.34-.23q-9.92-.36-19.84-.58c.92,1.56,3,2.25,3.82,3.86a4.63,4.63,0,0,1,.22,3.28l5-1.11C202.25,197.63,203.62,197.24,205.07,196.85Z"/><path d="M194.2,185.14a13.22,13.22,0,0,1,2.52,0c1.55.06,3.7.14,6.07.19s4.52.06,6.07.07a13.21,13.21,0,0,1,2.52.1,11.29,11.29,0,0,1-2.51.27c-1,.06-2.32.09-3.75.1,2.46.09,4.82.13,6.8,0h.17c0-.33,0-.66,0-1s0-.94,0-1.41l-.14-.09c-5.47-3.26-13.34-5.61-19.84-7.39a2.38,2.38,0,0,0,1.53,2.56l-.14-.9c1.61.71,2,2.88,1.54,4.56a12,12,0,0,1-1.56,3l1.52.08A2.35,2.35,0,0,1,194.2,185.14Zm14-1.41a11.28,11.28,0,0,1,3.28.84,22.06,22.06,0,0,1-6.66-1.18A11.28,11.28,0,0,1,208.19,183.73Z"/><path d="M196.62,170.33a16.83,16.83,0,0,1,2.66,1.15l2.06,1c1.85.79,3.76,1.59,5.63,2.33a30.82,30.82,0,0,0,5.32,1.41,1.92,1.92,0,0,0,1.08-.18,1.13,1.13,0,0,0,.15-.12q.3-.88.64-1.74c-.92-.46-2.32-1.21-3.88-2.11a30.25,30.25,0,0,1-4.72-3,30.26,30.26,0,0,1,5,2.56l1.62,1a173.06,173.06,0,0,0-15.77-9.93c-.32,1.88.4,4.29-.19,6.23a5.07,5.07,0,0,1-.55,1.18l1.2.51C196.7,170.42,196.61,170.35,196.62,170.33Z"/><path d="M206.28,158.69a13.46,13.46,0,0,1,1.81,1.64c1.09,1,2.6,2.46,4.35,3.94s3.39,2.75,4.6,3.65l.41.31c.35-.48.7-.95,1.08-1.41l-.06-.1c-.53-.63-1.19-1.47-1.89-2.45a17.41,17.41,0,0,1-2.38-3.94,8.9,8.9,0,0,1,1.52,1.86,107.31,107.31,0,0,0-8-10.92,3.66,3.66,0,0,0-2.17,1.17c-1.11,1.35-.7,3.46-1.24,5.07,1,.92,2.19,1.93,3.42,3A9.48,9.48,0,0,1,206.28,158.69Z"/><path d="M219.92,155.56c2.51,3.16,4.6,5.69,4.54,5.85q.69-.47,1.41-.9l-.07-.19c-1.89-4.79-5.3-12.32-7.57-17.8a8.18,8.18,0,0,0-1.06.55c-1.67,1-2.21,3.17-3.12,4.94.58.76,1.24,1.65,1.95,2.61S218.25,153.46,219.92,155.56Zm2.58-1.45a18.68,18.68,0,0,1,1.62,3.23,18.68,18.68,0,0,1,1.45,3.31,15.48,15.48,0,0,1-3.07-6.54Z"/><path d="M228.64,144.36a10.78,10.78,0,0,1,.48,2.22c.24,1.38.57,3.28,1,5.38.36,1.83.71,3.47,1,4.78.14.43.27.82.41,1.18.54-.18,1.08-.34,1.63-.49a25.45,25.45,0,0,1-.5-3.31,16.27,16.27,0,0,1-.35-3.38,8.72,8.72,0,0,1,.86,3.31c.09.67.13,1.28.15,1.81,0-5.17.11-11.82.1-17.07-.83.79-1.45,2.17-2.79,4.15a2.74,2.74,0,0,1-2.05,1.14l.06.39C228.62,144.4,228.63,144.36,228.64,144.36Z"/><path d="M241.21,149.75c0,2.9-.15,5.43-.25,6.72q1,0,2,.1a15.64,15.64,0,0,0,2.19-5.53c.88-3.51,2.09-9.15,3.07-13.27a4.22,4.22,0,0,0-1.76.52c-1.54.85-3.41,4.57-4.38,4.58a1.27,1.27,0,0,1-.9-.47l0,.41C241.25,144,241.27,146.67,241.21,149.75Z"/></g><path class="cls-15" d="M251,179.77l-.72-.72a1.21,1.21,0,0,0-1.71,0l-10.18,10.18-6.36-6.36a1.21,1.21,0,0,0-1.71,0l-.72.72a1.21,1.21,0,0,0,0,1.71l7.18,7.18,0,0,.72.71a1.19,1.19,0,0,0,.86.34h0a1.19,1.19,0,0,0,.86-.34l.73-.72,0,0,11-11A1.21,1.21,0,0,0,251,179.77Z"/></g></g></svg>