<svg xmlns="http://www.w3.org/2000/svg" viewBox="0 0 339.86 438.75"><defs><style>.cls-1{fill:#f5f5f5;}.cls-2{fill:#e0e0e0;}.cls-3{fill:#e5e7fb;}.cls-4{opacity:0.8;}.cls-5{fill:#56cc95;}.cls-6{fill:#ffbe9d;}.cls-17,.cls-18,.cls-7{fill:#fff;}.cls-21,.cls-7{opacity:0.3;}.cls-8{fill:#263238;}.cls-9{fill:#fafafa;}.cls-10{fill:#ebebeb;}.cls-11{fill:#455a64;}.cls-12,.cls-14{opacity:0.4;}.cls-13,.cls-14{fill:#132d60;}.cls-15{fill:#346bec;}.cls-16,.cls-18{opacity:0.6;}.cls-19{fill:#eb996e;}.cls-20{opacity:0.2;}.cls-22{fill:#e8505b;}.cls-23{fill:#135936;}</style></defs><title>Ресурс 1</title><g id="Слой_2" data-name="Слой 2"><g id="Planets"><path class="cls-1" d="M251.4,57.07h65.75s-5.81-10.58-22.74-9c-16.16,1.47-17-5.21-25.2-6S254.14,47.48,251.4,57.07Z"/><path class="cls-1" d="M79.54,230.89s-6.59,3.56,3,17.32,15.83,20.36,15.83,20.36,1.81,3.25-1,4.18-9.33.79-10.13,4.51,2.31,6.95,8.14,9.24,18.4,7.78,19.53,8.28,2.36,1.95.55,2.89-15.93,4.41-13.89,11,19.32,10.32,21.2,10.76,2.41,1.14,2.4,2.14-4.87,1.72-8.84,2.87-8.38,3.18-6.88,6.89,12.36,10.44,36.33,9.5l11.08-1.16,4.72-10.15c8.78-22.33,6-34.8,3-37.44s-6.38.86-8.77,4.23-4.67,7.72-5.62,7.4-1.43-1.05-1.23-3,2.37-19.46-3.19-23.56-13.48,8.09-15,9.49-2.45-.25-2.55-1.47-1.15-14.92-1.4-21.17-2.14-10.24-6.05-10.72-5.78,5.72-7.59,8.08-4.28-.43-4.28-.43-4.19-8.07-14-21.65S79.41,231,79.41,231"/><path class="cls-1" d="M157.79,342.21c-7.19-10-19.66-28-30.45-43.39s-20.56-29.31-27.7-39.35L91.19,247.6l-2.3-3.23-.59-.85c-.13-.19-.19-.3-.19-.3l.22.27.62.83,2.35,3.19c2,2.78,5,6.81,8.55,11.82,7.19,10,17,23.9,27.78,39.29S150.86,332,158,342.07"/><path class="cls-1" d="M96.34,277.83a3.62,3.62,0,0,1,.8.11c.51.09,1.24.24,2.15.44,1.81.39,4.29,1,7,1.72l7,1.87,2.12.55a3.61,3.61,0,0,1,.77.23,3.6,3.6,0,0,1-.8-.1c-.51-.09-1.24-.24-2.15-.45-1.81-.41-4.28-1.05-7-1.77l-7-1.82-2.12-.54A3.6,3.6,0,0,1,96.34,277.83Z"/><ellipse class="cls-1" cx="119.3" cy="270.42" rx="11.79" ry="0.17" transform="translate(-170.09 330.5) rotate(-77.92)"/><path class="cls-1" d="M132.33,306.32a3.78,3.78,0,0,1,.35-.74l1.06-2c.89-1.66,2.12-4,3.37-6.55s2.32-5,3.08-6.7l.9-2a3.77,3.77,0,0,1,.37-.74,3.75,3.75,0,0,1-.24.79c-.18.5-.44,1.22-.8,2.09-.7,1.76-1.73,4.16-3,6.76s-2.52,4.89-3.47,6.52c-.48.82-.87,1.47-1.16,1.92A3.76,3.76,0,0,1,132.33,306.32Z"/><path class="cls-1" d="M113,306.68a3.22,3.22,0,0,1,.76-.09l2.06-.12c1.74-.09,4.15-.18,6.81-.26s5.07-.14,6.82-.16h2.07a3.23,3.23,0,0,1,.76,0,3.22,3.22,0,0,1-.76.09l-2.06.12c-1.74.09-4.15.18-6.82.26s-5.07.14-6.82.16h-2.07A3.21,3.21,0,0,1,113,306.68Z"/><path class="cls-1" d="M123.92,329.94a5.24,5.24,0,0,1,1-.11l2.64-.16c2.23-.12,5.32-.27,8.73-.41s6.5-.25,8.74-.31l2.65-.05a5.24,5.24,0,0,1,1,0,5.25,5.25,0,0,1-1,.11l-2.64.16c-2.23.12-5.32.27-8.73.41s-6.5.25-8.73.31l-2.65.05A5.23,5.23,0,0,1,123.92,329.94Z"/><path class="cls-1" d="M148,328.79a6,6,0,0,1,.42-1l1.25-2.54c1.06-2.15,2.51-5.12,4-8.45s2.8-6.37,3.72-8.59l1.09-2.62a6,6,0,0,1,.44-.95,6,6,0,0,1-.31,1c-.22.63-.56,1.54-1,2.66-.86,2.24-2.12,5.31-3.63,8.64s-3,6.3-4.11,8.42c-.56,1.06-1,1.91-1.35,2.5A6,6,0,0,1,148,328.79Z"/><path class="cls-1" d="M241,181.21c-11.91-13.35-10.76-32.62-6.26-49.11.75-2.75,1.14-5.75,3-7.88s5.37-3.06,7.58-1.3c1.83,1.46,2.16,4.07,2.85,6.33a16.69,16.69,0,0,0,5,7.76c1.55,1.34,3.6,2.41,5.58,1.87,2.71-.75,3.77-4,4.41-6.76l3.56-15.46a26.45,26.45,0,0,1,2.78-8c1.48-2.42,4-4.4,6.75-4.52s5.69,2.17,5.6,5a26.2,26.2,0,0,1-.74,3.46,3,3,0,0,0,1.05,3.14c1,.58,2.32.06,3.33-.55,3.51-2.11,6.29-5.25,8.95-8.39s5.27-6.38,8.58-8.81,7.45-4,11.46-3.28,7.64,4.15,7.72,8.27-3.13,7.54-6.34,10.11a63.34,63.34,0,0,1-15.73,9.19,5.21,5.21,0,0,0-2.69,1.8c-1,1.7.28,3.94,1.95,5,1.9,1.17,4.18,1.49,6.27,2.25s4.2,2.27,4.53,4.49c.46,3.09-2.6,5.49-5.38,6.88A54.26,54.26,0,0,1,287.16,148c-2.21.26-4.5.41-6.47,1.45s-3.55,3.29-3,5.47,2.92,3.41,5.14,3.51,4.4-.59,6.61-.88c4.13-.53,9,.89,10.63,4.74a9,9,0,0,1-.9,7.95,20.7,20.7,0,0,1-5.8,5.83,54.56,54.56,0,0,1-26.44,10.56c-9.52,1-17.88-.14-25.87-5.41"/><path class="cls-2" d="M243.43,182.82c2.16-6.45-.1-3.21,4.35-11a254.15,254.15,0,0,1,16.13-24.31l4.56-6.16c1.5-2,3-4,4.56-5.88a126.94,126.94,0,0,1,9.67-10.21c3.23-3.1,6.41-5.92,9.4-8.54s5.84-5,8.52-7.05A100.74,100.74,0,0,1,314,100.89c1.65-.91,3-1.57,3.85-2l1-.49.35-.15a2,2,0,0,1-.33.2l-1,.54c-.87.47-2.16,1.16-3.8,2.09A106.54,106.54,0,0,0,300.85,110c-2.66,2.07-5.48,4.46-8.46,7.09s-6.14,5.46-9.36,8.56a128.37,128.37,0,0,0-9.61,10.19c-1.56,1.86-3,3.84-4.54,5.86l-4.55,6.15A260.57,260.57,0,0,0,248.2,172c-4.46,7.77-2.22,4.48-4.42,10.89"/><path class="cls-2" d="M273.18,135.47a5.76,5.76,0,0,1,0-1.24c0-.8.13-1.95.26-3.37.26-2.84.75-6.75,1.32-11.06s1-8.22,1.22-11.06c.11-1.42.19-2.57.24-3.36a5.69,5.69,0,0,1,.13-1.24,5.64,5.64,0,0,1,.07,1.24c0,.8,0,2-.07,3.38-.12,2.85-.5,6.78-1.07,11.1l-1.47,11-.42,3.35A5.68,5.68,0,0,1,273.18,135.47Z"/><path class="cls-2" d="M310.25,137.24a7.85,7.85,0,0,1-1.46-.17c-.93-.13-2.27-.34-3.94-.53-3.33-.42-8-.84-13.09-1.07s-9.77-.24-13.14-.15c-1.68,0-3,.1-4,.13a7.85,7.85,0,0,1-1.47,0,7.79,7.79,0,0,1,1.45-.22c.94-.1,2.3-.22,4-.3,3.37-.19,8-.24,13.17,0a128.63,128.63,0,0,1,13.11,1.23c1.67.24,3,.5,3.93.7A7.75,7.75,0,0,1,310.25,137.24Z"/><path class="cls-2" d="M248.38,171.25a1.87,1.87,0,0,1-.14-.49l-.3-1.43c-.26-1.24-.58-3-1-5.28-.75-4.47-1.59-10.68-2.43-17.55s-1.62-13.08-2.27-17.56l-.79-5.31-.21-1.45a1.87,1.87,0,0,1,0-.51,1.93,1.93,0,0,1,.14.49l.3,1.43c.26,1.24.58,3,1,5.28.75,4.47,1.59,10.68,2.43,17.55s1.62,13.08,2.27,17.56l.79,5.31.21,1.45A1.9,1.9,0,0,1,248.38,171.25Z"/><path class="cls-2" d="M299.15,167.22a2,2,0,0,1-.51.08l-1.48.13-5.44.44c-4.59.37-10.93,1-17.93,1.62s-13.35,1.19-18,1.47c-2.3.14-4.16.23-5.45.27l-1.48,0a1.9,1.9,0,0,1-.52,0,2,2,0,0,1,.51-.08l1.48-.13,5.44-.44c4.59-.37,10.93-1,17.93-1.62s13.35-1.19,18-1.47c2.3-.14,4.16-.23,5.45-.27l1.48,0A1.9,1.9,0,0,1,299.15,167.22Z"/><path class="cls-2" d="M338.53,269a2.69,2.69,0,0,1-.17.47l-.55,1.33-2.13,5L328,293.65l0,.11-.12,0-24.22,4-8.12,1.33-.37.06.09-.36,5.34-21.05.11.23-14.23-6.36-3.93-1.79-1-.48a1.86,1.86,0,0,1-.34-.18,1.87,1.87,0,0,1,.37.13l1,.43,4,1.69,14.3,6.2.16.07,0,.17-5.25,21.08-.28-.3,8.12-1.33,24.23-3.94-.16.13,7.87-17.76,2.25-5,.61-1.31A2.69,2.69,0,0,1,338.53,269Z"/><polygon class="cls-2" points="298.31 296.25 297.65 297.99 298.71 299.52 296.85 299.43 295.72 300.91 295.23 299.11 293.47 298.5 295.03 297.48 295.07 295.61 296.53 296.78 298.31 296.25"/><polygon class="cls-2" points="281.68 267.99 281.35 268.86 281.88 269.62 280.96 269.58 280.39 270.31 280.15 269.42 279.27 269.11 280.05 268.6 280.07 267.68 280.8 268.26 281.68 267.99"/><polygon class="cls-2" points="328.65 292.56 328.32 293.43 328.85 294.19 327.93 294.14 327.36 294.88 327.12 293.99 326.25 293.68 327.02 293.17 327.04 292.24 327.77 292.82 328.65 292.56"/><polygon class="cls-2" points="301.55 276.96 301.22 277.83 301.75 278.59 300.82 278.55 300.26 279.28 300.02 278.39 299.14 278.08 299.92 277.57 299.94 276.65 300.66 277.23 301.55 276.96"/><polygon class="cls-2" points="339.66 268.13 339.33 269 339.86 269.76 338.93 269.71 338.37 270.45 338.13 269.56 337.25 269.25 338.02 268.74 338.05 267.81 338.77 268.39 339.66 268.13"/><path class="cls-1" d="M36.56,340.9H88.91s-4.63-8.42-18.1-7.2c-12.87,1.17-13.52-4.14-20.07-4.8S38.74,333.27,36.56,340.9Z"/><path class="cls-1" d="M47,134.79H99.31s-4.63-8.42-18.1-7.2c-12.87,1.17-13.52-4.14-20.07-4.8S49.14,127.15,47,134.79Z"/><path class="cls-3" d="M226.95,256.09c2.14-16.12-9.2-29.42-23.36-37.41S173,208,157.37,203.57c-14.75-4.19-29.42-10.31-40.35-21.07s-17.48-26.93-13.55-41.76c1-3.72,2.75-7.46,5.94-9.61s8.08-2.09,10.46.93c5.08,6.44-4.82,18,1.38,23.34,1.42,1.23,3.38,1.69,4.85,2.86,3.92,3.12,2.65,9.2,3.2,14.18,1.09,9.85,10.33,16.69,19.4,20.68,12.15,5.34,25.31,7.86,38.2,11s25.88,7.16,36.62,15,20.05,20,20,33.28c0,3.71-.49,8.27-2.82,11.16s-5.29,3.49-8.65,1.91-5.7-4-5.08-9.38"/><g class="cls-4"><path class="cls-3" d="M226.95,256.09c2.14-16.12-9.2-29.42-23.36-37.41S173,208,157.37,203.57c-14.75-4.19-29.42-10.31-40.35-21.07s-17.48-26.93-13.55-41.76c1-3.72,2.75-7.46,5.94-9.61s8.08-2.09,10.46.93c5.08,6.44-4.82,18,1.38,23.34,1.42,1.23,3.38,1.69,4.85,2.86,3.92,3.12,2.65,9.2,3.2,14.18,1.09,9.85,10.33,16.69,19.4,20.68,12.15,5.34,25.31,7.86,38.2,11s25.88,7.16,36.62,15,20.05,20,20,33.28c0,3.71-.49,8.27-2.82,11.16s-5.29,3.49-8.65,1.91-5.7-4-5.08-9.38"/></g><path class="cls-3" d="M158.45,128c-.51-6,3.94-11.17,9-14s10.85-3.92,16.07-6.39c12.95-6.14,21.18-20.58,21.79-35.4s-5.81-29.62-15.86-40.51c-4.08-4.42-9.11-9.05-9.17-15.09-.06-6.3,6-11.26,12.14-11.18s11.72,4.16,15.37,9.3S213.45,26,215.42,32c-1.4-2.51,1.48-5.62,4.25-5.36s5,2.58,6.67,4.88a52,52,0,0,1,10,34.84,49.07,49.07,0,0,1-15.5,31.95c-9.87,9-22.92,13.21-35.57,17.2l-26.42,8.34"/><g class="cls-4"><path class="cls-3" d="M158.45,128c-.51-6,3.94-11.17,9-14s10.85-3.92,16.07-6.39c12.95-6.14,21.18-20.58,21.79-35.4s-5.81-29.62-15.86-40.51c-4.08-4.42-9.11-9.05-9.17-15.09-.06-6.3,6-11.26,12.14-11.18s11.72,4.16,15.37,9.3S213.45,26,215.42,32c-1.4-2.51,1.48-5.62,4.25-5.36s5,2.58,6.67,4.88a52,52,0,0,1,10,34.84,49.07,49.07,0,0,1-15.5,31.95c-9.87,9-22.92,13.21-35.57,17.2l-26.42,8.34"/></g><path class="cls-3" d="M151.1,2.52A5.8,5.8,0,0,0,148,9.61,5.8,5.8,0,0,0,155,13a5.8,5.8,0,0,0,3.68-6.81,5.8,5.8,0,0,0-6.64-4"/><g class="cls-4"><path class="cls-3" d="M151.1,2.52A5.8,5.8,0,0,0,148,9.61,5.8,5.8,0,0,0,155,13a5.8,5.8,0,0,0,3.68-6.81,5.8,5.8,0,0,0-6.64-4"/></g><path class="cls-3" d="M183.67,387.83c-3.24-6.71-.42-15.08,4.74-20.46s12.2-8.45,19-11.45c15.05-6.63,31-14.53,38.65-29.09,2.58-4.91,4.05-10.31,5.5-15.67,2.81-10.36,5.44-22.13-.21-31.26-1.63-2.63-4.07-5-7.11-5.5-3.46-.61-7,1.29-9.16,4.09s-3,6.34-3.49,9.82c-.84,6.64-.14,13.39-.84,20s-3.13,13.61-8.62,17.44c-6.66,4.65-16.17,3.6-22.65,8.51-5.23,4-7.22,10.84-11.3,16-3.44,4.31-8.24,7.26-12.65,10.57s-8.66,7.36-10.16,12.67a15,15,0,0,0,20.89,17.63"/><g class="cls-4"><path class="cls-3" d="M183.67,387.83c-3.24-6.71-.42-15.08,4.74-20.46s12.2-8.45,19-11.45c15.05-6.63,31-14.53,38.65-29.09,2.58-4.91,4.05-10.31,5.5-15.67,2.81-10.36,5.44-22.13-.21-31.26-1.63-2.63-4.07-5-7.11-5.5-3.46-.61-7,1.29-9.16,4.09s-3,6.34-3.49,9.82c-.84,6.64-.14,13.39-.84,20s-3.13,13.61-8.62,17.44c-6.66,4.65-16.17,3.6-22.65,8.51-5.23,4-7.22,10.84-11.3,16-3.44,4.31-8.24,7.26-12.65,10.57s-8.66,7.36-10.16,12.67a15,15,0,0,0,20.89,17.63"/></g><path class="cls-3" d="M83.54,48.85a21.2,21.2,0,0,1-8.42-17.11,21.19,21.19,0,0,1,9-16.8c3.07-2.12,6.72-3.41,9.45-5.95,2.43-2.26,4-5.39,6.73-7.29a10.08,10.08,0,0,1,11.56.25A10.08,10.08,0,0,1,115.18,13c-1.25,3.51-4.4,6.07-5.72,9.56-1.42,3.75-.5,8-1,11.93A16.48,16.48,0,0,1,86.35,47.81"/><g class="cls-4"><path class="cls-3" d="M83.54,48.85a21.2,21.2,0,0,1-8.42-17.11,21.19,21.19,0,0,1,9-16.8c3.07-2.12,6.72-3.41,9.45-5.95,2.43-2.26,4-5.39,6.73-7.29a10.08,10.08,0,0,1,11.56.25A10.08,10.08,0,0,1,115.18,13c-1.25,3.51-4.4,6.07-5.72,9.56-1.42,3.75-.5,8-1,11.93A16.48,16.48,0,0,1,86.35,47.81"/></g><path class="cls-5" d="M83.93,27.41H96.22a0,0,0,0,1,0,0V52.74a5.41,5.41,0,0,1-5.41,5.41H89.34a5.41,5.41,0,0,1-5.41-5.41V27.41A0,0,0,0,1,83.93,27.41Z"/><polygon class="cls-6" points="83.93 27.41 90.07 16.14 96.22 27.41 83.93 27.41"/><path class="cls-5" d="M87.64,20.6s1.87,2.81,4.87,0l-2.43-4.46Z"/><line class="cls-7" x1="85.75" y1="27.41" x2="88.39" y2="27.41"/><ellipse class="cls-8" cx="90.14" cy="51.51" rx="6.25" ry="0.25"/><ellipse class="cls-8" cx="90.14" cy="49.63" rx="6.12" ry="0.25"/><ellipse class="cls-9" cx="87.54" cy="38.55" rx="0.25" ry="10.96"/><ellipse class="cls-9" cx="92.51" cy="38.55" rx="0.25" ry="10.96"/><polygon class="cls-5" points="190.7 373.71 246.54 376.1 247.88 379.35 211.29 438.75 145.23 436.82 190.7 373.71"/><polygon class="cls-2" points="142.72 431.03 209.18 434.83 243.9 380.96 219.52 382.94 157.83 404.67 142.72 431.03"/><path class="cls-10" d="M133.39,427l61,1c-2.54-7.81,3.44-18.8,11.65-22.5,5.44-2.45,15.67-5.63,21-8.34,10-5.15,19.1-14.89,18.31-23.26l-25.07-.8-32-1.24c-2.68,7.94-8.4,13.13-17.1,16.26-7.78,2.8-16.64,2.79-24.24,6-12.22,5.12-18.09,21.7-13.54,32.93"/><path class="cls-8" d="M133.39,427s-.06-.13-.15-.39l-.42-1.18a13.78,13.78,0,0,1-.52-2,20.21,20.21,0,0,1-.42-2.78,28.11,28.11,0,0,1,.48-7.76,28.94,28.94,0,0,1,3.91-9.69,23.42,23.42,0,0,1,1.76-2.45c.33-.4.64-.82,1-1.21l1.13-1.14a10.35,10.35,0,0,1,1.22-1.1c.43-.35.85-.72,1.31-1.05a22.31,22.31,0,0,1,3-1.77c4.23-2.13,9.28-3,14.54-4,2.64-.48,5.35-1,8.08-1.73a37.79,37.79,0,0,0,8-3.24,26.54,26.54,0,0,0,3.76-2.46,22.42,22.42,0,0,0,3.33-3.15A24.08,24.08,0,0,0,188,371.8l.06-.16h.17l26.66,1c9.24.36,18.81.61,28.61.94l1.79.06h.22l0,.22a13.62,13.62,0,0,1-.81,5.64,21.07,21.07,0,0,1-1.12,2.6,27.72,27.72,0,0,1-1.46,2.4,37,37,0,0,1-7.56,8,44.74,44.74,0,0,1-9.12,5.64c-3.22,1.45-6.48,2.63-9.67,3.81s-6.35,2.3-9.34,3.6a18.39,18.39,0,0,0-4.11,2.49,23.56,23.56,0,0,0-1.78,1.57c-.52.59-1.1,1.12-1.57,1.75a22.63,22.63,0,0,0-4.27,8,14.86,14.86,0,0,0-.15,8.54l.08.27h-.28L150,427.42l-12.31-.25-3.23-.08c-.73,0-1.1,0-1.1,0s.38,0,1.11,0l3.23,0,12.31.14,44.39.61-.2.27a15.26,15.26,0,0,1,.13-8.78,23,23,0,0,1,4.33-8.18c.47-.64,1.06-1.19,1.59-1.79a24,24,0,0,1,1.82-1.6,18.84,18.84,0,0,1,4.2-2.56c3-1.32,6.18-2.44,9.37-3.63s6.44-2.37,9.63-3.8a44.31,44.31,0,0,0,9-5.58,36.53,36.53,0,0,0,7.46-7.89,27.22,27.22,0,0,0,1.43-2.35,20.58,20.58,0,0,0,1.09-2.53,13.13,13.13,0,0,0,.78-5.43l.24.22-1.79-.06c-9.8-.33-19.37-.58-28.61-1l-26.66-1,.23-.16a24.51,24.51,0,0,1-4.74,8.33,22.83,22.83,0,0,1-3.4,3.2,26.93,26.93,0,0,1-3.82,2.49,38.14,38.14,0,0,1-8.14,3.26c-2.75.75-5.48,1.25-8.12,1.72-5.26.94-10.29,1.82-14.46,3.91a22,22,0,0,0-2.93,1.73c-.45.33-.87.69-1.29,1a10.14,10.14,0,0,0-1.21,1.08l-1.12,1.12c-.36.38-.66.8-1,1.19a23.2,23.2,0,0,0-1.75,2.42,28.85,28.85,0,0,0-3.94,9.58,28.32,28.32,0,0,0-.55,7.7,20.69,20.69,0,0,0,.38,2.77,14.41,14.41,0,0,0,.48,2l.38,1.19C133.36,426.9,133.39,427,133.39,427Z"/><path class="cls-8" d="M205.41,372.86s.08-.39.14-1.09a6.18,6.18,0,0,0-.48-2.88,5.92,5.92,0,0,0-2.88-3.09,6.66,6.66,0,0,0-5.14-.18,6.73,6.73,0,0,0-3.72,3.58,7.39,7.39,0,0,0-.59,4.25,7.25,7.25,0,0,0,1,2.75c.38.59.66.87.63.9a2.72,2.72,0,0,1-.79-.79,6.8,6.8,0,0,1-1.23-2.8,7.55,7.55,0,0,1,.52-4.5,7.09,7.09,0,0,1,4-3.85,7,7,0,0,1,5.52.24,6.18,6.18,0,0,1,3,3.37,5.93,5.93,0,0,1,.35,3,4,4,0,0,1-.2.81C205.47,372.78,205.43,372.87,205.41,372.86Z"/><path class="cls-8" d="M215,372.86s.08-.39.14-1.09a6.18,6.18,0,0,0-.48-2.88,5.93,5.93,0,0,0-2.88-3.09,6.66,6.66,0,0,0-5.14-.18,6.73,6.73,0,0,0-3.71,3.58,7.39,7.39,0,0,0-.59,4.25,7.25,7.25,0,0,0,1,2.75c.38.59.66.87.63.9a2.72,2.72,0,0,1-.79-.79,6.81,6.81,0,0,1-1.23-2.8,7.55,7.55,0,0,1,.52-4.5,7,7,0,0,1,9.48-3.62,6.18,6.18,0,0,1,3,3.37,5.93,5.93,0,0,1,.35,3,4,4,0,0,1-.2.81C215,372.78,215,372.87,215,372.86Z"/><path class="cls-8" d="M222.24,373.36s.06-.4.08-1.1a6.18,6.18,0,0,0-.64-2.85,5.92,5.92,0,0,0-3.06-2.92,6.66,6.66,0,0,0-5.14.11,6.73,6.73,0,0,0-3.51,3.78,7.39,7.39,0,0,0-.35,4.28,7.25,7.25,0,0,0,1.2,2.68c.41.57.71.84.68.87a2.72,2.72,0,0,1-.83-.75,6.8,6.8,0,0,1-1.39-2.72,7.55,7.55,0,0,1,.26-4.52,7,7,0,0,1,9.26-4.15,6.18,6.18,0,0,1,3.2,3.2,5.93,5.93,0,0,1,.52,3,4,4,0,0,1-.16.82C222.29,373.27,222.26,373.36,222.24,373.36Z"/><path class="cls-8" d="M230,373.8s0-.4,0-1.1a6.18,6.18,0,0,0-.79-2.81,5.92,5.92,0,0,0-3.21-2.76,6.66,6.66,0,0,0-5.13.38,6.73,6.73,0,0,0-3.3,4,7.39,7.39,0,0,0-.12,4.29,7.25,7.25,0,0,0,1.34,2.62c.44.55.75.8.72.83a2.72,2.72,0,0,1-.87-.7,6.8,6.8,0,0,1-1.53-2.64,7.55,7.55,0,0,1,0-4.53,7,7,0,0,1,9-4.63,6.18,6.18,0,0,1,3.36,3,5.93,5.93,0,0,1,.68,3,4,4,0,0,1-.11.82C230.08,373.71,230,373.81,230,373.8Z"/><path class="cls-8" d="M237.83,373.62s0-.4,0-1.1a6.18,6.18,0,0,0-.87-2.79,5.92,5.92,0,0,0-3.28-2.67,6.66,6.66,0,0,0-5.12.52,6.73,6.73,0,0,0-3.19,4.05,7.39,7.39,0,0,0,0,4.29,7.25,7.25,0,0,0,1.41,2.58c.46.54.77.78.75.81a2.72,2.72,0,0,1-.89-.68A6.8,6.8,0,0,1,225,376a7.55,7.55,0,0,1-.11-4.53,7,7,0,0,1,8.89-4.88,6.18,6.18,0,0,1,3.44,2.93,5.92,5.92,0,0,1,.76,3,4,4,0,0,1-.09.83C237.88,373.53,237.85,373.62,237.83,373.62Z"/><path class="cls-8" d="M244.41,374.5s0-.4,0-1.1a6.18,6.18,0,0,0-.76-2.82,5.92,5.92,0,0,0-3.17-2.79,6.66,6.66,0,0,0-5.14.32A6.73,6.73,0,0,0,232,372a7.39,7.39,0,0,0-.17,4.29,7.25,7.25,0,0,0,1.31,2.63c.43.55.74.81.71.84a2.72,2.72,0,0,1-.86-.71,6.8,6.8,0,0,1-1.5-2.66,7.55,7.55,0,0,1,.07-4.53,7,7,0,0,1,9.08-4.52,6.18,6.18,0,0,1,3.32,3.06,5.92,5.92,0,0,1,.64,3,4,4,0,0,1-.12.82C244.46,374.41,244.42,374.5,244.41,374.5Z"/><path class="cls-5" d="M273.17,169.65a54.8,54.8,0,0,0-8.27.37,34.41,34.41,0,0,0-30,34.3A61,61,0,0,0,237,220.67c4.81,17.06,6.29,32.09,5.74,39.41l16.1,8.65s7.45-10.71,14.65-15.32,31.16-17,40.65-29.66c6.12-8.18,7.29-25-7.29-39.66A49.43,49.43,0,0,0,273.17,169.65Z"/><polygon class="cls-11" points="235.12 278.7 249.66 286.56 240.19 298.59 230.5 294.18 235.12 278.7"/><ellipse class="cls-8" cx="239.28" cy="269.63" rx="10.16" ry="0.25" transform="matrix(0.34, -0.94, 0.94, 0.34, -95.67, 402.93)"/><ellipse class="cls-8" cx="254.05" cy="276.99" rx="10.43" ry="0.25" transform="translate(-113.64 354.9) rotate(-59.44)"/><g class="cls-12"><path d="M278,170.1c-.65,0-8.65,9.4-12.19,15.74-11.91,21.33-12.44,42.08-15.75,66.28-.47,3.46-2.19,10.91-2.16,10.74,1.76,1.38,7.68,4.13,7.68,4.13s5.58-6.74,7.8-10.13c8.89-13.58,18.53-24.16,26.14-38.49s14.93-27,7.89-41.66C297.43,176.72,285.24,169.7,278,170.1Z"/></g><path class="cls-8" d="M314.2,225.9a2.69,2.69,0,0,1-.21-.46c-.13-.3-.29-.77-.56-1.35a24.66,24.66,0,0,0-9-10.49,23.53,23.53,0,0,0-10.13-3.75h-.1l-.06-.08a56.34,56.34,0,0,0-6.5-7.46,32.52,32.52,0,0,0-8.87-6.11,23,23,0,0,0-10.48-2,17.36,17.36,0,0,0-9.17,3.06l-.14.1-.13-.12a18.06,18.06,0,0,0-9.8-4.35,17.73,17.73,0,0,0-8.33,1.06,18.47,18.47,0,0,0-4.78,2.69c-.5.39-.88.71-1.12.94a2.67,2.67,0,0,1-.39.32,2.66,2.66,0,0,1,.34-.38,13.38,13.38,0,0,1,1.08-1,17.92,17.92,0,0,1,13.24-4,18.34,18.34,0,0,1,10.05,4.39h-.28a17.74,17.74,0,0,1,9.41-3.18,23.32,23.32,0,0,1,10.71,2,32.78,32.78,0,0,1,9,6.21,56,56,0,0,1,6.52,7.54l-.15-.09a23.73,23.73,0,0,1,10.28,3.89,24.45,24.45,0,0,1,6.19,5.91,22.91,22.91,0,0,1,2.73,4.83c.25.59.38,1.07.49,1.38A2.65,2.65,0,0,1,314.2,225.9Z"/><path class="cls-8" d="M284.27,247.15a10.28,10.28,0,0,0-1.39-3.5,9.55,9.55,0,0,0-3.09-3,8.64,8.64,0,0,0-5.33-1.26l-.2,0,0-.2a14.08,14.08,0,0,0-2.64-6.22,13.86,13.86,0,0,0-6-4.64,14.26,14.26,0,0,0-11.81.61l-.15.08-.12-.13a10.14,10.14,0,0,0-5.59-3,11.21,11.21,0,0,0-5,.16,11.88,11.88,0,0,0-4,2s.06-.08.21-.22a7.94,7.94,0,0,1,.68-.57,9.86,9.86,0,0,1,3-1.45,11.26,11.26,0,0,1,5.15-.26,10.44,10.44,0,0,1,5.85,3.09l-.27,0a14.6,14.6,0,0,1,12.2-.68,14.55,14.55,0,0,1,8.85,11.25l-.23-.18a8.93,8.93,0,0,1,5.55,1.39,9.6,9.6,0,0,1,3.12,3.13,8.42,8.42,0,0,1,1.07,2.63,7,7,0,0,1,.1.74A.75.75,0,0,1,284.27,247.15Z"/><path class="cls-8" d="M246.85,290.35s-.16-.2-.53-.35a2.57,2.57,0,0,0-1.7.05,4.82,4.82,0,0,1-1.29.24,2,2,0,0,1-1.44-.63c-.77-.8-1.07-2-1.79-2.77a1.67,1.67,0,0,0-1.34-.56,8.45,8.45,0,0,0-1.52.3,3.36,3.36,0,0,1-1.52.08,2.69,2.69,0,0,1-1.19-.61,2.84,2.84,0,0,1-1-1.62c-.07-.44,0-.69,0-.69a5.86,5.86,0,0,1,.17.64,2.88,2.88,0,0,0,1,1.39,2.4,2.4,0,0,0,1.05.48,3,3,0,0,0,1.33-.12,8.15,8.15,0,0,1,1.61-.35,2.15,2.15,0,0,1,1.72.71c.85,1,1.11,2.11,1.76,2.79a1.61,1.61,0,0,0,1.12.54,4.85,4.85,0,0,0,1.19-.16,2.58,2.58,0,0,1,1.87.12C246.81,290.07,246.87,290.35,246.85,290.35Z"/><ellipse class="cls-8" cx="241.54" cy="284.29" rx="0.25" ry="7.91" transform="translate(-122.98 363.6) rotate(-61.92)"/><path class="cls-8" d="M245.63,291.68s-.2.1-.55.26c-.18.08-.38.2-.66.31a2.26,2.26,0,0,1-1,.13,4.18,4.18,0,0,1-2.4-.92,3.32,3.32,0,0,1-.91-1.26,4.78,4.78,0,0,0-.7-1.31,3.37,3.37,0,0,0-2.63-.76,6.1,6.1,0,0,1-2.53-.24,2.35,2.35,0,0,1-1.28-1.17c-.16-.39-.11-.63-.08-.63s.06.22.25.54a2.33,2.33,0,0,0,1.23.93,6.32,6.32,0,0,0,2.39.11,3.7,3.7,0,0,1,3,.88,4.93,4.93,0,0,1,.78,1.45,2.92,2.92,0,0,0,.77,1.11,4,4,0,0,0,2.13.92,3,3,0,0,0,1.56-.27C245.4,291.65,245.62,291.66,245.63,291.68Z"/><path class="cls-13" d="M135.84,198.29,161,194.56l-12-17-6.45.38a11.5,11.5,0,0,0-9.88,6.93h0a11.5,11.5,0,0,0-.73,6.73Z"/><path class="cls-14" d="M135.84,198.29,161,194.56l-12-17-6.45.38a11.5,11.5,0,0,0-9.88,6.93h0a11.5,11.5,0,0,0-.73,6.73Z"/><path class="cls-6" d="M243.85,226.15c.26.72.54,1.57.83,2.59a8,8,0,0,1,.27,2.69,12.2,12.2,0,0,1-.57,3.33c-.41,1,.55,1.91,1.36,1.44s2-3.08,1.94-6.42,3.34.66,4.61,2.1,5.41,5.71,6.16,5.67c1.1-.06,1.24-1.25-.06-2.66s-4.91-5.91-4.12-6.54,7.15,6.79,7.15,6.79,1.1,1.81,2,1.1c1.7-1.27-5.65-8.65-6.37-9.34-.5-.48.34-1.2.85-.66s6.18,7.55,7.92,6.27c1.33-1-6-6.13-6.36-8.23s5.16,4.47,6.39,3.49c.46-.37.75-.7-3-4-1.8-1.61-8.66-6.41-8.66-6.41l-20.64-59.1-15.94,9.13Z"/><path class="cls-6" d="M121,114.39,97.93,86.87h0a15.9,15.9,0,0,0-1.13-2.74,8.6,8.6,0,0,0-5.44-4.54c-1.46-.32-3.14-.17-4.28-1.13-.51-.43-.86-1-1.39-1.44s-1.43-.48-1.78.1a1.56,1.56,0,0,0,.1,1.37,12.84,12.84,0,0,0,4,5.17c-2.16.66-5.25,1.65-5.25,1.65S77.87,80,75.38,80s2,4.72,2,4.72-4-3.7-5.24-2.65,1.94,3.78,1.94,3.78A5.3,5.3,0,0,0,70.85,85c-1.13.19-2.1,1.52-1.49,2.49a2.64,2.64,0,0,0,1,.81l6.14,3.42a7.44,7.44,0,0,0,3.28,1.2c3.11.1,5.48-1.83,8.6-1.75,0,0,17.39,36.61,19.15,38.5s40,4.46,40,4.46l22.11-19.05Z"/><path class="cls-15" d="M190.26,313.82l23.55,10.26L201.2,353.45c-2.73-1.38-1.84-19-1.84-19l-15.36-6Z"/><g class="cls-16"><path class="cls-17" d="M202,324.83a1.31,1.31,0,0,1,1.72-.24,1.25,1.25,0,0,1,.25,1.71,1.38,1.38,0,0,1-1.83.25,1.3,1.3,0,0,1-.07-1.81"/></g><path class="cls-18" d="M213.82,324.08l-2.41-.94-11.19,28.51s0,1.55,1,1.8Z"/><path class="cls-8" d="M199,334.87c.15.06.52-.63,1.28-1.14s1.53-.62,1.53-.78-.92-.3-1.83.33S198.87,334.84,199,334.87Z"/><path class="cls-8" d="M199,338.5c.12.09.64-.42,1.45-.65s1.52-.09,1.57-.24-.72-.59-1.73-.28S198.83,338.43,199,338.5Z"/><path class="cls-8" d="M201.9,341.83c.09-.12-.54-.62-1.49-.59s-1.54.57-1.45.68.69-.12,1.47-.14S201.82,342,201.9,341.83Z"/><path class="cls-8" d="M195.66,333.12c.16,0,.24-.75.64-1.53s.93-1.31.84-1.44-.86.26-1.33,1.19S195.52,333.15,195.66,333.12Z"/><path class="cls-8" d="M192.48,330.93a3,3,0,0,0,.62-1.47,7.19,7.19,0,0,0,.19-1.74,7.54,7.54,0,0,0-.09-1,2,2,0,0,0-.16-.59.68.68,0,0,0-.73-.39.86.86,0,0,0-.6.49,2.09,2.09,0,0,0-.16.58,5.75,5.75,0,0,0-.08,1,5.64,5.64,0,0,0,.31,1.74c.34,1,.77,1.42.82,1.38s-.23-.57-.45-1.49a6.39,6.39,0,0,1-.18-1.63,6,6,0,0,1,.1-1c.05-.35.16-.61.34-.63s.09,0,.15.1a1.6,1.6,0,0,1,.11.43,8.45,8.45,0,0,1,.11,1,8.88,8.88,0,0,1-.07,1.66A11,11,0,0,0,192.48,330.93Z"/><path class="cls-8" d="M192.76,330.83s-.35-.55-1.25-1a5.18,5.18,0,0,0-2.75-.5,1.32,1.32,0,0,0-1.15.62.75.75,0,0,0,.15.79,2.17,2.17,0,0,0,.47.38,3.56,3.56,0,0,0,1,.43,3.68,3.68,0,0,0,1.79,0c1-.25,1.44-.77,1.39-.8a13.1,13.1,0,0,1-1.46.43,3.69,3.69,0,0,1-1.58-.13,3.3,3.3,0,0,1-.84-.39c-.29-.18-.49-.41-.41-.51a.92.92,0,0,1,.7-.31,5.34,5.34,0,0,1,1,0,5.76,5.76,0,0,1,1.59.35C192.24,330.51,192.71,330.9,192.76,330.83Z"/><path class="cls-15" d="M172.12,354.17l9.74,20.41,3.05,18.36a2.32,2.32,0,0,0,2.82,1.87h0a2.3,2.3,0,0,0,1.61-1.38c1.79-4.43,8.3-20.78,7.5-22.23C195.92,369.52,188,349,188,349Z"/><path class="cls-18" d="M187.74,394.81l8.49-25,.39.87a3.49,3.49,0,0,1,.17,2.4c-.62,2.13-2.45,8-7.38,20.32a2.31,2.31,0,0,1-1.67,1.41Z"/><g class="cls-16"><path class="cls-17" d="M189,365.06a1.4,1.4,0,0,0,.4,1.83,1.35,1.35,0,0,0,1.81-.38,1.48,1.48,0,0,0-.43-1.93,1.4,1.4,0,0,0-1.84.61"/></g><path class="cls-8" d="M188.4,383.68a5,5,0,0,0-5.11-.18s.15-.32.6-.61a3.69,3.69,0,0,1,4,.14C188.27,383.35,188.44,383.64,188.4,383.68Z"/><path class="cls-8" d="M188.17,387.1a18.94,18.94,0,0,0-2.23-.07,18.93,18.93,0,0,0-2.13.65c-.11-.08.69-1,2.07-1.14A2.57,2.57,0,0,1,188.17,387.1Z"/><path class="cls-8" d="M189.54,378.91a23.16,23.16,0,0,0-3.43-.33,23.15,23.15,0,0,0-3.38.66,6.33,6.33,0,0,1,6.81-.33Z"/><path class="cls-8" d="M187.1,372.46c0,.15-1.35.18-2.86.8s-2.52,1.5-2.62,1.39a5.75,5.75,0,0,1,5.48-2.19Z"/><path class="cls-8" d="M184.39,366.4a7.36,7.36,0,0,0-5.43,2.67c-.05,0,.06-.39.41-.88a5,5,0,0,1,4.07-2C184.05,366.2,184.4,366.34,184.39,366.4Z"/><path class="cls-8" d="M180.91,366a2,2,0,0,1-.38-.77,5.94,5.94,0,0,1-.3-2.32,2.64,2.64,0,0,1,.51-1.61.93.93,0,0,1,1-.24,1.51,1.51,0,0,1,.74.78,3.28,3.28,0,0,1-1.38,3.94,3.8,3.8,0,0,1-4.22-.28,1.32,1.32,0,0,1-.51-1,.91.91,0,0,1,.67-.83,3.24,3.24,0,0,1,1.68.1,6.63,6.63,0,0,1,2.13,1c.45.32.66.55.64.57a10.55,10.55,0,0,0-2.85-1.2,3,3,0,0,0-1.46,0,.49.49,0,0,0-.37.45.9.9,0,0,0,.37.62,3.39,3.39,0,0,0,3.66.2,2.84,2.84,0,0,0,1.22-3.33,1.1,1.1,0,0,0-.5-.57.5.5,0,0,0-.58.12,2.38,2.38,0,0,0-.46,1.36A8.78,8.78,0,0,0,180.91,366Z"/><path class="cls-8" d="M204.95,316.31l-26.71-18,8.84-86.79-25.3-14.77-23.13-5.36s-9.66,20.1-14,33c-9.14,27.37-15.55,37.17-14.09,57,.46,6.28,23.65,22,38.29,30.71a45.85,45.85,0,0,0,.78,5.2c5,22.62,20.27,52.69,20.27,52.69l23.21-10.79-7.49-25.65,7.8,4.55Zm-57.41-56,3.12-13.91c-.66,8.85-1.26,18.07-1.69,26.92A27.51,27.51,0,0,1,147.54,260.35Z"/><path class="cls-11" d="M169.94,370a2.46,2.46,0,0,1-.18-.37l-.48-1.09-1.79-4.23c-1.54-3.68-3.75-9-6.4-15.65s-5.79-14.53-9-23.43c-.79-2.23-1.56-4.52-2.29-6.89-.32-1.2-.73-2.38-.94-3.65-.06-.31-.13-.63-.18-.94l-.11-.95-.21-1.91q-.41-3.83-.66-7.81-.13-2-.21-4c0-1.34-.11-2.71,0-4.07.39-10.91,1.31-21.24,2.06-30.65l2.09-25c.58-7.11,1-12.87,1.21-16.86.12-2,.19-3.54.24-4.59l.06-1.19a2.47,2.47,0,0,1,0-.41,2.49,2.49,0,0,1,0,.41l0,1.2c0,1.05-.05,2.6-.15,4.6-.17,4-.52,9.76-1,16.88l-2,25c-.73,9.41-1.63,19.76-2,30.63-.08,1.36,0,2.7,0,4s.12,2.67.21,4q.25,4,.65,7.79l.21,1.9.11.94c.05.31.12.61.18.92.2,1.22.6,2.41.92,3.6.72,2.36,1.48,4.65,2.27,6.87,3.14,8.89,6.25,16.8,8.85,23.45l6.26,15.7,1.71,4.27.44,1.11A2.48,2.48,0,0,1,169.94,370Z"/><path class="cls-11" d="M152.09,213.37s-.23-.15-.61-.49a6.34,6.34,0,0,1-1.13-1.81,19.61,19.61,0,0,1-1.14-6.89,58.43,58.43,0,0,1,.33-7,16.72,16.72,0,0,1,.4-2.85,16.41,16.41,0,0,1-.05,2.88c-.09,1.77-.23,4.22-.18,6.92a22.18,22.18,0,0,0,1,6.77,7.51,7.51,0,0,0,.95,1.82C151.95,213.12,152.11,213.34,152.09,213.37Z"/><path class="cls-11" d="M142.1,192.71a5.9,5.9,0,0,1,.2,2.43,11.16,11.16,0,0,1-6.39,9.37,5.9,5.9,0,0,1-2.33.7c0-.08.88-.32,2.17-1a11.82,11.82,0,0,0,6.2-9.09C142.13,193.64,142,192.72,142.1,192.71Z"/><path class="cls-11" d="M183.6,243.17a1,1,0,0,1,0,.26l-.06.77-.3,3L182,258.06,178,294a65.42,65.42,0,0,0,1.32,19.7,68.6,68.6,0,0,0,2.42,8.31l2.5,7.14,3.59,10.35,1,2.82.24.74a1.06,1.06,0,0,1,.06.26,1.06,1.06,0,0,1-.11-.24l-.28-.72-1-2.79-3.74-10.3-2.56-7.12a67.72,67.72,0,0,1-2.48-8.34,65,65,0,0,1-1.36-19.85c1.56-14,3.11-26.71,4.21-35.9L183,247.15l.39-3,.11-.77A1.06,1.06,0,0,1,183.6,243.17Z"/><polyline class="cls-6" points="138.65 191.24 142.75 180.78 152.09 194.72 139.63 191.6"/><path class="cls-15" d="M236.47,159.78l-11.09-24.87c-1.33-4-3.81-4.62-5.9-6.94l-27.79-15.67c-20.25-8.3-31.28,19.53-31.28,19.53l-18.41,42c-21.65,7.18-6.32,23.8-6.32,23.8s-5.89-10.24-.1-13.93c6.06-3.87,12.79,6.32,19.25,16,7.63,11.42,32.41,18.84,32.41,18.84,2.9-3.06,2.09-13.75,4.36-19.49.72-1.82,17.88-41.57,17.88-41.57l6.65,16.12s8.53-10,12.66-11.59A46.91,46.91,0,0,1,236.47,159.78Z"/><path class="cls-8" d="M187.23,177.45a3.61,3.61,0,0,1-.84.59,15.82,15.82,0,0,1-2.53,1.2,18.1,18.1,0,0,1-17.56-2.71,15.83,15.83,0,0,1-2-1.9,3.6,3.6,0,0,1-.62-.81c.07-.07,1,1.07,2.89,2.44a18.8,18.8,0,0,0,17.23,2.66C185.95,178.16,187.18,177.37,187.23,177.45Z"/><path class="cls-15" d="M141.17,138h0l17.15,1.62,27.44-29-16.14-.55-28.74,2.84A74.45,74.45,0,0,1,141.17,138Z"/><path class="cls-8" d="M165,122.73a2.48,2.48,0,0,1-.21.53l-.69,1.48-2.55,5.43c-2.13,4.6-5,11-8,18.1s-5.86,13.53-8,18.14c-1.05,2.31-1.92,4.17-2.55,5.44l-.73,1.46a2.47,2.47,0,0,1-.28.5,2.48,2.48,0,0,1,.19-.54l.64-1.5,2.4-5.5,7.83-18.19c3.07-7.1,6-13.49,8.17-18,1.1-2.28,2-4.12,2.69-5.37l.77-1.44A2.47,2.47,0,0,1,165,122.73Z"/><path class="cls-8" d="M217.34,131.17c0,.08-1,.64-2.47,1.87a18,18,0,0,0-2.32,2.4,18.27,18.27,0,0,0-3.53,7.29,18,18,0,0,0-.45,3.3c-.07,1.9.15,3.08.06,3.1a2.74,2.74,0,0,1-.21-.82,6.41,6.41,0,0,1-.13-1,10.76,10.76,0,0,1-.07-1.31,16.11,16.11,0,0,1,.35-3.4,17.32,17.32,0,0,1,3.62-7.48,16.11,16.11,0,0,1,2.45-2.38,10.75,10.75,0,0,1,1.07-.76,6.42,6.42,0,0,1,.85-.5A2.74,2.74,0,0,1,217.34,131.17Z"/><path class="cls-6" d="M222.13,91.33,206,121.41a10.61,10.61,0,0,1-13.69,4.68h0a10.61,10.61,0,0,1-5-14.64c1.52-2.87,2.78-5.21,2.78-5.21s-7-4.53-3.72-12.09c2.92-6.74,13.64-25.78,15.91-29.8l13.56,6.07A15.24,15.24,0,0,1,222.13,91.33Z"/><path class="cls-19" d="M190.12,106.12a19.15,19.15,0,0,0,11,1.6s-4.74,4.37-11.94.34Z"/><path class="cls-8" d="M195.29,82.08a1.18,1.18,0,0,0,.55,1.55,1.13,1.13,0,0,0,1.54-.47,1.18,1.18,0,0,0-.55-1.55A1.13,1.13,0,0,0,195.29,82.08Z"/><path class="cls-8" d="M195.35,81.12c.07.2,1.15,0,2.31.48s1.74,1.48,1.93,1.39.07-.35-.18-.78a3.23,3.23,0,0,0-1.47-1.29,3.1,3.1,0,0,0-1.91-.21C195.54,80.83,195.31,81,195.35,81.12Z"/><path class="cls-8" d="M206.09,87.39a1.18,1.18,0,0,0,.55,1.55,1.12,1.12,0,0,0,1.54-.47,1.18,1.18,0,0,0-.55-1.55A1.13,1.13,0,0,0,206.09,87.39Z"/><path class="cls-8" d="M206.61,86.42c.07.2,1.15,0,2.31.48s1.74,1.48,1.93,1.39.07-.35-.18-.78a3.23,3.23,0,0,0-1.47-1.29,3.1,3.1,0,0,0-1.91-.21C206.8,86.13,206.57,86.32,206.61,86.42Z"/><path class="cls-8" d="M198.58,93.11a8.38,8.38,0,0,0-1.72-1.18c-.28-.16-.53-.35-.49-.57s.29-.51.59-.79l1.88-1.86a42.29,42.29,0,0,0,4.59-5,42.4,42.4,0,0,0-5,4.62l-1.85,1.89a1.87,1.87,0,0,0-.67,1.09.81.81,0,0,0,.29.65,2.2,2.2,0,0,0,.47.29A8.23,8.23,0,0,0,198.58,93.11Z"/><path class="cls-8" d="M201.62,95.43c-.18-.1-.75,1.16-2.22,1.57s-2.74-.33-2.83-.15.19.38.75.64a3.42,3.42,0,0,0,2.33.2,3,3,0,0,0,1.78-1.35C201.71,95.83,201.71,95.46,201.62,95.43Z"/><path class="cls-8" d="M208.33,81.76c0,.37,1.19.73,2.48,1.5s2.21,1.63,2.52,1.43c.14-.1.08-.48-.22-1a5,5,0,0,0-3.81-2.23C208.71,81.45,208.35,81.58,208.33,81.76Z"/><path class="cls-8" d="M197.27,78c.09.35,1,.44,2,.85s1.69,1,2,.78c.14-.1.13-.42-.11-.82a3.1,3.1,0,0,0-3.19-1.31C197.47,77.58,197.24,77.8,197.27,78Z"/><path class="cls-6" d="M217.07,95.84c.15,0,5.85.78,3.38,5.85s-7,1.55-7,1.4S217.07,95.84,217.07,95.84Z"/><path class="cls-19" d="M216,101.92s.06.1.17.25a1,1,0,0,0,.65.33,2.43,2.43,0,0,0,2-1.47,3.24,3.24,0,0,0,.37-1.38,1.13,1.13,0,0,0-.33-1,.5.5,0,0,0-.64,0c-.14.11-.15.23-.18.22s-.07-.14.07-.33a.63.63,0,0,1,.35-.22.74.74,0,0,1,.55.11,1.38,1.38,0,0,1,.54,1.23,3.33,3.33,0,0,1-.38,1.56,2.55,2.55,0,0,1-2.35,1.56,1.05,1.05,0,0,1-.74-.53C215.91,102.05,215.93,101.92,216,101.92Z"/><path class="cls-8" d="M220,96.95a3,3,0,0,0-3,.16c-.66.58-1.11,1.38-1.77,2a2,2,0,0,1-2.41.38,1.73,1.73,0,0,1-.55-1.65,4.76,4.76,0,0,1,.73-1.66c1.38-2.26,2.95-4.42,4.12-6.79a13.53,13.53,0,0,0,1.61-7.67,7.4,7.4,0,0,0-4.5-6.07c-1.65-.59-3.49-.41-5.18-.9a6.88,6.88,0,0,1-4.44-4.08c-.1-.25-.66-1.14-.66-1.14s.65-1.15,1.25-1.35c4.45-1.5,10.49.22,14.18,3.13a16.43,16.43,0,0,1,6.32,12.29c0,4.7-2.91,9.88-5.66,13.38"/><path class="cls-8" d="M220.06,96.44c1.41-2.39,3.69-4.13,5.43-6.29s2.94-5.21,1.7-7.69c-.42-.85-1.1-1.56-1.46-2.44a12,12,0,0,1-.49-2.81,9.79,9.79,0,0,0-4.84-7c-1.78-1-3.83-1.4-5.64-2.35-2.86-1.5-4.95-4.29-7.95-5.47a3.83,3.83,0,0,0-3.11-.09,1.87,1.87,0,0,0-.77,2.69,1.63,1.63,0,0,0-2.25-1.09,2.46,2.46,0,0,0-1.27,2.41,5.33,5.33,0,0,0,1.09,2.65,13.47,13.47,0,0,0,7.7,5.3l6.9-.54,5.66,4.19L225,84.55l-7.6,9.87Z"/><path class="cls-5" d="M176.87,57.09A24.38,24.38,0,1,0,143.6,81.34l.4,6.14,21.32-1.38s-.09-3.45-.24-6.53A24.37,24.37,0,0,0,176.87,57.09Z"/><path class="cls-8" d="M157.6,86.5s0-.1,0-.3l0-.88c0-.78.11-1.92.23-3.4s.29-3.28.63-5.35a36.14,36.14,0,0,1,1.77-6.91A23.19,23.19,0,0,1,162,65.89a4.49,4.49,0,0,1,1.57-1.6,2.51,2.51,0,0,1,2.31-.07,1.66,1.66,0,0,1,.83.91,1.7,1.7,0,0,1,0,1.26A3.47,3.47,0,0,1,165,68.12a6.67,6.67,0,0,1-5.08,0,6.76,6.76,0,0,1-3.7-3.84,5.1,5.1,0,0,1-.33-2.8,2.19,2.19,0,0,1,2.1-1.83,1.57,1.57,0,0,1,1.29.78,2.21,2.21,0,0,1,.29,1.49A4.76,4.76,0,0,1,158,64.41a7.27,7.27,0,0,1-5.56,2,6.34,6.34,0,0,1-4.93-3.2,3.68,3.68,0,0,1-.35-2.94,1.86,1.86,0,0,1,1-1.14,1.83,1.83,0,0,1,1.51,0,2.43,2.43,0,0,1,1.1,1,3.8,3.8,0,0,1,.46,1.38,7,7,0,0,1-.19,2.8,7.26,7.26,0,0,1-3.17,4.3,7.39,7.39,0,0,1-5,1,3.87,3.87,0,0,1-2.27-1,1.89,1.89,0,0,1-.29-2.33,1.59,1.59,0,0,1,1.06-.61,2.29,2.29,0,0,1,1.18.15,3.53,3.53,0,0,1,1.6,1.57c.7,1.28,1.27,2.53,1.85,3.72,2.26,4.78,3.9,8.73,5,11.47.55,1.37,1,2.44,1.24,3.17l.31.83c.07.19.1.29.1.29s0-.09-.12-.28l-.34-.82-1.29-3.15c-1.14-2.72-2.81-6.66-5.09-11.42-.58-1.18-1.17-2.45-1.85-3.7a3.31,3.31,0,0,0-1.49-1.47,1.46,1.46,0,0,0-1.67,2.39,3.62,3.62,0,0,0,2.12.94,7.13,7.13,0,0,0,4.8-1,7,7,0,0,0,3-4.14,6.74,6.74,0,0,0,.18-2.69,2.65,2.65,0,0,0-1.39-2.15,1.53,1.53,0,0,0-1.27,0,1.57,1.57,0,0,0-.84,1,3.39,3.39,0,0,0,.34,2.7,6,6,0,0,0,4.7,3,7,7,0,0,0,5.33-1.93,4.49,4.49,0,0,0,1.47-2.36,1.91,1.91,0,0,0-.25-1.29,1.28,1.28,0,0,0-1.05-.64,1.71,1.71,0,0,0-1.18.47,2.1,2.1,0,0,0-.62,1.13,4.83,4.83,0,0,0,.31,2.63A6.48,6.48,0,0,0,160,67.83a6.41,6.41,0,0,0,4.86,0,3.22,3.22,0,0,0,1.65-1.59,1.44,1.44,0,0,0-.69-1.85,2.27,2.27,0,0,0-2.09.06A4.27,4.27,0,0,0,162.23,66a23.13,23.13,0,0,0-1.76,3.72,36.41,36.41,0,0,0-1.8,6.87c-.35,2.07-.54,3.86-.67,5.33l-.28,3.39-.07.88C157.62,86.4,157.6,86.5,157.6,86.5Z"/><path class="cls-8" d="M163.93,90.16l-18.31,1.18a1.38,1.38,0,0,1-1.46-1.29h0a1.38,1.38,0,0,1,1.29-1.46l18.31-1.18a1.38,1.38,0,0,1,1.46,1.29h0A1.38,1.38,0,0,1,163.93,90.16Z"/><path class="cls-8" d="M164,91.36,145.7,92.54a1.38,1.38,0,0,0,.18,2.75l2-.13,3,4.9a1.77,1.77,0,0,0,1.62.84l6.54-.42a1.77,1.77,0,0,0,1.51-1.06l2.26-5.23,1.37-.09a1.38,1.38,0,1,0-.18-2.75Z"/><g class="cls-20"><path class="cls-17" d="M135.91,44.17a17.93,17.93,0,0,1,4.66-3.55,12.94,12.94,0,0,1,3.68-1.33c.91-.16,1.44-.1,1.5.09.13.43-1.67,1.21-4,3a21.16,21.16,0,0,0-6.9,9,21.16,21.16,0,0,0-.95,11.27c.53,2.95,1.34,4.73.94,5-.17.1-.6-.21-1.17-.95a12.94,12.94,0,0,1-1.82-3.46,17.93,17.93,0,0,1-1-5.77A19,19,0,0,1,132,50.29"/></g><g class="cls-20"><path class="cls-17" d="M151.67,40c-1.54.09-2.93-.25-3.14-1.05-.09-.4.16-.85.7-1.22a4.89,4.89,0,0,1,4.6-.27c.58.31.88.72.84,1.13"/></g><path class="cls-11" d="M160.24,99.87s-.49-.13-1.28-.31a10.21,10.21,0,0,0-6.17.58c-.74.32-1.18.58-1.2.54a3.75,3.75,0,0,1,1.12-.73,8.93,8.93,0,0,1,6.31-.59A3.76,3.76,0,0,1,160.24,99.87Z"/><ellipse class="cls-11" cx="155.47" cy="94.73" rx="7.41" ry="0.15" transform="translate(-5.78 10.22) rotate(-3.7)"/><path class="cls-11" d="M161.86,96.5a10.38,10.38,0,0,1-1.79.3c-1.11.14-2.65.31-4.36.44s-3.25.21-4.37.25a10.34,10.34,0,0,1-1.82,0,11.5,11.5,0,0,1,1.8-.2l4.36-.33,4.36-.35A11.47,11.47,0,0,1,161.86,96.5Z"/><path class="cls-5" d="M30,219l4,6.37s17-15.61,33.79-11.2C67.78,214.14,52.66,201.32,30,219Z"/><path class="cls-5" d="M67.78,214.14s12.45-13.52,30.71-10.44l5,.75-1.59-2.88S70.12,190.71,67.78,214.14Z"/><path class="cls-1" d="M41.5,168.56S16.56,164.27.21,173.12l26,48.9s21.26-20.49,41.6-7.87Z"/><path class="cls-8" d="M41.5,168.56a1.27,1.27,0,0,1,.13.2l.37.62,1.44,2.43,5.41,9.26L68,214a.22.22,0,0,1-.08.3.22.22,0,0,1-.23,0,27.6,27.6,0,0,0-9.56-3.67,29.65,29.65,0,0,0-5.39-.37,33.26,33.26,0,0,0-5.52.69,47.47,47.47,0,0,0-20.63,11l-.21.2a.25.25,0,0,1-.35,0l0-.06L0,173.21a.2.2,0,0,1,.08-.27h0A50.14,50.14,0,0,1,16.73,168a83.7,83.7,0,0,1,13.3-.58c3.68.12,6.55.42,8.5.66,1,.12,1.72.23,2.22.31l.57.1.19,0-.2,0-.57-.07c-.5-.06-1.25-.16-2.22-.25-1.95-.2-4.82-.46-8.49-.55a85.42,85.42,0,0,0-13.25.67,50.09,50.09,0,0,0-16.47,5L.39,173l26,48.88-.39-.06.22-.21a52.63,52.63,0,0,1,9.94-7,41.67,41.67,0,0,1,10.92-4.14,33.66,33.66,0,0,1,5.61-.7,30,30,0,0,1,5.48.39A28,28,0,0,1,67.89,214l-.31.3-18.91-33-5.31-9.34L42,169.43l-.35-.64A1.6,1.6,0,0,1,41.5,168.56Z"/><path class="cls-1" d="M80.7,158.52s-18.86-12-38.88,10L68.1,214.14s5.36-18.5,36.74-12.07Z"/><path class="cls-8" d="M80.7,158.52a1.13,1.13,0,0,1,.13.19l.35.59,1.32,2.32,5,8.84L105,202a.22.22,0,0,1-.23.32h0l-4.67-.77a20.5,20.5,0,0,0-2.41-.27l-2.46-.2a18.37,18.37,0,0,0-2.5-.06l-2.54,0c-.85,0-1.7.17-2.56.25a18,18,0,0,0-2.58.39l-2.58.58-2.52.88c-.85.29-1.62.76-2.45,1.13a7.59,7.59,0,0,0-1.18.67l-1.15.74c-.76.51-1.44,1.13-2.15,1.71a22.52,22.52,0,0,0-1.89,2,15.85,15.85,0,0,0-2.8,4.8h0a.25.25,0,0,1-.45,0l-1.06-1.84L41.64,168.66a.21.21,0,0,1,0-.25,44.11,44.11,0,0,1,14.24-10.7,28.31,28.31,0,0,1,13.43-2.52,27.21,27.21,0,0,1,8.59,1.92,20.36,20.36,0,0,1,2.1,1l.51.3.16.12-.18-.09-.53-.27c-.47-.23-1.17-.57-2.12-.93a27.86,27.86,0,0,0-8.56-1.8A28.24,28.24,0,0,0,56,158,44,44,0,0,0,42,168.7l0-.25,25.25,43.73L68.31,214l-.45.05a16.26,16.26,0,0,1,2.89-5A22.93,22.93,0,0,1,72.69,207c.73-.59,1.43-1.23,2.21-1.74l1.18-.75a7.84,7.84,0,0,1,1.2-.69c.84-.38,1.63-.85,2.5-1.15l2.57-.89L85,201.2a18.32,18.32,0,0,1,2.61-.39c.87-.08,1.73-.23,2.6-.25l2.57,0a18.61,18.61,0,0,1,2.53.07l2.48.2a20.66,20.66,0,0,1,2.43.28l4.7.78-.24.32L87.26,170.63l-4.87-8.91-1.27-2.36-.32-.61A1.27,1.27,0,0,1,80.7,158.52Z"/><path class="cls-1" d="M7.23,149.61l28.12,54.15s22.86-1,32.53,10.14L41.82,168.56S26.54,149.61,7.23,149.61Z"/><path class="cls-8" d="M7.23,149.61l.71,0,2.17.09c.24,0,.5,0,.76,0l.82.14,1.88.31a16.41,16.41,0,0,1,2.15.51c.75.23,1.59.38,2.41.71,6.72,2.24,15.74,7.66,23.84,17v0h0l26.1,45.32a.25.25,0,0,1-.39.3h0l-1.1-1.1a23.91,23.91,0,0,0-7.2-4.76,41.56,41.56,0,0,0-8-2.64,67.11,67.11,0,0,0-16-1.58h0a.23.23,0,0,1-.21-.13L15,164.76,9.24,153.58l-1.51-3-.38-.76-.12-.25.15.27.41.78,1.58,3,5.88,11.19,20.31,38.82-.22-.12a67.26,67.26,0,0,1,16.11,1.57,42,42,0,0,1,8.14,2.66,24.37,24.37,0,0,1,7.34,4.85l1.13,1.13-.4.29-26-45.37,0,0a65.89,65.89,0,0,0-12.31-11.14,47.42,47.42,0,0,0-11.29-5.88c-.82-.34-1.64-.5-2.39-.73a16.52,16.52,0,0,0-2.14-.54l-1.87-.34-.82-.15c-.26,0-.5,0-.73-.06Z"/><path class="cls-5" d="M95,303.19l.6,1a6.87,6.87,0,0,0,2.84,2.62l1,.52-1,.6a6.87,6.87,0,0,0-2.62,2.84l-.52,1-.6-1a6.87,6.87,0,0,0-2.84-2.62l-1-.52,1-.6a6.87,6.87,0,0,0,2.62-2.84Z"/><path class="cls-5" d="M39.57,96.93l.6,1A6.87,6.87,0,0,0,43,100.55l1,.52-1,.6a6.87,6.87,0,0,0-2.62,2.84l-.52,1-.6-1a6.87,6.87,0,0,0-2.84-2.62l-1-.52,1-.6A6.87,6.87,0,0,0,39.05,98Z"/><path class="cls-5" d="M296.16,132.51l.6,1a6.87,6.87,0,0,0,2.84,2.62l1,.52-1,.6A6.87,6.87,0,0,0,297,140.1l-.52,1-.6-1a6.87,6.87,0,0,0-2.84-2.62l-1-.52,1-.6a6.87,6.87,0,0,0,2.62-2.84Z"/><path class="cls-5" d="M265.86,316.15l.6,1a6.87,6.87,0,0,0,2.84,2.62l1,.52-1,.6a6.87,6.87,0,0,0-2.62,2.84l-.52,1-.6-1a6.87,6.87,0,0,0-2.84-2.62l-1-.52,1-.6a6.87,6.87,0,0,0,2.62-2.84Z"/><path class="cls-5" d="M271.63,354.74l.29.12a1.83,1.83,0,0,0,1,.1l.31-.06-.12.29a1.83,1.83,0,0,0-.1,1l.06.31-.29-.12a1.83,1.83,0,0,0-1-.1l-.31.06.12-.29a1.83,1.83,0,0,0,.1-1Z"/><path class="cls-5" d="M289.07,93.8l.29.12a1.83,1.83,0,0,0,1,.1l.31-.06-.12.29a1.83,1.83,0,0,0-.1,1l.06.31-.29-.12a1.83,1.83,0,0,0-1-.1l-.31.06.12-.29a1.83,1.83,0,0,0,.1-1Z"/><path class="cls-5" d="M50.85,70l.29.12a1.83,1.83,0,0,0,1,.1l.31-.06-.12.29a1.83,1.83,0,0,0-.1,1l.06.31L52,71.64a1.83,1.83,0,0,0-1-.1l-.31.06.12-.29a1.83,1.83,0,0,0,.1-1Z"/><path class="cls-5" d="M80.25,273.15l.29.12a1.83,1.83,0,0,0,1,.1l.31-.06-.12.29a1.83,1.83,0,0,0-.1,1l.06.31-.29-.12a1.83,1.83,0,0,0-1-.1l-.31.06.12-.29a1.83,1.83,0,0,0,.1-1Z"/><path class="cls-5" d="M112.12,351.68s-.09.1-.27.29l-.83.83-3.23,3.15-12,11.56,0-.12L98.06,416l0,.43-.36-.24-4.33-2.89L65.94,394.88l-.06,0,0-.06L55.88,365l-2.8-8.46-.73-2.25-.18-.58a1,1,0,0,1-.05-.2,1,1,0,0,1,.08.19l.21.57.78,2.23,2.9,8.43,10.14,29.77-.08-.1,27.47,18.34L98,415.79l-.34.19L95.54,367.4v-.07l.05,0,12.08-11.46,3.29-3.09.86-.79Z"/><polygon class="cls-5" points="99.35 410.25 99.26 413.08 101.54 414.76 98.82 415.55 97.93 418.24 96.34 415.89 93.51 415.88 95.24 413.64 94.38 410.94 97.05 411.9 99.35 410.25"/><polygon class="cls-5" points="66.29 391.03 66.34 392.87 67.88 393.86 66.16 394.48 65.69 396.25 64.57 394.8 62.74 394.9 63.77 393.39 63.11 391.68 64.87 392.19 66.29 391.03"/><polygon class="cls-5" points="52.05 350.11 53.43 351.88 55.68 351.75 54.42 353.61 55.24 355.71 53.07 355.08 51.33 356.51 51.26 354.26 49.36 353.05 51.48 352.28 52.05 350.11"/><polygon class="cls-5" points="110.74 348.33 112.12 350.11 114.37 349.97 113.11 351.84 113.93 353.93 111.77 353.31 110.03 354.74 109.95 352.49 108.06 351.27 110.17 350.51 110.74 348.33"/><polygon class="cls-5" points="95.33 365.48 96.22 366.61 97.65 366.52 96.84 367.71 97.37 369.05 95.99 368.65 94.88 369.56 94.83 368.13 93.62 367.36 94.97 366.87 95.33 365.48"/><circle class="cls-5" cx="42.41" cy="269.9" r="19.94"/><g class="cls-21"><circle class="cls-17" cx="36.56" cy="276.13" r="3.25"/></g><g class="cls-21"><circle class="cls-17" cx="33.31" cy="266.74" r="1.89"/></g><path class="cls-22" d="M23.06,274.75c.09.35-17.07,16.81-12.65,20.32s23-5.49,38.89-18.3,30.35-28.37,26.38-32.49-23.79,8.07-23.79,8.07l2.37,1.51s12-7.69,15.78-4.7-7,14.64-22.27,25.77-30,18.95-32.28,15.9S24,277.61,24,277.61Z"/><path class="cls-23" d="M23.06,274.75c.09.35-17.07,16.81-12.65,20.32s23-5.49,38.89-18.3,30.35-28.37,26.38-32.49-23.79,8.07-23.79,8.07l2.37,1.51s12-7.69,15.78-4.7-7,14.64-22.27,25.77-30,18.95-32.28,15.9S24,277.61,24,277.61Z"/><g class="cls-21"><path class="cls-17" d="M31.42,255.85c.16.19-1.19,1.34-2.72,3.64a18.36,18.36,0,0,0-.4,20.17c1.44,2.36,2.74,3.56,2.57,3.75s-1.7-.79-3.48-3.14A17.21,17.21,0,0,1,25,275.74a17.3,17.3,0,0,1,.25-12.45,17.21,17.21,0,0,1,2.6-4.44C29.68,256.57,31.32,255.71,31.42,255.85Z"/></g><circle class="cls-5" cx="262.18" cy="83.09" r="16.45" transform="translate(172.9 343.23) rotate(-88.64)"/><g class="cls-12"><circle cx="270.23" cy="76.85" r="2.68" transform="translate(186.99 345.18) rotate(-88.64)"/></g><g class="cls-12"><circle cx="274.47" cy="83.09" r="1.56" transform="translate(184.9 355.52) rotate(-88.64)"/></g><g class="cls-12"><circle cx="270.8" cy="88.42" r="0.58" transform="translate(175.96 357.05) rotate(-88.64)"/></g></g></g></svg>