<svg xmlns="http://www.w3.org/2000/svg" viewBox="0 0 482.43 630.72"><defs><style>.cls-1{fill:#f5f5f5;}.cls-2{fill:#e1e1e1;}.cls-3{fill:#f2f3fd;}.cls-4{opacity:0.8;}.cls-5{fill:#00cb93;}.cls-6{fill:#ffbfa0;}.cls-17,.cls-18,.cls-7{fill:#fff;}.cls-21,.cls-7{opacity:0.3;}.cls-8{fill:#1b2e35;}.cls-9{fill:#fafafa;}.cls-10{fill:#ececec;}.cls-11{fill:#395a64;}.cls-12,.cls-14{opacity:0.4;}.cls-13,.cls-14{fill:#002b60;}.cls-15{fill:#006fec;}.cls-16,.cls-18{opacity:0.6;}.cls-19{fill:#ff9a71;}.cls-20{opacity:0.2;}.cls-22{fill:#ff515f;}.cls-23{fill:#005831;}</style></defs><title>Ресурс 25</title><g id="Слой_2" data-name="Слой 2"><g id="OBJECTS"><path class="cls-1" d="M369.34,67.59h61.59s-5.45-9.91-21.3-8.47c-15.14,1.38-15.91-4.88-23.61-5.65S371.91,58.61,369.34,67.59Z"/><path class="cls-1" d="M112.91,335.66s-9.35,5.06,4.26,24.59,22.47,28.91,22.47,28.91,2.57,4.61-1.43,5.94-13.24,1.13-14.37,6.4c-1.18,5.47,3.28,9.86,11.55,13.12s26.12,11,27.73,11.76,3.36,2.77.78,4.1-22.62,6.26-19.71,15.63,27.43,14.65,30.1,15.28,3.42,1.62,3.41,3-6.91,2.44-12.55,4.07-11.9,4.52-9.77,9.78,17.54,14.82,51.58,13.48l15.73-1.65,6.7-14.41c12.46-31.7,8.5-49.4,4.23-53.14s-9.05,1.22-12.45,6-6.63,11-8,10.51-2-1.49-1.75-4.22,3.36-27.62-4.53-33.45-19.13,11.48-21.25,13.48-3.48-.36-3.62-2.08-1.63-21.18-2-30.05-3-14.54-8.59-15.22c-5.36-.66-8.21,8.13-10.77,11.47s-6.08-.61-6.08-.61-5.94-11.45-19.91-30.73-22-11.89-22-11.89"/><path class="cls-1" d="M224,493.68c-10.2-14.2-27.91-39.74-43.22-61.59s-29.19-41.6-39.32-55.85l-12-16.86-3.26-4.59-.84-1.2c-.19-.27-.27-.42-.27-.42s.11.13.31.39l.88,1.17,3.34,4.53c2.89,3.94,7,9.67,12.14,16.77,10.2,14.2,24.13,33.93,39.44,55.77s33,47.42,43.1,61.67"/><path class="cls-1" d="M136.75,402.29a5.14,5.14,0,0,1,1.13.15c.72.13,1.77.34,3.05.62,2.57.56,6.1,1.42,10,2.45l9.91,2.66,3,.79a5.13,5.13,0,0,1,1.09.33,5.12,5.12,0,0,1-1.14-.15c-.72-.13-1.77-.34-3-.64-2.56-.59-6.08-1.49-10-2.52l-9.93-2.58-3-.77A5.11,5.11,0,0,1,136.75,402.29Z"/><ellipse class="cls-1" cx="169.35" cy="391.77" rx="16.73" ry="0.25" transform="translate(-249.18 475.4) rotate(-77.92)"/><path class="cls-1" d="M187.85,442.74a5.36,5.36,0,0,1,.5-1.05l1.51-2.79c1.27-2.36,3-5.63,4.79-9.3s3.3-7.05,4.37-9.51l1.27-2.91a5.36,5.36,0,0,1,.52-1,5.32,5.32,0,0,1-.34,1.12c-.25.71-.63,1.73-1.13,3-1,2.49-2.45,5.91-4.25,9.59s-3.58,6.94-4.93,9.26c-.68,1.16-1.24,2.09-1.64,2.72A5.34,5.34,0,0,1,187.85,442.74Z"/><path class="cls-1" d="M160.37,443.25a4.57,4.57,0,0,1,1.07-.13l2.93-.17c2.47-.12,5.89-.26,9.67-.37s7.2-.2,9.68-.23h2.93a4.58,4.58,0,0,1,1.08.06,4.57,4.57,0,0,1-1.07.13l-2.93.17c-2.47.12-5.9.26-9.67.37s-7.2.2-9.68.23h-2.93A4.56,4.56,0,0,1,160.37,443.25Z"/><path class="cls-1" d="M175.91,476.27a7.43,7.43,0,0,1,1.37-.15l3.75-.23c3.17-.17,7.55-.38,12.39-.58s9.23-.35,12.4-.43l3.76-.08a7.43,7.43,0,0,1,1.38,0,7.45,7.45,0,0,1-1.37.15l-3.75.23c-3.17.17-7.55.38-12.4.58s-9.22.35-12.4.43l-3.76.08A7.43,7.43,0,0,1,175.91,476.27Z"/><path class="cls-1" d="M210.13,474.63a8.54,8.54,0,0,1,.6-1.35l1.78-3.61c1.5-3.05,3.56-7.27,5.69-12s4-9,5.28-12.19l1.55-3.72a8.56,8.56,0,0,1,.62-1.34,8.5,8.5,0,0,1-.44,1.41c-.31.9-.79,2.19-1.4,3.78-1.22,3.18-3,7.53-5.15,12.26s-4.25,8.94-5.83,12c-.79,1.5-1.45,2.72-1.92,3.54A8.54,8.54,0,0,1,210.13,474.63Z"/><path class="cls-1" d="M342.14,265.14c-16.9-18.95-15.27-46.3-8.88-69.72,1.07-3.91,1.62-8.17,4.31-11.18s7.63-4.34,10.76-1.84c2.6,2.07,3.07,5.78,4,9a23.69,23.69,0,0,0,7.15,11c2.2,1.9,5.12,3.43,7.92,2.65,3.84-1.07,5.36-5.67,6.26-9.6l5.05-21.95c.9-3.92,1.84-7.93,3.94-11.36s5.61-6.25,9.59-6.41,8.08,3.08,8,7.1c-.05,1.67-.77,3.25-1,4.91s.06,3.63,1.49,4.45,3.29.09,4.73-.78c5-3,8.94-7.45,12.7-11.91s7.49-9.06,12.18-12.51,10.58-5.66,16.27-4.65,10.85,5.89,11,11.74-4.44,10.71-9,14.35a89.91,89.91,0,0,1-22.33,13c-1.44.58-3,1.21-3.82,2.55-1.47,2.41.39,5.59,2.77,7.06,2.69,1.66,5.93,2.11,8.9,3.2s6,3.22,6.43,6.38c.66,4.39-3.69,7.79-7.64,9.76A77,77,0,0,1,407.62,218c-3.13.37-6.39.58-9.19,2.05s-5,4.67-4.29,7.76,4.15,4.83,7.3,5,6.24-.84,9.38-1.25c5.87-.76,12.74,1.26,15.08,6.73,1.54,3.6.73,7.91-1.28,11.28s-5.08,6-8.24,8.28c-11,8.08-24,13.62-37.54,15s-25.38-.2-36.72-7.68"/><path class="cls-2" d="M345.56,267.42c3.07-9.15-.14-4.56,6.18-15.63a360.77,360.77,0,0,1,22.9-34.51l6.47-8.74c2.13-2.86,4.24-5.7,6.48-8.35A180.2,180.2,0,0,1,401.3,185.7c4.59-4.4,9.1-8.4,13.35-12.12s8.29-7.09,12.1-10a143,143,0,0,1,19-12.45c2.35-1.29,4.2-2.23,5.47-2.85l1.44-.7a3.06,3.06,0,0,1,.5-.21,2.79,2.79,0,0,1-.47.28l-1.41.76c-1.24.66-3.07,1.64-5.4,3A151.23,151.23,0,0,0,427.07,164c-3.78,2.94-7.78,6.34-12,10.06s-8.72,7.75-13.28,12.15a182.22,182.22,0,0,0-13.64,14.46c-2.22,2.64-4.31,5.45-6.44,8.33l-6.46,8.73a369.89,369.89,0,0,0-22.9,34.41c-6.33,11-3.15,6.37-6.27,15.46"/><path class="cls-2" d="M387.79,200.21a8.18,8.18,0,0,1,0-1.76c.05-1.13.18-2.77.37-4.78.37-4,1.07-9.59,1.87-15.71s1.42-11.67,1.73-15.7c.16-2,.27-3.65.34-4.77a8.08,8.08,0,0,1,.18-1.75,8,8,0,0,1,.1,1.76c0,1.13,0,2.77-.1,4.8-.17,4.05-.71,9.63-1.51,15.76l-2.08,15.67-.6,4.75A8.06,8.06,0,0,1,387.79,200.21Z"/><path class="cls-2" d="M440.41,202.73a11.14,11.14,0,0,1-2.07-.24c-1.32-.19-3.23-.48-5.6-.76-4.73-.6-11.3-1.19-18.57-1.53s-13.87-.34-18.65-.21c-2.39,0-4.32.14-5.65.19a11.14,11.14,0,0,1-2.08,0,11.06,11.06,0,0,1,2.06-.31c1.33-.14,3.26-.31,5.66-.43,4.78-.26,11.4-.33,18.7,0a182.6,182.6,0,0,1,18.61,1.75c2.37.35,4.27.71,5.58,1A11,11,0,0,1,440.41,202.73Z"/><path class="cls-2" d="M352.57,251a2.66,2.66,0,0,1-.2-.7l-.43-2c-.37-1.76-.83-4.33-1.36-7.5-1.06-6.35-2.26-15.16-3.44-24.91s-2.3-18.56-3.23-24.93l-1.12-7.53-.29-2.05a2.66,2.66,0,0,1-.05-.73,2.74,2.74,0,0,1,.2.7l.43,2c.37,1.76.83,4.33,1.36,7.5,1.06,6.35,2.26,15.16,3.44,24.91s2.3,18.56,3.23,24.92l1.12,7.53.29,2.05A2.69,2.69,0,0,1,352.57,251Z"/><path class="cls-2" d="M424.65,245.29a2.77,2.77,0,0,1-.73.12l-2.1.19-7.72.63c-6.52.53-15.52,1.36-25.45,2.3s-19,1.69-25.49,2.08c-3.27.2-5.91.33-7.74.39l-2.11.05a2.7,2.7,0,0,1-.74,0,2.83,2.83,0,0,1,.73-.12l2.1-.19,7.72-.63c6.52-.53,15.52-1.36,25.46-2.3s19-1.69,25.48-2.08c3.27-.2,5.91-.33,7.74-.39l2.11-.05A2.7,2.7,0,0,1,424.65,245.29Z"/><path class="cls-2" d="M480.55,389.75a3.82,3.82,0,0,1-.24.66l-.78,1.89-3,7.14-10.94,25.31-.07.15-.17,0L431,430.61l-11.53,1.88-.52.09.13-.51,7.57-29.89.16.33-20.2-9L401,390.94l-1.45-.69a2.64,2.64,0,0,1-.49-.26,2.65,2.65,0,0,1,.52.18l1.49.61,5.64,2.4L427,402l.22.1-.06.24-7.45,29.92-.39-.43,11.52-1.89,34.39-5.59-.23.18,11.17-25.2,3.19-7.07.86-1.85A3.81,3.81,0,0,1,480.55,389.75Z"/><polygon class="cls-2" points="423.46 428.43 422.52 430.91 424.03 433.08 421.38 432.95 419.78 435.06 419.09 432.5 416.59 431.63 418.8 430.18 418.87 427.53 420.93 429.19 423.46 428.43"/><polygon class="cls-2" points="399.86 388.33 399.39 389.56 400.14 390.64 398.82 390.58 398.02 391.62 397.68 390.35 396.44 389.92 397.54 389.2 397.57 387.88 398.6 388.7 399.86 388.33"/><polygon class="cls-2" points="466.53 423.2 466.06 424.43 466.81 425.51 465.5 425.45 464.7 426.5 464.36 425.23 463.11 424.79 464.21 424.07 464.25 422.75 465.27 423.58 466.53 423.2"/><polygon class="cls-2" points="428.06 401.06 427.59 402.29 428.34 403.37 427.02 403.31 426.22 404.36 425.88 403.08 424.64 402.65 425.74 401.93 425.77 400.61 426.8 401.44 428.06 401.06"/><polygon class="cls-2" points="482.15 388.52 481.69 389.75 482.43 390.83 481.12 390.77 480.32 391.82 479.98 390.55 478.73 390.11 479.83 389.39 479.87 388.07 480.89 388.9 482.15 388.52"/><path class="cls-1" d="M51.9,491.82h74.31s-6.57-12-25.7-10.22c-18.27,1.66-19.2-5.88-28.49-6.81S55,481,51.9,491.82Z"/><path class="cls-1" d="M41.88,201.16h74.31s-6.57-12-25.7-10.22c-18.27,1.66-19.2-5.88-28.49-6.81S45,190.32,41.88,201.16Z"/><path class="cls-3" d="M322.16,371.43c3-22.88-13.05-41.76-33.15-53.1s-43.42-15.14-65.62-21.45c-20.94-5.95-41.76-14.63-57.27-29.9s-24.81-38.23-19.24-59.28c1.4-5.28,3.9-10.59,8.44-13.64s11.46-3,14.85,1.32c7.21,9.14-6.84,25.51,2,33.13,2,1.75,4.8,2.39,6.88,4.06,5.56,4.43,3.76,13.06,4.55,20.12,1.55,14,14.66,23.69,27.54,29.35,17.24,7.59,35.93,11.15,54.22,15.65s36.74,10.16,52,21.24,28.46,28.41,28.36,47.25c0,5.26-.7,11.74-4,15.84s-7.51,4.95-12.28,2.71-8.1-5.71-7.21-13.31"/><g class="cls-4"><path class="cls-3" d="M322.16,371.43c3-22.88-13.05-41.76-33.15-53.1s-43.42-15.14-65.62-21.45c-20.94-5.95-41.76-14.63-57.27-29.9s-24.81-38.23-19.24-59.28c1.4-5.28,3.9-10.59,8.44-13.64s11.46-3,14.85,1.32c7.21,9.14-6.84,25.51,2,33.13,2,1.75,4.8,2.39,6.88,4.06,5.56,4.43,3.76,13.06,4.55,20.12,1.55,14,14.66,23.69,27.54,29.35,17.24,7.59,35.93,11.15,54.22,15.65s36.74,10.16,52,21.24,28.46,28.41,28.36,47.25c0,5.26-.7,11.74-4,15.84s-7.51,4.95-12.28,2.71-8.1-5.71-7.21-13.31"/></g><path class="cls-3" d="M224.92,189.56c-.72-8.47,5.59-15.85,12.77-19.81s15.4-5.56,22.81-9.07c18.38-8.71,30.06-29.22,30.93-50.25s-8.25-42.05-22.52-57.5c-5.8-6.28-12.93-12.85-13-21.42-.09-8.94,8.58-16,17.24-15.87s16.63,5.91,21.82,13.2,8.05,16,10.84,24.51c-2-3.57,2.09-8,6-7.6s7,3.66,9.47,6.93a73.87,73.87,0,0,1,14.15,49.46,69.65,69.65,0,0,1-22,45.35c-14,12.76-32.54,18.75-50.5,24.42l-37.5,11.83"/><g class="cls-4"><path class="cls-3" d="M224.92,189.56c-.72-8.47,5.59-15.85,12.77-19.81s15.4-5.56,22.81-9.07c18.38-8.71,30.06-29.22,30.93-50.25s-8.25-42.05-22.52-57.5c-5.8-6.28-12.93-12.85-13-21.42-.09-8.94,8.58-16,17.24-15.87s16.63,5.91,21.82,13.2,8.05,16,10.84,24.51c-2-3.57,2.09-8,6-7.6s7,3.66,9.47,6.93a73.87,73.87,0,0,1,14.15,49.46,69.65,69.65,0,0,1-22,45.35c-14,12.76-32.54,18.75-50.5,24.42l-37.5,11.83"/></g><path class="cls-3" d="M214.49.6a8.24,8.24,0,0,0-4.36,10.08,8.24,8.24,0,0,0,9.88,4.8,8.24,8.24,0,0,0,5.22-9.66A8.24,8.24,0,0,0,215.8.18"/><g class="cls-4"><path class="cls-3" d="M214.49.6a8.24,8.24,0,0,0-4.36,10.08,8.24,8.24,0,0,0,9.88,4.8,8.24,8.24,0,0,0,5.22-9.66A8.24,8.24,0,0,0,215.8.18"/></g><path class="cls-3" d="M260.72,558.45c-4.6-9.53-.59-21.41,6.73-29s17.32-12,27-16.26c21.37-9.41,44-20.63,54.86-41.3,3.66-7,5.75-14.64,7.81-22.24,4-14.71,7.73-31.42-.29-44.38-2.31-3.73-5.78-7-10.09-7.81-4.91-.87-10,1.83-13,5.8s-4.33,9-5,13.94c-1.19,9.42-.2,19-1.2,28.45s-4.45,19.32-12.24,24.75c-9.46,6.6-23,5.11-32.15,12.08-7.42,5.63-10.24,15.39-16,22.67-4.88,6.12-11.7,10.3-18,15s-12.3,10.45-14.42,18a21.3,21.3,0,0,0,29.65,25"/><g class="cls-4"><path class="cls-3" d="M260.72,558.45c-4.6-9.53-.59-21.41,6.73-29s17.32-12,27-16.26c21.37-9.41,44-20.63,54.86-41.3,3.66-7,5.75-14.64,7.81-22.24,4-14.71,7.73-31.42-.29-44.38-2.31-3.73-5.78-7-10.09-7.81-4.91-.87-10,1.83-13,5.8s-4.33,9-5,13.94c-1.19,9.42-.2,19-1.2,28.45s-4.45,19.32-12.24,24.75c-9.46,6.6-23,5.11-32.15,12.08-7.42,5.63-10.24,15.39-16,22.67-4.88,6.12-11.7,10.3-18,15s-12.3,10.45-14.42,18a21.3,21.3,0,0,0,29.65,25"/></g><path class="cls-3" d="M118.59,77.25a29.58,29.58,0,0,1,.86-48.13c4.36-3,9.54-4.84,13.42-8.45,3.45-3.21,5.7-7.66,9.56-10.35a14.3,14.3,0,0,1,16.41.35,14.3,14.3,0,0,1,4.66,15.74c-1.78,5-6.25,8.62-8.12,13.57-2,5.33-.72,11.29-1.46,16.94a23.39,23.39,0,0,1-31.34,18.86"/><g class="cls-4"><path class="cls-3" d="M118.59,77.25a29.58,29.58,0,0,1,.86-48.13c4.36-3,9.54-4.84,13.42-8.45,3.45-3.21,5.7-7.66,9.56-10.35a14.3,14.3,0,0,1,16.41.35,14.3,14.3,0,0,1,4.66,15.74c-1.78,5-6.25,8.62-8.12,13.57-2,5.33-.72,11.29-1.46,16.94a23.39,23.39,0,0,1-31.34,18.86"/></g><path class="cls-5" d="M119.14,46.82h17.45a0,0,0,0,1,0,0v36a7.68,7.68,0,0,1-7.68,7.68h-2.08a7.68,7.68,0,0,1-7.68-7.68v-36A0,0,0,0,1,119.14,46.82Z"/><polygon class="cls-6" points="119.14 46.82 127.86 30.82 136.58 46.82 119.14 46.82"/><path class="cls-5" d="M124.41,37.15s2.65,4,6.91,0l-3.46-6.34Z"/><line class="cls-7" x1="121.72" y1="46.82" x2="125.47" y2="46.82"/><ellipse class="cls-8" cx="127.96" cy="81.03" rx="8.87" ry="0.35"/><ellipse class="cls-8" cx="127.96" cy="78.35" rx="8.69" ry="0.35"/><ellipse class="cls-9" cx="124.26" cy="62.62" rx="0.35" ry="15.55"/><ellipse class="cls-9" cx="131.32" cy="62.62" rx="0.35" ry="15.55"/><polygon class="cls-5" points="270.71 538.4 349.96 541.79 351.88 546.41 299.93 630.72 206.16 627.99 270.71 538.4"/><polygon class="cls-2" points="202.6 619.77 296.94 625.16 346.21 548.69 311.62 551.5 224.04 582.34 202.6 619.77"/><path class="cls-10" d="M189.35,614.1,276,615.47c-3.6-11.08,4.89-26.69,16.53-31.94,7.72-3.48,22.25-8,29.74-11.83,14.24-7.31,27.11-21.14,26-33l-35.58-1.13-45.41-1.75c-3.8,11.26-11.92,18.65-24.27,23.08-11.05,4-23.63,4-34.41,8.48-17.35,7.27-25.68,30.81-19.22,46.75"/><path class="cls-8" d="M189.35,614.1s-.08-.18-.22-.56l-.59-1.67a19.56,19.56,0,0,1-.74-2.81,28.69,28.69,0,0,1-.6-3.94,39.9,39.9,0,0,1,.69-11,41.08,41.08,0,0,1,5.56-13.75,33.25,33.25,0,0,1,2.49-3.48c.47-.56.91-1.16,1.42-1.71l1.6-1.62a14.69,14.69,0,0,1,1.73-1.56c.61-.49,1.21-1,1.86-1.49a31.67,31.67,0,0,1,4.22-2.52c6-3,13.17-4.3,20.64-5.66,3.74-.68,7.6-1.39,11.47-2.46a53.64,53.64,0,0,0,11.42-4.6,37.67,37.67,0,0,0,5.33-3.5,31.82,31.82,0,0,0,4.73-4.47,34.18,34.18,0,0,0,6.58-11.62l.08-.23h.24l37.84,1.44c13.12.52,26.71.87,40.62,1.34l2.54.08h.31l0,.31a19.33,19.33,0,0,1-1.15,8,29.91,29.91,0,0,1-1.59,3.69,39.35,39.35,0,0,1-2.07,3.41,52.49,52.49,0,0,1-10.73,11.35,63.52,63.52,0,0,1-13,8c-4.57,2.05-9.2,3.73-13.73,5.41s-9,3.26-13.27,5.12a26.1,26.1,0,0,0-5.83,3.54,33.45,33.45,0,0,0-2.53,2.23c-.74.84-1.57,1.6-2.22,2.49a32.12,32.12,0,0,0-6.06,11.39,21.09,21.09,0,0,0-.21,12.12l.12.38H276l-63-1.12-17.47-.35-4.58-.11c-1,0-1.57-.07-1.57-.07s.53,0,1.57,0l4.58,0,17.47.2,63,.87-.28.38a21.66,21.66,0,0,1,.18-12.47A32.7,32.7,0,0,1,282,591.47c.67-.91,1.51-1.69,2.26-2.54a34.09,34.09,0,0,1,2.58-2.28,26.75,26.75,0,0,1,6-3.63c4.29-1.87,8.77-3.47,13.3-5.15s9.15-3.36,13.68-5.4a62.9,62.9,0,0,0,12.8-7.92,51.85,51.85,0,0,0,10.59-11.2,38.63,38.63,0,0,0,2-3.34,29.21,29.21,0,0,0,1.55-3.6,18.64,18.64,0,0,0,1.11-7.71l.34.32-2.54-.08c-13.91-.47-27.5-.83-40.62-1.35l-37.84-1.48.32-.22a34.79,34.79,0,0,1-6.72,11.82,32.41,32.41,0,0,1-4.82,4.54,38.23,38.23,0,0,1-5.42,3.54A54.14,54.14,0,0,1,239,560.42c-3.91,1.06-7.78,1.77-11.53,2.44-7.47,1.33-14.6,2.58-20.53,5.54a31.26,31.26,0,0,0-4.16,2.46c-.64.46-1.23,1-1.84,1.46a14.4,14.4,0,0,0-1.72,1.53l-1.59,1.59c-.5.54-.94,1.13-1.41,1.69a32.93,32.93,0,0,0-2.48,3.43,41,41,0,0,0-5.59,13.6,40.2,40.2,0,0,0-.78,10.93A29.37,29.37,0,0,0,188,609a20.46,20.46,0,0,0,.68,2.81l.54,1.68C189.3,613.9,189.35,614.1,189.35,614.1Z"/><path class="cls-8" d="M291.59,537.19c-.06,0,.11-.56.2-1.55a8.77,8.77,0,0,0-.68-4.09,8.41,8.41,0,0,0-4.1-4.39,9.46,9.46,0,0,0-7.3-.26,9.56,9.56,0,0,0-5.27,5.08,10.49,10.49,0,0,0-.83,6,10.29,10.29,0,0,0,1.48,3.9c.54.84.94,1.24.89,1.28a3.86,3.86,0,0,1-1.12-1.13,9.66,9.66,0,0,1-1.75-4,10.72,10.72,0,0,1,.73-6.39,10.07,10.07,0,0,1,5.62-5.47,10,10,0,0,1,7.83.34,8.77,8.77,0,0,1,4.27,4.79,8.41,8.41,0,0,1,.49,4.31,5.71,5.71,0,0,1-.29,1.14C291.67,537.07,291.61,537.2,291.59,537.19Z"/><path class="cls-8" d="M305.16,537.19c-.06,0,.11-.56.2-1.55a8.77,8.77,0,0,0-.68-4.09,8.41,8.41,0,0,0-4.1-4.39,9.46,9.46,0,0,0-7.3-.26A9.56,9.56,0,0,0,288,532a10.48,10.48,0,0,0-.83,6,10.29,10.29,0,0,0,1.48,3.9c.54.84.94,1.24.89,1.28a3.86,3.86,0,0,1-1.12-1.13,9.66,9.66,0,0,1-1.75-4,10.72,10.72,0,0,1,.73-6.39,9.89,9.89,0,0,1,13.45-5.13,8.77,8.77,0,0,1,4.27,4.79,8.41,8.41,0,0,1,.49,4.31,5.7,5.7,0,0,1-.29,1.14C305.25,537.07,305.19,537.2,305.16,537.19Z"/><path class="cls-8" d="M315.48,537.9c-.06,0,.08-.56.11-1.56a8.77,8.77,0,0,0-.91-4,8.41,8.41,0,0,0-4.34-4.15,9.46,9.46,0,0,0-7.3.15,9.56,9.56,0,0,0-5,5.37,10.48,10.48,0,0,0-.49,6.07,10.29,10.29,0,0,0,1.7,3.81c.58.81,1,1.19,1,1.23a3.86,3.86,0,0,1-1.18-1.06,9.66,9.66,0,0,1-2-3.86,10.72,10.72,0,0,1,.37-6.42,9.89,9.89,0,0,1,13.14-5.89,8.77,8.77,0,0,1,4.54,4.54,8.41,8.41,0,0,1,.73,4.27,5.71,5.71,0,0,1-.22,1.16C315.55,537.77,315.5,537.91,315.48,537.9Z"/><path class="cls-8" d="M326.53,538.53c-.06,0,.05-.57,0-1.56a8.77,8.77,0,0,0-1.12-4,8.41,8.41,0,0,0-4.55-3.91,9.46,9.46,0,0,0-7.28.54,9.56,9.56,0,0,0-4.69,5.62,10.48,10.48,0,0,0-.17,6.09,10.29,10.29,0,0,0,1.9,3.71c.63.78,1.07,1.13,1,1.18a3.86,3.86,0,0,1-1.23-1,9.66,9.66,0,0,1-2.17-3.75,10.72,10.72,0,0,1,0-6.43,9.89,9.89,0,0,1,12.81-6.57,8.77,8.77,0,0,1,4.77,4.29,8.41,8.41,0,0,1,1,4.23,5.71,5.71,0,0,1-.16,1.17C326.6,538.4,326.55,538.53,326.53,538.53Z"/><path class="cls-8" d="M337.61,538.27c-.06,0,0-.57,0-1.56a8.77,8.77,0,0,0-1.24-4,8.41,8.41,0,0,0-4.66-3.78,9.46,9.46,0,0,0-7.27.74,9.56,9.56,0,0,0-4.53,5.75,10.48,10.48,0,0,0,0,6.09,10.29,10.29,0,0,0,2,3.66c.65.76,1.1,1.1,1.06,1.15a3.87,3.87,0,0,1-1.26-1,9.66,9.66,0,0,1-2.27-3.69,10.72,10.72,0,0,1-.15-6.43,9.89,9.89,0,0,1,12.62-6.93,8.77,8.77,0,0,1,4.89,4.16,8.41,8.41,0,0,1,1.08,4.2,5.7,5.7,0,0,1-.13,1.17C337.68,538.14,337.63,538.27,337.61,538.27Z"/><path class="cls-8" d="M346.94,539.51c-.06,0,.06-.56,0-1.56a8.77,8.77,0,0,0-1.08-4,8.41,8.41,0,0,0-4.5-4,9.46,9.46,0,0,0-7.29.45,9.56,9.56,0,0,0-4.75,5.57,10.48,10.48,0,0,0-.24,6.09,10.29,10.29,0,0,0,1.85,3.74c.62.79,1.05,1.14,1,1.19a3.86,3.86,0,0,1-1.22-1,9.66,9.66,0,0,1-2.13-3.78,10.72,10.72,0,0,1,.1-6.43,9.89,9.89,0,0,1,12.89-6.42,8.77,8.77,0,0,1,4.72,4.35,8.41,8.41,0,0,1,.91,4.24,5.72,5.72,0,0,1-.18,1.17C347,539.39,347,539.52,346.94,539.51Z"/><path class="cls-5" d="M387.77,248.72a77.79,77.79,0,0,0-11.74.53,48.85,48.85,0,0,0-42.64,48.69,86.62,86.62,0,0,0,3,23.21c6.82,24.21,8.93,45.56,8.14,55.95l22.85,12.28s10.58-15.2,20.8-21.75,44.24-24.08,57.7-42.1c8.68-11.62,10.35-35.45-10.35-56.3A70.17,70.17,0,0,0,387.77,248.72Z"/><polygon class="cls-11" points="333.76 403.54 354.4 414.69 340.96 431.76 327.2 425.5 333.76 403.54"/><ellipse class="cls-8" cx="339.67" cy="390.66" rx="14.42" ry="0.35" transform="translate(-143.24 577.19) rotate(-70.11)"/><ellipse class="cls-8" cx="360.62" cy="401.11" rx="14.8" ry="0.35" transform="matrix(0.51, -0.86, 0.86, 0.51, -168.13, 507.68)"/><g class="cls-12"><path d="M394.65,249.37c-.93.05-12.28,13.35-17.31,22.35C360.44,302,359.68,331.45,355,365.81c-.67,4.91-3.11,15.49-3.06,15.24,2.5,2,10.91,5.86,10.91,5.86s7.93-9.57,11.08-14.38c12.62-19.27,26.31-34.29,37.11-54.64s21.19-38.38,11.2-59.14C422.22,258.76,404.91,248.8,394.65,249.37Z"/></g><path class="cls-8" d="M446,328.57a3.81,3.81,0,0,1-.3-.65c-.19-.43-.41-1.1-.79-1.92a35,35,0,0,0-12.76-14.89,33.41,33.41,0,0,0-14.38-5.32l-.14,0-.08-.11a80,80,0,0,0-9.22-10.59,46.16,46.16,0,0,0-12.59-8.67,32.57,32.57,0,0,0-14.88-2.84,24.64,24.64,0,0,0-13,4.34l-.21.15-.19-.17a25.63,25.63,0,0,0-13.91-6.18,25.17,25.17,0,0,0-11.82,1.51,26.22,26.22,0,0,0-6.79,3.82c-.71.56-1.25,1-1.59,1.33a3.79,3.79,0,0,1-.55.46,3.77,3.77,0,0,1,.48-.53,19,19,0,0,1,1.54-1.41,25.44,25.44,0,0,1,18.8-5.7,26,26,0,0,1,14.27,6.23l-.4,0a25.19,25.19,0,0,1,13.36-4.51A33.1,33.1,0,0,1,396,285.76a46.53,46.53,0,0,1,12.77,8.81,79.44,79.44,0,0,1,9.26,10.71l-.22-.13a33.69,33.69,0,0,1,14.6,5.52,34.71,34.71,0,0,1,8.78,8.39,32.52,32.52,0,0,1,3.87,6.86c.36.84.54,1.52.7,2A3.76,3.76,0,0,1,446,328.57Z"/><path class="cls-8" d="M403.53,358.74a14.6,14.6,0,0,0-2-5,13.56,13.56,0,0,0-4.39-4.21,12.26,12.26,0,0,0-7.56-1.79l-.29,0,0-.28a20,20,0,0,0-3.75-8.83,19.68,19.68,0,0,0-8.48-6.58,20.25,20.25,0,0,0-16.76.87l-.22.11-.17-.18a14.39,14.39,0,0,0-7.94-4.3,15.91,15.91,0,0,0-7.11.22,16.87,16.87,0,0,0-5.65,2.8s.09-.12.3-.31a11.27,11.27,0,0,1,1-.8,14,14,0,0,1,4.28-2.06,16,16,0,0,1,7.31-.38,14.82,14.82,0,0,1,8.31,4.39l-.38-.07a20.73,20.73,0,0,1,17.32-1,20.65,20.65,0,0,1,12.56,16l-.33-.26a12.67,12.67,0,0,1,7.88,2,13.63,13.63,0,0,1,4.43,4.44,12,12,0,0,1,1.51,3.74,10,10,0,0,1,.15,1.05A1.06,1.06,0,0,1,403.53,358.74Z"/><path class="cls-8" d="M350.41,420.07c-.05,0-.22-.28-.76-.5a3.65,3.65,0,0,0-2.41.07,6.84,6.84,0,0,1-1.83.33,2.87,2.87,0,0,1-2-.9c-1.1-1.14-1.51-2.79-2.55-3.93a2.36,2.36,0,0,0-1.9-.8,12,12,0,0,0-2.15.43,4.78,4.78,0,0,1-2.16.11,3.81,3.81,0,0,1-1.69-.87,4,4,0,0,1-1.36-2.29c-.11-.63,0-1,0-1a8.32,8.32,0,0,1,.24.91,4.09,4.09,0,0,0,1.41,2,3.41,3.41,0,0,0,1.49.68,4.33,4.33,0,0,0,1.89-.17,11.57,11.57,0,0,1,2.28-.49,3,3,0,0,1,2.44,1c1.2,1.37,1.58,3,2.5,4a2.29,2.29,0,0,0,1.59.77,6.89,6.89,0,0,0,1.69-.23,3.66,3.66,0,0,1,2.65.16C350.35,419.66,350.44,420.06,350.41,420.07Z"/><ellipse class="cls-8" cx="342.87" cy="411.47" rx="0.35" ry="11.23" transform="translate(-181.55 520.32) rotate(-61.92)"/><path class="cls-8" d="M348.68,422c0,.05-.29.14-.79.37-.25.11-.54.28-.93.44a3.21,3.21,0,0,1-1.42.19,5.93,5.93,0,0,1-3.4-1.31,4.71,4.71,0,0,1-1.3-1.78,6.78,6.78,0,0,0-1-1.86,4.78,4.78,0,0,0-3.74-1.07,8.66,8.66,0,0,1-3.59-.34,3.33,3.33,0,0,1-1.81-1.66c-.23-.56-.15-.9-.12-.89s.08.31.36.77a3.3,3.3,0,0,0,1.75,1.32,9,9,0,0,0,3.39.16,5.26,5.26,0,0,1,4.28,1.25,7,7,0,0,1,1.11,2.05,4.15,4.15,0,0,0,1.09,1.57,5.69,5.69,0,0,0,3,1.31,4.24,4.24,0,0,0,2.21-.39C348.35,421.91,348.67,421.92,348.68,422Z"/><path class="cls-13" d="M192.82,289.38l35.69-5.29-17.07-24.18-9.15.54a16.32,16.32,0,0,0-14,9.84h0a16.32,16.32,0,0,0-1,9.56Z"/><path class="cls-14" d="M192.82,289.38l35.69-5.29-17.07-24.18-9.15.54a16.32,16.32,0,0,0-14,9.84h0a16.32,16.32,0,0,0-1,9.56Z"/><path class="cls-6" d="M346.16,328.94c.37,1,.77,2.23,1.18,3.68a11.32,11.32,0,0,1,.38,3.82,17.31,17.31,0,0,1-.8,4.72c-.59,1.35.78,2.72,1.93,2s2.87-4.37,2.76-9.12,4.74.94,6.54,3,7.68,8.1,8.75,8c1.57-.08,1.76-1.78-.08-3.77s-7-8.38-5.84-9.28,10.15,9.64,10.15,9.64,1.57,2.56,2.9,1.57c2.41-1.8-8-12.28-9-13.26-.71-.68.48-1.7,1.2-.93s8.77,10.71,11.24,8.9c1.89-1.39-8.5-8.7-9-11.69s7.32,6.35,9.07,5c.65-.52,1.07-1-4.21-5.71-2.56-2.29-12.3-9.1-12.3-9.1l-29.3-83.89-22.63,13Z"/><path class="cls-6" d="M171.75,170.29,139,131.22h0a22.57,22.57,0,0,0-1.6-3.9c-1.64-3-4.34-5.7-7.72-6.44-2.08-.45-4.45-.24-6.08-1.6-.73-.61-1.21-1.48-2-2s-2-.68-2.52.14a2.21,2.21,0,0,0,.14,1.95,18.22,18.22,0,0,0,5.68,7.34c-3.07.93-7.45,2.34-7.45,2.34s-6.92-7.51-10.47-7.49,2.86,6.7,2.86,6.7-5.68-5.25-7.44-3.77,2.75,5.37,2.75,5.37c-1.43-.77-3-1.56-4.6-1.29s-3,2.16-2.12,3.54a3.75,3.75,0,0,0,1.44,1.16l8.71,4.86a10.55,10.55,0,0,0,4.66,1.7c4.42.14,7.78-2.6,12.2-2.48,0,0,24.69,52,27.19,54.65s56.73,6.33,56.73,6.33l31.39-27Z"/><path class="cls-15" d="M270.08,453.38l33.43,14.56-17.9,41.69c-3.88-2-2.61-27-2.61-27l-21.8-8.45Z"/><g class="cls-16"><path class="cls-17" d="M286.73,469a1.85,1.85,0,0,1,2.45-.34,1.78,1.78,0,0,1,.36,2.42,2,2,0,0,1-2.59.35,1.85,1.85,0,0,1-.1-2.56"/></g><path class="cls-18" d="M303.52,467.94l-3.43-1.34L284.2,507.08s0,2.2,1.41,2.55Z"/><path class="cls-8" d="M282.5,483.26c.21.08.74-.9,1.82-1.62s2.17-.89,2.17-1.11-1.31-.42-2.6.47S282.29,483.23,282.5,483.26Z"/><path class="cls-8" d="M282.43,488.41c.18.13.9-.6,2.06-.92s2.15-.13,2.23-.34-1-.83-2.45-.4S282.24,488.32,282.43,488.41Z"/><path class="cls-8" d="M286.6,493.14c.12-.17-.77-.89-2.11-.84s-2.19.81-2.06,1,1-.17,2.08-.19S286.49,493.33,286.6,493.14Z"/><path class="cls-8" d="M277.74,480.78c.22,0,.34-1.06.91-2.18s1.32-1.86,1.19-2-1.23.37-1.88,1.69S277.54,480.82,277.74,480.78Z"/><path class="cls-8" d="M273.22,477.67a4.26,4.26,0,0,0,.89-2.09,10.21,10.21,0,0,0,.27-2.47,10.7,10.7,0,0,0-.12-1.47,2.79,2.79,0,0,0-.22-.84,1,1,0,0,0-1-.56,1.22,1.22,0,0,0-.85.69,3,3,0,0,0-.23.83,8.16,8.16,0,0,0-.11,1.49,8,8,0,0,0,.44,2.47c.48,1.35,1.1,2,1.17,2s-.33-.81-.65-2.11a9.06,9.06,0,0,1-.25-2.31,8.44,8.44,0,0,1,.15-1.36c.07-.49.23-.87.48-.9.09,0,.12,0,.21.15a2.27,2.27,0,0,1,.16.62,12,12,0,0,1,.16,1.37,12.6,12.6,0,0,1-.09,2.35A15.65,15.65,0,0,0,273.22,477.67Z"/><path class="cls-8" d="M273.63,477.53c.06-.06-.49-.78-1.78-1.42a7.35,7.35,0,0,0-3.9-.71,1.88,1.88,0,0,0-1.63.88,1.06,1.06,0,0,0,.21,1.12,3.08,3.08,0,0,0,.67.54,5.05,5.05,0,0,0,1.41.61,5.22,5.22,0,0,0,2.54,0c1.43-.35,2-1.1,2-1.14A18.59,18.59,0,0,1,271,478a5.23,5.23,0,0,1-2.25-.18,4.68,4.68,0,0,1-1.19-.56c-.42-.26-.7-.58-.58-.72a1.3,1.3,0,0,1,1-.44,7.57,7.57,0,0,1,1.35,0,8.18,8.18,0,0,1,2.26.49C272.88,477.08,273.55,477.62,273.63,477.53Z"/><path class="cls-15" d="M244.33,510.65l13.83,29,4.33,26.07a3.29,3.29,0,0,0,4,2.66h0a3.27,3.27,0,0,0,2.29-2c2.54-6.29,11.78-29.49,10.65-31.56-1.31-2.39-12.56-31.53-12.56-31.53Z"/><path class="cls-18" d="M266.5,568.35l12-35.49.56,1.24a5,5,0,0,1,.25,3.41c-.88,3-3.48,11.31-10.47,28.84a3.29,3.29,0,0,1-2.38,2Z"/><g class="cls-16"><path class="cls-17" d="M268.29,526.12a2,2,0,0,0,.57,2.59,1.91,1.91,0,0,0,2.58-.54,2.1,2.1,0,0,0-.62-2.74,2,2,0,0,0-2.62.86"/></g><path class="cls-8" d="M267.44,552.55c-.13.16-1.48-1.08-3.59-1.12s-3.54,1-3.66.87.21-.45.85-.86a5.24,5.24,0,0,1,5.61.2C267.26,552.08,267.5,552.5,267.44,552.55Z"/><path class="cls-8" d="M267.11,557.41c-.08.19-1.45-.34-3.16-.09s-2.9,1.08-3,.92,1-1.37,2.93-1.62S267.23,557.26,267.11,557.41Z"/><path class="cls-8" d="M269.06,545.78c-.07.2-2.17-.62-4.87-.47s-4.7,1.13-4.8.94,1.87-1.52,4.76-1.64S269.16,545.64,269.06,545.78Z"/><path class="cls-8" d="M265.59,536.62c0,.21-1.92.26-4.06,1.13s-3.58,2.13-3.72,2,1.15-1.72,3.46-2.63S265.62,536.45,265.59,536.62Z"/><path class="cls-8" d="M261.75,528c0,.21-2.08,0-4.26,1.07s-3.27,2.84-3.44,2.72.08-.55.58-1.24a7.17,7.17,0,0,1,5.78-2.84C261.26,527.74,261.76,527.93,261.75,528Z"/><path class="cls-8" d="M256.81,527.42a2.77,2.77,0,0,1-.54-1.09,8.44,8.44,0,0,1-.42-3.3,3.74,3.74,0,0,1,.73-2.29,1.32,1.32,0,0,1,1.48-.34,2.15,2.15,0,0,1,1.06,1.11,4.65,4.65,0,0,1-2,5.59,5.39,5.39,0,0,1-6-.4,1.87,1.87,0,0,1-.72-1.38,1.3,1.3,0,0,1,1-1.18,4.59,4.59,0,0,1,2.38.14,9.41,9.41,0,0,1,3,1.38c.64.45.93.78.9.81a15,15,0,0,0-4-1.7,4.3,4.3,0,0,0-2.08-.07.69.69,0,0,0-.52.64,1.28,1.28,0,0,0,.53.88,4.81,4.81,0,0,0,5.2.29,4,4,0,0,0,1.73-4.72,1.56,1.56,0,0,0-.71-.81.72.72,0,0,0-.82.18,3.38,3.38,0,0,0-.65,1.92A12.47,12.47,0,0,0,256.81,527.42Z"/><path class="cls-8" d="M290.93,456.92,253,431.4,265.56,308.2l-35.91-21-32.84-7.61S183.1,308.15,177,326.41c-13,38.85-22.08,52.77-20,80.92.66,8.91,33.57,31.2,54.35,43.59a65.09,65.09,0,0,0,1.1,7.38c7.1,32.1,28.78,74.8,28.78,74.8l32.95-15.32-10.63-36.4,11.07,6.46Zm-81.49-79.44,4.42-19.75c-.94,12.56-1.79,25.66-2.4,38.22A39,39,0,0,1,209.44,377.48Z"/><path class="cls-11" d="M241.24,533.11a3.5,3.5,0,0,1-.26-.52L240.3,531l-2.55-6c-2.19-5.23-5.32-12.81-9.09-22.21s-8.21-20.63-12.71-33.26c-1.12-3.16-2.22-6.42-3.25-9.78-.46-1.7-1-3.38-1.33-5.18-.09-.44-.19-.89-.26-1.34l-.16-1.34-.3-2.71q-.58-5.44-.94-11.09-.18-2.82-.3-5.69c-.07-1.9-.15-3.85,0-5.78.56-15.48,1.86-30.16,2.93-43.51l3-35.47c.82-10.1,1.39-18.28,1.71-23.93.18-2.83.27-5,.34-6.51l.09-1.69a3.51,3.51,0,0,1,.06-.58,3.54,3.54,0,0,1,0,.58l0,1.7c0,1.49-.07,3.69-.21,6.52-.24,5.66-.74,13.85-1.49,24l-2.82,35.49c-1,13.35-2.32,28-2.87,43.47-.11,1.93,0,3.83,0,5.74s.17,3.79.29,5.67q.35,5.63.93,11.06l.3,2.7.16,1.34c.07.44.17.87.25,1.3.28,1.74.85,3.42,1.3,5.11,1,3.34,2.11,6.6,3.22,9.75,4.46,12.62,8.87,23.85,12.56,33.29L238,524.92l2.42,6.06.62,1.58A3.52,3.52,0,0,1,241.24,533.11Z"/><path class="cls-11" d="M215.9,310.78s-.33-.21-.86-.7a9,9,0,0,1-1.6-2.58,27.83,27.83,0,0,1-1.62-9.77,83,83,0,0,1,.47-9.87,23.73,23.73,0,0,1,.57-4.05,23.29,23.29,0,0,1-.07,4.09c-.13,2.52-.33,6-.26,9.82a31.49,31.49,0,0,0,1.38,9.61,10.66,10.66,0,0,0,1.35,2.58C215.69,310.43,215.93,310.75,215.9,310.78Z"/><path class="cls-11" d="M201.72,281.46a8.38,8.38,0,0,1,.28,3.45,15.85,15.85,0,0,1-9.07,13.31,8.37,8.37,0,0,1-3.31,1c0-.12,1.25-.45,3.09-1.44a16.78,16.78,0,0,0,8.8-12.91C201.76,282.78,201.6,281.47,201.72,281.46Z"/><path class="cls-11" d="M260.63,353.09a1.48,1.48,0,0,1,0,.38l-.09,1.1-.42,4.21-1.68,15.46-5.77,51a92.87,92.87,0,0,0,1.87,28A97.38,97.38,0,0,0,258,465l3.55,10.13,5.09,14.69,1.35,4,.33,1a1.5,1.5,0,0,1,.09.37,1.5,1.5,0,0,1-.16-.34l-.4-1-1.48-4L261,475.25l-3.63-10.11a96.13,96.13,0,0,1-3.51-11.84A92.32,92.32,0,0,1,252,425.13c2.22-19.93,4.42-37.92,6-51l1.91-15.43.55-4.19.16-1.09A1.51,1.51,0,0,1,260.63,353.09Z"/><polyline class="cls-6" points="196.81 279.38 202.63 264.52 215.9 284.31 198.21 279.89"/><path class="cls-15" d="M335.68,234.71l-15.75-35.31c-1.88-5.68-5.41-6.56-8.37-9.85L272.1,167.31C243.35,155.53,227.69,195,227.69,195l-26.13,59.61c-30.73,10.19-9,33.79-9,33.79s-8.36-14.53-.14-19.77c8.61-5.49,18.15,9,27.32,22.71,10.82,16.22,46,26.75,46,26.75,4.12-4.35,3-19.52,6.19-27.66,1-2.58,25.38-59,25.38-59l9.44,22.88s12.1-14.19,18-16.45A66.59,66.59,0,0,1,335.68,234.71Z"/><path class="cls-8" d="M265.77,259.8a5.12,5.12,0,0,1-1.19.83,22.45,22.45,0,0,1-3.59,1.7,25.69,25.69,0,0,1-24.92-3.85,22.48,22.48,0,0,1-2.91-2.7,5.12,5.12,0,0,1-.89-1.16c.1-.09,1.42,1.51,4.1,3.46a26.69,26.69,0,0,0,24.46,3.77C264,260.82,265.71,259.69,265.77,259.8Z"/><path class="cls-15" d="M200.39,203.82h0l24.35,2.3,38.95-41.17-22.91-.79-40.79,4A105.69,105.69,0,0,1,200.39,203.82Z"/><path class="cls-8" d="M234.21,182.13a3.53,3.53,0,0,1-.3.75l-1,2.1-3.61,7.71c-3,6.52-7,15.61-11.4,25.69s-8.32,19.2-11.31,25.75c-1.49,3.27-2.73,5.91-3.61,7.72l-1,2.08a3.5,3.5,0,0,1-.4.7,3.52,3.52,0,0,1,.27-.76l.91-2.13,3.41-7.81,11.12-25.82c4.36-10.08,8.45-19.15,11.6-25.62,1.57-3.24,2.87-5.85,3.82-7.62l1.1-2A3.51,3.51,0,0,1,234.21,182.13Z"/><path class="cls-8" d="M308.52,194.1c.07.12-1.44.91-3.5,2.66a25.5,25.5,0,0,0-3.29,3.4,25.94,25.94,0,0,0-5,10.35,25.48,25.48,0,0,0-.63,4.69c-.1,2.7.22,4.38.08,4.4a3.89,3.89,0,0,1-.3-1.16,9.1,9.1,0,0,1-.19-1.39,15.27,15.27,0,0,1-.09-1.86,22.86,22.86,0,0,1,.5-4.82,24.59,24.59,0,0,1,5.15-10.62,22.87,22.87,0,0,1,3.48-3.38,15.26,15.26,0,0,1,1.52-1.08,9.11,9.11,0,0,1,1.21-.71A3.89,3.89,0,0,1,308.52,194.1Z"/><path class="cls-6" d="M315.32,137.56l-22.84,42.69A15.06,15.06,0,0,1,273,186.89h0a15.06,15.06,0,0,1-7.16-20.78c2.15-4.07,3.94-7.4,3.94-7.4s-9.93-6.44-5.29-17.17c4.14-9.57,19.36-36.59,22.59-42.31l19.25,8.62A21.64,21.64,0,0,1,315.32,137.56Z"/><path class="cls-19" d="M269.88,158.55a27.19,27.19,0,0,0,15.68,2.27s-6.73,6.21-16.94.48Z"/><path class="cls-8" d="M277.21,124.42a1.67,1.67,0,0,0,.78,2.2,1.6,1.6,0,0,0,2.19-.67,1.67,1.67,0,0,0-.78-2.2A1.6,1.6,0,0,0,277.21,124.42Z"/><path class="cls-8" d="M277.3,123.06c.1.28,1.64-.05,3.28.68s2.47,2.1,2.74,2,.1-.49-.26-1.11a4.58,4.58,0,0,0-2.08-1.83,4.4,4.4,0,0,0-2.72-.3C277.58,122.64,277.25,122.93,277.3,123.06Z"/><path class="cls-8" d="M292.56,132a1.67,1.67,0,0,0,.78,2.2,1.6,1.6,0,0,0,2.19-.67,1.67,1.67,0,0,0-.78-2.2A1.6,1.6,0,0,0,292.56,132Z"/><path class="cls-8" d="M293.28,130.58c.1.28,1.64-.05,3.28.68s2.47,2.1,2.74,2,.1-.49-.26-1.11A4.58,4.58,0,0,0,297,130.3a4.4,4.4,0,0,0-2.72-.3C293.56,130.16,293.23,130.45,293.28,130.58Z"/><path class="cls-8" d="M281.89,140.07a11.9,11.9,0,0,0-2.45-1.67c-.4-.23-.76-.49-.7-.81s.41-.72.83-1.12l2.67-2.63c3.75-3.77,6.67-6.95,6.51-7.1s-3.32,2.78-7.07,6.56L279.06,136a2.66,2.66,0,0,0-1,1.55,1.15,1.15,0,0,0,.41.92,3.12,3.12,0,0,0,.67.42A11.68,11.68,0,0,0,281.89,140.07Z"/><path class="cls-8" d="M286.21,143.37c-.26-.13-1.06,1.64-3.15,2.23s-3.9-.46-4-.22.27.53,1.06.92a4.86,4.86,0,0,0,3.31.28,4.23,4.23,0,0,0,2.53-1.92C286.34,143.94,286.33,143.41,286.21,143.37Z"/><path class="cls-8" d="M295.74,124c0,.52,1.69,1,3.51,2.13s3.14,2.31,3.58,2c.2-.14.12-.68-.32-1.39a7.14,7.14,0,0,0-5.4-3.17C296.27,123.53,295.76,123.72,295.74,124Z"/><path class="cls-8" d="M280,118.58c.12.5,1.42.62,2.79,1.21s2.4,1.37,2.84,1.1c.2-.14.19-.59-.16-1.17a4.4,4.4,0,0,0-4.53-1.86C280.31,118,280,118.34,280,118.58Z"/><path class="cls-6" d="M308.14,144c.22,0,8.3,1.11,4.8,8.3s-10,2.2-9.91,2S308.14,144,308.14,144Z"/><path class="cls-19" d="M306.56,152.59s.08.15.25.35a1.39,1.39,0,0,0,.93.47c.9.09,2.12-.8,2.79-2.08a4.6,4.6,0,0,0,.52-2,1.61,1.61,0,0,0-.47-1.42.71.71,0,0,0-.91,0c-.19.15-.22.32-.26.31s-.1-.2.11-.46a.89.89,0,0,1,.5-.31,1.05,1.05,0,0,1,.78.15,2,2,0,0,1,.77,1.75,4.73,4.73,0,0,1-.54,2.22c-.75,1.43-2.15,2.42-3.34,2.22a1.49,1.49,0,0,1-1.05-.75C306.48,152.77,306.52,152.59,306.56,152.59Z"/><path class="cls-8" d="M312.31,145.53a4.2,4.2,0,0,0-4.32.23c-.94.83-1.57,2-2.51,2.79s-2.43,1.3-3.43.53a2.46,2.46,0,0,1-.78-2.35,6.76,6.76,0,0,1,1-2.36c2-3.21,4.18-6.27,5.86-9.64a19.2,19.2,0,0,0,2.29-10.88c-.49-3.73-2.84-7.36-6.39-8.62-2.35-.83-5-.58-7.35-1.27a9.76,9.76,0,0,1-6.3-5.79c-.14-.35-.94-1.61-.94-1.61.08-.18.93-1.63,1.78-1.91,6.32-2.13,14.89.32,20.13,4.44s8.91,10.77,9,17.44-4.13,14-8,19"/><path class="cls-8" d="M312.38,144.81c2-3.4,5.24-5.86,7.71-8.93s4.17-7.39,2.41-10.92c-.6-1.2-1.57-2.21-2.07-3.46a17,17,0,0,1-.7-4,13.89,13.89,0,0,0-6.87-10c-2.53-1.41-5.44-2-8-3.33-4.06-2.13-7-6.08-11.28-7.77a5.44,5.44,0,0,0-4.42-.13c-1.35.7-2.08,2.66-1.09,3.82a2.31,2.31,0,0,0-3.19-1.54,3.5,3.5,0,0,0-1.8,3.42,7.56,7.56,0,0,0,1.55,3.75,19.12,19.12,0,0,0,10.93,7.53l9.8-.76,8,6,5.95,9.46-10.78,14Z"/><path class="cls-5" d="M251.07,88.95a34.61,34.61,0,1,0-47.23,34.43l.56,8.71,30.27-2s-.13-4.9-.35-9.27A34.59,34.59,0,0,0,251.07,88.95Z"/><path class="cls-8" d="M223.72,130.7s0-.15,0-.43l.06-1.25c.06-1.1.15-2.73.32-4.82s.42-4.65.89-7.6a51.3,51.3,0,0,1,2.51-9.81,32.92,32.92,0,0,1,2.51-5.35,6.38,6.38,0,0,1,2.22-2.27,3.57,3.57,0,0,1,3.29-.1,2.36,2.36,0,0,1,1.18,1.3,2.42,2.42,0,0,1,0,1.78,4.92,4.92,0,0,1-2.52,2.47,9.47,9.47,0,0,1-7.21,0,9.59,9.59,0,0,1-5.25-5.45,7.24,7.24,0,0,1-.46-4,3.11,3.11,0,0,1,3-2.6,2.24,2.24,0,0,1,1.84,1.1,3.13,3.13,0,0,1,.41,2.11,6.76,6.76,0,0,1-2.21,3.59,10.32,10.32,0,0,1-7.9,2.86,9,9,0,0,1-7-4.55,5.23,5.23,0,0,1-.5-4.17,2.65,2.65,0,0,1,1.42-1.63,2.6,2.6,0,0,1,2.14.06A3.45,3.45,0,0,1,214,93.34a5.39,5.39,0,0,1,.66,2,10,10,0,0,1-.27,4,10.3,10.3,0,0,1-4.49,6.11,10.49,10.49,0,0,1-7.08,1.44,5.49,5.49,0,0,1-3.22-1.45,2.68,2.68,0,0,1-.41-3.31,2.26,2.26,0,0,1,1.5-.86,3.26,3.26,0,0,1,1.67.21,5,5,0,0,1,2.27,2.23c1,1.82,1.8,3.59,2.62,5.28,3.21,6.78,5.54,12.39,7.11,16.28.78,1.95,1.37,3.47,1.76,4.5l.44,1.18c.1.27.14.41.14.41s-.07-.13-.18-.39l-.48-1.16-1.84-4.47c-1.62-3.87-4-9.46-7.23-16.21-.82-1.68-1.66-3.47-2.63-5.25a4.69,4.69,0,0,0-2.11-2.08,2.07,2.07,0,0,0-2.37,3.39,5.14,5.14,0,0,0,3,1.33,10.12,10.12,0,0,0,6.82-1.41A9.91,9.91,0,0,0,214,99.17a9.57,9.57,0,0,0,.25-3.81,3.76,3.76,0,0,0-2-3.06,2.18,2.18,0,0,0-1.8-.05,2.23,2.23,0,0,0-1.19,1.38,4.81,4.81,0,0,0,.48,3.83,8.58,8.58,0,0,0,6.67,4.32A9.91,9.91,0,0,0,224,99a6.38,6.38,0,0,0,2.08-3.34,2.72,2.72,0,0,0-.35-1.83,1.81,1.81,0,0,0-1.5-.91,2.43,2.43,0,0,0-1.68.67,3,3,0,0,0-.88,1.61,6.86,6.86,0,0,0,.44,3.74,9.2,9.2,0,0,0,5,5.23,9.1,9.1,0,0,0,6.9.07,4.57,4.57,0,0,0,2.34-2.26,2,2,0,0,0-1-2.63,3.23,3.23,0,0,0-3,.09,6.06,6.06,0,0,0-2.11,2.15,32.83,32.83,0,0,0-2.5,5.28,51.69,51.69,0,0,0-2.56,9.75c-.49,2.93-.76,5.49-1,7.57l-.4,4.81-.1,1.25C223.74,130.55,223.72,130.7,223.72,130.7Z"/><path class="cls-8" d="M232.7,135.89l-26,1.68a2,2,0,0,1-2.08-1.82h0a2,2,0,0,1,1.82-2.08l26-1.68a2,2,0,0,1,2.08,1.82h0A2,2,0,0,1,232.7,135.89Z"/><path class="cls-8" d="M232.81,137.59l-26,1.68a2,2,0,0,0,.25,3.9l2.85-.18,4.25,7a2.51,2.51,0,0,0,2.3,1.2l9.29-.6a2.51,2.51,0,0,0,2.14-1.51l3.21-7.42,1.94-.13a2,2,0,1,0-.25-3.9Z"/><g class="cls-20"><path class="cls-17" d="M192.93,70.61a25.45,25.45,0,0,1,6.62-5,18.37,18.37,0,0,1,5.22-1.89c1.3-.22,2.05-.14,2.13.13.19.62-2.37,1.72-5.74,4.3A28.46,28.46,0,0,0,190,96.83c.75,4.18,1.9,6.72,1.34,7-.24.15-.85-.3-1.66-1.34a18.37,18.37,0,0,1-2.58-4.92,25.45,25.45,0,0,1-1.49-8.19,27,27,0,0,1,1.77-10.14"/></g><g class="cls-20"><path class="cls-17" d="M215.3,64.76c-2.19.12-4.16-.35-4.46-1.5-.13-.57.23-1.21,1-1.74a6.95,6.95,0,0,1,6.53-.39c.82.44,1.26,1,1.19,1.61"/></g><path class="cls-11" d="M227.47,149.68c0,.07-.7-.19-1.82-.43a14.49,14.49,0,0,0-8.76.82c-1.06.45-1.67.83-1.71.77a5.32,5.32,0,0,1,1.58-1,12.68,12.68,0,0,1,9-.84A5.33,5.33,0,0,1,227.47,149.68Z"/><ellipse class="cls-11" cx="220.69" cy="142.38" rx="10.51" ry="0.21" transform="translate(-8.72 14.53) rotate(-3.7)"/><path class="cls-11" d="M229.76,144.89a14.73,14.73,0,0,1-2.54.43c-1.58.2-3.76.43-6.18.63s-4.62.3-6.21.35a14.68,14.68,0,0,1-2.58,0,16.33,16.33,0,0,1,2.56-.28l6.19-.47,6.19-.5A16.28,16.28,0,0,1,229.76,144.89Z"/><path class="cls-5" d="M42.61,318.74l5.64,9s24.08-22.16,48-15.89C96.21,311.89,74.75,293.69,42.61,318.74Z"/><path class="cls-5" d="M96.21,311.89s17.67-19.19,43.59-14.81l7.07,1.06-2.26-4.08S99.54,278.62,96.21,311.89Z"/><path class="cls-1" d="M58.91,247.18s-35.4-6.09-58.62,6.47l36.87,69.41S67.34,294,96.21,311.89Z"/><path class="cls-8" d="M58.91,247.18a1.8,1.8,0,0,1,.19.28l.53.87,2,3.45,7.67,13.14,27.14,46.81a.31.31,0,0,1-.11.43.32.32,0,0,1-.32,0,39.18,39.18,0,0,0-13.57-5.21,42.09,42.09,0,0,0-7.65-.53,47.22,47.22,0,0,0-7.84,1c-10.46,2.32-20.61,8-29.28,15.64l-.3.28a.35.35,0,0,1-.5,0l-.06-.08L0,253.78a.28.28,0,0,1,.11-.39h0a71.18,71.18,0,0,1,23.6-7,118.81,118.81,0,0,1,18.88-.82c5.23.17,9.3.59,12.07.93,1.38.17,2.44.33,3.15.45l.8.14.26.07-.28,0-.8-.1c-.71-.09-1.77-.22-3.15-.36-2.77-.28-6.84-.65-12.05-.77a121.26,121.26,0,0,0-18.81,1,71.11,71.11,0,0,0-23.38,7l.12-.39L37.47,322.9l-.56-.09.32-.29a74.71,74.71,0,0,1,14.11-9.9,59.15,59.15,0,0,1,15.5-5.88,47.79,47.79,0,0,1,8-1,42.65,42.65,0,0,1,7.78.55,39.75,39.75,0,0,1,13.79,5.33l-.44.42L69.1,265.2l-7.54-13.26-2-3.52-.5-.92A2.27,2.27,0,0,1,58.91,247.18Z"/><path class="cls-1" d="M114.56,232.93s-26.78-17.07-55.19,14.24l37.3,64.71s7.61-26.26,52.15-17.13Z"/><path class="cls-8" d="M114.56,232.93a1.6,1.6,0,0,1,.18.27l.49.84,1.88,3.29,7.05,12.55,24.93,44.72a.31.31,0,0,1-.32.46h0L142.12,294a29.1,29.1,0,0,0-3.43-.38l-3.5-.28a26.08,26.08,0,0,0-3.56-.09l-3.61,0c-1.21,0-2.42.25-3.64.36a25.57,25.57,0,0,0-3.66.55l-3.66.83-3.58,1.25c-1.2.42-2.31,1.08-3.47,1.61a10.78,10.78,0,0,0-1.67,1l-1.63,1c-1.08.72-2,1.6-3.06,2.42a32,32,0,0,0-2.68,2.87A22.5,22.5,0,0,0,97,312v0a.35.35,0,0,1-.64.06l-1.5-2.61L59.11,247.33a.3.3,0,0,1,0-.35c6.31-6.88,13.27-12.13,20.21-15.19a40.19,40.19,0,0,1,19.06-3.58,38.62,38.62,0,0,1,12.19,2.73,28.91,28.91,0,0,1,3,1.4l.73.43.23.17-.26-.13-.75-.38c-.67-.33-1.66-.8-3-1.32a39.54,39.54,0,0,0-12.15-2.56,40.08,40.08,0,0,0-18.85,3.68c-6.85,3.07-13.72,8.3-20,15.15l0-.35L95.47,309.1l1.5,2.61-.64.08a23.08,23.08,0,0,1,4.1-7.06,32.55,32.55,0,0,1,2.75-2.94c1-.84,2-1.74,3.13-2.48l1.67-1.07a11.14,11.14,0,0,1,1.71-1c1.19-.54,2.32-1.21,3.54-1.64l3.65-1.27,3.72-.84a26,26,0,0,1,3.71-.56c1.24-.11,2.46-.33,3.69-.36l3.65,0a26.41,26.41,0,0,1,3.59.09l3.52.29a29.33,29.33,0,0,1,3.45.39l6.67,1.11-.33.45-24.67-44.79L117,237.47l-1.81-3.36-.46-.87A1.81,1.81,0,0,1,114.56,232.93Z"/><path class="cls-1" d="M10.26,220.28l39.92,76.87s32.45-1.42,46.18,14.39l-37-64.37S37.67,220.28,10.26,220.28Z"/><path class="cls-8" d="M10.26,220.28l1,0,3.08.13c.34,0,.7,0,1.08.06l1.17.19,2.67.44a23.3,23.3,0,0,1,3.06.73c1.07.33,2.25.55,3.42,1,9.54,3.18,22.34,10.87,33.84,24.11l0,0h0l37.05,64.33a.35.35,0,0,1-.55.43l0,0-1.57-1.56a33.94,33.94,0,0,0-10.22-6.75,59,59,0,0,0-11.42-3.74,95.26,95.26,0,0,0-22.69-2.24h0a.33.33,0,0,1-.3-.18L21.26,241.79l-8.15-15.87L11,221.71l-.54-1.07a3.56,3.56,0,0,1-.17-.35l.22.38.59,1.1L13.31,226l8.34,15.88L50.48,297l-.31-.18A95.48,95.48,0,0,1,73,299a59.54,59.54,0,0,1,11.56,3.78A34.6,34.6,0,0,1,95,309.71l1.61,1.6-.57.41-36.94-64.4,0,0a93.53,93.53,0,0,0-17.47-15.81,67.31,67.31,0,0,0-16-8.35c-1.16-.48-2.33-.71-3.39-1a23.46,23.46,0,0,0-3-.76l-2.65-.48-1.16-.21c-.37,0-.71-.05-1-.08Z"/><path class="cls-5" d="M134.88,438.29l.86,1.42a9.76,9.76,0,0,0,4,3.72l1.49.74-1.42.86a9.75,9.75,0,0,0-3.72,4l-.74,1.49-.86-1.42a9.76,9.76,0,0,0-4-3.72l-1.49-.74,1.42-.86a9.76,9.76,0,0,0,3.72-4Z"/><path class="cls-5" d="M56.17,145.5l.86,1.42a9.76,9.76,0,0,0,4,3.72l1.49.74-1.42.86a9.76,9.76,0,0,0-3.72,4l-.74,1.49-.86-1.42a9.76,9.76,0,0,0-4-3.72l-1.49-.74,1.42-.86a9.76,9.76,0,0,0,3.72-4Z"/><path class="cls-5" d="M420.4,196l.86,1.42a9.76,9.76,0,0,0,4,3.72l1.49.74-1.42.86a9.75,9.75,0,0,0-3.72,4l-.74,1.49-.86-1.42a9.76,9.76,0,0,0-4-3.72l-1.49-.74,1.42-.86a9.76,9.76,0,0,0,3.72-4Z"/><path class="cls-5" d="M389.82,468.5l.86,1.42a9.76,9.76,0,0,0,4,3.72l1.49.74-1.42.86a9.76,9.76,0,0,0-3.72,4l-.74,1.49-.86-1.42a9.75,9.75,0,0,0-4-3.72l-1.49-.74,1.42-.86a9.76,9.76,0,0,0,3.72-4Z"/><path class="cls-5" d="M413.49,514.74l.41.17a2.59,2.59,0,0,0,1.45.14l.43-.08-.17.41a2.6,2.6,0,0,0-.14,1.45l.08.43-.41-.16a2.59,2.59,0,0,0-1.45-.14l-.43.08.16-.41a2.59,2.59,0,0,0,.14-1.45Z"/><path class="cls-5" d="M410.35,141.06l.41.16a2.6,2.6,0,0,0,1.45.14l.43-.08-.17.41a2.59,2.59,0,0,0-.14,1.45l.08.43-.41-.16a2.59,2.59,0,0,0-1.45-.14l-.43.08.17-.41a2.59,2.59,0,0,0,.14-1.45Z"/><path class="cls-5" d="M72.18,107.25l.41.16a2.6,2.6,0,0,0,1.45.14l.43-.08-.17.41a2.59,2.59,0,0,0-.14,1.45l.08.43-.41-.16a2.59,2.59,0,0,0-1.45-.14l-.43.08.17-.41a2.59,2.59,0,0,0,.14-1.45Z"/><path class="cls-5" d="M113.92,395.65l.41.17a2.6,2.6,0,0,0,1.45.14l.43-.08-.17.41a2.59,2.59,0,0,0-.14,1.45l.08.43-.41-.16a2.59,2.59,0,0,0-1.45-.14l-.43.08.17-.41a2.6,2.6,0,0,0,.14-1.45Z"/><path class="cls-5" d="M159.16,507.13s-.12.15-.39.41l-1.18,1.17L153,513.18l-17,16.41.07-.17,3.13,68.94,0,.61-.51-.34-6.14-4.11-39-26.08-.08-.05,0-.09L79.32,526l-4-12-1-3.19-.25-.82a1.43,1.43,0,0,1-.07-.28,1.4,1.4,0,0,1,.11.27l.3.81,1.11,3.16,4.12,12L94,568.13l-.11-.14,39,26,6.14,4.11-.48.27-3-69v-.1l.07-.07L152.84,513l4.67-4.38,1.22-1.13C159,507.25,159.16,507.13,159.16,507.13Z"/><polygon class="cls-5" points="141.03 590.26 140.9 594.28 144.14 596.66 140.28 597.79 139.02 601.6 136.76 598.28 132.74 598.26 135.2 595.08 133.98 591.25 137.76 592.61 141.03 590.26"/><polygon class="cls-5" points="94.1 562.99 94.18 565.59 96.36 567 93.91 567.88 93.25 570.39 91.66 568.33 89.06 568.48 90.52 566.33 89.58 563.9 92.08 564.63 94.1 562.99"/><polygon class="cls-5" points="73.88 504.89 75.85 507.41 79.03 507.22 77.24 509.87 78.41 512.84 75.34 511.96 72.87 513.98 72.76 510.79 70.07 509.07 73.08 507.98 73.88 504.89"/><polygon class="cls-5" points="157.2 502.37 159.16 504.89 162.35 504.7 160.56 507.35 161.72 510.32 158.66 509.44 156.19 511.46 156.08 508.27 153.39 506.55 156.39 505.46 157.2 502.37"/><polygon class="cls-5" points="135.33 526.71 136.58 528.32 138.62 528.2 137.47 529.88 138.22 531.78 136.26 531.22 134.68 532.51 134.61 530.47 132.9 529.38 134.81 528.68 135.33 526.71"/><circle class="cls-5" cx="60.2" cy="391.04" r="28.31"/><g class="cls-21"><circle class="cls-17" cx="51.9" cy="399.88" r="4.62"/></g><g class="cls-21"><circle class="cls-17" cx="47.29" cy="386.55" r="2.69"/></g><path class="cls-22" d="M32.74,397.92c.13.49-24.23,23.86-18,28.84S47.47,419,70,400.79s43.08-40.27,37.45-46.11-33.77,11.46-33.77,11.46L77,368.28s17-10.92,22.39-6.68-10,20.78-31.61,36.59S25.26,425.09,22,420.76,34.08,402,34.08,402Z"/><path class="cls-23" d="M32.74,397.92c.13.49-24.23,23.86-18,28.84S47.47,419,70,400.79s43.08-40.27,37.45-46.11-33.77,11.46-33.77,11.46L77,368.28s17-10.92,22.39-6.68-10,20.78-31.61,36.59S25.26,425.09,22,420.76,34.08,402,34.08,402Z"/><g class="cls-21"><path class="cls-17" d="M44.6,371.1c.23.27-1.69,1.9-3.86,5.17a26.06,26.06,0,0,0-.57,28.63c2,3.35,3.89,5.06,3.65,5.32s-2.42-1.12-4.94-4.45a24.43,24.43,0,0,1-3.44-6.44,24.56,24.56,0,0,1,.35-17.67,24.43,24.43,0,0,1,3.69-6.3C42.14,372.12,44.46,370.89,44.6,371.1Z"/></g><circle class="cls-5" cx="372.18" cy="125.86" r="23.35" transform="translate(237.53 494.95) rotate(-88.64)"/><g class="cls-12"><circle cx="383.6" cy="117" r="3.81" transform="translate(257.53 497.72) rotate(-88.64)"/></g><g class="cls-12"><circle cx="389.62" cy="125.86" r="2.22" transform="translate(254.56 512.39) rotate(-88.64)"/></g><g class="cls-12"><circle cx="384.41" cy="133.43" r="0.82" transform="translate(241.87 514.55) rotate(-88.64)"/></g></g></g></svg>