<svg xmlns="http://www.w3.org/2000/svg" viewBox="0 0 762.3 594.14"><defs><style>.cls-1{fill:#e1e1e1;}.cls-2{fill:#f5f5f5;}.cls-3{fill:#f2f3fd;}.cls-4{fill:#1b2e35;}.cls-5{fill:#ffbfa0;}.cls-6{fill:#00cb93;}.cls-7{opacity:0.6;}.cls-8{fill:#fff;}.cls-9{fill:#395a64;}.cls-10{fill:#fafafa;}.cls-11{fill:#ff9a71;}.cls-12{fill:#006fec;}.cls-13{opacity:0.4;}.cls-14{fill:#c68978;}.cls-15{fill:#b46958;}</style></defs><title>Ресурс 26</title><g id="Слой_2" data-name="Слой 2"><g id="OBJECTS"><path class="cls-1" d="M54.34,479.81a8.79,8.79,0,0,1-1-1,12.91,12.91,0,0,1-2.13-3.28,14.87,14.87,0,0,1-1.35-6,14.09,14.09,0,0,1,2.32-7.82c1.62-2.61,4-5,6.41-7.58A30.25,30.25,0,0,0,62,449.82a13.76,13.76,0,0,0,2-5.33,11.07,11.07,0,0,0-.91-5.87,25.22,25.22,0,0,0-3.34-5.38c-1.32-1.72-2.76-3.41-4.09-5.25a25.05,25.05,0,0,1-3.28-6.07,15.16,15.16,0,0,1-.91-6.85,11.76,11.76,0,0,1,2.68-6.15,8.69,8.69,0,0,1,5.66-3.12,5,5,0,0,1,3.16.64,3.35,3.35,0,0,1,1.59,2.73,3,3,0,0,1-1.7,2.56,4,4,0,0,1-3,.29,9.31,9.31,0,0,1-4.42-3.4,19.69,19.69,0,0,1-3.8-9.15,29.86,29.86,0,0,1-.07-8.19,55.25,55.25,0,0,1,1.1-6.08c.39-1.65.73-2.92,1-3.78l.27-1a1.63,1.63,0,0,1,.11-.33,1.62,1.62,0,0,1-.06.34l-.22,1-.86,3.8a58.65,58.65,0,0,0-1,6.07,29.94,29.94,0,0,0,.15,8.1,19.38,19.38,0,0,0,3.78,8.93A8.9,8.9,0,0,0,60,411.57a3.48,3.48,0,0,0,2.62-.26A2.49,2.49,0,0,0,64,409.18a2.85,2.85,0,0,0-1.36-2.3,4.45,4.45,0,0,0-2.83-.56,8.17,8.17,0,0,0-5.3,2.95A11.24,11.24,0,0,0,52,415.14a14.64,14.64,0,0,0,.88,6.6,24.59,24.59,0,0,0,3.21,5.93c1.31,1.81,2.75,3.5,4.07,5.24a25.63,25.63,0,0,1,3.4,5.5,11.57,11.57,0,0,1,.93,6.14,14.22,14.22,0,0,1-2.11,5.52A30.54,30.54,0,0,1,59,454.46c-2.42,2.62-4.81,4.94-6.42,7.48a13.83,13.83,0,0,0-2.34,7.61,14.86,14.86,0,0,0,1.24,5.94,13.6,13.6,0,0,0,2,3.29C54,479.47,54.37,479.79,54.34,479.81Z"/><path class="cls-2" d="M61.62,312.47c-14-1.88-24.38,5.48-29,16.69s-2.35,24.38,3.5,35c3.26,5.91,8.12,11.59,14.73,12.95,5.4,1.11,11.1-.94,15.39-4.4s7.36-8.2,10-13.06c4.65-8.66,7.43-18.45,6.35-28.22-.94-8.56-9.72-17.68-20.94-19"/><path class="cls-2" d="M53.07,376.19c-.52.73-1.65,3.26-2,4.06a1.43,1.43,0,0,0-.19,1.21,1,1,0,0,0,1.24.4,2.94,2.94,0,0,0,1.11-.87,1.35,1.35,0,1,0,2.62-.59,2.4,2.4,0,0,0,1.06.91c.45.14,1.05-.1,1.09-.57a1.21,1.21,0,0,0-.36-.8l-2.77-3.49"/><path class="cls-1" d="M650.37,61.4a5,5,0,0,1-.78-1.88,8.07,8.07,0,0,1,1-5.67c2.35-4.75,11.56-7.31,19.52-2.48a6,6,0,0,1,2,3,4.85,4.85,0,0,1-.28,3.74,4.33,4.33,0,0,1-3.26,2.14,7.88,7.88,0,0,1-4-.56c-5.08-2.16-8.53-8.09-8-14.21a12.57,12.57,0,0,1,4-8.28,15,15,0,0,1,8.81-3.91,13.59,13.59,0,0,1,5,.48,8.79,8.79,0,0,1,4.4,2.66A4.87,4.87,0,0,1,680,38.83a3.45,3.45,0,0,1-.76,2.67,6,6,0,0,1-5,1.68,15,15,0,0,1-13.06-13.86,14.27,14.27,0,0,1,3-9.16,15.1,15.1,0,0,1,7.54-5.35,10.8,10.8,0,0,1,8.73.73,6.75,6.75,0,0,1,2.75,3.33,5.2,5.2,0,0,1-.16,4.19,6.59,6.59,0,0,1-6.9,3.12,8.73,8.73,0,0,1-5.65-4.32,12.66,12.66,0,0,1-1.76-6.26,14.85,14.85,0,0,1,1.07-5.7,15.66,15.66,0,0,1,2.54-4.35,16.13,16.13,0,0,1,3.06-2.93,13.75,13.75,0,0,1,5.3-2.4,11,11,0,0,1,2-.24s-.7.09-2,.39a14.11,14.11,0,0,0-5.16,2.49,16,16,0,0,0-2.95,2.92,15.4,15.4,0,0,0-2.43,4.27,14.47,14.47,0,0,0-1,5.53,12.18,12.18,0,0,0,1.73,6,8.18,8.18,0,0,0,5.29,4,6,6,0,0,0,6.22-2.82c1.18-2.26-.1-5.29-2.38-6.66a10.13,10.13,0,0,0-8.16-.62,14.39,14.39,0,0,0-7.16,5.11,13.53,13.53,0,0,0-2.79,8.68A14.25,14.25,0,0,0,674.3,42.41,5.26,5.26,0,0,0,678.68,41a2.68,2.68,0,0,0,.59-2.08,4.12,4.12,0,0,0-1-2,8,8,0,0,0-4-2.43,12.85,12.85,0,0,0-4.72-.45,14.23,14.23,0,0,0-8.37,3.69,11.85,11.85,0,0,0-3.82,7.81c-.54,5.81,2.78,11.52,7.53,13.55a7.27,7.27,0,0,0,3.67.54,3.72,3.72,0,0,0,2.83-1.81,4.28,4.28,0,0,0,.25-3.29,5.47,5.47,0,0,0-1.81-2.7,12,12,0,0,0-5.8-2.26,18.53,18.53,0,0,0-5.65-.09A10.07,10.07,0,0,0,650.9,54a8,8,0,0,0-1.15,5.49A10.1,10.1,0,0,0,650.37,61.4Z"/><path class="cls-1" d="M317.18,454.07a5,5,0,0,1-2-.12,8.07,8.07,0,0,1-4.65-3.42c-3.25-4.18-1.53-13.59,6.29-18.65a6,6,0,0,1,3.54-.52,4.85,4.85,0,0,1,3.25,1.88,4.33,4.33,0,0,1,.5,3.87,7.88,7.88,0,0,1-2.25,3.35c-4.16,3.63-11,4.15-16.28,1a12.57,12.57,0,0,1-5.7-7.24,15,15,0,0,1,.33-9.63,13.6,13.6,0,0,1,2.61-4.3,8.8,8.8,0,0,1,4.32-2.79,4.87,4.87,0,0,1,2.71,0,3.45,3.45,0,0,1,2.07,1.85,6,6,0,0,1-.69,5.26,15,15,0,0,1-18.17,5.7,14.27,14.27,0,0,1-7-6.66,15.1,15.1,0,0,1-1.52-9.12A10.8,10.8,0,0,1,289,407a6.75,6.75,0,0,1,4.2-1,5.2,5.2,0,0,1,3.7,2,6.59,6.59,0,0,1-.2,7.57,8.73,8.73,0,0,1-6.35,3.2,12.67,12.67,0,0,1-6.4-1.15,14.85,14.85,0,0,1-4.66-3.45,15.67,15.67,0,0,1-2.8-4.19,16.13,16.13,0,0,1-1.3-4,13.75,13.75,0,0,1,.16-5.82,11,11,0,0,1,.67-1.92s-.22.67-.52,2a14.11,14.11,0,0,0,0,5.73,16,16,0,0,0,1.34,3.92,15.4,15.4,0,0,0,2.79,4,14.47,14.47,0,0,0,4.55,3.29,12.18,12.18,0,0,0,6.15,1.05,8.18,8.18,0,0,0,5.92-3,6,6,0,0,0,.17-6.83c-1.52-2-4.8-2.22-7-.76a10.13,10.13,0,0,0-4.12,7.07,14.39,14.39,0,0,0,1.48,8.67,13.53,13.53,0,0,0,6.59,6.3,14.25,14.25,0,0,0,17.2-5.39,5.26,5.26,0,0,0,.66-4.55,2.67,2.67,0,0,0-1.61-1.44,4.12,4.12,0,0,0-2.27,0,8,8,0,0,0-3.94,2.56,12.85,12.85,0,0,0-2.47,4.05,14.23,14.23,0,0,0-.33,9.14,11.85,11.85,0,0,0,5.36,6.85c5,3,11.58,2.52,15.48-.87a7.27,7.27,0,0,0,2.09-3.06,3.72,3.72,0,0,0-.4-3.33,4.28,4.28,0,0,0-2.85-1.66,5.46,5.46,0,0,0-3.22.45,12,12,0,0,0-4.56,4.24,18.52,18.52,0,0,0-2.55,5,10.07,10.07,0,0,0,.84,8.7,8,8,0,0,0,4.44,3.43A10.09,10.09,0,0,0,317.18,454.07Z"/><path class="cls-1" d="M314.92,137.85a1.71,1.71,0,0,1,.08-.41l.3-1.19a38,38,0,0,0,.78-4.65,35.3,35.3,0,0,0-2.42-17,25.18,25.18,0,0,0-6.65-9.7,12.62,12.62,0,0,0-5.81-2.81,9.84,9.84,0,0,0-6.64,1,5.83,5.83,0,0,0-2.42,2.43,3.38,3.38,0,0,0-.15,3.26,3.12,3.12,0,0,0,3,1.38,5.31,5.31,0,0,0,3.26-1.53,19.42,19.42,0,0,0,2.52-3,32.53,32.53,0,0,0,2.15-3.39,21.67,21.67,0,0,0,2.61-7.68c.76-5.38-1.64-11.22-6.25-13.59a8.49,8.49,0,0,0-7.2-.36,5.79,5.79,0,0,0-3.42,5.64,4.57,4.57,0,0,0,1.28,3,4.89,4.89,0,0,0,2.92,1.34,6.66,6.66,0,0,0,5.68-2.34,12.6,12.6,0,0,0,2.64-11,12.8,12.8,0,0,0-5.18-8,13.8,13.8,0,0,0-6.9-2.39,13.66,13.66,0,0,0-4.64.46c-1,.28-1.55.54-1.57.5a7.26,7.26,0,0,1,1.52-.65,13.06,13.06,0,0,1,4.71-.62A14,14,0,0,1,296.19,69,13.67,13.67,0,0,1,299,88.7a7.32,7.32,0,0,1-6.23,2.58,5.57,5.57,0,0,1-3.34-1.52,5.28,5.28,0,0,1-1.5-3.46,6.67,6.67,0,0,1,.89-3.74,6.37,6.37,0,0,1,2.94-2.62,9.22,9.22,0,0,1,7.85.36,12.29,12.29,0,0,1,5.5,6,15.51,15.51,0,0,1,1.17,8.33,22.38,22.38,0,0,1-2.7,8,33.13,33.13,0,0,1-2.2,3.47,20,20,0,0,1-2.63,3.11,6.06,6.06,0,0,1-3.73,1.72,3.86,3.86,0,0,1-3.65-1.76,4.1,4.1,0,0,1,.14-4,6.56,6.56,0,0,1,2.71-2.72,10.52,10.52,0,0,1,7.12-1,13.26,13.26,0,0,1,6.1,3,25.59,25.59,0,0,1,6.74,10,34.89,34.89,0,0,1,2.22,17.2A25.17,25.17,0,0,1,314.92,137.85Z"/><ellipse class="cls-3" cx="381.15" cy="549.95" rx="381.15" ry="44.19"/><path class="cls-4" d="M617.45,105.94c4,3.58.89,8.6,3,9.49,4.23,1.76,7.14,6.8,7,11.39-.1,4.24-4,8.06-3,12.18.72,3,3.64,4.72,5.65,7,5.18,5.9,3.71,15.64-1.53,21.49s-13.22,8.46-21,9.63A76.32,76.32,0,0,1,574,174.57c-4.77-1.47-9.54-3.52-12.94-7.17s-5.11-9.23-3.07-13.78c1.52-3.38,5-6.3,4.39-10-.28-1.68-1.4-3.09-2-4.68-1.51-3.76-.1-8.09,2.05-11.52s5-6.39,6.92-10,2.57-8.24.23-11.55"/><path class="cls-5" d="M630.47,167.39S664,198.19,665,194.57c5.37-19.62,4.71-44.87,4.2-54.55-.52-.85-1.11-1.77-1.81-2.8a12.94,12.94,0,0,0-3-3.08,19.82,19.82,0,0,0-4.59-2.75c-1.57-.49-1.77-2.61-.37-3.08s5.75.78,9.72,4.3,2.54-4.61,2.07-7.58-1.49-12.22-.68-13.06c1.18-1.24,2.76-.18,3.16,2.8s2.23,11.83,3.79,11.55-1.05-15.38-1.05-15.38-1.08-3.15.71-3.54c3.23-.7,4.8,15.53,4.91,17.07.08,1.08,1.79.83,1.64-.32s-2.94-15,.35-15.75c2.52-.57,1.42,13.34,3.59,15.92s-.24-10.66,2.19-11.1c.9-.16,1.61-.16,1.9,7.61.16,4.18-.52,12.12-1.2,18.72,1.55,21.37,3.9,86.74-25.51,83.67C630.26,219.62,623,192,623,192Z"/><path class="cls-5" d="M506.81,242.07a25,25,0,0,1,.11-32.95l20.83-23.62,18.12,17c-.73.49-19.41,24.24-19.41,24.24l26.1,32.53a18.72,18.72,0,0,1,3.1,17.81l-7,17.08-19.1-8.57,1.45-2.23h14.33l.85-3.44h0Z"/><path class="cls-6" d="M570.06,541.88l.08-13.73,25.73,0,.1,20.1-1.6.1c-7.1.4-36.13,1.53-40.87.1C548.21,546.82,570.06,541.88,570.06,541.88Z"/><g class="cls-7"><path class="cls-8" d="M586.67,548.35a8.93,8.93,0,0,1,3.28-5.49,8.67,8.67,0,0,1,6-1.87v7.19Z"/></g><g class="cls-7"><path class="cls-8" d="M559.42,544.66s-7.66,2.22-6.7,3.48,30.33,1.22,43.29.07l0-.57L561.7,548S560.92,544.72,559.42,544.66Z"/></g><path class="cls-4" d="M596.15,547.43a2.36,2.36,0,0,1-.44,0l-1.27.08-4.68.21c-3.95.15-9.41.28-15.44.29s-11.49-.1-15.44-.23l-4.68-.19-1.27-.07a.22.22,0,1,1,0-.06h1.27l4.68.09c3.95.07,9.41.15,15.44.14s11.48-.11,15.43-.2l4.68-.11,1.27,0A2.41,2.41,0,0,1,596.15,547.43Z"/><path class="cls-4" d="M561.7,548.46a6.8,6.8,0,0,0-2.47-4,4.16,4.16,0,0,1,2.47,4Z"/><ellipse class="cls-4" cx="569.1" cy="542.93" rx="0.16" ry="1.27" transform="translate(-202.54 390.54) rotate(-32.48)"/><ellipse class="cls-4" cx="571.06" cy="542.18" rx="0.16" ry="1.08" transform="translate(-213.82 605.67) rotate(-48.14)"/><ellipse class="cls-4" cx="571.83" cy="540.48" rx="1.34" ry="0.16" transform="translate(-6.75 7.23) rotate(-0.72)"/><path class="cls-4" d="M573.63,538.75a3.78,3.78,0,0,1-3,.23,115.66,115.66,0,0,0,3-.23Z"/><path class="cls-4" d="M568.91,541.76a4.77,4.77,0,0,1-1.65,0,9.68,9.68,0,0,1-1.76-.39,4.82,4.82,0,0,1-1-.41.89.89,0,0,1-.41-.51.65.65,0,0,1,.25-.66,3,3,0,0,1,3.75.88,3,3,0,0,1,.54,1.1.92.92,0,0,1,0,.45,4.68,4.68,0,0,0-.75-1.41,3,3,0,0,0-1.41-.92,2.56,2.56,0,0,0-2,.14c-.26.19-.16.5.13.68a4.94,4.94,0,0,0,.93.4,11.4,11.4,0,0,0,1.7.44C568.28,541.71,568.91,541.71,568.91,541.76Z"/><path class="cls-4" d="M568.48,541.84a1.63,1.63,0,0,1-.19-1.15,2.71,2.71,0,0,1,.45-1.21,1.66,1.66,0,0,1,1.38-.84.66.66,0,0,1,.51.76,1.8,1.8,0,0,1-.28.74,5,5,0,0,1-.78,1,2.38,2.38,0,0,1-.95.67s.33-.3.78-.82a5.78,5.78,0,0,0,.69-1c.23-.35.38-1,0-1.05s-.84.37-1.09.7a2.72,2.72,0,0,0-.47,1.08A6,6,0,0,0,568.48,541.84Z"/><path class="cls-4" d="M596.32,540.88c0,.06-.74-.07-1.9.07a8.06,8.06,0,0,0-6.73,5.38c-.39,1.1-.43,1.84-.49,1.84a1.48,1.48,0,0,1,0-.52,6.77,6.77,0,0,1,.28-1.39,7.82,7.82,0,0,1,6.92-5.53,6.76,6.76,0,0,1,1.42,0A1.49,1.49,0,0,1,596.32,540.88Z"/><ellipse class="cls-4" cx="593.71" cy="534.65" rx="0.16" ry="5.29" transform="translate(-7.43 8.36) rotate(-0.8)"/><path class="cls-4" d="M583.92,545a21.14,21.14,0,0,1-7.52.08c0-.09,1.69,0,3.76,0S583.91,544.91,583.92,545Z"/><path class="cls-4" d="M589,545c.06.06-.14.36-.31.74s-.26.73-.35.72-.13-.41.07-.85S588.91,544.92,589,545Z"/><ellipse class="cls-4" cx="590.38" cy="543.11" rx="0.69" ry="0.16" transform="translate(-210.82 583.1) rotate(-45.47)"/><path class="cls-4" d="M593.58,541.53c0,.09-.36.08-.74.22s-.65.34-.72.28.15-.41.62-.57S593.61,541.45,593.58,541.53Z"/><ellipse class="cls-4" cx="595.13" cy="541.17" rx="0.41" ry="0.16" transform="translate(-155.73 252.64) rotate(-21.26)"/><path class="cls-6" d="M648.92,542.7,648.84,529l-25.73,0L623,549l1.6.1c7.1.4,36.13,1.53,40.87.1C670.77,547.64,648.92,542.7,648.92,542.7Z"/><g class="cls-7"><path class="cls-8" d="M632.31,549.17a8.92,8.92,0,0,0-3.28-5.49,8.67,8.67,0,0,0-6-1.87V549Z"/></g><g class="cls-7"><path class="cls-8" d="M659.56,545.48s7.66,2.22,6.7,3.48-30.33,1.22-43.29.07l0-.57,34.26.34S658.06,545.54,659.56,545.48Z"/></g><path class="cls-4" d="M622.83,548.25a2.37,2.37,0,0,0,.44,0l1.27.08,4.68.21c3.95.15,9.41.28,15.44.29s11.49-.1,15.44-.23l4.68-.19,1.27-.07a.22.22,0,1,0,0-.06h-1.27l-4.68.09c-3.95.07-9.41.15-15.44.14s-11.48-.11-15.43-.2l-4.68-.11-1.27,0A2.41,2.41,0,0,0,622.83,548.25Z"/><path class="cls-4" d="M657.28,549.29a6.8,6.8,0,0,1,2.47-4,4.16,4.16,0,0,0-2.47,4Z"/><ellipse class="cls-4" cx="649.88" cy="543.75" rx="1.27" ry="0.16" transform="matrix(0.54, -0.84, 0.84, 0.54, -157.82, 799.93)"/><ellipse class="cls-4" cx="647.92" cy="543" rx="1.08" ry="0.16" transform="translate(-196.98 570.97) rotate(-41.86)"/><ellipse class="cls-4" cx="647.15" cy="541.31" rx="0.16" ry="1.34" transform="translate(97.75 1181.6) rotate(-89.28)"/><path class="cls-4" d="M645.35,539.58a3.78,3.78,0,0,0,3,.23,115.79,115.79,0,0,1-3-.23Z"/><path class="cls-4" d="M650.08,542.58a4.77,4.77,0,0,0,1.65,0,9.68,9.68,0,0,0,1.76-.39,4.82,4.82,0,0,0,1-.41.89.89,0,0,0,.41-.51.65.65,0,0,0-.25-.66,3,3,0,0,0-3.75.88,3,3,0,0,0-.54,1.1.91.91,0,0,0,0,.45,4.67,4.67,0,0,1,.75-1.41,3,3,0,0,1,1.41-.92,2.56,2.56,0,0,1,2,.14c.26.19.16.5-.13.68a4.94,4.94,0,0,1-.93.4,11.4,11.4,0,0,1-1.7.44C650.71,542.53,650.07,542.53,650.08,542.58Z"/><path class="cls-4" d="M650.5,542.66a1.63,1.63,0,0,0,.19-1.15,2.71,2.71,0,0,0-.45-1.21,1.66,1.66,0,0,0-1.38-.84.66.66,0,0,0-.51.76,1.81,1.81,0,0,0,.28.74,5,5,0,0,0,.78,1,2.38,2.38,0,0,0,.95.67s-.33-.3-.78-.82a5.77,5.77,0,0,1-.69-1c-.23-.35-.38-1,0-1.05s.84.37,1.09.7a2.72,2.72,0,0,1,.47,1.08A6,6,0,0,1,650.5,542.66Z"/><path class="cls-4" d="M622.66,541.7c0,.06.74-.07,1.9.07a8.06,8.06,0,0,1,6.73,5.38c.39,1.1.43,1.84.49,1.84a1.48,1.48,0,0,0,0-.52,6.77,6.77,0,0,0-.28-1.39,7.82,7.82,0,0,0-6.92-5.53,6.76,6.76,0,0,0-1.42,0A1.49,1.49,0,0,0,622.66,541.7Z"/><ellipse class="cls-4" cx="625.27" cy="535.47" rx="5.29" ry="0.16" transform="translate(81.09 1153.18) rotate(-89.2)"/><path class="cls-4" d="M635.06,545.82a21.13,21.13,0,0,0,7.52.08c0-.09-1.69,0-3.76,0S635.07,545.73,635.06,545.82Z"/><path class="cls-4" d="M630,545.81c-.06.06.14.36.31.74s.26.73.35.72.13-.41-.07-.85S630.07,545.75,630,545.81Z"/><ellipse class="cls-4" cx="628.6" cy="543.93" rx="0.16" ry="0.69" transform="translate(-200.97 597) rotate(-44.53)"/><path class="cls-4" d="M625.4,542.36c0,.09.36.08.74.22s.65.34.72.28-.15-.41-.62-.57S625.37,542.28,625.4,542.36Z"/><ellipse class="cls-4" cx="623.85" cy="541.99" rx="0.16" ry="0.41" transform="translate(-107.5 926.8) rotate(-68.74)"/><polyline class="cls-9" points="547.64 273.24 560.13 537.2 600.2 538.05 589.81 309.93 616.94 537.08 657.86 538.1 625.83 270.35"/><path class="cls-4" d="M579,537.6c-.21,0-3.08-59-6.4-131.75s-5.84-131.79-5.62-131.8,3.08,59,6.4,131.76S579.22,537.59,579,537.6Z"/><path class="cls-4" d="M638.82,535.47c-.21,0-7.4-57.27-16-127.95s-15.49-128-15.28-128.06,7.4,57.25,16,128S639,535.45,638.82,535.47Z"/><path class="cls-6" d="M573.57,147.62,566.24,149a37.67,37.67,0,0,0-20.54,11.15l-26.36,31.44,24.76,19.16,13.74-16s-2,9.8-1.58,11.3c.49,1.81,1.89,3.24,3.21,4.57L559,237.45l-11.35,35.79,78.19.81L620,236.14l1.1-38.59,13.12,14.94,22.4-26.38-25.23-25.44h0a45,45,0,0,0-17.42-11.28,35.69,35.69,0,0,0-10-2"/><path class="cls-10" d="M607.71,208.66a4.54,4.54,0,0,1-1.92,1.21,12.41,12.41,0,0,1-10.68-.58c-1.23-.7-1.83-1.34-1.78-1.41s2.93,2,7.1,2.14S607.62,208.43,607.71,208.66Z"/><path class="cls-10" d="M544.77,159.89a3.24,3.24,0,0,1,1.37-.55,7.63,7.63,0,0,1,4,.18,7.23,7.23,0,0,1,4.49,3.94,7.67,7.67,0,0,1-.51,7.26,7.44,7.44,0,0,1-6.56,3.14,6.54,6.54,0,0,1-5.11-3.06,6.7,6.7,0,0,1-1.11-3.88,3,3,0,0,1,.31-1.44c.07,0-.05.53,0,1.44a6.87,6.87,0,0,0,1.26,3.58,6,6,0,0,0,4.7,2.65,6.81,6.81,0,0,0,5.87-2.86,7,7,0,0,0,.5-6.55,6.77,6.77,0,0,0-4-3.71,8,8,0,0,0-3.8-.41C545.29,159.76,544.8,160,544.77,159.89Z"/><path class="cls-10" d="M578.79,166.79s.17,0,.46.12a5,5,0,0,1,1.2.62,8,8,0,0,1,3.31,7.46,7,7,0,0,1-1.69,3.66A7.77,7.77,0,0,1,568.29,174a7.18,7.18,0,0,1,.81-3.94,8.21,8.21,0,0,1,7-4.23,5.26,5.26,0,0,1,1.35.14c.3.08.45.13.45.15s-.65-.08-1.78,0a8.13,8.13,0,0,0-4.38,1.74,6.89,6.89,0,0,0-2.74,6.08,7.09,7.09,0,0,0,12.55,4.23,6.41,6.41,0,0,0,1.59-3.28,7.36,7.36,0,0,0-.24-3.22,7.8,7.8,0,0,0-2.62-3.9C579.38,167.08,578.76,166.86,578.79,166.79Z"/><path class="cls-10" d="M547.05,187.07s.17,0,.46.12a5,5,0,0,1,1.2.62,8,8,0,0,1,3.31,7.46,7,7,0,0,1-1.69,3.66,7.77,7.77,0,0,1-13.79-4.64,7.18,7.18,0,0,1,.81-3.94,8.21,8.21,0,0,1,7-4.23,5.27,5.27,0,0,1,1.35.14c.3.08.45.13.45.15s-.65-.08-1.78,0a8.13,8.13,0,0,0-4.38,1.74,6.89,6.89,0,0,0-2.74,6.08,7.09,7.09,0,0,0,12.55,4.23,6.41,6.41,0,0,0,1.59-3.28,7.36,7.36,0,0,0-.24-3.22,7.81,7.81,0,0,0-2.62-3.9C547.64,187.35,547,187.14,547.05,187.07Z"/><path class="cls-10" d="M603.24,183.6s.17,0,.46.12a5,5,0,0,1,1.2.62,8,8,0,0,1,3.31,7.46,7,7,0,0,1-1.69,3.66,7.77,7.77,0,0,1-13.79-4.64,7.18,7.18,0,0,1,.81-3.94,8.21,8.21,0,0,1,7-4.23,5.27,5.27,0,0,1,1.35.14c.3.08.45.13.45.15s-.65-.08-1.78,0a8.13,8.13,0,0,0-4.38,1.74,6.89,6.89,0,0,0-2.74,6.08A7.09,7.09,0,0,0,606,195a6.41,6.41,0,0,0,1.59-3.28,7.35,7.35,0,0,0-.24-3.22,7.8,7.8,0,0,0-2.62-3.9C603.83,183.89,603.21,183.67,603.24,183.6Z"/><path class="cls-10" d="M638.79,180.12s.17,0,.46.12a5,5,0,0,1,1.2.62,8,8,0,0,1,3.31,7.46,7,7,0,0,1-1.69,3.66,7.77,7.77,0,0,1-13.79-4.64,7.18,7.18,0,0,1,.81-3.94,8.21,8.21,0,0,1,7-4.23,5.26,5.26,0,0,1,1.35.14c.3.08.45.13.45.15s-.65-.08-1.78,0a8.13,8.13,0,0,0-4.38,1.74,6.89,6.89,0,0,0-2.74,6.08,7.09,7.09,0,0,0,12.55,4.23,6.41,6.41,0,0,0,1.59-3.28,7.35,7.35,0,0,0-.24-3.22,7.81,7.81,0,0,0-2.62-3.9C639.38,180.41,638.76,180.19,638.79,180.12Z"/><path class="cls-10" d="M616.44,158.5s.17,0,.46.12a5,5,0,0,1,1.2.62,8,8,0,0,1,3.31,7.46,7,7,0,0,1-1.69,3.66,7.77,7.77,0,0,1-13.79-4.64,7.18,7.18,0,0,1,.81-3.94,8.21,8.21,0,0,1,7-4.23,5.26,5.26,0,0,1,1.35.14c.3.08.45.13.45.15s-.65-.08-1.78,0a8.13,8.13,0,0,0-4.38,1.74,6.89,6.89,0,0,0-2.74,6.08,7.09,7.09,0,0,0,12.55,4.23,6.41,6.41,0,0,0,1.59-3.28,7.35,7.35,0,0,0-.24-3.22,7.81,7.81,0,0,0-2.62-3.9C617,158.79,616.41,158.57,616.44,158.5Z"/><path class="cls-10" d="M609,220s.17,0,.46.12a5,5,0,0,1,1.2.62,8,8,0,0,1,3.31,7.46,7,7,0,0,1-1.69,3.66,7.77,7.77,0,0,1-13.79-4.64,7.18,7.18,0,0,1,.81-3.94,8.21,8.21,0,0,1,7-4.23,5.27,5.27,0,0,1,1.35.14c.3.08.45.13.45.15s-.65-.08-1.78,0a8.13,8.13,0,0,0-4.38,1.74,6.89,6.89,0,0,0-2.74,6.08,7.09,7.09,0,0,0,12.55,4.23,6.41,6.41,0,0,0,1.59-3.28,7.36,7.36,0,0,0-.24-3.22,7.81,7.81,0,0,0-2.62-3.9C609.57,220.29,608.95,220.08,609,220Z"/><path class="cls-10" d="M606.63,252.34s.17,0,.46.12a5,5,0,0,1,1.2.62,8,8,0,0,1,3.31,7.46,7,7,0,0,1-1.69,3.66,7.77,7.77,0,0,1-13.79-4.64,7.18,7.18,0,0,1,.81-3.94,8.21,8.21,0,0,1,7-4.23,5.26,5.26,0,0,1,1.35.14c.3.08.45.13.45.15s-.65-.08-1.78,0a8.13,8.13,0,0,0-4.38,1.74,6.89,6.89,0,0,0-2.74,6.08,7.09,7.09,0,0,0,12.55,4.23,6.41,6.41,0,0,0,1.59-3.28,7.36,7.36,0,0,0-.24-3.22,7.8,7.8,0,0,0-2.62-3.9C607.22,252.62,606.6,252.41,606.63,252.34Z"/><path class="cls-10" d="M567.84,255.59s.17,0,.46.12a5,5,0,0,1,1.2.62,8,8,0,0,1,3.31,7.46,7,7,0,0,1-1.69,3.66,7.77,7.77,0,0,1-13.79-4.64,7.18,7.18,0,0,1,.81-3.94,8.21,8.21,0,0,1,7-4.23,5.27,5.27,0,0,1,1.35.14c.3.08.45.13.45.15s-.65-.08-1.78,0a8.13,8.13,0,0,0-4.38,1.74,6.89,6.89,0,0,0-2.74,6.08A7.09,7.09,0,0,0,570.59,267a6.41,6.41,0,0,0,1.59-3.28,7.36,7.36,0,0,0-.24-3.22,7.81,7.81,0,0,0-2.62-3.9C568.43,255.88,567.81,255.66,567.84,255.59Z"/><path class="cls-10" d="M576.36,202.41s.17,0,.46.12a5,5,0,0,1,1.2.62,8,8,0,0,1,3.31,7.46,7,7,0,0,1-1.69,3.66,7.77,7.77,0,0,1-13.79-4.64,7.18,7.18,0,0,1,.81-3.94,8.21,8.21,0,0,1,7-4.23,5.27,5.27,0,0,1,1.35.14c.3.08.45.13.45.15s-.65-.08-1.78,0a8.13,8.13,0,0,0-4.38,1.74,6.89,6.89,0,0,0-2.74,6.08,7.09,7.09,0,0,0,12.55,4.23,6.41,6.41,0,0,0,1.59-3.28,7.36,7.36,0,0,0-.24-3.22,7.81,7.81,0,0,0-2.62-3.9C576.94,202.7,576.32,202.48,576.36,202.41Z"/><path class="cls-10" d="M583.81,232s.17,0,.46.12a5,5,0,0,1,1.2.62,8,8,0,0,1,3.31,7.46,7,7,0,0,1-1.69,3.66,7.77,7.77,0,0,1-13.79-4.64,7.18,7.18,0,0,1,.81-3.94,8.21,8.21,0,0,1,7-4.23,5.27,5.27,0,0,1,1.35.14c.3.08.45.13.45.15s-.65-.08-1.78,0a8.13,8.13,0,0,0-4.38,1.74,6.89,6.89,0,0,0-2.74,6.08,7.09,7.09,0,0,0,12.55,4.23,6.41,6.41,0,0,0,1.59-3.28,7.36,7.36,0,0,0-.24-3.22,7.81,7.81,0,0,0-2.62-3.9C584.4,232.26,583.78,232,583.81,232Z"/><path class="cls-5" d="M576.16,148.8c0-5-.09-9.33-.09-9.33S566,138.4,565.39,128.42s0-33,0-33l18.34-9,20.18,15.28-2.13,47.54A12.82,12.82,0,0,1,589,161.5h0A12.82,12.82,0,0,1,576.16,148.8Z"/><circle class="cls-4" cx="569.4" cy="111.31" r="1.28"/><path class="cls-4" d="M566.31,110.8c.17.17,1.11-.64,2.48-.71s2.41.59,2.55.4-.1-.39-.55-.7a3.4,3.4,0,0,0-4,.25C566.36,110.4,566.23,110.72,566.31,110.8Z"/><circle class="cls-4" cx="584.51" cy="111.31" r="1.28"/><path class="cls-4" d="M581.56,110.8c.17.17,1.11-.64,2.48-.71s2.41.59,2.55.4-.1-.39-.55-.7a3.4,3.4,0,0,0-4,.25C581.62,110.4,581.48,110.72,581.56,110.8Z"/><path class="cls-4" d="M576.6,122.42a6.75,6.75,0,0,1-2.27.19,2.31,2.31,0,0,1-.62-.05.94.94,0,0,1-.65-.54,2.3,2.3,0,0,1,.12-1.5l.89-2.87c1.31-4.06,2.53-7.29,2.74-7.23s-.69,3.41-2,7.46l-1,2.85a2,2,0,0,0-.21,1c0,.19.33.26.69.28A6.75,6.75,0,0,1,576.6,122.42Z"/><path class="cls-11" d="M576.07,139.47A23.94,23.94,0,0,0,588.83,135s-2.72,7.34-12.73,6.93Z"/><path class="cls-4" d="M618.67,110l.06,1.78c-.22-1.84-.73-6-1-7.19-5.45-20.83-23.75-24.71-27.37-24.71-3.88,0-10.57-2-20.58,8.15-8.22,8.37-6.54,20.38-6.54,20.38l3.73-.56,14.61-3.77c2.09-4.52,3.09-7.89,4.06-10.17h0c2.91,14.95,16.93,15.47,16.93,15.47l-.3,29.88C621.67,135.15,618.67,110,618.67,110Z"/><path class="cls-11" d="M579.32,125.74a1.88,1.88,0,0,0-2.42.18,1.79,1.79,0,0,0,0,2.4,1.7,1.7,0,0,0,2.37,0,1.83,1.83,0,0,0,.38-1.67,2.46,2.46,0,0,0-1-1.4"/><path class="cls-4" d="M580.4,123.58c.1,0,.13.47-.12,1.16a4.72,4.72,0,0,1-4.41,3c-.72,0-1.14-.2-1.12-.3s1.75-.05,3.36-1.17S580.19,123.51,580.4,123.58Z"/><path class="cls-4" d="M585.92,107.21c-.16.15-1.08-.82-2.53-.88s-2.46.79-2.6.64.08-.4.53-.76a3.26,3.26,0,0,1,4.16.2C585.88,106.81,586,107.15,585.92,107.21Z"/><path class="cls-4" d="M614.41,105.2a15,15,0,0,1,2.86-6.68,7.4,7.4,0,0,1,6.44-2.83,5.78,5.78,0,0,1,4.55,7.94c-1.1,2.65-4.16,4.14-7,4a12.08,12.08,0,0,1-7.54-3.75"/><path class="cls-5" d="M432.73,157.92l37.18,9.66s30.75-34.13,32.19-35.33S522.42,137,522.42,137l-21.91,40.58c-5.23,13.24-13,20.7-20.58,21L419,186.53Z"/><path class="cls-5" d="M500.89,133.76s4.25-8.52,4.84-9.81a114.63,114.63,0,0,0,3.69-11.41s2.53-.56,2.37,5.1,1,4.09,1,4.09,11.76-14.28,14.6-13.34c1.06.35-.4,3.74-2.34,5.58a39.85,39.85,0,0,0-4.06,4.8s11.06-10,13.59-8.4c0,0,1.24,1-2.28,3.92a78.82,78.82,0,0,0-8.18,7.9s11-7.73,12.2-6.9c2.05,1.38-9.06,9.27-10.9,12.21,0,0,8.27-6.34,8.49-4.3s-10.06,9.18-14.76,19.55Z"/><path class="cls-11" d="M509.72,123.13c0-.08,1,.19,2.08,1.23a7.68,7.68,0,0,1,2.37,5.34l-.68-.25,0,0a9,9,0,0,1,5.12-2.91,4.21,4.21,0,0,1,2.44.05c0,.13-.93.1-2.32.48a9.57,9.57,0,0,0-4.66,2.88l0,0-.66.73,0-1a7.92,7.92,0,0,0-2-5C510.47,123.67,509.66,123.24,509.72,123.13Z"/><path class="cls-5" d="M337.62,156.32,300.44,166s-30.75-34.13-32.19-35.33-20.31,4.79-20.31,4.79L269.84,176c5.23,13.24,13,20.7,20.58,21l60.95-12.1Z"/><path class="cls-5" d="M269.46,132.16s-4.25-8.52-4.84-9.81a114.63,114.63,0,0,1-3.69-11.41s-2.53-.56-2.37,5.1-1,4.09-1,4.09S245.83,105.85,243,106.8c-1.06.35.4,3.74,2.34,5.58a39.84,39.84,0,0,1,4.06,4.8s-11.06-10-13.59-8.4c0,0-1.24,1,2.28,3.92a78.84,78.84,0,0,1,8.18,7.9s-11-7.73-12.2-6.9c-2.05,1.38,9.06,9.27,10.9,12.21,0,0-8.27-6.34-8.49-4.3s10.06,9.18,14.76,19.55Z"/><path class="cls-11" d="M260.63,121.54c.06.11-.75.55-1.69,1.61a7.92,7.92,0,0,0-2,5l0,1-.66-.73,0,0a9.57,9.57,0,0,0-4.66-2.88c-1.39-.38-2.31-.35-2.32-.48a4.21,4.21,0,0,1,2.44-.05,9,9,0,0,1,5.12,2.91l0,0-.68.25a7.68,7.68,0,0,1,2.37-5.34C259.67,121.72,260.6,121.46,260.63,121.54Z"/><path class="cls-4" d="M400.26,107.5a2.31,2.31,0,0,0,3.1,2.91c1.56-.69,1.87-2.78,1.66-4.47s-.68-3.52.11-5c.6-1.16,1.81-1.85,2.77-2.73A7.37,7.37,0,0,0,410.3,92a6.2,6.2,0,0,0-4-5.1c-2.2-.75-5-.21-6.57-1.92-1.14-1.24-1.11-3.16-2-4.62-1.33-2.25-4.37-2.76-7-2.55s-5.29.9-7.79.13c-2.09-.64-3.75-2.22-5.68-3.23a11.45,11.45,0,0,0-15.74,14.88,7.32,7.32,0,0,0,3.36,3.7"/><path class="cls-5" d="M397.67,151.9l-24.64-2c-.15-2.88.05-14,.05-14s-10.25-1.59-10.38-11.84,1.65-33.78,1.65-33.78h0a35.62,35.62,0,0,1,35.79,4.5L401.66,96Z"/><circle class="cls-4" cx="367.51" cy="106.59" r="1.49" transform="translate(23.67 274.51) rotate(-42.2)"/><path class="cls-4" d="M364.23,105.81c.16.18,1.17-.6,2.58-.6s2.44.72,2.59.54-.08-.4-.53-.74a3.48,3.48,0,0,0-4.13,0C364.3,105.41,364.15,105.73,364.23,105.81Z"/><circle class="cls-4" cx="382.44" cy="107.33" r="1.49" transform="translate(0.45 216.25) rotate(-31.59)"/><path class="cls-4" d="M379.56,106.55c.16.18,1.17-.6,2.58-.6s2.44.72,2.59.54-.08-.4-.53-.74a3.48,3.48,0,0,0-4.13,0C379.63,106.15,379.48,106.48,379.56,106.55Z"/><path class="cls-4" d="M373.9,118.46a6.85,6.85,0,0,0-2.28-.48c-.37,0-.66-.12-.69-.32a2,2,0,0,1,.26-1.06l1.12-2.87c1.54-4.09,2.62-7.46,2.42-7.54s-1.63,3.17-3.17,7.26l-1.06,2.89a2.36,2.36,0,0,0-.2,1.53,1,1,0,0,0,.64.59,2.37,2.37,0,0,0,.63.08A6.85,6.85,0,0,0,373.9,118.46Z"/><path class="cls-8" d="M378.48,120a26.44,26.44,0,0,1-6.92,2,3.9,3.9,0,0,0,4.6,1.55C379.23,122.46,378.48,120,378.48,120Z"/><path class="cls-11" d="M373.06,135.78a23.83,23.83,0,0,0,13.36-3.8s-3.16,7.38-13.39,6.45Z"/><path class="cls-4" d="M364.14,92.88s6,3.47,14.39,0c5.51-2.26,11.79-3.09,13.08-1.93s1.17,6.66,6.31,8.65c0,0-1.13,10.42,3.06,10.35s2.79-16.43,2.79-16.43l-9.82-5.73L383,84.9l-10.58.7-8.27,1.62Z"/><path class="cls-5" d="M400.4,106.58c.17-.08,7-2.08,6.82,4.92s-7.21,5.34-7.22,5.14S400.4,106.58,400.4,106.58Z"/><path class="cls-11" d="M402.23,114.06s.12.09.32.19a1.22,1.22,0,0,0,.91,0,3,3,0,0,0,1.48-2.67,4,4,0,0,0-.29-1.76,1.41,1.41,0,0,0-.89-1,.62.62,0,0,0-.73.31c-.1.19-.06.33-.1.34s-.15-.12-.08-.41a.78.78,0,0,1,.29-.43.92.92,0,0,1,.68-.16,1.72,1.72,0,0,1,1.24,1.13,4.15,4.15,0,0,1,.36,2c-.09,1.41-.85,2.71-1.88,3a1.31,1.31,0,0,1-1.11-.22C402.23,114.23,402.2,114.07,402.23,114.06Z"/><path class="cls-4" d="M405.16,84.87c-.05.22-1.09.11-2.27.49s-2,1-2.14.88.5-1.19,1.91-1.62S405.24,84.68,405.16,84.87Z"/><path class="cls-4" d="M401.18,80.45c.18,0,.56,1.46.2,3.33s-1.55,3-1.69,2.88.61-1.34.93-3S400.94,80.46,401.18,80.45Z"/><path class="cls-4" d="M371.09,103.27c-.21.38-1.56,0-3.17,0s-3,.15-3.16-.25,1.21-1.39,3.23-1.29S371.32,102.92,371.09,103.27Z"/><path class="cls-4" d="M386.81,102c-.21.38-1.56,0-3.17,0s-3,.15-3.16-.25,1.21-1.39,3.23-1.29S387,101.61,386.81,102Z"/><path class="cls-12" d="M444.82,535.05l2.44,10.26S464,567.1,469.21,566c3.39-.7-.78-6.38-7.16-22.94l-1.34-6.84Z"/><path class="cls-4" d="M469.9,562.82a.92.92,0,0,1-.13.31,1.87,1.87,0,0,1-.71.66,2.75,2.75,0,0,1-1.49.33,4,4,0,0,1-1.9-.7,81.79,81.79,0,0,1-8.45-7.88,108.36,108.36,0,0,1-7.5-8.78c-.89-1.18-1.6-2.15-2.07-2.82l-.53-.79a.17.17,0,1,1,.05,0l.58.75,2.14,2.76c1.84,2.31,4.45,5.45,7.55,8.71a93.87,93.87,0,0,0,8.35,7.91,3.11,3.11,0,0,0,3.21.45A2.19,2.19,0,0,0,469.9,562.82Z"/><path class="cls-4" d="M467.52,555.81c0,.05-.53-.05-1.36.06a8,8,0,0,0-3,1.14,6.17,6.17,0,0,0-2.27,2.27c-.4.73-.5,1.26-.56,1.24a3,3,0,0,1,.36-1.34,5.79,5.79,0,0,1,2.3-2.43,7.2,7.2,0,0,1,3.16-1.1A2.69,2.69,0,0,1,467.52,555.81Z"/><path class="cls-4" d="M451.64,550.7c-.06,0,.18-.73.32-1.92a7.9,7.9,0,0,0-.84-4.5A7.42,7.42,0,0,0,447.9,541a12.15,12.15,0,0,0-1.82-.66,1.52,1.52,0,0,1,.53,0,5.57,5.57,0,0,1,1.39.43,7.21,7.21,0,0,1,3.39,3.3,7.63,7.63,0,0,1,.78,4.67,8.93,8.93,0,0,1-.33,1.41A1.65,1.65,0,0,1,451.64,550.7Z"/><path class="cls-4" d="M445.89,536.79a10.73,10.73,0,0,1,.92,3.22c.31,1.82.64,3.26.57,3.28a11,11,0,0,1-.88-3.23C446.19,538.25,445.81,536.82,445.89,536.79Z"/><path class="cls-4" d="M462.35,544.55c0,.09-1,.06-2.08.32s-2,.7-2,.62a5,5,0,0,1,4.1-.94Z"/><path class="cls-4" d="M462.7,546.31c0,.09-.81,0-1.74.23s-1.61.65-1.66.58a3.39,3.39,0,0,1,3.4-.81Z"/><path class="cls-4" d="M464,548.51a4.74,4.74,0,0,0-3.47.79,2.74,2.74,0,0,1,3.47-.79Z"/><path class="cls-4" d="M461.2,543.81a1.78,1.78,0,0,1-.56-.07,11.43,11.43,0,0,1-1.48-.4,13.32,13.32,0,0,1-3.24-1.65,1.68,1.68,0,0,1-.83-1.28,1,1,0,0,1,1.27-.79,2.65,2.65,0,0,1,1.16.78,21.06,21.06,0,0,1,1.54,1.68c.41.5.72.93.92,1.23a1.87,1.87,0,0,1,.28.49s-.52-.61-1.37-1.57c-.43-.48-1-1-1.57-1.62a2.44,2.44,0,0,0-1-.69c-.38-.1-.88.11-.89.51s.36.77.7,1,.75.5,1.11.71a15.07,15.07,0,0,0,2,1C460.42,543.6,461.21,543.76,461.2,543.81Z"/><path class="cls-4" d="M460.32,543.6a1.65,1.65,0,0,1,0-.51c0-.33,0-.81.11-1.39a7.35,7.35,0,0,1,.53-2,4.31,4.31,0,0,1,.66-1.07,1.12,1.12,0,0,1,1.33-.42,1.28,1.28,0,0,1,.46,1.33,4.72,4.72,0,0,1-.37,1.2,6.18,6.18,0,0,1-1.2,1.72,7.72,7.72,0,0,1-1.07.91,1.47,1.47,0,0,1-.44.26s.57-.46,1.35-1.32a6.44,6.44,0,0,0,1.09-1.69,4.62,4.62,0,0,0,.33-1.13c0-.38,0-.85-.31-1s-.7.06-1,.35a4.19,4.19,0,0,0-.63,1,7.85,7.85,0,0,0-.57,1.94A18,18,0,0,1,460.32,543.6Z"/><g class="cls-13"><path d="M447.26,545.31l-1.18-4.93s4.11.76,5.18,3.84a12.9,12.9,0,0,1,.8,5.27l8.94,9.62s2.24-4.38,6.3-3.33c0,0,3.19,7,3.1,8.79-.11,1.93-2.15,1.55-2.87,1.22a36.07,36.07,0,0,1-8-6.31C454.78,554.56,449.55,548.33,447.26,545.31Z"/></g><path class="cls-12" d="M361.41,540.24l-.08-13.68,25.63-.31.33,20-1.59.12c-7.07.48-36,1.93-40.71.56C339.7,545.4,361.41,540.24,361.41,540.24Z"/><g class="cls-13"><path d="M378,546.17a8.89,8.89,0,0,1,3.2-5.5,8.64,8.64,0,0,1,6-1.94l.09,7.16Z"/></g><g class="cls-13"><path d="M350.81,543.14s-7.6,2.29-6.64,3.54,30.23.87,43.12-.42l0-.57-34.12.73S352.3,543.19,350.81,543.14Z"/></g><path class="cls-4" d="M387.64,545.67a2.35,2.35,0,0,1-.44.05l-1.26.09-4.66.26c-3.93.19-9.37.38-15.37.47s-11.45,0-15.38-.05l-4.66-.13-1.27-.06a.22.22,0,1,1,0-.06h1.27l4.66,0c3.94,0,9.37,0,15.38,0s11.44-.24,15.37-.37l4.66-.16,1.27,0A2.39,2.39,0,0,1,387.64,545.67Z"/><path class="cls-4" d="M353.13,546.81a6.77,6.77,0,0,0-2.51-4,4.14,4.14,0,0,1,2.51,4Z"/><ellipse class="cls-4" cx="359.95" cy="541.82" rx="0.16" ry="1.26" transform="translate(-237.62 284.83) rotate(-33.13)"/><ellipse class="cls-4" cx="361.89" cy="541.05" rx="0.16" ry="1.07" transform="translate(-283.56 456.86) rotate(-48.79)"/><ellipse class="cls-4" cx="362.64" cy="539.35" rx="1.34" ry="0.16" transform="translate(-12.81 8.84) rotate(-1.37)"/><path class="cls-4" d="M364.41,537.61a3.77,3.77,0,0,1-3,.27,114.68,114.68,0,0,0,3-.27Z"/><path class="cls-4" d="M359.74,540.65a4.75,4.75,0,0,1-1.65,0,9.64,9.64,0,0,1-1.76-.36,4.8,4.8,0,0,1-1-.4.89.89,0,0,1-.41-.51.65.65,0,0,1,.24-.66,3,3,0,0,1,3.75.84,3,3,0,0,1,.55,1.09.91.91,0,0,1,0,.44,4.65,4.65,0,0,0-.77-1.4,3,3,0,0,0-1.42-.9,2.55,2.55,0,0,0-2,.16c-.26.2-.15.5.14.67a4.92,4.92,0,0,0,.93.38,11.35,11.35,0,0,0,1.7.42C359.11,540.61,359.74,540.6,359.74,540.65Z"/><path class="cls-4" d="M359.32,540.74a1.62,1.62,0,0,1-.2-1.14,2.7,2.7,0,0,1,.43-1.21,1.65,1.65,0,0,1,1.36-.86.66.66,0,0,1,.52.75,1.8,1.8,0,0,1-.27.74,5,5,0,0,1-.76,1,2.37,2.37,0,0,1-.93.68s.32-.3.77-.83a5.76,5.76,0,0,0,.68-1c.22-.35.37-1,0-1s-.83.38-1.08.71a2.71,2.71,0,0,0-.45,1.08A6,6,0,0,0,359.32,540.74Z"/><path class="cls-4" d="M387,538.66c0,.06-.73-.06-1.89.09a8,8,0,0,0-6.64,5.44c-.38,1.1-.41,1.84-.46,1.84a1.48,1.48,0,0,1,0-.52,6.75,6.75,0,0,1,.26-1.39,7.79,7.79,0,0,1,6.83-5.59,6.75,6.75,0,0,1,1.41,0A1.48,1.48,0,0,1,387,538.66Z"/><ellipse class="cls-4" cx="384.37" cy="533.3" rx="0.16" ry="5.27" transform="translate(-13.41 9.93) rotate(-1.45)"/><path class="cls-4" d="M374.74,543.71a21.05,21.05,0,0,1-7.49.17c0-.09,1.68,0,3.74-.06S374.73,543.62,374.74,543.71Z"/><path class="cls-4" d="M379.76,543.64c.06.06-.13.36-.3.74s-.26.73-.34.72-.14-.4.06-.85S379.7,543.58,379.76,543.64Z"/><ellipse class="cls-4" cx="381.15" cy="541.76" rx="0.68" ry="0.16" transform="translate(-273.54 440.97) rotate(-46.12)"/><path class="cls-4" d="M384.32,540.15c0,.09-.36.09-.73.23s-.64.34-.71.28.14-.41.61-.58S384.34,540.07,384.32,540.15Z"/><ellipse class="cls-4" cx="385.86" cy="539.77" rx="0.41" ry="0.16" transform="translate(-173.59 183.03) rotate(-21.92)"/><polyline class="cls-4" points="343.98 268.52 355.94 534.34 395.84 535.18 389.22 312.64 434.1 536.88 472.05 536.88 421.37 268.52"/><polygon class="cls-9" points="432.13 533.27 433.04 537.2 472.05 537.72 471.45 531.58 432.13 533.27"/><ellipse class="cls-9" cx="462.68" cy="534.13" rx="0.39" ry="1.12" transform="translate(-82.03 83.95) rotate(-9.53)"/><ellipse class="cls-9" cx="461.4" cy="526.51" rx="0.39" ry="2.21" transform="translate(-80.81 83.67) rotate(-9.53)"/><ellipse class="cls-9" cx="459.94" cy="517.8" rx="0.39" ry="2.21" transform="translate(-79.43 83.36) rotate(-9.54)"/><ellipse class="cls-9" cx="458.47" cy="509.1" rx="0.39" ry="2.21" transform="translate(-78.11 83.12) rotate(-9.55)"/><ellipse class="cls-9" cx="457.01" cy="500.39" rx="0.39" ry="2.21" transform="translate(-76.81 82.91) rotate(-9.57)"/><ellipse class="cls-9" cx="455.54" cy="491.69" rx="0.39" ry="2.21" transform="translate(-75.52 82.72) rotate(-9.59)"/><ellipse class="cls-9" cx="454.07" cy="482.98" rx="0.39" ry="2.21" transform="translate(-74.28 82.6) rotate(-9.61)"/><ellipse class="cls-9" cx="452.59" cy="474.28" rx="0.39" ry="2.21" transform="translate(-73.05 82.51) rotate(-9.64)"/><ellipse class="cls-9" cx="451.11" cy="465.58" rx="0.39" ry="2.21" transform="translate(-71.86 82.47) rotate(-9.68)"/><ellipse class="cls-9" cx="449.62" cy="456.87" rx="0.39" ry="2.21" transform="translate(-70.67 82.46) rotate(-9.72)"/><ellipse class="cls-9" cx="448.13" cy="448.17" rx="0.39" ry="2.21" transform="translate(-69.5 82.47) rotate(-9.76)"/><ellipse class="cls-9" cx="446.63" cy="439.47" rx="0.39" ry="2.21" transform="translate(-68.35 82.53) rotate(-9.81)"/><ellipse class="cls-9" cx="445.12" cy="430.77" rx="0.39" ry="2.21" transform="translate(-67.21 82.62) rotate(-9.86)"/><ellipse class="cls-9" cx="443.6" cy="422.08" rx="0.39" ry="2.21" transform="translate(-66.09 82.75) rotate(-9.92)"/><ellipse class="cls-9" cx="442.07" cy="413.38" rx="0.39" ry="2.21" transform="translate(-64.98 82.92) rotate(-9.99)"/><ellipse class="cls-9" cx="440.54" cy="404.69" rx="0.39" ry="2.21" transform="translate(-63.87 83.1) rotate(-10.05)"/><ellipse class="cls-9" cx="438.99" cy="396" rx="0.39" ry="2.21" transform="translate(-62.77 83.33) rotate(-10.12)"/><ellipse class="cls-9" cx="437.43" cy="387.31" rx="0.39" ry="2.21" transform="translate(-61.68 83.59) rotate(-10.2)"/><ellipse class="cls-9" cx="435.86" cy="378.62" rx="0.39" ry="2.21" transform="translate(-60.59 83.89) rotate(-10.28)"/><ellipse class="cls-9" cx="434.28" cy="369.93" rx="0.39" ry="2.21" transform="translate(-59.5 84.23) rotate(-10.37)"/><ellipse class="cls-9" cx="432.69" cy="361.25" rx="0.39" ry="2.21" transform="translate(-58.41 84.59) rotate(-10.46)"/><ellipse class="cls-9" cx="431.07" cy="352.57" rx="0.39" ry="2.21" transform="matrix(0.98, -0.18, 0.18, 0.98, -57.33, 85)"/><ellipse class="cls-9" cx="429.45" cy="343.89" rx="0.39" ry="2.21" transform="translate(-56.24 85.44) rotate(-10.67)"/><ellipse class="cls-9" cx="427.81" cy="335.22" rx="0.39" ry="2.21" transform="translate(-55.15 85.93) rotate(-10.78)"/><ellipse class="cls-9" cx="426.15" cy="326.55" rx="0.39" ry="2.21" transform="translate(-54.05 86.46) rotate(-10.9)"/><ellipse class="cls-9" cx="424.47" cy="317.88" rx="0.39" ry="2.21" transform="translate(-52.94 87.02) rotate(-11.02)"/><ellipse class="cls-9" cx="422.77" cy="309.21" rx="0.39" ry="2.21" transform="matrix(0.98, -0.19, 0.19, 0.98, -51.83, 87.62)"/><ellipse class="cls-9" cx="421.05" cy="300.55" rx="0.39" ry="2.21" transform="translate(-50.71 88.29) rotate(-11.3)"/><ellipse class="cls-9" cx="419.31" cy="291.9" rx="0.39" ry="2.21" transform="translate(-49.57 88.98) rotate(-11.44)"/><ellipse class="cls-9" cx="417.55" cy="283.24" rx="0.39" ry="2.21" transform="translate(-48.41 89.72) rotate(-11.6)"/><ellipse class="cls-9" cx="415.98" cy="275.66" rx="0.39" ry="1.11" transform="translate(-47.39 90.41) rotate(-11.74)"/><ellipse class="cls-9" cx="389.02" cy="534.12" rx="0.39" ry="1.12" transform="matrix(1, -0.05, 0.05, 1, -27.09, 20.82)"/><ellipse class="cls-9" cx="388.68" cy="526.36" rx="0.39" ry="2.22" transform="translate(-19.69 15.13) rotate(-2.17)"/><ellipse class="cls-9" cx="388.39" cy="517.51" rx="0.39" ry="2.22" transform="translate(-14.8 11.44) rotate(-1.66)"/><ellipse class="cls-9" cx="388.15" cy="508.65" rx="0.39" ry="2.22" transform="translate(-12.35 9.67) rotate(-1.4)"/><ellipse class="cls-9" cx="387.94" cy="499.78" rx="0.39" ry="2.22" transform="translate(-11.8 9.39) rotate(-1.37)"/><ellipse class="cls-9" cx="387.72" cy="490.92" rx="0.39" ry="2.22" transform="translate(-13.13 10.66) rotate(-1.55)"/><ellipse class="cls-9" cx="387.44" cy="482.05" rx="0.39" ry="2.22" transform="matrix(1, -0.04, 0.04, 1, -16.92, 14.1)"/><ellipse class="cls-9" cx="387.09" cy="473.2" rx="0.39" ry="2.22" transform="translate(-19.52 16.66) rotate(-2.41)"/><ellipse class="cls-9" cx="386.73" cy="464.34" rx="0.39" ry="2.22" transform="translate(-17.34 15.01) rotate(-2.17)"/><ellipse class="cls-9" cx="386.41" cy="455.48" rx="0.39" ry="2.22" transform="translate(-15.18 13.32) rotate(-1.94)"/><ellipse class="cls-9" cx="386.13" cy="446.62" rx="0.39" ry="2.22" transform="translate(-13 11.58) rotate(-1.69)"/><ellipse class="cls-9" cx="385.89" cy="437.76" rx="0.39" ry="2.22" transform="translate(-10.83 9.79) rotate(-1.43)"/><ellipse class="cls-9" cx="385.69" cy="428.9" rx="0.39" ry="2.22" transform="translate(-8.66 7.95) rotate(-1.17)"/><ellipse class="cls-9" cx="385.53" cy="420.04" rx="0.39" ry="2.22" transform="translate(-6.52 6.08) rotate(-0.9)"/><ellipse class="cls-9" cx="385.41" cy="411.17" rx="0.39" ry="2.22" transform="translate(-4.42 4.19) rotate(-0.62)"/><ellipse class="cls-9" cx="385.34" cy="402.31" rx="0.39" ry="2.22" transform="matrix(1, -0.01, 0.01, 1, -2.37, 2.28)"/><ellipse class="cls-9" cx="385.31" cy="393.45" rx="0.39" ry="2.22"/><ellipse class="cls-9" cx="385.32" cy="384.58" rx="2.22" ry="0.39" transform="translate(-0.84 768.33) rotate(-89.77)"/><ellipse class="cls-9" cx="385.38" cy="375.72" rx="2.22" ry="0.39" transform="translate(6.14 757.64) rotate(-89.47)"/><ellipse class="cls-9" cx="385.48" cy="366.86" rx="2.22" ry="0.39" transform="translate(13.19 747.09) rotate(-89.19)"/><ellipse class="cls-9" cx="385.63" cy="358" rx="2.22" ry="0.39" transform="translate(20.38 736.77) rotate(-88.91)"/><ellipse class="cls-9" cx="385.82" cy="349.13" rx="2.22" ry="0.39" transform="translate(27.38 726.32) rotate(-88.6)"/><ellipse class="cls-9" cx="386.1" cy="340.27" rx="2.22" ry="0.39" transform="translate(30.8 712.58) rotate(-87.73)"/><ellipse class="cls-9" cx="386.56" cy="331.41" rx="2.22" ry="0.39" transform="translate(30.63 695.52) rotate(-86.26)"/><ellipse class="cls-9" cx="387.29" cy="322.58" rx="2.22" ry="0.39" transform="translate(27.18 675.23) rotate(-84.19)"/><ellipse class="cls-9" cx="388.21" cy="314.89" rx="1.12" ry="0.39" transform="translate(21.79 654.89) rotate(-81.9)"/><polygon class="cls-9" points="354.89 535.63 397.1 536.32 396.77 529.29 354.89 529.51 354.89 535.63"/><path class="cls-9" d="M382.57,271.89a6.73,6.73,0,0,1,.25,1.62c.11,1,.25,2.57.4,4.45.3,3.76.67,9,1,14.7l.47,8.1c.15,2.49.14,4.74.77,6.47a5.49,5.49,0,0,0,2.69,3.2,8,8,0,0,0,1.54.44s-.14.06-.43.07a3.38,3.38,0,0,1-1.23-.23,5.6,5.6,0,0,1-3.09-3.29c-.74-1.84-.78-4.15-1-6.61l-.53-8.09c-.36-5.74-.63-10.94-.8-14.71-.08-1.88-.13-3.41-.15-4.46A6.72,6.72,0,0,1,382.57,271.89Z"/><path class="cls-9" d="M386.67,275.42c.06.1-.34.36-.37,1a1.2,1.2,0,0,0,.31.91,1.06,1.06,0,0,0,1.69-.69,1.2,1.2,0,0,0-.41-.87c-.46-.43-.93-.34-1-.45s.49-.45,1.28,0a1.67,1.67,0,0,1,.81,1.29,1.72,1.72,0,0,1-2.93,1.19,1.67,1.67,0,0,1-.32-1.49C386,275.44,386.67,275.32,386.67,275.42Z"/><path class="cls-9" d="M424.22,281.73A7.67,7.67,0,0,1,420.9,283,14,14,0,0,1,406,276.34a7.67,7.67,0,0,1-1.27-3.31c.13,0,.54,1.25,1.73,3a14.59,14.59,0,0,0,14.32,6.4C422.93,282.16,424.17,281.6,424.22,281.73Z"/><path class="cls-9" d="M357.85,271.89a5.64,5.64,0,0,1-.14,2.88,11.32,11.32,0,0,1-10,8.73,5.64,5.64,0,0,1-2.87-.24c0-.13,1.1,0,2.8-.3a11.88,11.88,0,0,0,9.51-8.33C357.69,273,357.72,271.89,357.85,271.89Z"/><path class="cls-12" d="M409.52,148A35.79,35.79,0,0,0,398.64,146h0a43.6,43.6,0,0,1-26.27,0,127.87,127.87,0,0,0-23.88,4.43l-33.31,9,11,40.9,20.12-6.77s-11,76-10.82,84.44l88.31-5.81-3.37-42-1.13-36.47,25.24,4.64,17-33.91"/><path class="cls-4" d="M402.13,145.83a4.48,4.48,0,0,1-1.09.78,23.18,23.18,0,0,1-3.25,1.67,31.15,31.15,0,0,1-5.17,1.7,33,33,0,0,1-13.26.38,31.16,31.16,0,0,1-5.26-1.4,23.17,23.17,0,0,1-3.35-1.48,4.47,4.47,0,0,1-1.14-.72c.06-.13,1.75.76,4.66,1.68a35.85,35.85,0,0,0,5.2,1.22,35.44,35.44,0,0,0,13-.37,35.87,35.87,0,0,0,5.12-1.52C400.42,146.68,402.06,145.7,402.13,145.83Z"/><path class="cls-4" d="M389.37,183.6a8.78,8.78,0,0,1,1.37-.08l4-.09,14.54-.17h.34v.34c0,2.72,0,5.66,0,8.77,0,1.57,0,3.13,0,4.81A10.19,10.19,0,0,1,408,202a10.31,10.31,0,0,1-6.43,4.5,10.27,10.27,0,0,1-11.7-6,10.68,10.68,0,0,1-.77-2.94c-.09-1-.05-1.91,0-2.79l.15-8.3.07-2.21a3.26,3.26,0,0,1,.06-.73,5.48,5.48,0,0,1,.06.83l.07,2.27.15,8.18c0,.86,0,1.76.09,2.67a10.17,10.17,0,0,0,.76,2.75,9.63,9.63,0,0,0,10.94,5.48,9.59,9.59,0,0,0,5.94-4.18,9.46,9.46,0,0,0,1.49-4.5c.07-1.58,0-3.21,0-4.76,0-3.11,0-6,0-8.77l.34.34L395,183.77l-4.09-.09A12.81,12.81,0,0,1,389.37,183.6Z"/><path class="cls-4" d="M408.66,186.76s.2-.09.6-.13v.25c-1.34.15-5.13.26-9.59.26-5.63,0-10.19-.17-10.19-.39s4.56-.39,10.19-.39c4.46,0,8.25.11,9.59.26v.25C408.86,186.85,408.66,186.8,408.66,186.76Z"/><path class="cls-4" d="M459.19,163.85a5.69,5.69,0,0,1-.62,1.38l-1.92,3.62-6.37,11.91-6.23,12-1.9,3.63a5.68,5.68,0,0,1-.79,1.29,5.69,5.69,0,0,1,.51-1.42c.38-.89.95-2.17,1.68-3.74,1.46-3.14,3.57-7.44,6-12.11s4.82-8.84,6.58-11.82c.88-1.49,1.61-2.69,2.14-3.5A5.69,5.69,0,0,1,459.19,163.85Z"/><path class="cls-4" d="M331.57,198.16a6.65,6.65,0,0,1-.71-1.47c-.41-1-1-2.38-1.65-4.13-1.35-3.51-3.12-8.38-4.93-13.82s-3.32-10.41-4.34-14c-.51-1.81-.91-3.27-1.16-4.3a6.66,6.66,0,0,1-.32-1.61,6.67,6.67,0,0,1,.6,1.52l1.39,4.22L325,178.49l4.71,13.88,1.42,4.21A6.68,6.68,0,0,1,331.57,198.16Z"/><path class="cls-4" d="M424.22,268.35c0,.21-19.66,1.55-43.93,3s-44,2.43-44,2.21,19.65-1.55,43.93-3S424.21,268.14,424.22,268.35Z"/><path class="cls-14" d="M166.52,148.19l27-2.62c.35-3.05-.2-17.81-.2-17.81s11-1,11.8-11.94.41-36.06.41-36.06h0a38,38,0,0,0-38.38,2.5l-1.69,1.15Z"/><circle class="cls-4" cx="200.37" cy="97.08" r="1.59" transform="translate(-10.77 167.73) rotate(-44.35)"/><path class="cls-4" d="M204.29,96c-.18.18-1.2-.71-2.71-.81s-2.64.61-2.79.41.11-.42.61-.75a3.71,3.71,0,0,1,4.39.32C204.24,95.52,204.38,95.87,204.29,96Z"/><circle class="cls-4" cx="184.7" cy="97.59" r="1.59" transform="translate(-1.24 192.81) rotate(-54.97)"/><path class="cls-4" d="M188.3,96.36c-.18.18-1.2-.71-2.71-.81s-2.64.61-2.79.41.11-.42.61-.75a3.71,3.71,0,0,1,4.39.32C188.25,95.93,188.39,96.29,188.3,96.36Z"/><path class="cls-4" d="M193.58,109.12a7.69,7.69,0,0,1,2.46-.35c.39,0,.72-.09.77-.31a2.13,2.13,0,0,0-.21-1.16l-1-3.12c-1.38-4.45-2.32-8.11-2.11-8.17s1.5,3.48,2.88,7.93l.94,3.14a2.5,2.5,0,0,1,.12,1.63,1,1,0,0,1-.7.58,2.52,2.52,0,0,1-.67,0A7.7,7.7,0,0,1,193.58,109.12Z"/><path class="cls-15" d="M193.36,127.6a25.41,25.41,0,0,1-14-4.9s2.89,8.05,13.83,7.72Z"/><path class="cls-14" d="M167.58,93.08c-.24-.09-8.09-1.1-7.34,8.18s9.87,5.44,9.87,5.18S167.58,93.08,167.58,93.08Z"/><path class="cls-15" d="M167,103.4s-.15.13-.42.27a1.62,1.62,0,0,1-1.21.12c-1-.28-2-1.77-2.14-3.44a5.35,5.35,0,0,1,.26-2.35,1.87,1.87,0,0,1,1.11-1.34.83.83,0,0,1,1,.37c.15.25.1.44.15.45s.19-.17.08-.55a1,1,0,0,0-.41-.55,1.22,1.22,0,0,0-.91-.16,2.28,2.28,0,0,0-1.57,1.58,5.5,5.5,0,0,0-.35,2.63c.21,1.86,1.31,3.53,2.68,3.81a1.74,1.74,0,0,0,1.46-.37C167,103.63,167,103.42,167,103.4Z"/><path class="cls-4" d="M177.92,73.85s1.37-7.65,18.5-6.58c8.35.52,9.91,8.57,9.91,8.57A3.59,3.59,0,0,1,210.23,79a5.29,5.29,0,0,1-2.45,4.77c-1.55,1.06-3.49,1.27-5.35,1.55C190.93,87,182.9,80.38,177,79.79s-3.86,4.64-3.86,4.64c1.82,9.84-1.72,12.36-4.55,18l-1.51,0-1.34-7.82a6.19,6.19,0,0,1-1.09-2.27h0c-.89-2.89-1.13-5.93-2.14-8.78-2.34-6.61,2.25-9.9,2.25-9.9S167,69.9,177.92,73.85Z"/><path class="cls-4" d="M194,112.33c.06.07-.16.42-.73.7a3.08,3.08,0,0,1-4.19-1.65c-.22-.6-.15-1-.06-1s.58,1.42,2.08,2S193.91,112.15,194,112.33Z"/><path class="cls-4" d="M186.65,90.34c-.1.2-1.17-.17-2.51-.06s-2.35.61-2.47.43.83-1.09,2.42-1.2S186.77,90.17,186.65,90.34Z"/><path class="cls-4" d="M202.14,90.26c-.11.19-1.08-.17-2.31-.3s-2.26,0-2.32-.21,1-.72,2.41-.56S202.26,90.09,202.14,90.26Z"/><path class="cls-4" d="M179.07,67.36c0,.12-.49.09-1,.47A2.68,2.68,0,0,0,177,70.07a4.89,4.89,0,0,0,.71,2.57c.36.61.69.94.62,1s-.53-.11-1.06-.71a4.34,4.34,0,0,1-1-2.92,2.92,2.92,0,0,1,1.57-2.7C178.58,67,179.11,67.27,179.07,67.36Z"/><path class="cls-6" d="M182.5,541.54l.06-13.74-25.73-.27-.3,20.1,1.59.12c7.1.47,36.11,1.89,40.87.5C204.31,546.7,182.5,541.54,182.5,541.54Z"/><g class="cls-13"><path d="M165.86,547.53a8.93,8.93,0,0,0-3.23-5.52,8.67,8.67,0,0,0-6-1.93l-.08,7.19Z"/></g><path class="cls-13" d="M193.15,544.44s7.64,2.29,6.67,3.54-30.35.92-43.29-.36l0-.57,34.26.68S191.65,544.49,193.15,544.44Z"/><path class="cls-4" d="M156.17,547a2.36,2.36,0,0,0,.44.05l1.27.09,4.67.25c3.95.19,9.41.37,15.44.44s11.49,0,15.45-.08l4.68-.14,1.27-.06a2.41,2.41,0,0,0,.44,0,2.39,2.39,0,0,0-.44,0h-1.27l-4.68,0c-4,0-9.41.06-15.44,0s-11.48-.22-15.43-.35l-4.68-.15-1.27,0A2.39,2.39,0,0,0,156.17,547Z"/><path class="cls-4" d="M190.83,548.13a6.8,6.8,0,0,1,2.51-4,4.16,4.16,0,0,0-2.51,4Z"/><ellipse class="cls-4" cx="183.97" cy="543.13" rx="1.27" ry="0.16" transform="translate(-371.63 401.2) rotate(-56.96)"/><ellipse class="cls-4" cx="182.02" cy="542.36" rx="1.08" ry="0.16" transform="translate(-312.67 255.01) rotate(-41.3)"/><ellipse class="cls-4" cx="181.26" cy="540.66" rx="0.16" ry="1.34" transform="translate(-363.32 709.75) rotate(-88.72)"/><path class="cls-4" d="M179.48,538.91a3.78,3.78,0,0,0,3,.26,115.68,115.68,0,0,1-3-.26Z"/><path class="cls-4" d="M184.17,542a4.77,4.77,0,0,0,1.65,0,9.68,9.68,0,0,0,1.76-.37,4.82,4.82,0,0,0,1-.4.89.89,0,0,0,.41-.51.65.65,0,0,0-.24-.66,3,3,0,0,0-3.76.84,3,3,0,0,0-.55,1.1.92.92,0,0,0,0,.45,4.67,4.67,0,0,1,.77-1.4,3,3,0,0,1,1.42-.9,2.56,2.56,0,0,1,2,.16c.26.2.15.51-.14.68a4.94,4.94,0,0,1-.93.39,11.39,11.39,0,0,1-1.71.42C184.81,541.91,184.17,541.91,184.17,542Z"/><path class="cls-4" d="M184.6,542a1.63,1.63,0,0,0,.2-1.15,2.71,2.71,0,0,0-.44-1.21,1.66,1.66,0,0,0-1.37-.86.66.66,0,0,0-.52.76,1.81,1.81,0,0,0,.27.74,5,5,0,0,0,.77,1,2.38,2.38,0,0,0,.94.68s-.33-.3-.78-.83a5.77,5.77,0,0,1-.68-1c-.22-.35-.37-1,0-1.05s.83.38,1.08.71a2.72,2.72,0,0,1,.46,1.08A6,6,0,0,1,184.6,542Z"/><path class="cls-4" d="M156.77,540c0,.06.74-.06,1.9.09a8.06,8.06,0,0,1,6.68,5.45c.38,1.11.41,1.85.47,1.84a1.49,1.49,0,0,0,0-.52,6.77,6.77,0,0,0-.26-1.39,7.82,7.82,0,0,0-6.87-5.6,6.78,6.78,0,0,0-1.42,0A1.49,1.49,0,0,0,156.77,540Z"/><ellipse class="cls-4" cx="159.43" cy="534.61" rx="5.29" ry="0.16" transform="matrix(0.02, -1, 1, 0.02, -378.83, 681.24)"/><path class="cls-4" d="M169.12,545.05a21.13,21.13,0,0,0,7.52.16c0-.09-1.69,0-3.76-.05S169.13,545,169.12,545.05Z"/><path class="cls-4" d="M164.08,545c-.06.06.13.36.3.75s.26.73.35.73.14-.41-.06-.85S164.14,544.93,164.08,545Z"/><ellipse class="cls-4" cx="162.68" cy="543.1" rx="0.16" ry="0.69" transform="translate(-331.45 265.16) rotate(-43.97)"/><path class="cls-4" d="M159.5,541.49c0,.09.36.09.74.23s.65.34.71.28-.14-.42-.61-.58S159.47,541.41,159.5,541.49Z"/><ellipse class="cls-4" cx="157.95" cy="541.12" rx="0.16" ry="0.41" transform="translate(-403.09 486.49) rotate(-68.17)"/><path class="cls-6" d="M209.46,537l3.43-13.3L188,517.14l-5.23,19.41,1.52.51c6.76,2.2,34.54,10.71,39.5,10.53C229.33,547.39,209.46,537,209.46,537Z"/><g class="cls-13"><path d="M191.86,538.74a8.93,8.93,0,0,0-1.77-6.14,8.67,8.67,0,0,0-5.34-3.35l-1.85,7Z"/></g><path class="cls-13" d="M219.07,542.46s6.84,4.1,5.59,5.07-29.64-6.56-41.88-11L183,536l33,9.08S217.61,542.14,219.07,542.46Z"/><path class="cls-4" d="M182.59,535.89a2.36,2.36,0,0,0,.42.16l1.21.4,4.47,1.39c3.78,1.15,9,2.67,14.85,4.23s11.14,2.84,15,3.72l4.57,1,1.25.25a2.42,2.42,0,0,0,.44.07,2.36,2.36,0,0,0-.43-.13l-1.23-.31-4.55-1.11c-3.84-.94-9.13-2.26-15-3.81s-11.08-3-14.87-4.14l-4.5-1.3L183,536A2.41,2.41,0,0,0,182.59,535.89Z"/><path class="cls-4" d="M215.92,545.47a6.8,6.8,0,0,1,3.42-3.25,4.16,4.16,0,0,0-3.42,3.25Z"/><ellipse class="cls-4" cx="210.5" cy="538.93" rx="1.27" ry="0.16" transform="translate(-309.79 285.84) rotate(-42.72)"/><ellipse class="cls-4" cx="208.8" cy="537.7" rx="1.08" ry="0.16" transform="translate(-221.81 153.91) rotate(-27.07)"/><ellipse class="cls-4" cx="208.48" cy="535.87" rx="0.16" ry="1.34" transform="translate(-363.63 593.43) rotate(-74.49)"/><path class="cls-4" d="M207.19,533.74a3.78,3.78,0,0,0,2.88,1,115.76,115.76,0,0,1-2.88-1Z"/><path class="cls-4" d="M211,537.85a4.77,4.77,0,0,0,1.6.41,9.67,9.67,0,0,0,1.8.08,4.82,4.82,0,0,0,1.08-.14.89.89,0,0,0,.53-.39.65.65,0,0,0-.07-.7,3,3,0,0,0-3.85-.11,3,3,0,0,0-.8.93c-.14.26-.17.41-.16.42a4.67,4.67,0,0,1,1.09-1.17,3,3,0,0,1,1.6-.52,2.56,2.56,0,0,1,1.87.64c.2.26,0,.53-.3.62a4.94,4.94,0,0,1-1,.15,11.4,11.4,0,0,1-1.76,0C211.61,538,211,537.8,211,537.85Z"/><path class="cls-4" d="M211.38,538a1.63,1.63,0,0,0,.48-1.06,2.71,2.71,0,0,0-.13-1.28,1.66,1.66,0,0,0-1.11-1.17.66.66,0,0,0-.69.61,1.81,1.81,0,0,0,.08.79,5,5,0,0,0,.5,1.17,2.39,2.39,0,0,0,.74.89s-.24-.37-.55-1a5.79,5.79,0,0,1-.41-1.14c-.13-.4-.12-1,.3-1s.71.57.87,1a2.72,2.72,0,0,1,.18,1.16A6,6,0,0,1,211.38,538Z"/><path class="cls-4" d="M184.91,529.22c0,.06.73.12,1.82.55a8.06,8.06,0,0,1,5.14,6.92c.1,1.17-.06,1.89,0,1.9a1.49,1.49,0,0,0,.13-.5,6.78,6.78,0,0,0,.08-1.41,7.82,7.82,0,0,0-5.28-7.11,6.76,6.76,0,0,0-1.38-.33A1.49,1.49,0,0,0,184.91,529.22Z"/><ellipse class="cls-4" cx="188.81" cy="524.64" rx="5.29" ry="0.16" transform="translate(-367.28 565.45) rotate(-74.4)"/><path class="cls-4" d="M195.64,537.15a21.14,21.14,0,0,0,7.25,2c0-.09-1.64-.42-3.63-1S195.67,537.06,195.64,537.15Z"/><path class="cls-4" d="M190.76,535.85c-.08,0,0,.38.11.8s.07.77.16.79.23-.36.15-.84S190.83,535.8,190.76,535.85Z"/><ellipse class="cls-4" cx="189.87" cy="533.67" rx="0.16" ry="0.69" transform="translate(-239.7 164.45) rotate(-29.74)"/><path class="cls-4" d="M187.18,531.33c0,.09.33.17.66.4s.54.49.62.45,0-.44-.45-.71S187.18,531.25,187.18,531.33Z"/><ellipse class="cls-4" cx="185.78" cy="530.59" rx="0.16" ry="0.41" transform="translate(-352.5 368.45) rotate(-53.94)"/><path class="cls-14" d="M222.49,259.93A110.55,110.55,0,0,0,212,268.46c-3.15,2.88,3.09,20,6.5,17s12.78-14.84,12.78-14.84Z"/><path class="cls-15" d="M218,285.74s9.72-1.1,9.45-3.1-2.41-4.41-2.41-4.41Z"/><path class="cls-4" d="M221.82,274.86l-30.28-2.28h0l-49.8-4,6,267.43,43.23-.63s0-3-.11-8.2l25.35,6.9s24.57-83.47,32.94-117.73C256.1,387.81,221.82,274.86,221.82,274.86ZM190.3,485.64c-.75-61.73-1.66-166.7-.78-179.54,0,0,24.21,92.38,24.45,99.67C214.11,410.21,200.77,452.88,190.3,485.64Z"/><ellipse class="cls-9" cx="169.57" cy="525.29" rx="21.6" ry="0.43" transform="translate(-0.81 0.26) rotate(-0.09)"/><path class="cls-9" d="M190.77,515.65a24.17,24.17,0,0,1,4,1.25l9.9,3.44,9.9,3.44a23.12,23.12,0,0,1,4.05,1.59,21,21,0,0,1-4.24-1c-2.58-.74-6.12-1.86-10-3.2s-7.34-2.67-9.83-3.68S190.73,515.76,190.77,515.65Z"/><path class="cls-9" d="M190.15,480.23a10.93,10.93,0,0,1,.13,2.09l.09,5.7.31,18.8.54,18.8.17,5.7a10.93,10.93,0,0,1,0,2.1,10.93,10.93,0,0,1-.26-2.08c-.12-1.34-.26-3.29-.41-5.69-.3-4.81-.6-11.46-.77-18.81s-.16-14-.08-18.82c0-2.41.09-4.36.15-5.7A10.94,10.94,0,0,1,190.15,480.23Z"/><ellipse class="cls-9" cx="221.38" cy="405.57" rx="8.2" ry="0.43" transform="translate(-30.3 18.08) rotate(-4.38)"/><ellipse class="cls-9" cx="220.63" cy="408.04" rx="0.43" ry="6.37" transform="translate(-232.46 507.44) rotate(-73.97)"/><path class="cls-9" d="M192.13,272.91a33.38,33.38,0,0,1,.24,5.1c0,3.15.06,7.49,0,12.3,0,2.39-.06,4.67-.08,6.77a13.36,13.36,0,0,1-1,5.52,7.22,7.22,0,0,1-2.43,2.91,2.82,2.82,0,0,1-1.25.59c0-.06.41-.27,1.07-.83a7.6,7.6,0,0,0,2.11-2.9,13.57,13.57,0,0,0,.8-5.31c0-2.1,0-4.38,0-6.77,0-4.8.11-9.15.2-12.3A33.41,33.41,0,0,1,192.13,272.91Z"/><path class="cls-6" d="M228.17,159.18l33,37c9.69,11.71,7.83,27.29.16,40.42-11.67,20-28.06,37.16-28.22,37.37s-13.32-18.43-13.32-18.43,20.38-32.59,17.1-40-25.25-34.61-25.25-34.61Z"/><path class="cls-6" d="M218.25,189.31l1,50.16,3.9,35.7L140.45,270l4.33-41.59-4.22-43.89-23-19.29q2.37-3.18,4.59-5.85c10.25-12.34,27.88-20,43.91-20.61,0,0,3.5,5.73,16.76,6,9.28.18,11-6,11-6,6.18.38,23.18,3.29,36.35,22.88h0"/><path class="cls-6" d="M125.12,156.75,92.27,193.89c-9.66,11.74-7.75,27.32,0,40.42,11.73,19.93,33.49,42.9,33.3,42.71s13.72-17.19,13.72-17.19-25.89-39.24-22.63-46.7S144,181.31,144,181.31Z"/><path class="cls-4" d="M225.6,156.79a4.39,4.39,0,0,1-.53.88,11.18,11.18,0,0,1-2,2.11A16.33,16.33,0,0,1,212.88,163,29.62,29.62,0,0,1,205.5,162c-2.59-.67-5.29-1.63-8.11-2.59a49.79,49.79,0,0,0-9-2.34,23.7,23.7,0,0,0-9.82.73c-6.57,1.82-12.52,5.14-18.69,5.48a18.34,18.34,0,0,1-4.44-.25,18.61,18.61,0,0,1-4-1.31,35.78,35.78,0,0,1-6.35-3.89,66.26,66.26,0,0,0-8.82-6c-2.24-1.15-3.62-1.47-3.59-1.56a5,5,0,0,1,1,.23,16.16,16.16,0,0,1,2.73,1.05,59.43,59.43,0,0,1,9,5.84,36.08,36.08,0,0,0,6.29,3.75,18.12,18.12,0,0,0,3.85,1.23,17.77,17.77,0,0,0,4.27.2c5.94-.36,11.84-3.66,18.53-5.52a24.31,24.31,0,0,1,10.13-.74,49.6,49.6,0,0,1,9.13,2.42c2.83,1,5.49,2,8,2.64a29.62,29.62,0,0,0,7.22,1.14,16.38,16.38,0,0,0,10-2.94A15.82,15.82,0,0,0,225.6,156.79Z"/><path class="cls-4" d="M244.67,177.23a1.29,1.29,0,0,1-.35-.1l-1-.37a31.88,31.88,0,0,0-3.9-1.13,30.88,30.88,0,0,0-14.76.3,28.49,28.49,0,0,0-4.63,1.67c-1.56.7-3.11,1.61-4.75,2.51a33.43,33.43,0,0,1-5.27,2.49,15.64,15.64,0,0,1-3,.72,13.5,13.5,0,0,1-3.18,0c-4.32-.54-8.18-3-12.35-4.62a17.6,17.6,0,0,0-6.62-1.39,22.9,22.9,0,0,0-6.9,1.22c-4.56,1.46-8.83,3.63-13.36,4.64a22.83,22.83,0,0,1-13.13-1.07,66.53,66.53,0,0,1-10.7-5.31,82.62,82.62,0,0,0-9.15-4.79c-5.79-2.54-11.13-2.63-14.52-1.78a17.56,17.56,0,0,0-5,2.15s.09-.09.28-.23a8.34,8.34,0,0,1,.88-.6,13.66,13.66,0,0,1,3.77-1.6,19.65,19.65,0,0,1,6.47-.53,27.53,27.53,0,0,1,8.33,2.1,80.86,80.86,0,0,1,9.25,4.74,66.94,66.94,0,0,0,10.62,5.19,22.17,22.17,0,0,0,12.72,1c4.41-1,8.64-3.15,13.29-4.63a23.57,23.57,0,0,1,7.14-1.25,18.32,18.32,0,0,1,6.9,1.46c4.26,1.7,8.06,4.1,12.16,4.62a12.83,12.83,0,0,0,3,0,15,15,0,0,0,2.87-.67,33.12,33.12,0,0,0,5.18-2.41c1.63-.88,3.21-1.79,4.81-2.49a28.74,28.74,0,0,1,4.73-1.66,30.45,30.45,0,0,1,15-.06A20.87,20.87,0,0,1,244.67,177.23Z"/><path class="cls-4" d="M218.66,206.39a2.41,2.41,0,0,1-.64.51,6.5,6.5,0,0,1-2.19.88,12.83,12.83,0,0,1-8.43-1.54c-1.65-.8-3.35-1.84-5.25-2.76a23,23,0,0,0-6.38-2c-4.69-.79-10-.29-15.37.83s-10.51,2.54-15.31,3.17A33.19,33.19,0,0,1,152.3,205a20.32,20.32,0,0,1-7.79-3.7,12.83,12.83,0,0,1-1.72-1.6,3.23,3.23,0,0,1-.51-.64c.06-.06.79.81,2.42,2a21.09,21.09,0,0,0,7.73,3.41,33.49,33.49,0,0,0,12.56.27c4.73-.66,9.81-2.09,15.25-3.22s10.83-1.62,15.64-.78a23.28,23.28,0,0,1,6.55,2.13c1.93,1,3.61,2,5.21,2.85a12.86,12.86,0,0,0,8.13,1.74A9.25,9.25,0,0,0,218.66,206.39Z"/><path class="cls-4" d="M219.64,227.4a15.75,15.75,0,0,0-2.51-1.64,14.61,14.61,0,0,0-7.95-1.14c-3.45.3-7.3,1.88-11.7,3.31a28.86,28.86,0,0,1-7.15,1.44,33.29,33.29,0,0,1-7.82-.49c-5.29-.92-10.12-2.55-14.57-3.67a44.39,44.39,0,0,0-12-1.58,22.43,22.43,0,0,0-8,1.57c-1.78.76-2.67,1.39-2.71,1.31a3,3,0,0,1,.63-.47,15.21,15.21,0,0,1,2-1.12,21.4,21.4,0,0,1,8.08-1.84,43.24,43.24,0,0,1,12.21,1.44c4.5,1.09,9.32,2.7,14.52,3.6a33.11,33.11,0,0,0,7.64.5,28.61,28.61,0,0,0,7-1.37c4.36-1.38,8.3-2.94,11.86-3.18a14.4,14.4,0,0,1,8.14,1.42A6.76,6.76,0,0,1,219.64,227.4Z"/><path class="cls-4" d="M221.18,252.8s0,.06-.16.14a3.84,3.84,0,0,1-.52.34,6.94,6.94,0,0,1-2.27.77,10.77,10.77,0,0,1-3.79-.1,24.4,24.4,0,0,1-4.74-1.59,35.28,35.28,0,0,0-12.3-3.27,33.14,33.14,0,0,0-7.51.31,64.47,64.47,0,0,0-7.9,1.92,78.85,78.85,0,0,1-8,2,40.55,40.55,0,0,1-7.65.67,42.39,42.39,0,0,1-12.78-2.1,39.6,39.6,0,0,1-7.95-3.62,23.73,23.73,0,0,1-2-1.3,3.32,3.32,0,0,1-.65-.51c0-.07,1,.58,2.79,1.55a44,44,0,0,0,8,3.36,43.27,43.27,0,0,0,12.62,1.91,40.7,40.7,0,0,0,7.51-.7,81.19,81.19,0,0,0,7.89-2,63.22,63.22,0,0,1,8-1.92,33.27,33.27,0,0,1,7.69-.27,34.91,34.91,0,0,1,12.47,3.48,25.06,25.06,0,0,0,4.61,1.67,10.92,10.92,0,0,0,3.66.22A9.29,9.29,0,0,0,221.18,252.8Z"/><path class="cls-4" d="M98.26,186.06c.07,0,.23.43.76,1.08a7.09,7.09,0,0,0,2.89,2,17.79,17.79,0,0,0,5.19,1.07,17.57,17.57,0,0,1,6.54,1.52,12.88,12.88,0,0,1,4.63,4.89,31.51,31.51,0,0,0,3,4.44,10.45,10.45,0,0,0,3.92,2.84,2.86,2.86,0,0,1-1.32-.31,8.65,8.65,0,0,1-3-2.16,27.86,27.86,0,0,1-3.18-4.42,12.64,12.64,0,0,0-4.39-4.59,17.84,17.84,0,0,0-6.26-1.5,17,17,0,0,1-5.32-1.27,6.77,6.77,0,0,1-2.92-2.29A2.43,2.43,0,0,1,98.26,186.06Z"/><path class="cls-4" d="M116.56,216.09a2.94,2.94,0,0,1-1,.88,8.46,8.46,0,0,1-3.36,1.25,14.71,14.71,0,0,1-5.3-.21,53.57,53.57,0,0,1-6.14-1.92,22.88,22.88,0,0,0-6.11-1.41,10.93,10.93,0,0,0-4.95.88,8.2,8.2,0,0,0-3.47,3.06,2.75,2.75,0,0,1,.52-1.21,6.92,6.92,0,0,1,2.72-2.35A11,11,0,0,1,94.7,214a22,22,0,0,1,6.33,1.39c2.15.74,4.16,1.52,6,2a15.21,15.21,0,0,0,5.07.37A11,11,0,0,0,116.56,216.09Z"/><path class="cls-4" d="M122.49,233.69c0,.07-.4-.11-1.09-.18a4.83,4.83,0,0,0-2.79.67,8.28,8.28,0,0,0-3,3c-.89,1.41-1.6,3.14-2.69,4.84a9.4,9.4,0,0,1-4.29,3.69,9.89,9.89,0,0,1-4.56.76,8.24,8.24,0,0,1-3-.76c-.66-.31-1-.58-1-.61a14.78,14.78,0,0,0,4,.83,9.91,9.91,0,0,0,4.25-.87,9,9,0,0,0,3.93-3.46c1-1.61,1.77-3.35,2.73-4.8a8.45,8.45,0,0,1,3.4-3.14,4.75,4.75,0,0,1,3.09-.48C122.18,233.39,122.51,233.66,122.49,233.69Z"/><path class="cls-4" d="M133,251.27a9.08,9.08,0,0,1-1.1,3.38,19.06,19.06,0,0,1-13.28,10.17,9.07,9.07,0,0,1-3.55.18c0-.14,1.35-.18,3.43-.71a20.81,20.81,0,0,0,12.92-9.89C132.52,252.53,132.91,251.23,133,251.27Z"/><path class="cls-4" d="M256,189.92a2.29,2.29,0,0,1-.28,1.27,5.7,5.7,0,0,1-2.47,2.57,9.67,9.67,0,0,1-5.15,1.15c-2,0-4.11-.41-6.31-.41a19.05,19.05,0,0,0-10.62,3.34c-2.4,1.65-3.53,3.12-3.64,3a3.69,3.69,0,0,1,.74-1.06,15.82,15.82,0,0,1,2.58-2.41,18.4,18.4,0,0,1,10.94-3.67c2.3,0,4.42.42,6.33.47a9.5,9.5,0,0,0,4.87-.92,5.83,5.83,0,0,0,2.46-2.22C255.8,190.37,255.89,189.91,256,189.92Z"/><path class="cls-4" d="M267.63,217.53c0,.05-.37-.32-1.14-.64a5.16,5.16,0,0,0-3.43-.07,22.58,22.58,0,0,0-4.7,2.5,27.85,27.85,0,0,1-6.1,2.77,14.08,14.08,0,0,1-6.72.47,10.88,10.88,0,0,1-5-2.36,7.81,7.81,0,0,1-2.22-3,4.47,4.47,0,0,1-.29-1c0-.23-.06-.35,0-.35a10,10,0,0,0,2.89,3.87,10.79,10.79,0,0,0,4.76,2.08,13.89,13.89,0,0,0,6.37-.51,29.47,29.47,0,0,0,6-2.65,20.77,20.77,0,0,1,4.91-2.41,5.18,5.18,0,0,1,3.7.33C267.41,217,267.66,217.51,267.63,217.53Z"/><path class="cls-4" d="M247.53,257.31a11.43,11.43,0,0,0-.58-4,8.11,8.11,0,0,0-2.49-3.43,10.34,10.34,0,0,0-4.9-1.83,21.58,21.58,0,0,1-2.8-.67,9.33,9.33,0,0,1-2.43-1.25,9.71,9.71,0,0,1-3-3.47,8.71,8.71,0,0,1-.89-2.94,2.43,2.43,0,0,1,0-1.12,15.72,15.72,0,0,0,1.35,3.8,9.73,9.73,0,0,0,2.9,3.15,11.78,11.78,0,0,0,5,1.74,10.6,10.6,0,0,1,5.2,2,8.28,8.28,0,0,1,2.56,3.8,7.31,7.31,0,0,1,.34,3.06A2.31,2.31,0,0,1,247.53,257.31Z"/><ellipse class="cls-8" cx="123.18" cy="182.48" rx="0.39" ry="2.22" transform="translate(-30.01 24.35) rotate(-10.07)"/><ellipse class="cls-8" cx="135.08" cy="164.73" rx="2.58" ry="0.39" transform="translate(-29.2 29.11) rotate(-11.11)"/><ellipse class="cls-8" cx="167.5" cy="169.07" rx="0.39" ry="2.46" transform="translate(-70.07 183.29) rotate(-48.69)"/><ellipse class="cls-8" cx="204.08" cy="171.24" rx="3.44" ry="0.39" transform="translate(-59.76 208.14) rotate(-47.96)"/><ellipse class="cls-8" cx="227.47" cy="168.41" rx="0.39" ry="2.98" transform="translate(-41.35 256.96) rotate(-54.75)"/><path class="cls-8" d="M156.66,216.31c-.06.2-1.68-.16-3.34-1.3s-2.59-2.52-2.43-2.64,1.3.94,2.87,2S156.73,216.1,156.66,216.31Z"/><ellipse class="cls-8" cx="179.25" cy="216.76" rx="3.51" ry="0.39" transform="translate(-100.61 188.55) rotate(-44.66)"/><ellipse class="cls-8" cx="196.66" cy="216.69" rx="0.39" ry="3.53" transform="translate(-91.03 270.24) rotate(-58.32)"/><ellipse class="cls-8" cx="214.93" cy="215.06" rx="1.81" ry="0.39" transform="translate(-87.9 187.85) rotate(-39.88)"/><path class="cls-8" d="M208.15,191.93c-.2-.07.08-1.38.93-2.79s1.87-2.27,2-2.13-.56,1.2-1.36,2.53S208.36,192,208.15,191.93Z"/><ellipse class="cls-8" cx="187.34" cy="186.34" rx="0.39" ry="2.21" transform="translate(-76.68 197.05) rotate(-47.17)"/><ellipse class="cls-8" cx="160.33" cy="194.21" rx="2.21" ry="0.39" transform="translate(-89.36 161.38) rotate(-42.97)"/><ellipse class="cls-8" cx="232.95" cy="187.11" rx="0.39" ry="2.24" transform="translate(-53.2 273.11) rotate(-55.5)"/><ellipse class="cls-8" cx="244.13" cy="208.41" rx="3.29" ry="0.39" transform="translate(-34.92 367.03) rotate(-70.1)"/><ellipse class="cls-8" cx="239.85" cy="234.06" rx="0.39" ry="2.85" transform="translate(-68.89 103.7) rotate(-21.41)"/><path class="cls-8" d="M231.17,258.25c-.22,0-.23-1.22-.36-2.65s-.32-2.6-.11-2.67.75,1.07.88,2.6S231.37,258.29,231.17,258.25Z"/><ellipse class="cls-8" cx="207.01" cy="237.98" rx="2.7" ry="0.39" transform="translate(-106.03 199.31) rotate(-41.94)"/><ellipse class="cls-8" cx="191.35" cy="238.22" rx="0.39" ry="3.14" transform="translate(-103.19 156.92) rotate(-35.8)"/><ellipse class="cls-8" cx="169.24" cy="239.09" rx="3.03" ry="0.39" transform="translate(-121.2 201) rotate(-47.24)"/><ellipse class="cls-8" cx="154.04" cy="238.84" rx="0.39" ry="2.34" transform="matrix(0.84, -0.54, 0.54, 0.84, -105.22, 122.4)"/><ellipse class="cls-8" cx="153.57" cy="263.62" rx="0.39" ry="1.96" transform="translate(-142.77 191.06) rotate(-46.02)"/><ellipse class="cls-8" cx="171.1" cy="264.03" rx="2.04" ry="0.39" transform="translate(-139.05 211.16) rotate(-47.38)"/><ellipse class="cls-8" cx="192.22" cy="263.86" rx="0.39" ry="4.05" transform="translate(-120.9 171.53) rotate(-37.5)"/><ellipse class="cls-8" cx="209.84" cy="264.91" rx="3.6" ry="0.39" transform="translate(-125.23 220.82) rotate(-44.12)"/><ellipse class="cls-8" cx="116.03" cy="252.31" rx="2.9" ry="0.39" transform="translate(-144.57 348.25) rotate(-85.51)"/><ellipse class="cls-8" cx="123.19" cy="248.02" rx="0.39" ry="2.28" transform="translate(-153.46 260.28) rotate(-66.12)"/><ellipse class="cls-8" cx="99.93" cy="231.76" rx="0.39" ry="2.5" transform="translate(-148.64 275.48) rotate(-76.65)"/><ellipse class="cls-8" cx="113.1" cy="225.61" rx="3.36" ry="0.39" transform="translate(-139.27 226.27) rotate(-63.52)"/><path class="cls-8" d="M95.31,198.38c.21-.07.86,1.28,1.83,2.83s1.88,2.75,1.72,2.9-1.37-.85-2.38-2.5S95.11,198.45,95.31,198.38Z"/><path class="cls-8" d="M108.56,204.33c0,.22-.64.5-1.34,1s-1.23,1-1.42.88.12-.94,1-1.52S108.54,204.13,108.56,204.33Z"/><ellipse class="cls-8" cx="153.45" cy="151.57" rx="0.39" ry="3.16" transform="translate(-53.74 91.66) rotate(-28.52)"/><ellipse class="cls-8" cx="171.71" cy="151.42" rx="3.49" ry="0.39" transform="translate(-55.46 123.05) rotate(-34.29)"/><ellipse class="cls-8" cx="200.03" cy="150.92" rx="0.39" ry="3.79" transform="translate(-32.64 243.94) rotate(-58.83)"/><ellipse class="cls-8" cx="215.69" cy="151" rx="2.81" ry="0.39" transform="translate(31.22 338.86) rotate(-80.52)"/><path class="cls-4" d="M225.6,156.79a4.39,4.39,0,0,1-.53.88,11.18,11.18,0,0,1-2,2.11A16.33,16.33,0,0,1,212.88,163,29.62,29.62,0,0,1,205.5,162c-2.59-.67-5.29-1.63-8.11-2.59a49.79,49.79,0,0,0-9-2.34,23.7,23.7,0,0,0-9.82.73c-6.57,1.82-12.52,5.14-18.69,5.48a18.34,18.34,0,0,1-4.44-.25,18.61,18.61,0,0,1-4-1.31,35.78,35.78,0,0,1-6.35-3.89,66.26,66.26,0,0,0-8.82-6c-2.24-1.15-3.62-1.47-3.59-1.56a5,5,0,0,1,1,.23,16.16,16.16,0,0,1,2.73,1.05,59.43,59.43,0,0,1,9,5.84,36.08,36.08,0,0,0,6.29,3.75,18.12,18.12,0,0,0,3.85,1.23,17.77,17.77,0,0,0,4.27.2c5.94-.36,11.84-3.66,18.53-5.52a24.31,24.31,0,0,1,10.13-.74,49.6,49.6,0,0,1,9.13,2.42c2.83,1,5.49,2,8,2.64a29.62,29.62,0,0,0,7.22,1.14,16.38,16.38,0,0,0,10-2.94A15.82,15.82,0,0,0,225.6,156.79Z"/><path class="cls-4" d="M244.67,177.23a1.29,1.29,0,0,1-.35-.1l-1-.37a31.88,31.88,0,0,0-3.9-1.13,30.88,30.88,0,0,0-14.76.3,28.49,28.49,0,0,0-4.63,1.67c-1.56.7-3.11,1.61-4.75,2.51a33.43,33.43,0,0,1-5.27,2.49,15.64,15.64,0,0,1-3,.72,13.5,13.5,0,0,1-3.18,0c-4.32-.54-8.18-3-12.35-4.62a17.6,17.6,0,0,0-6.62-1.39,22.9,22.9,0,0,0-6.9,1.22c-4.56,1.46-8.83,3.63-13.36,4.64a22.83,22.83,0,0,1-13.13-1.07,66.53,66.53,0,0,1-10.7-5.31,82.62,82.62,0,0,0-9.15-4.79c-5.79-2.54-11.13-2.63-14.52-1.78a17.56,17.56,0,0,0-5,2.15s.09-.09.28-.23a8.34,8.34,0,0,1,.88-.6,13.66,13.66,0,0,1,3.77-1.6,19.65,19.65,0,0,1,6.47-.53,27.53,27.53,0,0,1,8.33,2.1,80.86,80.86,0,0,1,9.25,4.74,66.94,66.94,0,0,0,10.62,5.19,22.17,22.17,0,0,0,12.72,1c4.41-1,8.64-3.15,13.29-4.63a23.57,23.57,0,0,1,7.14-1.25,18.32,18.32,0,0,1,6.9,1.46c4.26,1.7,8.06,4.1,12.16,4.62a12.83,12.83,0,0,0,3,0,15,15,0,0,0,2.87-.67,33.12,33.12,0,0,0,5.18-2.41c1.63-.88,3.21-1.79,4.81-2.49a28.74,28.74,0,0,1,4.73-1.66,30.45,30.45,0,0,1,15-.06A20.87,20.87,0,0,1,244.67,177.23Z"/><path class="cls-4" d="M218.66,206.39a2.41,2.41,0,0,1-.64.51,6.5,6.5,0,0,1-2.19.88,12.83,12.83,0,0,1-8.43-1.54c-1.65-.8-3.35-1.84-5.25-2.76a23,23,0,0,0-6.38-2c-4.69-.79-10-.29-15.37.83s-10.51,2.54-15.31,3.17A33.19,33.19,0,0,1,152.3,205a20.32,20.32,0,0,1-7.79-3.7,12.83,12.83,0,0,1-1.72-1.6,3.23,3.23,0,0,1-.51-.64c.06-.06.79.81,2.42,2a21.09,21.09,0,0,0,7.73,3.41,33.49,33.49,0,0,0,12.56.27c4.73-.66,9.81-2.09,15.25-3.22s10.83-1.62,15.64-.78a23.28,23.28,0,0,1,6.55,2.13c1.93,1,3.61,2,5.21,2.85a12.86,12.86,0,0,0,8.13,1.74A9.25,9.25,0,0,0,218.66,206.39Z"/><path class="cls-4" d="M219.64,227.4a15.75,15.75,0,0,0-2.51-1.64,14.61,14.61,0,0,0-7.95-1.14c-3.45.3-7.3,1.88-11.7,3.31a28.86,28.86,0,0,1-7.15,1.44,33.29,33.29,0,0,1-7.82-.49c-5.29-.92-10.12-2.55-14.57-3.67a44.39,44.39,0,0,0-12-1.58,22.43,22.43,0,0,0-8,1.57c-1.78.76-2.67,1.39-2.71,1.31a3,3,0,0,1,.63-.47,15.21,15.21,0,0,1,2-1.12,21.4,21.4,0,0,1,8.08-1.84,43.24,43.24,0,0,1,12.21,1.44c4.5,1.09,9.32,2.7,14.52,3.6a33.11,33.11,0,0,0,7.64.5,28.61,28.61,0,0,0,7-1.37c4.36-1.38,8.3-2.94,11.86-3.18a14.4,14.4,0,0,1,8.14,1.42A6.76,6.76,0,0,1,219.64,227.4Z"/><path class="cls-4" d="M221.18,252.8s0,.06-.16.14a3.84,3.84,0,0,1-.52.34,6.94,6.94,0,0,1-2.27.77,10.77,10.77,0,0,1-3.79-.1,24.4,24.4,0,0,1-4.74-1.59,35.28,35.28,0,0,0-12.3-3.27,33.14,33.14,0,0,0-7.51.31,64.47,64.47,0,0,0-7.9,1.92,78.85,78.85,0,0,1-8,2,40.55,40.55,0,0,1-7.65.67,42.39,42.39,0,0,1-12.78-2.1,39.6,39.6,0,0,1-7.95-3.62,23.73,23.73,0,0,1-2-1.3,3.32,3.32,0,0,1-.65-.51c0-.07,1,.58,2.79,1.55a44,44,0,0,0,8,3.36,43.27,43.27,0,0,0,12.62,1.91,40.7,40.7,0,0,0,7.51-.7,81.19,81.19,0,0,0,7.89-2,63.22,63.22,0,0,1,8-1.92,33.27,33.27,0,0,1,7.69-.27,34.91,34.91,0,0,1,12.47,3.48,25.06,25.06,0,0,0,4.61,1.67,10.92,10.92,0,0,0,3.66.22A9.29,9.29,0,0,0,221.18,252.8Z"/><path class="cls-4" d="M98.26,186.06c.07,0,.23.43.76,1.08a7.09,7.09,0,0,0,2.89,2,17.79,17.79,0,0,0,5.19,1.07,17.57,17.57,0,0,1,6.54,1.52,12.88,12.88,0,0,1,4.63,4.89,31.51,31.51,0,0,0,3,4.44,10.45,10.45,0,0,0,3.92,2.84,2.86,2.86,0,0,1-1.32-.31,8.65,8.65,0,0,1-3-2.16,27.86,27.86,0,0,1-3.18-4.42,12.64,12.64,0,0,0-4.39-4.59,17.84,17.84,0,0,0-6.26-1.5,17,17,0,0,1-5.32-1.27,6.77,6.77,0,0,1-2.92-2.29A2.43,2.43,0,0,1,98.26,186.06Z"/><path class="cls-4" d="M116.56,216.09a2.94,2.94,0,0,1-1,.88,8.46,8.46,0,0,1-3.36,1.25,14.71,14.71,0,0,1-5.3-.21,53.57,53.57,0,0,1-6.14-1.92,22.88,22.88,0,0,0-6.11-1.41,10.93,10.93,0,0,0-4.95.88,8.2,8.2,0,0,0-3.47,3.06,2.75,2.75,0,0,1,.52-1.21,6.92,6.92,0,0,1,2.72-2.35A11,11,0,0,1,94.7,214a22,22,0,0,1,6.33,1.39c2.15.74,4.16,1.52,6,2a15.21,15.21,0,0,0,5.07.37A11,11,0,0,0,116.56,216.09Z"/><path class="cls-4" d="M122.49,233.69c0,.07-.4-.11-1.09-.18a4.83,4.83,0,0,0-2.79.67,8.28,8.28,0,0,0-3,3c-.89,1.41-1.6,3.14-2.69,4.84a9.4,9.4,0,0,1-4.29,3.69,9.89,9.89,0,0,1-4.56.76,8.24,8.24,0,0,1-3-.76c-.66-.31-1-.58-1-.61a14.78,14.78,0,0,0,4,.83,9.91,9.91,0,0,0,4.25-.87,9,9,0,0,0,3.93-3.46c1-1.61,1.77-3.35,2.73-4.8a8.45,8.45,0,0,1,3.4-3.14,4.75,4.75,0,0,1,3.09-.48C122.18,233.39,122.51,233.66,122.49,233.69Z"/><path class="cls-4" d="M133,251.27a9.08,9.08,0,0,1-1.1,3.38,19.06,19.06,0,0,1-13.28,10.17,9.07,9.07,0,0,1-3.55.18c0-.14,1.35-.18,3.43-.71a20.81,20.81,0,0,0,12.92-9.89C132.52,252.53,132.91,251.23,133,251.27Z"/><path class="cls-4" d="M256,189.92a2.29,2.29,0,0,1-.28,1.27,5.7,5.7,0,0,1-2.47,2.57,9.67,9.67,0,0,1-5.15,1.15c-2,0-4.11-.41-6.31-.41a19.05,19.05,0,0,0-10.62,3.34c-2.4,1.65-3.53,3.12-3.64,3a3.69,3.69,0,0,1,.74-1.06,15.82,15.82,0,0,1,2.58-2.41,18.4,18.4,0,0,1,10.94-3.67c2.3,0,4.42.42,6.33.47a9.5,9.5,0,0,0,4.87-.92,5.83,5.83,0,0,0,2.46-2.22C255.8,190.37,255.89,189.91,256,189.92Z"/><path class="cls-4" d="M267.63,217.53c0,.05-.37-.32-1.14-.64a5.16,5.16,0,0,0-3.43-.07,22.58,22.58,0,0,0-4.7,2.5,27.85,27.85,0,0,1-6.1,2.77,14.08,14.08,0,0,1-6.72.47,10.88,10.88,0,0,1-5-2.36,7.81,7.81,0,0,1-2.22-3,4.47,4.47,0,0,1-.29-1c0-.23-.06-.35,0-.35a10,10,0,0,0,2.89,3.87,10.79,10.79,0,0,0,4.76,2.08,13.89,13.89,0,0,0,6.37-.51,29.47,29.47,0,0,0,6-2.65,20.77,20.77,0,0,1,4.91-2.41,5.18,5.18,0,0,1,3.7.33C267.41,217,267.66,217.51,267.63,217.53Z"/><path class="cls-4" d="M247.53,257.31a11.43,11.43,0,0,0-.58-4,8.11,8.11,0,0,0-2.49-3.43,10.34,10.34,0,0,0-4.9-1.83,21.58,21.58,0,0,1-2.8-.67,9.33,9.33,0,0,1-2.43-1.25,9.71,9.71,0,0,1-3-3.47,8.71,8.71,0,0,1-.89-2.94,2.43,2.43,0,0,1,0-1.12,15.72,15.72,0,0,0,1.35,3.8,9.73,9.73,0,0,0,2.9,3.15,11.78,11.78,0,0,0,5,1.74,10.6,10.6,0,0,1,5.2,2,8.28,8.28,0,0,1,2.56,3.8,7.31,7.31,0,0,1,.34,3.06A2.31,2.31,0,0,1,247.53,257.31Z"/><ellipse class="cls-8" cx="123.18" cy="182.48" rx="0.39" ry="2.22" transform="translate(-30.01 24.35) rotate(-10.07)"/><ellipse class="cls-8" cx="135.08" cy="164.73" rx="2.58" ry="0.39" transform="translate(-29.2 29.11) rotate(-11.11)"/><ellipse class="cls-8" cx="167.5" cy="169.07" rx="0.39" ry="2.46" transform="translate(-70.07 183.29) rotate(-48.69)"/><ellipse class="cls-8" cx="204.08" cy="171.24" rx="3.44" ry="0.39" transform="translate(-59.76 208.14) rotate(-47.96)"/><ellipse class="cls-8" cx="227.47" cy="168.41" rx="0.39" ry="2.98" transform="translate(-41.35 256.96) rotate(-54.75)"/><path class="cls-8" d="M156.66,216.31c-.06.2-1.68-.16-3.34-1.3s-2.59-2.52-2.43-2.64,1.3.94,2.87,2S156.73,216.1,156.66,216.31Z"/><ellipse class="cls-8" cx="179.25" cy="216.76" rx="3.51" ry="0.39" transform="translate(-100.61 188.55) rotate(-44.66)"/><ellipse class="cls-8" cx="196.66" cy="216.69" rx="0.39" ry="3.53" transform="translate(-91.03 270.24) rotate(-58.32)"/><ellipse class="cls-8" cx="214.93" cy="215.06" rx="1.81" ry="0.39" transform="translate(-87.9 187.85) rotate(-39.88)"/><path class="cls-8" d="M208.15,191.93c-.2-.07.08-1.38.93-2.79s1.87-2.27,2-2.13-.56,1.2-1.36,2.53S208.36,192,208.15,191.93Z"/><ellipse class="cls-8" cx="187.34" cy="186.34" rx="0.39" ry="2.21" transform="translate(-76.68 197.05) rotate(-47.17)"/><ellipse class="cls-8" cx="160.33" cy="194.21" rx="2.21" ry="0.39" transform="translate(-89.36 161.38) rotate(-42.97)"/><ellipse class="cls-8" cx="232.95" cy="187.11" rx="0.39" ry="2.24" transform="translate(-53.2 273.11) rotate(-55.5)"/><ellipse class="cls-8" cx="244.13" cy="208.41" rx="3.29" ry="0.39" transform="translate(-34.92 367.03) rotate(-70.1)"/><ellipse class="cls-8" cx="239.85" cy="234.06" rx="0.39" ry="2.85" transform="translate(-68.89 103.7) rotate(-21.41)"/><path class="cls-8" d="M231.17,258.25c-.22,0-.23-1.22-.36-2.65s-.32-2.6-.11-2.67.75,1.07.88,2.6S231.37,258.29,231.17,258.25Z"/><ellipse class="cls-8" cx="207.01" cy="237.98" rx="2.7" ry="0.39" transform="translate(-106.03 199.31) rotate(-41.94)"/><ellipse class="cls-8" cx="191.35" cy="238.22" rx="0.39" ry="3.14" transform="translate(-103.19 156.92) rotate(-35.8)"/><ellipse class="cls-8" cx="169.24" cy="239.09" rx="3.03" ry="0.39" transform="translate(-121.2 201) rotate(-47.24)"/><ellipse class="cls-8" cx="154.04" cy="238.84" rx="0.39" ry="2.34" transform="matrix(0.84, -0.54, 0.54, 0.84, -105.22, 122.4)"/><ellipse class="cls-8" cx="153.57" cy="263.62" rx="0.39" ry="1.96" transform="translate(-142.77 191.06) rotate(-46.02)"/><ellipse class="cls-8" cx="171.1" cy="264.03" rx="2.04" ry="0.39" transform="translate(-139.05 211.16) rotate(-47.38)"/><ellipse class="cls-8" cx="192.22" cy="263.86" rx="0.39" ry="4.05" transform="translate(-120.9 171.53) rotate(-37.5)"/><ellipse class="cls-8" cx="209.84" cy="264.91" rx="3.6" ry="0.39" transform="translate(-125.23 220.82) rotate(-44.12)"/><ellipse class="cls-8" cx="116.03" cy="252.31" rx="2.9" ry="0.39" transform="translate(-144.57 348.25) rotate(-85.51)"/><ellipse class="cls-8" cx="123.19" cy="248.02" rx="0.39" ry="2.28" transform="translate(-153.46 260.28) rotate(-66.12)"/><ellipse class="cls-8" cx="99.93" cy="231.76" rx="0.39" ry="2.5" transform="translate(-148.64 275.48) rotate(-76.65)"/><ellipse class="cls-8" cx="113.1" cy="225.61" rx="3.36" ry="0.39" transform="translate(-139.27 226.27) rotate(-63.52)"/><path class="cls-8" d="M95.31,198.38c.21-.07.86,1.28,1.83,2.83s1.88,2.75,1.72,2.9-1.37-.85-2.38-2.5S95.11,198.45,95.31,198.38Z"/><path class="cls-8" d="M108.56,204.33c0,.22-.64.5-1.34,1s-1.23,1-1.42.88.12-.94,1-1.52S108.54,204.13,108.56,204.33Z"/><ellipse class="cls-8" cx="153.45" cy="151.57" rx="0.39" ry="3.16" transform="translate(-53.74 91.66) rotate(-28.52)"/><ellipse class="cls-8" cx="171.71" cy="151.42" rx="3.49" ry="0.39" transform="translate(-55.46 123.05) rotate(-34.29)"/><ellipse class="cls-8" cx="200.03" cy="150.92" rx="0.39" ry="3.79" transform="translate(-32.64 243.94) rotate(-58.83)"/><ellipse class="cls-8" cx="215.69" cy="151" rx="2.81" ry="0.39" transform="translate(31.22 338.86) rotate(-80.52)"/><path class="cls-14" d="M136,263.28a110.58,110.58,0,0,1,10.55,8.49c3.16,2.88-3,20-6.45,17S127.25,274,127.25,274Z"/><path class="cls-15" d="M140.57,289.08s-9.73-1.07-9.46-3.07,2.39-4.42,2.39-4.42Z"/><path class="cls-4" d="M537.69,83.43a3.3,3.3,0,0,1-1.35.08,5.38,5.38,0,0,1-3.35-1.9c-2.48-2.51-2.08-8.88,2.7-12.84a4,4,0,0,1,2.3-.62,3.24,3.24,0,0,1,2.3,1,2.89,2.89,0,0,1,.64,2.52,5.25,5.25,0,0,1-1.23,2.39A9.5,9.5,0,0,1,529,76a8.38,8.38,0,0,1-4.34-4.35,10,10,0,0,1-.54-6.4,9.07,9.07,0,0,1,1.39-3A5.86,5.86,0,0,1,528.15,60a3.25,3.25,0,0,1,1.79-.2,2.3,2.3,0,0,1,1.52,1.06,4,4,0,0,1,0,3.54,10,10,0,0,1-11.58,5.2,9.51,9.51,0,0,1-5.13-3.86A10.06,10.06,0,0,1,513,59.83a7.2,7.2,0,0,1,2.36-5.34,4.5,4.5,0,0,1,2.7-1,3.47,3.47,0,0,1,2.61,1,4.4,4.4,0,0,1,.46,5,5.82,5.82,0,0,1-4,2.62,8.44,8.44,0,0,1-4.33-.26A9.91,9.91,0,0,1,509.48,60a10.44,10.44,0,0,1-2.18-2.55,10.75,10.75,0,0,1-1.18-2.56,9.16,9.16,0,0,1-.35-3.86,7.32,7.32,0,0,1,.29-1.32s-.09.46-.19,1.33a9.41,9.41,0,0,0,.44,3.79,10.69,10.69,0,0,0,1.19,2.49,10.27,10.27,0,0,0,2.16,2.46,9.65,9.65,0,0,0,3.27,1.82,8.12,8.12,0,0,0,4.15.22,5.45,5.45,0,0,0,3.68-2.46,4,4,0,0,0-.42-4.54,3.56,3.56,0,0,0-4.71,0,6.75,6.75,0,0,0-2.17,5,9.59,9.59,0,0,0,1.66,5.62A9,9,0,0,0,520,69.13a9.5,9.5,0,0,0,11-4.92,3.51,3.51,0,0,0,.08-3.06,1.78,1.78,0,0,0-1.18-.82,2.74,2.74,0,0,0-1.51.18,5.36,5.36,0,0,0-2.41,2,8.56,8.56,0,0,0-1.32,2.88,9.49,9.49,0,0,0,.5,6.08,7.9,7.9,0,0,0,4.08,4.11,9.07,9.07,0,0,0,10.18-1.79,4.85,4.85,0,0,0,1.14-2.19,2.48,2.48,0,0,0-.53-2.18,2.85,2.85,0,0,0-2-.88,3.64,3.64,0,0,0-2.1.55,8,8,0,0,0-2.69,3.16,12.36,12.36,0,0,0-1.29,3.54,6.71,6.71,0,0,0,1.24,5.69,5.36,5.36,0,0,0,3.21,1.92A6.72,6.72,0,0,0,537.69,83.43Z"/><path class="cls-4" d="M319.59,259.14a1.72,1.72,0,0,1-.36.21l-1.1.56a38,38,0,0,0-4,2.46,35.3,35.3,0,0,0-11.22,12.94,25.18,25.18,0,0,0-3,11.38,12.62,12.62,0,0,0,1.69,6.23,9.84,9.84,0,0,0,5.09,4.38,5.83,5.83,0,0,0,3.42.23,3.38,3.38,0,0,0,2.56-2,3.12,3.12,0,0,0-.9-3.14,5.31,5.31,0,0,0-3.29-1.46,19.42,19.42,0,0,0-3.91.06,32.5,32.5,0,0,0-4,.6,21.67,21.67,0,0,0-7.51,3.06c-4.56,3-7.4,8.59-6.18,13.63a8.49,8.49,0,0,0,4.44,5.68,5.79,5.79,0,0,0,6.5-1.11,4.57,4.57,0,0,0,1.44-2.93,4.89,4.89,0,0,0-.9-3.08,6.66,6.66,0,0,0-5.49-2.76,12.6,12.6,0,0,0-10,5.21,12.8,12.8,0,0,0-2.62,9.13,13.8,13.8,0,0,0,2.72,6.78,13.66,13.66,0,0,0,3.39,3.2c.89.6,1.43.82,1.4.86a7.25,7.25,0,0,1-1.49-.73,13.06,13.06,0,0,1-3.55-3.15,14,14,0,0,1-2.91-6.91,13.67,13.67,0,0,1,13.1-15,7.32,7.32,0,0,1,6,3,5.57,5.57,0,0,1,1,3.51,5.28,5.28,0,0,1-1.63,3.4,6.67,6.67,0,0,1-3.41,1.78,6.37,6.37,0,0,1-3.9-.5,9.22,9.22,0,0,1-4.87-6.17,12.29,12.29,0,0,1,1-8.11,15.52,15.52,0,0,1,5.52-6.34,22.38,22.38,0,0,1,7.78-3.17,33.16,33.16,0,0,1,4.06-.61,20,20,0,0,1,4.07,0,6.06,6.06,0,0,1,3.74,1.69,3.86,3.86,0,0,1,1.06,3.91,4.1,4.1,0,0,1-3.09,2.49,6.56,6.56,0,0,1-3.83-.27,10.52,10.52,0,0,1-5.45-4.7,13.25,13.25,0,0,1-1.74-6.56,25.59,25.59,0,0,1,3.13-11.64,34.89,34.89,0,0,1,11.54-12.94A25.17,25.17,0,0,1,319.59,259.14Z"/><path class="cls-4" d="M44.93,201.15a8.07,8.07,0,0,1-.92-.9,12.18,12.18,0,0,1-2-3.1,14.06,14.06,0,0,1-1.28-5.7A13.32,13.32,0,0,1,42.9,184,53.64,53.64,0,0,1,49,176.88a28.58,28.58,0,0,0,3.15-4.09,13,13,0,0,0,1.9-5,10.44,10.44,0,0,0-.86-5.53A23.81,23.81,0,0,0,50,157.15c-1.24-1.63-2.61-3.22-3.87-5a23.7,23.7,0,0,1-3.1-5.74,14.34,14.34,0,0,1-.86-6.48,11.13,11.13,0,0,1,2.54-5.82,8.24,8.24,0,0,1,5.36-3,4.71,4.71,0,0,1,3,.61,3.18,3.18,0,0,1,1.51,2.6A2.84,2.84,0,0,1,53,136.84a3.78,3.78,0,0,1-2.83.27,8.82,8.82,0,0,1-4.18-3.22,18.63,18.63,0,0,1-3.6-8.65,28.22,28.22,0,0,1-.06-7.75,52.07,52.07,0,0,1,1-5.75c.37-1.56.69-2.76.91-3.57l.26-.92a1.43,1.43,0,0,1,.11-.31,1.43,1.43,0,0,1-.05.32l-.21.94-.81,3.59a55.58,55.58,0,0,0-.95,5.74,28.31,28.31,0,0,0,.14,7.65,18.3,18.3,0,0,0,3.57,8.43,8.4,8.4,0,0,0,4,3,3.27,3.27,0,0,0,2.46-.25,2.33,2.33,0,0,0,1.34-2,2.67,2.67,0,0,0-1.28-2.16,4.19,4.19,0,0,0-2.66-.52,7.7,7.7,0,0,0-5,2.78A10.6,10.6,0,0,0,42.73,140a13.82,13.82,0,0,0,.83,6.23,23.22,23.22,0,0,0,3,5.6c1.23,1.71,2.6,3.31,3.85,5a24.25,24.25,0,0,1,3.21,5.2,11,11,0,0,1,.88,5.81,13.46,13.46,0,0,1-2,5.22,28.86,28.86,0,0,1-3.23,4.15,54.25,54.25,0,0,0-6.07,7.06A13.06,13.06,0,0,0,41,191.45a14,14,0,0,0,1.16,5.61,12.88,12.88,0,0,0,1.91,3.11C44.63,200.82,44.95,201.13,44.93,201.15Z"/><path class="cls-12" d="M51.81,43c-13.27-1.78-23,5.18-27.41,15.77s-2.22,23,3.31,33.08c3.08,5.59,7.67,10.95,13.92,12.23,5.1,1,10.49-.89,14.55-4.16s7-7.75,9.42-12.34c4.4-8.19,7-17.44,6-26.67C70.71,52.83,62.42,44.2,51.81,43"/><path class="cls-12" d="M43.72,103.22c-.49.69-1.56,3.08-1.94,3.83a1.35,1.35,0,0,0-.18,1.14,1,1,0,0,0,1.17.38,2.78,2.78,0,0,0,1.05-.82,1.28,1.28,0,1,0,2.48-.56,2.27,2.27,0,0,0,1,.86c.43.14,1-.09,1-.54a1.14,1.14,0,0,0-.34-.76l-2.62-3.29"/><path class="cls-4" d="M722.66,373.28a8.1,8.1,0,0,1-.92-.9,12.18,12.18,0,0,1-2-3.1,14.06,14.06,0,0,1-1.28-5.7,13.33,13.33,0,0,1,2.19-7.4,53.66,53.66,0,0,1,6.06-7.17,28.58,28.58,0,0,0,3.15-4.09,13,13,0,0,0,1.9-5,10.44,10.44,0,0,0-.86-5.53,23.82,23.82,0,0,0-3.16-5.08c-1.24-1.63-2.61-3.22-3.87-5a23.7,23.7,0,0,1-3.1-5.74,14.34,14.34,0,0,1-.86-6.48,11.14,11.14,0,0,1,2.54-5.82,8.24,8.24,0,0,1,5.36-3,4.71,4.71,0,0,1,3,.61,3.18,3.18,0,0,1,1.51,2.6,2.84,2.84,0,0,1-1.62,2.44,3.78,3.78,0,0,1-2.83.27,8.82,8.82,0,0,1-4.18-3.22,18.63,18.63,0,0,1-3.6-8.65,28.22,28.22,0,0,1-.06-7.75,52.07,52.07,0,0,1,1-5.75c.37-1.56.69-2.76.91-3.57l.26-.92a.16.16,0,1,1,.06,0l-.21.94-.81,3.59a55.62,55.62,0,0,0-.95,5.74,28.31,28.31,0,0,0,.14,7.65,18.3,18.3,0,0,0,3.57,8.43,8.4,8.4,0,0,0,4,3,3.27,3.27,0,0,0,2.46-.25,2.33,2.33,0,0,0,1.34-2,2.67,2.67,0,0,0-1.28-2.16,4.19,4.19,0,0,0-2.66-.52,7.7,7.7,0,0,0-5,2.78,10.6,10.6,0,0,0-2.41,5.54,13.82,13.82,0,0,0,.83,6.23,23.21,23.21,0,0,0,3,5.6c1.23,1.71,2.59,3.31,3.85,5a24.24,24.24,0,0,1,3.21,5.2,11,11,0,0,1,.88,5.81,13.45,13.45,0,0,1-2,5.22,28.88,28.88,0,0,1-3.23,4.15,54.27,54.27,0,0,0-6.07,7.06,13.06,13.06,0,0,0-2.21,7.18,14,14,0,0,0,1.16,5.61,12.89,12.89,0,0,0,1.91,3.11C722.36,372.95,722.68,373.25,722.66,373.28Z"/><path class="cls-12" d="M729.54,215.13c-13.27-1.78-23,5.18-27.41,15.77s-2.22,23,3.31,33.08c3.08,5.59,7.67,10.95,13.92,12.23,5.1,1.05,10.49-.89,14.55-4.16s7-7.75,9.42-12.34c4.4-8.19,7-17.44,6-26.67-.89-8.09-9.18-16.71-19.79-17.92"/><path class="cls-12" d="M721.45,275.35c-.49.69-1.56,3.08-1.94,3.83a1.35,1.35,0,0,0-.18,1.14,1,1,0,0,0,1.17.38,2.78,2.78,0,0,0,1.05-.82,1.28,1.28,0,1,0,2.48-.56,2.26,2.26,0,0,0,1,.86c.43.14,1-.09,1-.54a1.14,1.14,0,0,0-.34-.76l-2.62-3.29"/><path class="cls-4" d="M490.13,448.88a7.27,7.27,0,0,1-.87-.84,11.43,11.43,0,0,1-1.91-2.92,13.25,13.25,0,0,1-1.21-5.38,12.57,12.57,0,0,1,2.06-7A50.51,50.51,0,0,1,493.9,426a26.91,26.91,0,0,0,3-3.85,12.21,12.21,0,0,0,1.79-4.73,9.81,9.81,0,0,0-.81-5.2,22.42,22.42,0,0,0-3-4.78c-1.17-1.53-2.46-3-3.64-4.67a22.36,22.36,0,0,1-2.93-5.42,13.55,13.55,0,0,1-.81-6.13,10.52,10.52,0,0,1,2.4-5.51,7.79,7.79,0,0,1,5.07-2.79,4.47,4.47,0,0,1,2.85.58,3,3,0,0,1,1.44,2.48,2.71,2.71,0,0,1-1.54,2.32,3.59,3.59,0,0,1-2.69.26,8.33,8.33,0,0,1-4-3,17.57,17.57,0,0,1-3.39-8.17,26.59,26.59,0,0,1-.06-7.31,48.86,48.86,0,0,1,1-5.42c.35-1.47.65-2.6.86-3.37l.25-.87a.16.16,0,1,1,.06,0l-.19.88-.75,3.39a52.6,52.6,0,0,0-.89,5.4,26.67,26.67,0,0,0,.14,7.2,17.22,17.22,0,0,0,3.36,7.93,7.89,7.89,0,0,0,3.71,2.85,3.05,3.05,0,0,0,2.3-.23A2.16,2.16,0,0,0,498.7,386a2.48,2.48,0,0,0-1.19-2,3.92,3.92,0,0,0-2.49-.49,7.23,7.23,0,0,0-4.69,2.61,10,10,0,0,0-2.26,5.2,13,13,0,0,0,.78,5.85,21.85,21.85,0,0,0,2.85,5.27c1.16,1.61,2.44,3.11,3.63,4.66a22.87,22.87,0,0,1,3,4.91,10.35,10.35,0,0,1,.83,5.49,12.71,12.71,0,0,1-1.89,4.93,27.19,27.19,0,0,1-3,3.91,51.17,51.17,0,0,0-5.72,6.65,12.28,12.28,0,0,0-2.09,6.76,13.24,13.24,0,0,0,1.09,5.28,12.18,12.18,0,0,0,1.79,2.93C489.85,448.57,490.15,448.86,490.13,448.88Z"/><path class="cls-6" d="M496.61,299.88c-12.51-1.68-21.71,4.88-25.82,14.86s-2.09,21.71,3.12,31.17c2.9,5.26,7.23,10.32,13.11,11.53,4.81,1,9.88-.84,13.71-3.92s6.56-7.3,8.88-11.63c4.14-7.71,6.61-16.43,5.66-25.13-.84-7.62-8.65-15.75-18.65-16.88"/><path class="cls-6" d="M489,356.62c-.46.65-1.47,2.9-1.83,3.61a1.27,1.27,0,0,0-.17,1.08.9.9,0,0,0,1.1.36,2.62,2.62,0,0,0,1-.78,1.2,1.2,0,1,0,2.34-.53,2.13,2.13,0,0,0,.94.81c.4.13.94-.09,1-.51a1.07,1.07,0,0,0-.32-.72l-2.47-3.1"/></g></g></svg>