<svg xmlns="http://www.w3.org/2000/svg" viewBox="0 0 512.32 399.31"><defs><style>.cls-1{fill:#e0e0e0;}.cls-2{fill:#f5f5f5;}.cls-3{fill:#e5e7fb;}.cls-4{fill:#263238;}.cls-5{fill:#ffbe9d;}.cls-6{fill:#56cc95;}.cls-7{opacity:0.6;}.cls-8{fill:#fff;}.cls-9{fill:#455a64;}.cls-10{fill:#fafafa;}.cls-11{fill:#eb996e;}.cls-12{fill:#346bec;}.cls-13{opacity:0.4;}.cls-14{fill:#b78876;}.cls-15{fill:#a36957;}</style></defs><title>Ресурс 3</title><g id="Слой_2" data-name="Слой 2"><g id="Ballons"><path class="cls-1" d="M36.52,322.47a5.91,5.91,0,0,1-.65-.64,8.68,8.68,0,0,1-1.43-2.2,10,10,0,0,1-.91-4.05,9.47,9.47,0,0,1,1.56-5.25,38.17,38.17,0,0,1,4.31-5.09,20.33,20.33,0,0,0,2.24-2.91A9.25,9.25,0,0,0,43,298.73a7.44,7.44,0,0,0-.61-3.94,17,17,0,0,0-2.25-3.61c-.89-1.16-1.86-2.29-2.75-3.53a16.84,16.84,0,0,1-2.2-4.08,10.19,10.19,0,0,1-.61-4.6,7.9,7.9,0,0,1,1.8-4.13,5.84,5.84,0,0,1,3.8-2.1,3.33,3.33,0,0,1,2.12.43A2.25,2.25,0,0,1,43.38,275a2,2,0,0,1-1.14,1.72,2.67,2.67,0,0,1-2,.19,6.26,6.26,0,0,1-3-2.29,13.24,13.24,0,0,1-2.56-6.15,20.07,20.07,0,0,1,0-5.51,37.13,37.13,0,0,1,.74-4.09c.26-1.11.49-2,.65-2.54l.18-.66a1.1,1.1,0,0,1,.08-.22,1.09,1.09,0,0,1,0,.23l-.15.67-.58,2.56a39.42,39.42,0,0,0-.68,4.08,20.12,20.12,0,0,0,.1,5.44,13,13,0,0,0,2.54,6,6,6,0,0,0,2.82,2.16,2.34,2.34,0,0,0,1.76-.18A1.67,1.67,0,0,0,43,275a1.91,1.91,0,0,0-.92-1.55,3,3,0,0,0-1.9-.37,5.49,5.49,0,0,0-3.56,2A7.55,7.55,0,0,0,34.94,279a9.84,9.84,0,0,0,.59,4.44,16.53,16.53,0,0,0,2.16,4c.88,1.22,1.85,2.35,2.74,3.52a17.23,17.23,0,0,1,2.28,3.7,7.77,7.77,0,0,1,.62,4.12,9.55,9.55,0,0,1-1.42,3.71,20.52,20.52,0,0,1-2.29,2.95,38.57,38.57,0,0,0-4.31,5,9.29,9.29,0,0,0-1.57,5.11,10,10,0,0,0,.83,4,9.14,9.14,0,0,0,1.36,2.21C36.31,322.24,36.54,322.46,36.52,322.47Z"/><path class="cls-2" d="M41.42,210C32,208.74,25,213.69,21.93,221.22s-1.58,16.39,2.35,23.52c2.19,4,5.45,7.79,9.9,8.7,3.63.75,7.46-.63,10.34-3a28,28,0,0,0,6.7-8.78c3.13-5.82,5-12.4,4.27-19C54.86,217,49,210.86,41.42,210"/><path class="cls-2" d="M35.67,252.83c-.35.49-1.11,2.19-1.38,2.73a1,1,0,0,0-.13.81.68.68,0,0,0,.83.27,2,2,0,0,0,.75-.59.91.91,0,1,0,1.76-.4,1.61,1.61,0,0,0,.71.61c.3.1.71-.07.74-.38a.81.81,0,0,0-.24-.54L36.85,253"/><path class="cls-1" d="M437.1,41.27a3.33,3.33,0,0,1-.52-1.26,5.43,5.43,0,0,1,.7-3.81c1.58-3.19,7.77-4.91,13.12-1.66a4.05,4.05,0,0,1,1.35,2,3.26,3.26,0,0,1-.19,2.52,2.91,2.91,0,0,1-2.19,1.44,5.3,5.3,0,0,1-2.68-.38,9.58,9.58,0,0,1-5.38-9.55A8.45,8.45,0,0,1,444,25a10.05,10.05,0,0,1,5.92-2.63,9.14,9.14,0,0,1,3.36.32,5.91,5.91,0,0,1,3,1.79A3.28,3.28,0,0,1,457,26.1a2.32,2.32,0,0,1-.51,1.79A4,4,0,0,1,453.14,29a10.07,10.07,0,0,1-8.78-9.32,9.59,9.59,0,0,1,2-6.16A10.15,10.15,0,0,1,451.43,10a7.26,7.26,0,0,1,5.86.49,4.54,4.54,0,0,1,1.85,2.24A3.49,3.49,0,0,1,459,15.5a4.43,4.43,0,0,1-4.64,2.1,5.87,5.87,0,0,1-3.8-2.9,8.51,8.51,0,0,1-1.18-4.21,10,10,0,0,1,.72-3.83,10.53,10.53,0,0,1,1.71-2.92,10.84,10.84,0,0,1,2.05-2A9.24,9.24,0,0,1,457.46.16,7.39,7.39,0,0,1,458.82,0s-.47.06-1.33.26A9.48,9.48,0,0,0,454,1.93a10.78,10.78,0,0,0-2,2,10.35,10.35,0,0,0-1.63,2.87,9.72,9.72,0,0,0-.66,3.71,8.19,8.19,0,0,0,1.16,4,5.5,5.5,0,0,0,3.55,2.7,4,4,0,0,0,4.18-1.9,3.59,3.59,0,0,0-1.6-4.47,6.81,6.81,0,0,0-5.48-.42,9.67,9.67,0,0,0-4.81,3.43,9.1,9.1,0,0,0-1.88,5.83,9.58,9.58,0,0,0,8.3,8.82,3.53,3.53,0,0,0,2.94-.94,1.8,1.8,0,0,0,.4-1.4,2.77,2.77,0,0,0-.66-1.38,5.4,5.4,0,0,0-2.7-1.63,8.63,8.63,0,0,0-3.17-.31,9.56,9.56,0,0,0-5.62,2.48,8,8,0,0,0-2.57,5.25,9.14,9.14,0,0,0,5.06,9.11,4.89,4.89,0,0,0,2.46.37,2.5,2.5,0,0,0,1.9-1.22,2.87,2.87,0,0,0,.17-2.21,3.67,3.67,0,0,0-1.22-1.82,8.06,8.06,0,0,0-3.9-1.52,12.46,12.46,0,0,0-3.8-.06,6.77,6.77,0,0,0-5,3.06,5.4,5.4,0,0,0-.78,3.69A6.79,6.79,0,0,0,437.1,41.27Z"/><path class="cls-1" d="M213.17,305.17a3.33,3.33,0,0,1-1.36-.08,5.43,5.43,0,0,1-3.12-2.3c-2.18-2.81-1-9.13,4.23-12.53a4.05,4.05,0,0,1,2.38-.35,3.26,3.26,0,0,1,2.18,1.26,2.91,2.91,0,0,1,.34,2.6,5.3,5.3,0,0,1-1.51,2.25,9.58,9.58,0,0,1-10.94.68,8.45,8.45,0,0,1-3.83-4.87,10.05,10.05,0,0,1,.22-6.47,9.14,9.14,0,0,1,1.75-2.89,5.91,5.91,0,0,1,2.9-1.88,3.28,3.28,0,0,1,1.82,0,2.32,2.32,0,0,1,1.39,1.24,4,4,0,0,1-.46,3.54,10.07,10.07,0,0,1-12.21,3.83,9.59,9.59,0,0,1-4.67-4.48,10.15,10.15,0,0,1-1-6.13,7.26,7.26,0,0,1,3-5.06,4.54,4.54,0,0,1,2.82-.69,3.49,3.49,0,0,1,2.49,1.32,4.43,4.43,0,0,1-.13,5.09,5.87,5.87,0,0,1-4.27,2.15,8.51,8.51,0,0,1-4.3-.77,10,10,0,0,1-3.13-2.32,10.53,10.53,0,0,1-1.88-2.81,10.84,10.84,0,0,1-.87-2.71,9.24,9.24,0,0,1,.11-3.91,7.4,7.4,0,0,1,.45-1.29s-.15.45-.35,1.31a9.48,9.48,0,0,0,0,3.85,10.77,10.77,0,0,0,.9,2.64,10.35,10.35,0,0,0,1.87,2.72,9.72,9.72,0,0,0,3.06,2.21,8.19,8.19,0,0,0,4.13.71,5.5,5.5,0,0,0,4-2,4,4,0,0,0,.12-4.59,3.59,3.59,0,0,0-4.72-.51,6.81,6.81,0,0,0-2.77,4.75,9.67,9.67,0,0,0,1,5.83,9.1,9.1,0,0,0,4.43,4.23,9.58,9.58,0,0,0,11.56-3.62,3.53,3.53,0,0,0,.44-3.06,1.8,1.8,0,0,0-1.08-1,2.77,2.77,0,0,0-1.53,0,5.4,5.4,0,0,0-2.65,1.72,8.63,8.63,0,0,0-1.66,2.72,9.56,9.56,0,0,0-.22,6.14,8,8,0,0,0,3.6,4.6,9.14,9.14,0,0,0,10.4-.58,4.89,4.89,0,0,0,1.4-2.06,2.5,2.5,0,0,0-.27-2.24,2.87,2.87,0,0,0-1.92-1.12,3.67,3.67,0,0,0-2.16.3,8.06,8.06,0,0,0-3.06,2.85,12.45,12.45,0,0,0-1.71,3.39,6.77,6.77,0,0,0,.57,5.85,5.4,5.4,0,0,0,3,2.31A6.78,6.78,0,0,0,213.17,305.17Z"/><path class="cls-1" d="M211.65,92.64a1.15,1.15,0,0,1,.05-.28l.2-.8a25.52,25.52,0,0,0,.52-3.13A23.73,23.73,0,0,0,210.8,77a16.92,16.92,0,0,0-4.47-6.52,8.48,8.48,0,0,0-3.91-1.89,6.61,6.61,0,0,0-4.46.66,3.92,3.92,0,0,0-1.62,1.64,2.27,2.27,0,0,0-.1,2.19,2.1,2.1,0,0,0,2,.93,3.57,3.57,0,0,0,2.19-1,13.05,13.05,0,0,0,1.69-2,21.86,21.86,0,0,0,1.44-2.28,14.56,14.56,0,0,0,1.75-5.16c.51-3.62-1.1-7.54-4.2-9.14a5.71,5.71,0,0,0-4.84-.24A3.89,3.89,0,0,0,194,58a3.07,3.07,0,0,0,.86,2,3.28,3.28,0,0,0,2,.9,4.47,4.47,0,0,0,3.82-1.57,8.47,8.47,0,0,0,1.77-7.39,8.6,8.6,0,0,0-3.48-5.35,9.27,9.27,0,0,0-4.64-1.6,9.18,9.18,0,0,0-3.12.31c-.7.19-1,.37-1.05.33a4.88,4.88,0,0,1,1-.43,8.78,8.78,0,0,1,3.16-.41,9.38,9.38,0,0,1,4.79,1.57,9.19,9.19,0,0,1,1.87,13.27,4.92,4.92,0,0,1-4.19,1.73,3.74,3.74,0,0,1-2.24-1,3.55,3.55,0,0,1-1-2.33,4.48,4.48,0,0,1,.6-2.51,4.28,4.28,0,0,1,2-1.76,6.2,6.2,0,0,1,5.28.24A8.26,8.26,0,0,1,205,58a10.43,10.43,0,0,1,.79,5.6A15,15,0,0,1,204,69a22.27,22.27,0,0,1-1.48,2.33,13.47,13.47,0,0,1-1.77,2.09,4.07,4.07,0,0,1-2.5,1.15,2.6,2.6,0,0,1-2.45-1.18,2.76,2.76,0,0,1,.1-2.66,4.41,4.41,0,0,1,1.82-1.83,7.07,7.07,0,0,1,4.79-.69,8.91,8.91,0,0,1,4.1,2,17.2,17.2,0,0,1,4.53,6.72,23.45,23.45,0,0,1,1.49,11.56A16.92,16.92,0,0,1,211.65,92.64Z"/><ellipse class="cls-3" cx="256.16" cy="369.61" rx="256.16" ry="29.7"/><path class="cls-4" d="M415,71.2c2.71,2.41.6,5.78,2,6.38a8.41,8.41,0,0,1,4.73,7.65c-.07,2.85-2.67,5.42-2,8.19.48,2,2.45,3.17,3.8,4.71,3.48,4,2.5,10.51-1,14.44s-8.89,5.69-14.11,6.47a51.29,51.29,0,0,1-22.64-1.71c-3.2-1-6.41-2.36-8.69-4.82s-3.44-6.2-2.06-9.26c1-2.27,3.35-4.24,2.95-6.7a15.82,15.82,0,0,0-1.37-3.14c-1-2.53-.07-5.44,1.38-7.75s3.39-4.29,4.65-6.71,1.73-5.54.16-7.76"/><path class="cls-5" d="M423.72,112.5s22.51,20.7,23.17,18.27c3.61-13.19,3.17-30.16,2.83-36.66-.35-.57-.74-1.19-1.22-1.88a8.69,8.69,0,0,0-2-2.07,13.32,13.32,0,0,0-3.09-1.85c-1.05-.33-1.19-1.75-.25-2.07s3.86.52,6.53,2.89,1.71-3.1,1.39-5.1-1-8.21-.46-8.78c.79-.83,1.85-.12,2.12,1.88s1.5,8,2.54,7.76-.71-10.33-.71-10.33-.72-2.12.48-2.38c2.17-.47,3.23,10.43,3.3,11.47.05.72,1.2.56,1.1-.22s-2-10.09.23-10.59c1.69-.38,1,9,2.41,10.7s-.16-7.16,1.47-7.46c.61-.11,1.08-.11,1.27,5.12a115.19,115.19,0,0,1-.81,12.58c1,14.36,2.62,58.3-17.15,56.23-23.33-2.43-28.2-21-28.2-21Z"/><path class="cls-5" d="M340.61,162.69a16.8,16.8,0,0,1,.08-22.14l14-15.87,12.18,11.44c-.49.33-13,16.29-13,16.29l17.54,21.86a12.58,12.58,0,0,1,2.08,12l-4.69,11.48L355.92,192l1-1.5h9.63l.57-2.31h0Z"/><path class="cls-6" d="M383.13,364.19l.05-9.23h17.29l.07,13.51-1.07.07c-4.77.27-24.28,1-27.47.06C368.44,367.5,383.13,364.19,383.13,364.19Z"/><g class="cls-7"><path class="cls-8" d="M394.29,368.53a6,6,0,0,1,2.2-3.69,5.83,5.83,0,0,1,4-1.26v4.83Z"/></g><g class="cls-7"><path class="cls-8" d="M376,366.05s-5.15,1.49-4.51,2.34,20.39.82,29.09,0l0-.39-23,.23S377,366.09,376,366.05Z"/></g><path class="cls-4" d="M400.66,367.91l-.3,0-.85.05-3.14.14c-2.65.1-6.32.19-10.38.2s-7.72-.06-10.38-.15l-3.14-.13-.85,0-.3,0h1.15l3.14.06c2.65.05,6.32.1,10.37.09s7.72-.07,10.37-.13l3.14-.07h1.15Z"/><path class="cls-4" d="M377.51,368.61a4.57,4.57,0,0,0-1.66-2.7,2.79,2.79,0,0,1,1.66,2.7Z"/><ellipse class="cls-4" cx="382.48" cy="364.89" rx="0.1" ry="0.85" transform="translate(-136.12 262.47) rotate(-32.48)"/><ellipse class="cls-4" cx="383.79" cy="364.38" rx="0.1" ry="0.73" transform="translate(-143.7 407.05) rotate(-48.14)"/><ellipse class="cls-4" cx="384.31" cy="363.25" rx="0.9" ry="0.1" transform="translate(-4.53 4.86) rotate(-0.72)"/><path class="cls-4" d="M385.52,362.08a2.54,2.54,0,0,1-2,.16,77.73,77.73,0,0,0,2-.16Z"/><path class="cls-4" d="M382.35,364.1a3.2,3.2,0,0,1-1.11,0,6.51,6.51,0,0,1-1.18-.26,3.24,3.24,0,0,1-.68-.28.6.6,0,0,1-.28-.34.44.44,0,0,1,.17-.44,2,2,0,0,1,2.52.59,2,2,0,0,1,.36.74.62.62,0,0,1,0,.3,3.14,3.14,0,0,0-.51-.95,2,2,0,0,0-1-.62,1.72,1.72,0,0,0-1.32.09c-.18.13-.11.34.09.46a3.32,3.32,0,0,0,.63.27,7.66,7.66,0,0,0,1.14.3C381.92,364.07,382.35,364.07,382.35,364.1Z"/><path class="cls-4" d="M382.06,364.16a1.1,1.1,0,0,1-.13-.77,1.82,1.82,0,0,1,.3-.81,1.12,1.12,0,0,1,.92-.57.44.44,0,0,1,.34.51,1.21,1.21,0,0,1-.19.5,3.37,3.37,0,0,1-.52.67,1.6,1.6,0,0,1-.64.45s.22-.2.53-.55a3.88,3.88,0,0,0,.46-.67c.15-.24.26-.66,0-.71s-.56.25-.73.47a1.83,1.83,0,0,0-.31.72A4,4,0,0,0,382.06,364.16Z"/><path class="cls-4" d="M400.77,363.51s-.5,0-1.28,0a5.42,5.42,0,0,0-4.52,3.62c-.26.74-.29,1.24-.33,1.23a1,1,0,0,1,0-.35,4.55,4.55,0,0,1,.19-.93,5.25,5.25,0,0,1,4.65-3.72,4.54,4.54,0,0,1,1,0A1,1,0,0,1,400.77,363.51Z"/><ellipse class="cls-4" cx="399.02" cy="359.33" rx="0.1" ry="3.55" transform="translate(-4.99 5.62) rotate(-0.8)"/><path class="cls-4" d="M392.44,366.28a14.21,14.21,0,0,1-5.05.05c0-.06,1.13,0,2.53,0S392.43,366.22,392.44,366.28Z"/><path class="cls-4" d="M395.83,366.27s-.09.24-.21.5-.18.49-.24.49-.09-.27,0-.57S395.79,366.23,395.83,366.27Z"/><ellipse class="cls-4" cx="396.78" cy="365.01" rx="0.46" ry="0.1" transform="translate(-141.68 391.89) rotate(-45.47)"/><path class="cls-4" d="M398.93,364c0,.06-.24.06-.5.15s-.44.23-.48.19.1-.28.41-.38S398.95,363.9,398.93,364Z"/><ellipse class="cls-4" cx="399.97" cy="363.71" rx="0.28" ry="0.1" transform="matrix(0.93, -0.36, 0.36, 0.93, -104.66, 169.79)"/><path class="cls-6" d="M436.12,364.74l-.05-9.23H418.78L418.71,369l1.07.07c4.77.27,24.28,1,27.47.06C450.81,368.06,436.12,364.74,436.12,364.74Z"/><g class="cls-7"><path class="cls-8" d="M425,369.09a6,6,0,0,0-2.2-3.69,5.83,5.83,0,0,0-4-1.26V369Z"/></g><g class="cls-7"><path class="cls-8" d="M443.27,366.6s5.15,1.49,4.51,2.34-20.39.82-29.09,0l0-.39,23,.23S442.27,366.64,443.27,366.6Z"/></g><path class="cls-4" d="M418.59,368.47l.3,0,.85.05,3.14.14c2.65.1,6.32.19,10.38.2s7.72-.06,10.38-.15l3.14-.13.85,0,.3,0h-1.15l-3.14.06c-2.65.05-6.32.1-10.37.09s-7.72-.07-10.37-.13l-3.14-.07h-1.15Z"/><path class="cls-4" d="M441.74,369.16a4.57,4.57,0,0,1,1.66-2.7,2.79,2.79,0,0,0-1.66,2.7Z"/><ellipse class="cls-4" cx="436.77" cy="365.44" rx="0.85" ry="0.1" transform="translate(-106.07 537.61) rotate(-57.52)"/><ellipse class="cls-4" cx="435.45" cy="364.94" rx="0.73" ry="0.1" transform="translate(-132.39 383.74) rotate(-41.86)"/><ellipse class="cls-4" cx="434.93" cy="363.8" rx="0.1" ry="0.9" transform="translate(65.7 794.13) rotate(-89.28)"/><path class="cls-4" d="M433.73,362.64a2.54,2.54,0,0,0,2,.16,77.82,77.82,0,0,1-2-.16Z"/><path class="cls-4" d="M436.9,364.65a3.2,3.2,0,0,0,1.11,0,6.51,6.51,0,0,0,1.18-.26,3.24,3.24,0,0,0,.68-.28.6.6,0,0,0,.28-.34.44.44,0,0,0-.17-.44,2,2,0,0,0-2.52.59,2,2,0,0,0-.36.74.61.61,0,0,0,0,.3,3.14,3.14,0,0,1,.51-.95,2,2,0,0,1,.95-.62,1.72,1.72,0,0,1,1.32.09c.18.13.11.34-.09.45a3.32,3.32,0,0,1-.62.27,7.66,7.66,0,0,1-1.14.3C437.32,364.62,436.9,364.62,436.9,364.65Z"/><path class="cls-4" d="M437.19,364.71a1.09,1.09,0,0,0,.13-.77,1.82,1.82,0,0,0-.3-.81,1.12,1.12,0,0,0-.92-.57.44.44,0,0,0-.34.51,1.21,1.21,0,0,0,.19.5,3.36,3.36,0,0,0,.52.67,1.6,1.6,0,0,0,.64.45s-.22-.2-.53-.55a3.88,3.88,0,0,1-.46-.67c-.15-.24-.26-.66,0-.71s.56.25.73.47a1.83,1.83,0,0,1,.31.72A4.05,4.05,0,0,1,437.19,364.71Z"/><path class="cls-4" d="M418.47,364.06s.5,0,1.28,0a5.42,5.42,0,0,1,4.52,3.62c.26.74.29,1.24.33,1.23a1,1,0,0,0,0-.35,4.55,4.55,0,0,0-.19-.93,5.26,5.26,0,0,0-4.65-3.72,4.54,4.54,0,0,0-1,0A1,1,0,0,0,418.47,364.06Z"/><ellipse class="cls-4" cx="420.23" cy="359.88" rx="3.55" ry="0.1" transform="translate(54.5 775.03) rotate(-89.2)"/><path class="cls-4" d="M426.81,366.83a14.2,14.2,0,0,0,5.05.05c0-.06-1.13,0-2.53,0S426.81,366.77,426.81,366.83Z"/><path class="cls-4" d="M423.42,366.82s.09.24.21.5.18.49.24.49.09-.27,0-.57S423.45,366.78,423.42,366.82Z"/><ellipse class="cls-4" cx="422.47" cy="365.56" rx="0.1" ry="0.46" transform="translate(-135.07 401.23) rotate(-44.53)"/><path class="cls-4" d="M420.32,364.5c0,.06.24.06.5.15s.44.23.48.19-.1-.28-.41-.38S420.3,364.45,420.32,364.5Z"/><ellipse class="cls-4" cx="419.27" cy="364.26" rx="0.1" ry="0.28" transform="translate(-72.25 622.88) rotate(-68.74)"/><polyline class="cls-9" points="368.05 183.64 376.45 361.04 403.38 361.61 396.4 208.3 414.63 360.96 442.13 361.64 420.6 181.69"/><path class="cls-4" d="M389.14,361.31c-.14,0-2.07-39.64-4.3-88.55s-3.92-88.57-3.78-88.58,2.07,39.63,4.3,88.55S389.28,361.3,389.14,361.31Z"/><path class="cls-4" d="M429.33,359.88c-.14,0-5-38.49-10.78-86s-10.41-86-10.27-86.06,5,38.48,10.78,86S429.48,359.86,429.33,359.88Z"/><path class="cls-6" d="M385.48,99.21l-4.92.91a25.32,25.32,0,0,0-13.81,7.5L349,128.74l16.64,12.88,9.23-10.75s-1.33,6.59-1.06,7.6a7.45,7.45,0,0,0,2.16,3.07l-.33,18.05-7.63,24.05,52.55.55-3.94-25.48.74-25.94,8.82,10,15.06-17.73-17-17.1h0a30.21,30.21,0,0,0-11.71-7.58A24,24,0,0,0,405.89,99"/><path class="cls-10" d="M408.43,140.23a3,3,0,0,1-1.29.81,8.34,8.34,0,0,1-7.18-.39c-.83-.47-1.23-.9-1.19-.95a10.54,10.54,0,0,0,9.66.52Z"/><path class="cls-10" d="M366.13,107.46a2.18,2.18,0,0,1,.92-.37,5.12,5.12,0,0,1,2.71.12,4.86,4.86,0,0,1,3,2.65,5.15,5.15,0,0,1-.34,4.88,5,5,0,0,1-4.41,2.11,4.39,4.39,0,0,1-3.44-2.06,4.5,4.5,0,0,1-.74-2.61,2,2,0,0,1,.21-1s0,.35,0,1a4.62,4.62,0,0,0,.85,2.41,4.06,4.06,0,0,0,3.16,1.78,4.58,4.58,0,0,0,3.95-1.92,4.74,4.74,0,0,0,.34-4.4,4.55,4.55,0,0,0-2.7-2.49,5.37,5.37,0,0,0-2.55-.27C366.47,107.37,366.14,107.5,366.13,107.46Z"/><path class="cls-10" d="M389,112.1s.11,0,.31.08a3.38,3.38,0,0,1,.81.42,5.35,5.35,0,0,1,2.23,5,4.7,4.7,0,0,1-1.13,2.46,5.22,5.22,0,0,1-9.27-3.12,4.83,4.83,0,0,1,.55-2.65,5.52,5.52,0,0,1,4.71-2.84,3.54,3.54,0,0,1,.91.1c.2.05.3.09.3.1s-.44-.05-1.2,0a5.47,5.47,0,0,0-2.94,1.17,4.63,4.63,0,0,0-1.84,4.08,4.77,4.77,0,0,0,8.43,2.84,4.31,4.31,0,0,0,1.07-2.21,4.94,4.94,0,0,0-.16-2.16,5.25,5.25,0,0,0-1.76-2.62C389.39,112.29,389,112.14,389,112.1Z"/><path class="cls-10" d="M367.66,125.72s.11,0,.31.08a3.38,3.38,0,0,1,.81.42,5.35,5.35,0,0,1,2.23,5,4.7,4.7,0,0,1-1.13,2.46,5.22,5.22,0,0,1-9.27-3.12,4.83,4.83,0,0,1,.55-2.65,5.52,5.52,0,0,1,4.71-2.84,3.54,3.54,0,0,1,.91.1c.2.05.3.09.3.1s-.44-.05-1.2,0a5.47,5.47,0,0,0-2.94,1.17,4.63,4.63,0,0,0-1.84,4.09,4.77,4.77,0,0,0,8.43,2.84,4.31,4.31,0,0,0,1.07-2.21,4.94,4.94,0,0,0-.16-2.16,5.25,5.25,0,0,0-1.76-2.62C368.06,125.92,367.64,125.77,367.66,125.72Z"/><path class="cls-10" d="M405.42,123.4s.11,0,.31.08a3.39,3.39,0,0,1,.81.42,5.35,5.35,0,0,1,2.23,5,4.7,4.7,0,0,1-1.13,2.46,5.22,5.22,0,0,1-9.27-3.12,4.83,4.83,0,0,1,.55-2.65,5.52,5.52,0,0,1,4.71-2.84,3.54,3.54,0,0,1,.91.1c.2.05.3.09.3.1s-.44-.05-1.2,0a5.47,5.47,0,0,0-2.94,1.17,4.63,4.63,0,0,0-1.84,4.09,4.77,4.77,0,0,0,8.43,2.84,4.31,4.31,0,0,0,1.07-2.2,4.94,4.94,0,0,0-.16-2.16,5.25,5.25,0,0,0-1.76-2.62C405.82,123.59,405.4,123.44,405.42,123.4Z"/><path class="cls-10" d="M429.32,121.06s.11,0,.31.08a3.39,3.39,0,0,1,.81.42,5.35,5.35,0,0,1,2.23,5,4.7,4.7,0,0,1-1.13,2.46,5.22,5.22,0,0,1-9.27-3.12,4.83,4.83,0,0,1,.55-2.65,5.52,5.52,0,0,1,4.71-2.84,3.54,3.54,0,0,1,.91.1c.2.05.3.09.3.1s-.44-.05-1.2,0a5.47,5.47,0,0,0-2.94,1.17,4.63,4.63,0,0,0-1.84,4.09,4.77,4.77,0,0,0,8.43,2.84,4.31,4.31,0,0,0,1.07-2.21,4.94,4.94,0,0,0-.16-2.16,5.25,5.25,0,0,0-1.76-2.62C429.71,121.25,429.3,121.1,429.32,121.06Z"/><path class="cls-10" d="M414.29,106.53s.11,0,.31.08a3.39,3.39,0,0,1,.81.42,5.35,5.35,0,0,1,2.23,5,4.7,4.7,0,0,1-1.13,2.46,5.22,5.22,0,0,1-9.27-3.12,4.83,4.83,0,0,1,.55-2.65,5.52,5.52,0,0,1,4.71-2.84,3.54,3.54,0,0,1,.91.1c.2.05.3.09.3.1s-.44-.05-1.2,0a5.47,5.47,0,0,0-2.94,1.17,4.63,4.63,0,0,0-1.84,4.08,4.77,4.77,0,0,0,8.43,2.84,4.31,4.31,0,0,0,1.07-2.21,4.94,4.94,0,0,0-.16-2.16,5.25,5.25,0,0,0-1.76-2.62C414.69,106.72,414.27,106.57,414.29,106.53Z"/><path class="cls-10" d="M409.28,147.86s.11,0,.31.08a3.38,3.38,0,0,1,.81.42,5.35,5.35,0,0,1,2.23,5,4.7,4.7,0,0,1-1.13,2.46,5.22,5.22,0,0,1-9.27-3.12,4.83,4.83,0,0,1,.55-2.65,5.52,5.52,0,0,1,4.71-2.84,3.54,3.54,0,0,1,.91.1c.2.05.3.09.3.1s-.44-.05-1.2,0a5.47,5.47,0,0,0-2.94,1.17,4.63,4.63,0,0,0-1.84,4.08,4.77,4.77,0,0,0,8.43,2.84,4.31,4.31,0,0,0,1.07-2.21,4.94,4.94,0,0,0-.16-2.16,5.25,5.25,0,0,0-1.76-2.62C409.67,148.05,409.26,147.91,409.28,147.86Z"/><path class="cls-10" d="M407.7,169.59s.11,0,.31.08a3.39,3.39,0,0,1,.81.42,5.35,5.35,0,0,1,2.23,5,4.7,4.7,0,0,1-1.13,2.46,5.22,5.22,0,0,1-9.27-3.12,4.83,4.83,0,0,1,.55-2.65,5.52,5.52,0,0,1,4.71-2.84,3.53,3.53,0,0,1,.91.1c.2.05.3.09.3.1s-.44-.05-1.2,0a5.47,5.47,0,0,0-2.94,1.17,4.63,4.63,0,0,0-1.84,4.09,4.77,4.77,0,0,0,8.43,2.84,4.31,4.31,0,0,0,1.07-2.2,4.94,4.94,0,0,0-.16-2.16,5.25,5.25,0,0,0-1.76-2.62C408.1,169.78,407.68,169.64,407.7,169.59Z"/><path class="cls-10" d="M381.63,171.78s.11,0,.31.08a3.39,3.39,0,0,1,.81.42,5.35,5.35,0,0,1,2.23,5,4.7,4.7,0,0,1-1.13,2.46,5.22,5.22,0,0,1-9.27-3.12,4.83,4.83,0,0,1,.55-2.65,5.52,5.52,0,0,1,4.71-2.84,3.54,3.54,0,0,1,.91.1c.2.05.3.09.3.1s-.44-.05-1.2,0a5.47,5.47,0,0,0-2.94,1.17,4.63,4.63,0,0,0-1.84,4.09,4.77,4.77,0,0,0,8.43,2.84,4.31,4.31,0,0,0,1.07-2.21,4.94,4.94,0,0,0-.16-2.16,5.25,5.25,0,0,0-1.76-2.62C382,172,381.61,171.82,381.63,171.78Z"/><path class="cls-10" d="M387.35,136s.11,0,.31.08a3.39,3.39,0,0,1,.81.42,5.35,5.35,0,0,1,2.23,5,4.7,4.7,0,0,1-1.13,2.46,5.22,5.22,0,0,1-9.27-3.12,4.83,4.83,0,0,1,.55-2.65,5.52,5.52,0,0,1,4.71-2.84,3.54,3.54,0,0,1,.91.1c.2.05.3.09.3.1s-.44-.05-1.2,0a5.47,5.47,0,0,0-2.94,1.17,4.63,4.63,0,0,0-1.84,4.09,4.77,4.77,0,0,0,8.43,2.84,4.31,4.31,0,0,0,1.07-2.2,4.94,4.94,0,0,0-.16-2.16,5.25,5.25,0,0,0-1.76-2.62C387.75,136.23,387.33,136.08,387.35,136Z"/><path class="cls-10" d="M392.37,155.91s.11,0,.31.08a3.39,3.39,0,0,1,.81.42,5.35,5.35,0,0,1,2.23,5,4.7,4.7,0,0,1-1.13,2.46,5.22,5.22,0,0,1-9.27-3.12,4.83,4.83,0,0,1,.55-2.65,5.52,5.52,0,0,1,4.71-2.84,3.54,3.54,0,0,1,.91.1c.2.05.3.09.3.1s-.44-.05-1.2,0a5.47,5.47,0,0,0-2.94,1.17,4.63,4.63,0,0,0-1.84,4.09,4.77,4.77,0,0,0,8.43,2.84,4.31,4.31,0,0,0,1.07-2.21,4.94,4.94,0,0,0-.16-2.16,5.25,5.25,0,0,0-1.76-2.62C392.76,156.1,392.35,156,392.37,155.91Z"/><path class="cls-5" d="M387.22,100c0-3.35-.06-6.27-.06-6.27S380.4,93,380,86.31s0-22.19,0-22.19l12.33-6,13.56,10.27-1.43,32a8.61,8.61,0,0,1-8.6,8.23h0A8.62,8.62,0,0,1,387.22,100Z"/><circle class="cls-4" cx="382.68" cy="74.81" r="0.86"/><path class="cls-4" d="M380.6,74.46c.11.11.75-.43,1.67-.48s1.62.4,1.72.27-.07-.26-.37-.47a2.28,2.28,0,0,0-2.7.16C380.64,74.2,380.55,74.41,380.6,74.46Z"/><circle class="cls-4" cx="392.84" cy="74.81" r="0.86"/><path class="cls-4" d="M390.85,74.46c.11.11.75-.43,1.67-.48s1.62.4,1.72.27-.07-.26-.37-.47a2.28,2.28,0,0,0-2.7.16C390.89,74.2,390.8,74.41,390.85,74.46Z"/><path class="cls-4" d="M387.52,82.27a4.54,4.54,0,0,1-1.53.13,1.55,1.55,0,0,1-.41,0,.63.63,0,0,1-.43-.36,1.54,1.54,0,0,1,.08-1l.6-1.93a26,26,0,0,1,1.84-4.86,26.07,26.07,0,0,1-1.34,5l-.64,1.92a1.31,1.31,0,0,0-.14.7c0,.13.22.18.46.19A4.54,4.54,0,0,1,387.52,82.27Z"/><path class="cls-11" d="M387.16,93.73a16.09,16.09,0,0,0,8.57-3s-1.83,4.93-8.56,4.66Z"/><path class="cls-4" d="M415.79,74l0,1.19c-.15-1.24-.49-4.06-.69-4.83-3.66-14-16-16.61-18.4-16.61-2.61,0-7.11-1.37-13.83,5.48-5.53,5.63-4.4,13.7-4.4,13.7l2.51-.37L390.84,70c1.41-3,2.08-5.3,2.73-6.83h0a12.44,12.44,0,0,0,11.38,10.4l-.2,20.08C417.81,90.83,415.79,74,415.79,74Z"/><path class="cls-11" d="M389.34,84.51a1.27,1.27,0,0,0-1.62.12,1.2,1.2,0,0,0,0,1.61,1.14,1.14,0,0,0,1.59,0,1.23,1.23,0,0,0,.25-1.12,1.66,1.66,0,0,0-.7-.94"/><path class="cls-4" d="M390.07,83.05c.06,0,.08.32-.08.78a3.17,3.17,0,0,1-3,2c-.49,0-.77-.14-.75-.2a7.58,7.58,0,0,0,2.26-.79C389.62,84.14,389.93,83,390.07,83.05Z"/><path class="cls-4" d="M393.78,72.06c-.11.1-.73-.55-1.7-.59s-1.65.53-1.75.43.05-.27.35-.51a2.19,2.19,0,0,1,2.8.13C393.76,71.78,393.83,72,393.78,72.06Z"/><path class="cls-4" d="M412.93,70.7a10.07,10.07,0,0,1,1.92-4.49,5,5,0,0,1,4.33-1.9,3.88,3.88,0,0,1,3.06,5.34,4.82,4.82,0,0,1-4.72,2.67,8.12,8.12,0,0,1-5.07-2.52"/><path class="cls-5" d="M290.83,106.13l25,6.49s20.67-22.94,21.64-23.74S351.1,92.1,351.1,92.1l-14.72,27.27c-3.52,8.9-8.74,13.91-13.83,14.13l-41-8.13Z"/><path class="cls-5" d="M336.63,89.89s2.86-5.73,3.25-6.59a77,77,0,0,0,2.48-7.67s1.7-.38,1.6,3.43.66,2.75.66,2.75,7.9-9.6,9.82-9c.72.24-.27,2.52-1.58,3.75a26.78,26.78,0,0,0-2.73,3.22s7.43-6.7,9.14-5.64c0,0,.83.66-1.53,2.63a53,53,0,0,0-5.5,5.31s7.37-5.2,8.2-4.64c1.38.93-6.09,6.23-7.33,8.2,0,0,5.56-4.26,5.71-2.89S352.06,89,348.9,95.93Z"/><path class="cls-11" d="M342.57,82.75c0-.05.65.13,1.4.83a5.16,5.16,0,0,1,1.6,3.59l-.46-.16,0,0a6,6,0,0,1,3.44-2,2.83,2.83,0,0,1,1.64,0c0,.09-.62.07-1.56.32a6.43,6.43,0,0,0-3.13,1.94l0,0-.44.49v-.65a5.32,5.32,0,0,0-1.34-3.35C343.08,83.12,342.53,82.83,342.57,82.75Z"/><path class="cls-5" d="M226.91,105.06l-25,6.49s-20.67-22.94-21.64-23.74S166.63,91,166.63,91l14.72,27.27c3.52,8.9,8.74,13.91,13.83,14.13l41-8.13Z"/><path class="cls-5" d="M181.1,88.82s-2.86-5.73-3.25-6.59a77,77,0,0,1-2.48-7.67s-1.7-.38-1.6,3.43-.66,2.75-.66,2.75-7.9-9.6-9.82-9c-.72.24.27,2.52,1.58,3.75a26.78,26.78,0,0,1,2.73,3.22s-7.43-6.7-9.14-5.64c0,0-.83.66,1.53,2.63a53,53,0,0,1,5.5,5.31s-7.37-5.2-8.2-4.64c-1.38.93,6.09,6.23,7.33,8.2,0,0-5.56-4.26-5.71-2.89s6.76,6.17,9.92,13.14Z"/><path class="cls-11" d="M175.16,81.68c0,.08-.5.37-1.13,1.08a5.32,5.32,0,0,0-1.34,3.35v.65l-.44-.49,0,0a6.43,6.43,0,0,0-3.13-1.94c-.93-.26-1.55-.24-1.56-.32a2.83,2.83,0,0,1,1.64,0,6,6,0,0,1,3.44,2l0,0-.46.16a5.16,5.16,0,0,1,1.6-3.59C174.51,81.81,175.14,81.63,175.16,81.68Z"/><path class="cls-4" d="M269,72.25a1.55,1.55,0,0,0,2.08,2c1.05-.46,1.26-1.87,1.12-3s-.46-2.37.07-3.38A7.68,7.68,0,0,1,274.15,66a5,5,0,0,0,1.6-4.12,4.17,4.17,0,0,0-2.68-3.43c-1.48-.5-3.36-.14-4.42-1.29-.77-.83-.75-2.13-1.32-3.1-.89-1.51-2.94-1.86-4.69-1.71s-3.55.6-5.23.09c-1.4-.43-2.52-1.49-3.82-2.17a7.7,7.7,0,0,0-10.58,10,4.92,4.92,0,0,0,2.26,2.49"/><path class="cls-5" d="M267.26,102.09l-16.56-1.32c-.1-1.93,0-9.41,0-9.41s-6.89-1.07-7-8,1.11-22.71,1.11-22.71h0a23.94,23.94,0,0,1,24.06,3l1,.79Z"/><circle class="cls-4" cx="246.99" cy="71.63" r="1" transform="translate(15.91 184.49) rotate(-42.2)"/><path class="cls-4" d="M244.79,71.11c.11.12.78-.4,1.73-.41s1.64.49,1.74.36-.06-.27-.36-.5a2.34,2.34,0,0,0-2.77,0C244.84,70.84,244.74,71.06,244.79,71.11Z"/><circle class="cls-4" cx="257.03" cy="72.13" r="1" transform="matrix(0.85, -0.52, 0.52, 0.85, 0.3, 145.33)"/><path class="cls-4" d="M255.09,71.61c.11.12.78-.4,1.73-.41s1.64.49,1.74.36-.06-.27-.36-.5a2.34,2.34,0,0,0-2.77,0C255.14,71.34,255,71.56,255.09,71.61Z"/><path class="cls-4" d="M251.29,79.62a4.6,4.6,0,0,0-1.53-.33c-.25,0-.44-.08-.46-.22a1.35,1.35,0,0,1,.18-.71l.75-1.93a26.41,26.41,0,0,0,1.62-5.07,26.4,26.4,0,0,0-2.13,4.88L249,78.19a1.58,1.58,0,0,0-.14,1,.65.65,0,0,0,.43.4,1.59,1.59,0,0,0,.42.06A4.6,4.6,0,0,0,251.29,79.62Z"/><path class="cls-8" d="M254.37,80.66A17.77,17.77,0,0,1,249.72,82a2.62,2.62,0,0,0,3.09,1C254.87,82.3,254.37,80.66,254.37,80.66Z"/><path class="cls-11" d="M250.73,91.25a16,16,0,0,0,9-2.55s-2.12,5-9,4.34Z"/><path class="cls-4" d="M244.73,62.42s4,2.33,9.67,0c3.7-1.52,7.93-2.08,8.79-1.29s.79,4.48,4.24,5.81c0,0-.76,7,2.05,7s1.87-11,1.87-11L264.76,59l-7.37-2-7.11.47-5.56,1.09Z"/><path class="cls-5" d="M269.1,71.63c.12-.05,4.73-1.4,4.58,3.31s-4.85,3.59-4.85,3.45S269.1,71.63,269.1,71.63Z"/><path class="cls-11" d="M270.33,76.65s.08.06.22.13a.82.82,0,0,0,.61,0,2,2,0,0,0,1-1.79,2.71,2.71,0,0,0-.19-1.18,1,1,0,0,0-.6-.65.42.42,0,0,0-.49.21c-.07.13,0,.22-.07.23s-.1-.08-.05-.28a.53.53,0,0,1,.19-.29.62.62,0,0,1,.46-.11,1.15,1.15,0,0,1,.83.76,2.79,2.79,0,0,1,.24,1.32,2.13,2.13,0,0,1-1.26,2,.88.88,0,0,1-.75-.15C270.33,76.77,270.31,76.66,270.33,76.65Z"/><path class="cls-4" d="M272.3,57c0,.15-.74.08-1.52.33s-1.33.69-1.44.59.34-.8,1.29-1.09S272.35,56.91,272.3,57Z"/><path class="cls-4" d="M269.62,54.07a3.26,3.26,0,0,1,.13,2.24c-.25,1.28-1,2-1.14,1.94s.41-.9.63-2S269.46,54.07,269.62,54.07Z"/><path class="cls-4" d="M249.4,69.41c-.14.26-1,0-2.13,0s-2,.1-2.13-.17.81-.93,2.17-.87S249.55,69.17,249.4,69.41Z"/><path class="cls-4" d="M260,68.52c-.14.26-1,0-2.13,0s-2,.1-2.13-.17.81-.93,2.17-.87S260.12,68.29,260,68.52Z"/><path class="cls-12" d="M299,359.6l1.64,6.89s11.28,14.65,14.75,13.93c2.28-.47-.52-4.29-4.81-15.41l-.9-4.59Z"/><path class="cls-4" d="M315.81,378.26a.62.62,0,0,1-.09.21,1.25,1.25,0,0,1-.47.44,1.85,1.85,0,0,1-1,.22,2.66,2.66,0,0,1-1.27-.47,55,55,0,0,1-5.68-5.3,72.83,72.83,0,0,1-5-5.9c-.6-.79-1.07-1.44-1.39-1.9l-.36-.53a.91.91,0,0,1-.11-.19.91.91,0,0,1,.11.19l.39.51,1.44,1.86c1.23,1.55,3,3.66,5.08,5.85a63.09,63.09,0,0,0,5.61,5.32,2.09,2.09,0,0,0,2.16.3A1.47,1.47,0,0,0,315.81,378.26Z"/><path class="cls-4" d="M314.21,373.55s-.36,0-.91,0a5.37,5.37,0,0,0-2,.77,4.15,4.15,0,0,0-1.52,1.52c-.27.49-.34.84-.37.83a2,2,0,0,1,.24-.9,3.89,3.89,0,0,1,1.55-1.63,4.84,4.84,0,0,1,2.13-.74A1.81,1.81,0,0,1,314.21,373.55Z"/><path class="cls-4" d="M303.53,370.11s.12-.49.21-1.29a5.31,5.31,0,0,0-.56-3,5,5,0,0,0-2.16-2.18,8.17,8.17,0,0,0-1.22-.44,1,1,0,0,1,.36,0,3.74,3.74,0,0,1,.93.29,4.85,4.85,0,0,1,2.28,2.22,5.13,5.13,0,0,1,.53,3.14,6,6,0,0,1-.22.94A1.11,1.11,0,0,1,303.53,370.11Z"/><path class="cls-4" d="M299.67,360.77a7.21,7.21,0,0,1,.62,2.16c.21,1.22.43,2.19.38,2.21a7.41,7.41,0,0,1-.59-2.17C299.87,361.75,299.62,360.78,299.67,360.77Z"/><path class="cls-4" d="M310.74,366c0,.06-.64,0-1.4.22s-1.32.47-1.35.42a3.36,3.36,0,0,1,2.75-.63Z"/><path class="cls-4" d="M311,367.16c0,.06-.54,0-1.17.16s-1.08.44-1.12.39a2.28,2.28,0,0,1,2.29-.54Z"/><path class="cls-4" d="M311.87,368.64a3.19,3.19,0,0,0-2.33.53,1.84,1.84,0,0,1,2.33-.53Z"/><path class="cls-4" d="M310,365.48a1.2,1.2,0,0,1-.38,0,7.68,7.68,0,0,1-1-.27,8.95,8.95,0,0,1-2.18-1.11,1.13,1.13,0,0,1-.56-.86.66.66,0,0,1,.85-.53,1.78,1.78,0,0,1,.78.52,14.16,14.16,0,0,1,1,1.13c.28.34.48.62.62.82a1.25,1.25,0,0,1,.19.33s-.35-.41-.92-1.06c-.29-.32-.64-.69-1.06-1.09a1.64,1.64,0,0,0-.7-.46c-.26-.07-.59.07-.6.35s.24.51.47.68.5.34.75.48a10.13,10.13,0,0,0,1.36.65C309.44,365.34,310,365.45,310,365.48Z"/><path class="cls-4" d="M309.37,365.34a1.11,1.11,0,0,1,0-.35c0-.22,0-.54.07-.94a4.94,4.94,0,0,1,.36-1.36,2.9,2.9,0,0,1,.44-.72.75.75,0,0,1,.89-.28.86.86,0,0,1,.31.89,3.17,3.17,0,0,1-.25.81,4.15,4.15,0,0,1-.8,1.16,5.19,5.19,0,0,1-.72.61,1,1,0,0,1-.3.17s.38-.31.91-.89a4.33,4.33,0,0,0,.74-1.13,3.1,3.1,0,0,0,.22-.76c0-.26,0-.57-.21-.68s-.47,0-.64.24a2.82,2.82,0,0,0-.42.66,5.28,5.28,0,0,0-.38,1.3A12.07,12.07,0,0,1,309.37,365.34Z"/><g class="cls-13"><path d="M300.59,366.49l-.79-3.31s2.76.51,3.48,2.58a8.67,8.67,0,0,1,.54,3.54l6,6.47s1.51-2.94,4.24-2.24c0,0,2.15,4.72,2.08,5.91s-1.44,1-1.93.82a24.24,24.24,0,0,1-5.38-4.24C305.65,372.71,302.13,368.52,300.59,366.49Z"/></g><path class="cls-12" d="M242.9,363.08l-.05-9.19,17.22-.21.22,13.45-1.07.08c-4.75.32-24.17,1.3-27.36.38C228.3,366.55,242.9,363.08,242.9,363.08Z"/><g class="cls-13"><path d="M254,367.07a6,6,0,0,1,2.15-3.7,5.8,5.8,0,0,1,4-1.3l.06,4.81Z"/></g><g class="cls-13"><path d="M235.77,365s-5.11,1.54-4.46,2.38,20.31.59,29-.28l0-.38-22.93.49S236.77,365.06,235.77,365Z"/></g><path class="cls-4" d="M260.52,366.73l-.3,0-.85.06-3.13.17c-2.64.13-6.3.26-10.33.31s-7.69,0-10.34,0l-3.13-.09-.85,0-.3,0h1.15l3.13,0c2.64,0,6.3,0,10.33,0s7.69-.16,10.33-.25l3.13-.11.85,0Z"/><path class="cls-4" d="M237.33,367.5a4.55,4.55,0,0,0-1.69-2.67,2.78,2.78,0,0,1,1.69,2.67Z"/><ellipse class="cls-4" cx="241.91" cy="364.14" rx="0.1" ry="0.85" transform="translate(-159.7 191.43) rotate(-33.13)"/><ellipse class="cls-4" cx="243.22" cy="363.62" rx="0.1" ry="0.72" transform="translate(-190.57 307.04) rotate(-48.79)"/><ellipse class="cls-4" cx="243.72" cy="362.49" rx="0.9" ry="0.1" transform="translate(-8.61 5.94) rotate(-1.37)"/><path class="cls-4" d="M244.91,361.31a2.53,2.53,0,0,1-2,.18,77.08,77.08,0,0,0,2-.18Z"/><path class="cls-4" d="M241.77,363.36a3.19,3.19,0,0,1-1.11,0,6.48,6.48,0,0,1-1.18-.24,3.23,3.23,0,0,1-.68-.27.6.6,0,0,1-.28-.34.44.44,0,0,1,.16-.44,2,2,0,0,1,2.52.56,2,2,0,0,1,.37.73.61.61,0,0,1,0,.3,3.13,3.13,0,0,0-.52-.94,2,2,0,0,0-1-.6,1.72,1.72,0,0,0-1.32.11c-.17.13-.1.34.09.45a3.31,3.31,0,0,0,.63.26,7.63,7.63,0,0,0,1.14.28C241.35,363.33,241.77,363.33,241.77,363.36Z"/><path class="cls-4" d="M241.49,363.42a1.09,1.09,0,0,1-.14-.77,1.82,1.82,0,0,1,.29-.81,1.11,1.11,0,0,1,.91-.58.44.44,0,0,1,.35.51,1.21,1.21,0,0,1-.18.5,3.35,3.35,0,0,1-.51.68,1.6,1.6,0,0,1-.63.46s.22-.2.52-.56a3.87,3.87,0,0,0,.45-.67c.15-.24.25-.66,0-.7s-.56.26-.72.48a1.82,1.82,0,0,0-.3.72A4,4,0,0,0,241.49,363.42Z"/><path class="cls-4" d="M260.11,362s-.49,0-1.27.06a5.4,5.4,0,0,0-4.47,3.65c-.25.74-.27,1.24-.31,1.23a1,1,0,0,1,0-.35,4.53,4.53,0,0,1,.18-.93,5.23,5.23,0,0,1,4.59-3.75,4.53,4.53,0,0,1,.95,0A1,1,0,0,1,260.11,362Z"/><ellipse class="cls-4" cx="258.33" cy="358.42" rx="0.1" ry="3.54" transform="translate(-9.02 6.67) rotate(-1.45)"/><path class="cls-4" d="M251.85,365.42a14.15,14.15,0,0,1-5,.11c0-.06,1.13,0,2.52,0S251.84,365.36,251.85,365.42Z"/><path class="cls-4" d="M255.23,365.37s-.09.24-.2.5-.17.49-.23.49-.09-.27,0-.57S255.19,365.33,255.23,365.37Z"/><ellipse class="cls-4" cx="256.16" cy="364.1" rx="0.46" ry="0.1" transform="translate(-183.84 296.36) rotate(-46.12)"/><path class="cls-4" d="M258.29,363c0,.06-.24.06-.49.15s-.43.23-.48.19.1-.28.41-.39S258.31,363,258.29,363Z"/><ellipse class="cls-4" cx="259.32" cy="362.77" rx="0.28" ry="0.1" transform="translate(-116.66 123.01) rotate(-21.92)"/><polyline class="cls-4" points="231.18 180.47 239.22 359.12 266.04 359.68 261.58 210.12 291.75 360.82 317.25 360.82 283.19 180.47"/><polygon class="cls-9" points="290.42 358.4 291.04 361.04 317.25 361.39 316.85 357.26 290.42 358.4"/><ellipse class="cls-9" cx="310.95" cy="358.98" rx="0.26" ry="0.75" transform="translate(-55.13 56.42) rotate(-9.53)"/><ellipse class="cls-9" cx="310.09" cy="353.85" rx="0.26" ry="1.48" transform="translate(-54.31 56.23) rotate(-9.53)"/><ellipse class="cls-9" cx="309.11" cy="348" rx="0.26" ry="1.48" transform="translate(-53.39 56.02) rotate(-9.54)"/><ellipse class="cls-9" cx="308.13" cy="342.15" rx="0.26" ry="1.48" transform="translate(-52.49 55.86) rotate(-9.55)"/><ellipse class="cls-9" cx="307.14" cy="336.3" rx="0.26" ry="1.48" transform="translate(-51.62 55.72) rotate(-9.57)"/><ellipse class="cls-9" cx="306.16" cy="330.45" rx="0.26" ry="1.48" transform="translate(-50.75 55.59) rotate(-9.59)"/><ellipse class="cls-9" cx="305.17" cy="324.6" rx="0.26" ry="1.48" transform="translate(-49.92 55.52) rotate(-9.61)"/><ellipse class="cls-9" cx="304.17" cy="318.75" rx="0.26" ry="1.48" transform="translate(-49.09 55.45) rotate(-9.64)"/><ellipse class="cls-9" cx="303.18" cy="312.9" rx="0.26" ry="1.48" transform="translate(-48.29 55.43) rotate(-9.68)"/><ellipse class="cls-9" cx="302.18" cy="307.05" rx="0.26" ry="1.48" transform="translate(-47.5 55.42) rotate(-9.72)"/><ellipse class="cls-9" cx="301.17" cy="301.21" rx="0.26" ry="1.48" transform="translate(-46.71 55.42) rotate(-9.76)"/><ellipse class="cls-9" cx="300.17" cy="295.36" rx="0.26" ry="1.48" transform="translate(-45.94 55.46) rotate(-9.81)"/><ellipse class="cls-9" cx="299.15" cy="289.51" rx="0.26" ry="1.48" transform="translate(-45.17 55.52) rotate(-9.86)"/><ellipse class="cls-9" cx="298.13" cy="283.67" rx="0.26" ry="1.48" transform="translate(-44.42 55.61) rotate(-9.92)"/><ellipse class="cls-9" cx="297.11" cy="277.82" rx="0.26" ry="1.48" transform="translate(-43.67 55.73) rotate(-9.99)"/><ellipse class="cls-9" cx="296.08" cy="271.98" rx="0.26" ry="1.48" transform="translate(-42.93 55.85) rotate(-10.05)"/><ellipse class="cls-9" cx="295.04" cy="266.14" rx="0.26" ry="1.48" transform="translate(-42.19 56.01) rotate(-10.12)"/><ellipse class="cls-9" cx="293.99" cy="260.3" rx="0.26" ry="1.48" transform="translate(-41.45 56.18) rotate(-10.2)"/><ellipse class="cls-9" cx="292.93" cy="254.46" rx="0.26" ry="1.48" transform="translate(-40.72 56.38) rotate(-10.28)"/><ellipse class="cls-9" cx="291.87" cy="248.62" rx="0.26" ry="1.48" transform="translate(-39.99 56.61) rotate(-10.37)"/><ellipse class="cls-9" cx="290.8" cy="242.79" rx="0.26" ry="1.48" transform="translate(-39.26 56.85) rotate(-10.46)"/><ellipse class="cls-9" cx="289.71" cy="236.95" rx="0.26" ry="1.48" transform="translate(-38.53 57.13) rotate(-10.56)"/><ellipse class="cls-9" cx="288.62" cy="231.12" rx="0.26" ry="1.48" transform="translate(-37.8 57.43) rotate(-10.67)"/><ellipse class="cls-9" cx="287.52" cy="225.29" rx="0.26" ry="1.48" transform="translate(-37.06 57.75) rotate(-10.78)"/><ellipse class="cls-9" cx="286.4" cy="219.46" rx="0.26" ry="1.48" transform="translate(-36.33 58.1) rotate(-10.9)"/><ellipse class="cls-9" cx="285.27" cy="213.64" rx="0.26" ry="1.48" transform="translate(-35.58 58.48) rotate(-11.02)"/><ellipse class="cls-9" cx="284.13" cy="207.82" rx="0.26" ry="1.48" transform="translate(-34.83 58.89) rotate(-11.15)"/><ellipse class="cls-9" cx="282.98" cy="201.99" rx="0.26" ry="1.48" transform="translate(-34.08 59.34) rotate(-11.3)"/><ellipse class="cls-9" cx="281.81" cy="196.18" rx="0.26" ry="1.48" transform="translate(-33.31 59.8) rotate(-11.44)"/><ellipse class="cls-9" cx="280.62" cy="190.36" rx="0.26" ry="1.49" transform="translate(-32.54 60.3) rotate(-11.6)"/><ellipse class="cls-9" cx="279.57" cy="185.26" rx="0.26" ry="0.75" transform="translate(-31.85 60.76) rotate(-11.74)"/><ellipse class="cls-9" cx="261.45" cy="358.97" rx="0.26" ry="0.75" transform="translate(-18.2 13.99) rotate(-2.96)"/><ellipse class="cls-9" cx="261.22" cy="353.76" rx="0.26" ry="1.49" transform="translate(-13.23 10.17) rotate(-2.17)"/><ellipse class="cls-9" cx="261.03" cy="347.8" rx="0.26" ry="1.49" transform="translate(-9.95 7.69) rotate(-1.66)"/><ellipse class="cls-9" cx="260.87" cy="341.85" rx="0.26" ry="1.49" transform="translate(-8.3 6.5) rotate(-1.4)"/><ellipse class="cls-9" cx="260.73" cy="335.89" rx="0.26" ry="1.49" transform="translate(-7.93 6.31) rotate(-1.37)"/><ellipse class="cls-9" cx="260.58" cy="329.93" rx="0.26" ry="1.49" transform="translate(-8.83 7.17) rotate(-1.55)"/><ellipse class="cls-9" cx="260.39" cy="323.98" rx="0.26" ry="1.49" transform="translate(-11.37 9.48) rotate(-2.04)"/><ellipse class="cls-9" cx="260.15" cy="318.02" rx="0.26" ry="1.49" transform="translate(-13.12 11.2) rotate(-2.41)"/><ellipse class="cls-9" cx="259.91" cy="312.07" rx="0.26" ry="1.49" transform="translate(-11.65 10.09) rotate(-2.17)"/><ellipse class="cls-9" cx="259.7" cy="306.12" rx="0.26" ry="1.49" transform="translate(-10.2 8.96) rotate(-1.94)"/><ellipse class="cls-9" cx="259.51" cy="300.16" rx="0.26" ry="1.49" transform="translate(-8.74 7.78) rotate(-1.69)"/><ellipse class="cls-9" cx="259.35" cy="294.21" rx="0.26" ry="1.49" transform="translate(-7.28 6.58) rotate(-1.43)"/><ellipse class="cls-9" cx="259.21" cy="288.25" rx="0.26" ry="1.49" transform="translate(-5.82 5.34) rotate(-1.17)"/><ellipse class="cls-9" cx="259.1" cy="282.3" rx="0.26" ry="1.49" transform="translate(-4.39 4.09) rotate(-0.9)"/><ellipse class="cls-9" cx="259.03" cy="276.34" rx="0.26" ry="1.49" transform="translate(-2.97 2.82) rotate(-0.62)"/><ellipse class="cls-9" cx="258.98" cy="270.38" rx="0.26" ry="1.49" transform="translate(-1.59 1.54) rotate(-0.34)"/><ellipse class="cls-9" cx="258.96" cy="264.43" rx="0.26" ry="1.49"/><ellipse class="cls-9" cx="258.97" cy="258.47" rx="1.49" ry="0.26" transform="translate(-0.56 516.37) rotate(-89.77)"/><ellipse class="cls-9" cx="259" cy="252.51" rx="1.49" ry="0.26" transform="translate(4.13 509.19) rotate(-89.47)"/><ellipse class="cls-9" cx="259.07" cy="246.56" rx="1.49" ry="0.26" transform="translate(8.86 502.1) rotate(-89.19)"/><ellipse class="cls-9" cx="259.17" cy="240.6" rx="1.49" ry="0.26" transform="translate(13.7 495.17) rotate(-88.91)"/><ellipse class="cls-9" cx="259.3" cy="234.64" rx="1.49" ry="0.26" transform="translate(18.4 488.14) rotate(-88.6)"/><ellipse class="cls-9" cx="259.49" cy="228.69" rx="1.49" ry="0.26" transform="translate(20.7 478.91) rotate(-87.73)"/><ellipse class="cls-9" cx="259.8" cy="222.73" rx="1.49" ry="0.26" transform="translate(20.59 467.44) rotate(-86.26)"/><ellipse class="cls-9" cx="260.29" cy="216.8" rx="1.49" ry="0.26" transform="translate(18.26 453.81) rotate(-84.19)"/><ellipse class="cls-9" cx="260.91" cy="211.63" rx="0.75" ry="0.26" transform="translate(14.65 440.13) rotate(-81.9)"/><polygon class="cls-9" points="238.52 359.99 266.88 360.45 266.66 355.72 238.52 355.87 238.52 359.99"/><path class="cls-9" d="M257.12,182.73a4.52,4.52,0,0,1,.17,1.09c.07.71.17,1.73.27,3,.2,2.53.45,6,.69,9.88l.32,5.44a16.72,16.72,0,0,0,.52,4.35,3.69,3.69,0,0,0,1.81,2.15,5.35,5.35,0,0,0,1,.3s-.1,0-.29,0a2.27,2.27,0,0,1-.82-.16,3.77,3.77,0,0,1-2.08-2.21,15.77,15.77,0,0,1-.65-4.45l-.36-5.44c-.24-3.86-.43-7.35-.54-9.89-.05-1.27-.09-2.29-.1-3A4.52,4.52,0,0,1,257.12,182.73Z"/><path class="cls-9" d="M259.87,185.1c0,.07-.23.24-.25.67a.81.81,0,0,0,.21.61.71.71,0,0,0,1.14-.46.81.81,0,0,0-.28-.58c-.31-.29-.63-.23-.64-.3s.33-.3.86,0a1.12,1.12,0,0,1,.54.87,1.15,1.15,0,0,1-2,.8,1.12,1.12,0,0,1-.22-1C259.42,185.12,259.87,185,259.87,185.1Z"/><path class="cls-9" d="M285.11,189.34a5.16,5.16,0,0,1-2.23.85,9.43,9.43,0,0,1-10-4.47,5.15,5.15,0,0,1-.85-2.23c.09,0,.36.84,1.16,2a9.81,9.81,0,0,0,9.63,4.3C284.24,189.63,285.07,189.26,285.11,189.34Z"/><path class="cls-9" d="M240.5,182.73a3.79,3.79,0,0,1-.1,1.94,7.61,7.61,0,0,1-6.7,5.87,3.79,3.79,0,0,1-1.93-.16c0-.09.74,0,1.88-.2a8,8,0,0,0,6.39-5.6C240.4,183.47,240.42,182.73,240.5,182.73Z"/><path class="cls-12" d="M275.23,99.49a24.06,24.06,0,0,0-7.31-1.4h0a29.3,29.3,0,0,1-17.66,0,85.94,85.94,0,0,0-16,3l-22.38,6.05,7.37,27.49,13.52-4.55s-7.41,51-7.27,56.75l59.35-3.91-2.27-28.24-.76-24.51,17,3.12,11.42-22.79"/><path class="cls-4" d="M270.26,98a3,3,0,0,1-.74.52,15.58,15.58,0,0,1-2.19,1.12,20.94,20.94,0,0,1-3.47,1.15,22.15,22.15,0,0,1-8.91.26,20.94,20.94,0,0,1-3.53-.94,15.57,15.57,0,0,1-2.25-1,3,3,0,0,1-.76-.48c0-.09,1.18.51,3.13,1.13a24.09,24.09,0,0,0,3.49.82,23.82,23.82,0,0,0,8.73-.25,24.11,24.11,0,0,0,3.44-1C269.11,98.58,270.21,97.92,270.26,98Z"/><path class="cls-4" d="M261.69,123.39a5.9,5.9,0,0,1,.92-.05l2.7-.06,9.77-.12h.23v.23l0,5.89c0,1.05,0,2.1,0,3.23a6.85,6.85,0,0,1-1.08,3.27,6.93,6.93,0,0,1-4.32,3,6.9,6.9,0,0,1-7.86-4,7.18,7.18,0,0,1-.52-2c-.06-.66,0-1.28,0-1.87l.1-5.58,0-1.48a2.19,2.19,0,0,1,0-.49,3.68,3.68,0,0,1,0,.56l0,1.53.1,5.5c0,.58,0,1.18.06,1.79a6.83,6.83,0,0,0,.51,1.85,6.47,6.47,0,0,0,7.36,3.69,6.44,6.44,0,0,0,4-2.81,6.36,6.36,0,0,0,1-3c0-1.06,0-2.16,0-3.2,0-2.09,0-4.06,0-5.89l.23.23-9.63-.12-2.75-.06A8.61,8.61,0,0,1,261.69,123.39Z"/><path class="cls-4" d="M274.65,125.52s.13-.06.4-.09v.17c-.9.1-3.45.18-6.44.18a45.26,45.26,0,0,1-6.85-.26,45.26,45.26,0,0,1,6.85-.26c3,0,5.54.07,6.44.18v.17C274.78,125.57,274.65,125.55,274.65,125.52Z"/><path class="cls-4" d="M308.61,110.12a3.83,3.83,0,0,1-.42.93l-1.29,2.43-4.28,8-4.19,8.06L297.15,132a3.82,3.82,0,0,1-.53.87,3.82,3.82,0,0,1,.35-1c.25-.6.64-1.46,1.13-2.51,1-2.11,2.4-5,4.06-8.14s3.24-5.94,4.42-7.94c.59-1,1.08-1.8,1.44-2.35A3.82,3.82,0,0,1,308.61,110.12Z"/><path class="cls-4" d="M222.84,133.18a4.47,4.47,0,0,1-.48-1c-.28-.65-.66-1.6-1.11-2.78-.91-2.36-2.1-5.63-3.31-9.29s-2.23-7-2.92-9.42c-.34-1.21-.61-2.2-.78-2.89a4.47,4.47,0,0,1-.21-1.08,4.48,4.48,0,0,1,.41,1l.94,2.84,3.06,9.36,3.17,9.33,1,2.83A4.49,4.49,0,0,1,222.84,133.18Z"/><ellipse class="cls-4" cx="255.57" cy="182.1" rx="29.59" ry="0.26" transform="translate(-10.31 15.42) rotate(-3.39)"/><path class="cls-14" d="M111.91,99.6l18.16-1.76c.23-2.05-.13-12-.13-12s7.4-.7,7.93-8,.27-24.23.27-24.23h0a25.52,25.52,0,0,0-25.79,1.68l-1.14.77Z"/><circle class="cls-4" cx="134.66" cy="65.25" r="1.07" transform="translate(-7.24 112.73) rotate(-44.35)"/><path class="cls-4" d="M137.3,64.49c-.12.12-.81-.48-1.82-.54s-1.77.41-1.88.28.08-.28.41-.51a2.49,2.49,0,0,1,2.95.21C137.27,64.2,137.36,64.43,137.3,64.49Z"/><circle class="cls-4" cx="124.13" cy="65.59" r="1.07" transform="translate(-0.83 129.58) rotate(-54.97)"/><path class="cls-4" d="M126.55,64.76c-.12.12-.81-.48-1.82-.54s-1.77.41-1.88.28.08-.28.41-.51a2.49,2.49,0,0,1,2.95.21C126.52,64.47,126.61,64.71,126.55,64.76Z"/><path class="cls-4" d="M130.1,73.34a5.17,5.17,0,0,1,1.65-.24c.26,0,.48-.06.52-.21a1.43,1.43,0,0,0-.14-.78l-.67-2.1A29.77,29.77,0,0,1,130,64.52,29.79,29.79,0,0,1,132,69.86l.63,2.11a1.68,1.68,0,0,1,.08,1.1.68.68,0,0,1-.47.39,1.69,1.69,0,0,1-.45,0A5.17,5.17,0,0,1,130.1,73.34Z"/><path class="cls-15" d="M130,85.76a17.08,17.08,0,0,1-9.39-3.29s1.94,5.41,9.3,5.19Z"/><path class="cls-14" d="M112.63,62.55c-.16-.06-5.44-.74-4.93,5.49s6.64,3.66,6.63,3.48S112.63,62.55,112.63,62.55Z"/><path class="cls-15" d="M112.24,69.5s-.1.08-.28.18a1.09,1.09,0,0,1-.81.08,2.7,2.7,0,0,1-1.44-2.31,3.59,3.59,0,0,1,.18-1.58,1.26,1.26,0,0,1,.75-.9.55.55,0,0,1,.67.25c.1.17.07.3.1.3s.13-.12.05-.37a.7.7,0,0,0-.28-.37.82.82,0,0,0-.61-.11,1.53,1.53,0,0,0-1.06,1.06,3.7,3.7,0,0,0-.23,1.77,2.83,2.83,0,0,0,1.8,2.56,1.17,1.17,0,0,0,1-.25C112.24,69.65,112.26,69.51,112.24,69.5Z"/><path class="cls-4" d="M119.58,49.63s.92-5.14,12.43-4.42c5.61.35,6.66,5.76,6.66,5.76a2.41,2.41,0,0,1,2.62,2.13,3.56,3.56,0,0,1-1.65,3.21,8.4,8.4,0,0,1-3.6,1C128.32,58.49,122.92,54,119,53.62s-2.59,3.12-2.59,3.12c1.22,6.61-1.16,8.31-3.06,12.08l-1,0-.9-5.25a4.16,4.16,0,0,1-.73-1.52h0c-.6-1.94-.76-4-1.44-5.9-1.57-4.44,1.51-6.65,1.51-6.65S112.21,47,119.58,49.63Z"/><path class="cls-4" d="M130.39,75.49s-.11.28-.49.47a2.07,2.07,0,0,1-2.81-1.11c-.15-.4-.1-.67,0-.68s.39,1,1.39,1.36S130.32,75.37,130.39,75.49Z"/><path class="cls-4" d="M125.44,60.72c-.07.14-.79-.12-1.69,0s-1.58.41-1.66.29.56-.73,1.62-.81S125.52,60.6,125.44,60.72Z"/><path class="cls-4" d="M135.86,60.66c-.07.13-.73-.12-1.55-.2s-1.52,0-1.56-.14.67-.49,1.62-.38S135.93,60.54,135.86,60.66Z"/><path class="cls-4" d="M120.35,45.27c0,.08-.33.06-.7.32a1.8,1.8,0,0,0-.71,1.51,3.28,3.28,0,0,0,.48,1.73c.24.41.46.63.42.69s-.35-.07-.71-.48a2.92,2.92,0,0,1-.7-2,2,2,0,0,1,1.05-1.82C120,45,120.38,45.21,120.35,45.27Z"/><path class="cls-6" d="M122.65,364l0-9.23-17.29-.18L105.2,368l1.07.08c4.77.32,24.27,1.27,27.47.33C137.31,367.42,122.65,364,122.65,364Z"/><g class="cls-13"><path d="M111.47,368a6,6,0,0,0-2.17-3.71,5.83,5.83,0,0,0-4-1.3l-.05,4.83Z"/></g><path class="cls-13" d="M129.81,365.91s5.13,1.54,4.48,2.38-20.4.62-29.1-.24l0-.39,23,.45S128.8,365.94,129.81,365.91Z"/><path class="cls-4" d="M105,367.65l.3,0,.85.06,3.14.17c2.65.13,6.32.25,10.38.3s7.73,0,10.38-.05l3.14-.1.85,0,.3,0h-1.15L130,368c-2.66,0-6.32,0-10.38,0s-7.72-.15-10.37-.24l-3.14-.1-.86,0Z"/><path class="cls-4" d="M128.25,368.39a4.57,4.57,0,0,1,1.69-2.69,2.79,2.79,0,0,0-1.69,2.69Z"/><ellipse class="cls-4" cx="123.64" cy="365.03" rx="0.85" ry="0.1" transform="translate(-249.76 269.64) rotate(-56.96)"/><ellipse class="cls-4" cx="122.33" cy="364.5" rx="0.73" ry="0.1" transform="matrix(0.75, -0.66, 0.66, 0.75, -210.14, 171.38)"/><ellipse class="cls-4" cx="121.82" cy="363.36" rx="0.1" ry="0.9" transform="translate(-244.18 477.01) rotate(-88.72)"/><path class="cls-4" d="M120.63,362.19a2.54,2.54,0,0,0,2,.18,77.75,77.75,0,0,1-2-.18Z"/><path class="cls-4" d="M123.78,364.24a3.2,3.2,0,0,0,1.11,0,6.51,6.51,0,0,0,1.19-.25,3.24,3.24,0,0,0,.68-.27.6.6,0,0,0,.28-.34.44.44,0,0,0-.16-.45,2,2,0,0,0-2.53.57,2,2,0,0,0-.37.74.62.62,0,0,0,0,.3,3.14,3.14,0,0,1,.52-.94,2,2,0,0,1,1-.61,1.72,1.72,0,0,1,1.32.1c.17.13.1.34-.09.45a3.32,3.32,0,0,1-.63.26,7.66,7.66,0,0,1-1.15.29C124.2,364.21,123.78,364.2,123.78,364.24Z"/><path class="cls-4" d="M124.07,364.3a1.1,1.1,0,0,0,.14-.77,1.82,1.82,0,0,0-.29-.82,1.12,1.12,0,0,0-.92-.58.44.44,0,0,0-.35.51,1.21,1.21,0,0,0,.18.5,3.37,3.37,0,0,0,.52.68,1.6,1.6,0,0,0,.63.46s-.22-.2-.52-.56A3.88,3.88,0,0,1,123,363c-.15-.24-.25-.66,0-.71s.56.26.73.48a1.83,1.83,0,0,1,.31.73A4.06,4.06,0,0,1,124.07,364.3Z"/><path class="cls-4" d="M105.36,362.92s.5,0,1.28.06a5.42,5.42,0,0,1,4.49,3.66c.26.74.28,1.24.31,1.24a1,1,0,0,0,0-.35,4.55,4.55,0,0,0-.18-.93,5.26,5.26,0,0,0-4.61-3.76,4.56,4.56,0,0,0-1,0A1,1,0,0,0,105.36,362.92Z"/><ellipse class="cls-4" cx="107.15" cy="359.3" rx="3.55" ry="0.1" transform="translate(-254.6 457.85) rotate(-88.63)"/><path class="cls-4" d="M113.66,366.32a14.2,14.2,0,0,0,5.05.1c0-.06-1.13,0-2.53,0S113.67,366.26,113.66,366.32Z"/><path class="cls-4" d="M110.27,366.27s.09.24.2.5.17.49.23.49.09-.27,0-.57S110.31,366.23,110.27,366.27Z"/><ellipse class="cls-4" cx="109.33" cy="365" rx="0.1" ry="0.46" transform="translate(-222.76 178.21) rotate(-43.97)"/><path class="cls-4" d="M107.2,363.92c0,.06.24.06.49.15s.43.23.48.19-.1-.28-.41-.39S107.18,363.87,107.2,363.92Z"/><ellipse class="cls-4" cx="106.16" cy="363.67" rx="0.1" ry="0.28" transform="translate(-270.91 326.96) rotate(-68.17)"/><path class="cls-6" d="M140.77,360.93l2.31-8.94-16.72-4.43-3.51,13,1,.34c4.55,1.48,23.21,7.19,26.55,7.08C154.13,367.89,140.77,360.93,140.77,360.93Z"/><g class="cls-13"><path d="M128.95,362.08a6,6,0,0,0-1.19-4.13,5.83,5.83,0,0,0-3.59-2.25l-1.24,4.67Z"/></g><path class="cls-13" d="M147.23,364.58s4.6,2.75,3.76,3.41-19.92-4.41-28.14-7.38l.13-.37,22.21,6.1S146.25,364.36,147.23,364.58Z"/><path class="cls-4" d="M122.72,360.16l.28.11.81.27,3,.94c2.54.77,6.07,1.8,10,2.84s7.49,1.91,10.07,2.5l3.07.68.84.17.3,0-.29-.09-.83-.21-3.06-.75c-2.58-.63-6.14-1.52-10.06-2.56s-7.44-2-10-2.78l-3-.87-.82-.23Z"/><path class="cls-4" d="M145.11,366.59a4.57,4.57,0,0,1,2.3-2.19,2.79,2.79,0,0,0-2.3,2.19Z"/><ellipse class="cls-4" cx="141.47" cy="362.2" rx="0.85" ry="0.1" transform="translate(-208.2 192.11) rotate(-42.72)"/><ellipse class="cls-4" cx="140.33" cy="361.38" rx="0.73" ry="0.1" transform="translate(-149.08 103.44) rotate(-27.07)"/><ellipse class="cls-4" cx="140.11" cy="360.14" rx="0.1" ry="0.9" transform="translate(-244.38 398.83) rotate(-74.49)"/><path class="cls-4" d="M139.25,358.71a2.54,2.54,0,0,0,1.94.67,77.8,77.8,0,0,1-1.94-.67Z"/><path class="cls-4" d="M141.8,361.48a3.21,3.21,0,0,0,1.08.28,6.5,6.5,0,0,0,1.21.05,3.24,3.24,0,0,0,.73-.1.6.6,0,0,0,.35-.26.44.44,0,0,0,0-.47,2,2,0,0,0-2.59-.07,2,2,0,0,0-.54.62c-.09.17-.12.28-.1.28a3.14,3.14,0,0,1,.73-.79,2,2,0,0,1,1.08-.35,1.72,1.72,0,0,1,1.26.43c.14.17,0,.35-.2.42a3.32,3.32,0,0,1-.67.1,7.66,7.66,0,0,1-1.18,0C142.22,361.55,141.81,361.44,141.8,361.48Z"/><path class="cls-4" d="M142.06,361.6a1.1,1.1,0,0,0,.32-.71,1.82,1.82,0,0,0-.08-.86,1.12,1.12,0,0,0-.75-.79.44.44,0,0,0-.46.41,1.21,1.21,0,0,0,.06.53,3.36,3.36,0,0,0,.33.78,1.6,1.6,0,0,0,.5.6s-.16-.25-.37-.67a3.89,3.89,0,0,1-.28-.76c-.09-.27-.08-.7.2-.68s.48.39.59.64a1.83,1.83,0,0,1,.12.78A4,4,0,0,1,142.06,361.6Z"/><path class="cls-4" d="M124.27,355.67s.49.08,1.22.37a5.42,5.42,0,0,1,3.45,4.65c.06.78,0,1.27,0,1.28a1,1,0,0,0,.09-.34,4.55,4.55,0,0,0,.06-.95,5.26,5.26,0,0,0-3.55-4.78,4.55,4.55,0,0,0-.93-.22A1,1,0,0,0,124.27,355.67Z"/><ellipse class="cls-4" cx="126.9" cy="352.6" rx="3.55" ry="0.1" transform="translate(-246.84 380.03) rotate(-74.4)"/><path class="cls-4" d="M131.48,361a14.21,14.21,0,0,0,4.87,1.34c0-.06-1.1-.28-2.44-.66S131.5,360.95,131.48,361Z"/><path class="cls-4" d="M128.21,360.13c-.05,0,0,.25.07.54s0,.52.11.53.16-.24.1-.56S128.25,360.1,128.21,360.13Z"/><ellipse class="cls-4" cx="127.61" cy="358.67" rx="0.1" ry="0.46" transform="translate(-161.09 110.52) rotate(-29.74)"/><path class="cls-4" d="M125.8,357.09c0,.06.22.12.44.27s.36.33.42.3,0-.29-.3-.48S125.8,357,125.8,357.09Z"/><ellipse class="cls-4" cx="124.86" cy="356.59" rx="0.1" ry="0.28" transform="matrix(0.59, -0.81, 0.81, 0.59, -236.91, 247.63)"/><path class="cls-14" d="M149.53,174.69a74.3,74.3,0,0,0-7.08,5.73c-2.12,1.94,2.07,13.45,4.37,11.42s8.59-10,8.59-10Z"/><path class="cls-15" d="M146.5,192s6.53-.74,6.35-2.08a7.32,7.32,0,0,0-1.62-3Z"/><path class="cls-4" d="M149.08,184.72l-20.35-1.53h0l-33.47-2.66,4,179.74,29.05-.43s0-2-.08-5.51l17,4.63s16.52-56.1,22.14-79.12C172.12,260.64,149.08,184.72,149.08,184.72ZM127.89,326.38c-.51-41.49-1.12-112-.52-120.67,0,0,16.27,62.09,16.43,67C143.9,275.69,134.94,304.37,127.89,326.38Z"/><ellipse class="cls-9" cx="113.96" cy="353.04" rx="14.51" ry="0.29" transform="translate(-0.54 0.18) rotate(-0.09)"/><path class="cls-9" d="M128.21,346.56a16.24,16.24,0,0,1,2.66.84l6.65,2.31,6.65,2.31a15.54,15.54,0,0,1,2.72,1.07,14.14,14.14,0,0,1-2.85-.68c-1.74-.5-4.12-1.25-6.72-2.15s-4.93-1.79-6.61-2.47A10.37,10.37,0,0,1,128.21,346.56Z"/><path class="cls-9" d="M127.8,322.75a7.35,7.35,0,0,1,.09,1.41l.06,3.83.21,12.64.37,12.64.11,3.83a7.35,7.35,0,0,1,0,1.41,7.34,7.34,0,0,1-.18-1.4c-.08-.9-.18-2.21-.28-3.82-.2-3.23-.4-7.7-.52-12.64s-.11-9.41-.05-12.65c0-1.62.06-2.93.1-3.83A7.35,7.35,0,0,1,127.8,322.75Z"/><ellipse class="cls-9" cx="148.78" cy="272.57" rx="5.51" ry="0.29" transform="translate(-20.37 12.15) rotate(-4.38)"/><ellipse class="cls-9" cx="148.28" cy="274.23" rx="0.29" ry="4.28" transform="translate(-156.23 341.04) rotate(-73.97)"/><path class="cls-9" d="M129.12,183.42a22.44,22.44,0,0,1,.16,3.42c0,2.12,0,5,0,8.26l-.05,4.55a9,9,0,0,1-.68,3.71,4.85,4.85,0,0,1-1.63,2,1.9,1.9,0,0,1-.84.4s.28-.18.72-.56a5.11,5.11,0,0,0,1.42-1.95,9.12,9.12,0,0,0,.54-3.57c0-1.41,0-2.94,0-4.55,0-3.23.07-6.15.13-8.26A22.46,22.46,0,0,1,129.12,183.42Z"/><path class="cls-6" d="M153.35,107l22.16,24.89c6.51,7.87,5.26,18.34.11,27.16a157,157,0,0,1-19,25.11c-.11.14-9-12.39-9-12.39s13.69-21.9,11.49-26.91-17-23.26-17-23.26Z"/><path class="cls-6" d="M146.68,127.23l.65,33.71,2.62,24-55.56-3.45,2.91-28L94.47,124,79,111.07q1.59-2.14,3.09-3.93c6.89-8.29,18.74-13.47,29.51-13.85,0,0,2.35,3.85,11.27,4,6.24.12,7.42-4.06,7.42-4.06,4.15.26,15.58,2.21,24.43,15.38h0"/><path class="cls-6" d="M84.09,105.35,62,130.31c-6.49,7.89-5.21,18.36,0,27.16,7.89,13.4,22.51,28.83,22.38,28.71s9.22-11.56,9.22-11.56-17.4-26.37-15.21-31.38,18.38-21.39,18.38-21.39Z"/><path class="cls-4" d="M151.62,105.37a3,3,0,0,1-.35.59,7.51,7.51,0,0,1-1.37,1.42,11,11,0,0,1-6.82,2.19,19.91,19.91,0,0,1-5-.71c-1.74-.45-3.55-1.1-5.45-1.74a33.46,33.46,0,0,0-6.05-1.57,15.93,15.93,0,0,0-6.6.49c-4.42,1.22-8.42,3.46-12.56,3.69a12.32,12.32,0,0,1-3-.16,12.51,12.51,0,0,1-2.68-.88,24,24,0,0,1-4.27-2.62,44.53,44.53,0,0,0-5.93-4c-1.5-.77-2.43-1-2.41-1a3.35,3.35,0,0,1,.67.16,10.86,10.86,0,0,1,1.84.71,39.94,39.94,0,0,1,6.05,3.92,24.25,24.25,0,0,0,4.23,2.52,12.18,12.18,0,0,0,2.59.82,12,12,0,0,0,2.87.14c4-.24,8-2.46,12.46-3.71a16.34,16.34,0,0,1,6.81-.49,33.33,33.33,0,0,1,6.13,1.62c1.9.66,3.69,1.31,5.41,1.78a19.91,19.91,0,0,0,4.85.76,11,11,0,0,0,6.7-2A10.63,10.63,0,0,0,151.62,105.37Z"/><path class="cls-4" d="M164.44,119.11l-.24-.07-.67-.25a21.42,21.42,0,0,0-2.62-.76,20.76,20.76,0,0,0-9.92.2,19.15,19.15,0,0,0-3.11,1.12c-1,.47-2.09,1.08-3.19,1.69a22.47,22.47,0,0,1-3.54,1.67,10.51,10.51,0,0,1-2,.48,9.07,9.07,0,0,1-2.14,0c-2.9-.36-5.49-2-8.3-3.11a11.83,11.83,0,0,0-4.45-.94,15.39,15.39,0,0,0-4.64.82c-3.07,1-5.93,2.44-9,3.12a15.34,15.34,0,0,1-8.82-.72,44.71,44.71,0,0,1-7.19-3.57,55.53,55.53,0,0,0-6.15-3.22,15.63,15.63,0,0,0-9.76-1.19,11.8,11.8,0,0,0-3.36,1.44s.06-.06.19-.16a5.61,5.61,0,0,1,.59-.41,9.18,9.18,0,0,1,2.54-1.08,13.21,13.21,0,0,1,4.35-.36,18.5,18.5,0,0,1,5.6,1.41,54.34,54.34,0,0,1,6.22,3.18,45,45,0,0,0,7.14,3.49,14.9,14.9,0,0,0,8.55.67c3-.66,5.81-2.12,8.93-3.11a15.84,15.84,0,0,1,4.8-.84,12.31,12.31,0,0,1,4.64,1c2.86,1.14,5.42,2.76,8.17,3.1a8.62,8.62,0,0,0,2,0,10.09,10.09,0,0,0,1.93-.45,22.26,22.26,0,0,0,3.48-1.62c1.1-.59,2.15-1.2,3.23-1.67a19.31,19.31,0,0,1,3.18-1.11,20.46,20.46,0,0,1,10.06,0A14,14,0,0,1,164.44,119.11Z"/><path class="cls-4" d="M147,138.71a1.62,1.62,0,0,1-.43.34,4.37,4.37,0,0,1-1.47.59,8.62,8.62,0,0,1-5.67-1c-1.11-.54-2.25-1.24-3.53-1.86a15.44,15.44,0,0,0-4.29-1.35,28.65,28.65,0,0,0-10.33.56c-3.63.75-7.07,1.71-10.29,2.13a22.31,22.31,0,0,1-8.59-.3,13.65,13.65,0,0,1-5.23-2.48A8.62,8.62,0,0,1,96,134.24a2.17,2.17,0,0,1-.34-.43s.53.54,1.63,1.34a14.17,14.17,0,0,0,5.2,2.29,22.51,22.51,0,0,0,8.44.18c3.18-.44,6.59-1.41,10.25-2.17a28.51,28.51,0,0,1,10.51-.52,15.65,15.65,0,0,1,4.4,1.43c1.3.65,2.42,1.37,3.5,1.92a8.64,8.64,0,0,0,5.46,1.17A6.21,6.21,0,0,0,147,138.71Z"/><path class="cls-4" d="M147.62,152.83a10.58,10.58,0,0,0-1.68-1.1,9.82,9.82,0,0,0-5.34-.77c-2.32.2-4.91,1.26-7.86,2.23a19.39,19.39,0,0,1-4.81,1,22.37,22.37,0,0,1-5.25-.33c-3.56-.62-6.8-1.72-9.79-2.47a29.83,29.83,0,0,0-8.07-1.06,15.07,15.07,0,0,0-5.36,1.06c-1.19.51-1.79.93-1.82.88a2,2,0,0,1,.42-.32,10.22,10.22,0,0,1,1.32-.75,14.39,14.39,0,0,1,5.43-1.24,29.06,29.06,0,0,1,8.2,1c3,.73,6.26,1.81,9.76,2.42a22.25,22.25,0,0,0,5.13.33,19.23,19.23,0,0,0,4.7-.92c2.93-.93,5.58-2,8-2.13a9.68,9.68,0,0,1,5.47,1A4.54,4.54,0,0,1,147.62,152.83Z"/><path class="cls-4" d="M148.65,169.9s0,0-.11.1a2.58,2.58,0,0,1-.35.23,4.66,4.66,0,0,1-1.52.52,7.24,7.24,0,0,1-2.55-.07,16.4,16.4,0,0,1-3.18-1.07,23.71,23.71,0,0,0-8.27-2.2,22.27,22.27,0,0,0-5.05.21,43.33,43.33,0,0,0-5.31,1.29,53,53,0,0,1-5.35,1.37,27.25,27.25,0,0,1-5.14.45,28.49,28.49,0,0,1-8.59-1.41,26.61,26.61,0,0,1-5.34-2.43,16,16,0,0,1-1.34-.87,2.23,2.23,0,0,1-.44-.34s.66.39,1.87,1a29.55,29.55,0,0,0,5.35,2.26,29.08,29.08,0,0,0,8.48,1.29,27.35,27.35,0,0,0,5-.47,54.57,54.57,0,0,0,5.3-1.36,42.49,42.49,0,0,1,5.38-1.29,22.36,22.36,0,0,1,5.17-.18,23.46,23.46,0,0,1,8.38,2.34,16.84,16.84,0,0,0,3.1,1.12,7.34,7.34,0,0,0,2.46.15A6.24,6.24,0,0,0,148.65,169.9Z"/><path class="cls-4" d="M66,125s.16.29.51.72a4.77,4.77,0,0,0,1.94,1.32,12,12,0,0,0,3.49.72,11.81,11.81,0,0,1,4.4,1,8.66,8.66,0,0,1,3.11,3.29,21.17,21.17,0,0,0,2,3A7,7,0,0,0,84.13,137a1.92,1.92,0,0,1-.89-.21,5.81,5.81,0,0,1-2-1.45,18.72,18.72,0,0,1-2.14-3,8.49,8.49,0,0,0-2.95-3.09,12,12,0,0,0-4.21-1,11.41,11.41,0,0,1-3.58-.86,4.55,4.55,0,0,1-2-1.54A1.64,1.64,0,0,1,66,125Z"/><path class="cls-4" d="M78.34,145.23a2,2,0,0,1-.65.59,5.68,5.68,0,0,1-2.26.84,9.89,9.89,0,0,1-3.56-.14,36,36,0,0,1-4.13-1.29,15.38,15.38,0,0,0-4.11-.95,7.34,7.34,0,0,0-3.32.59A5.51,5.51,0,0,0,58,146.94a1.85,1.85,0,0,1,.35-.81,4.65,4.65,0,0,1,1.82-1.58,7.36,7.36,0,0,1,3.5-.74,14.8,14.8,0,0,1,4.26.93c1.45.5,2.8,1,4.06,1.31a10.22,10.22,0,0,0,3.41.25A7.39,7.39,0,0,0,78.34,145.23Z"/><path class="cls-4" d="M82.32,157.06s-.27-.07-.73-.12a3.24,3.24,0,0,0-1.88.45,5.57,5.57,0,0,0-2,2c-.6.95-1.07,2.11-1.8,3.25A6.32,6.32,0,0,1,73,165.17a6.65,6.65,0,0,1-3.06.51,5.54,5.54,0,0,1-2-.51c-.45-.21-.66-.39-.64-.41a9.93,9.93,0,0,0,2.68.56,6.66,6.66,0,0,0,2.86-.58,6,6,0,0,0,2.64-2.33c.7-1.08,1.19-2.25,1.84-3.23a5.68,5.68,0,0,1,2.29-2.11,3.19,3.19,0,0,1,2.07-.32C82.12,156.85,82.34,157,82.32,157.06Z"/><path class="cls-4" d="M89.42,168.87a6.1,6.1,0,0,1-.74,2.27A12.81,12.81,0,0,1,79.76,178a6.1,6.1,0,0,1-2.39.12c0-.09.91-.12,2.3-.48A14,14,0,0,0,88.36,171C89.06,169.72,89.33,168.85,89.42,168.87Z"/><path class="cls-4" d="M172,127.64a1.54,1.54,0,0,1-.19.86,3.83,3.83,0,0,1-1.66,1.73,6.5,6.5,0,0,1-3.46.78c-1.34,0-2.77-.28-4.24-.28a12.81,12.81,0,0,0-7.14,2.25c-1.61,1.11-2.37,2.1-2.44,2a2.48,2.48,0,0,1,.5-.71,10.63,10.63,0,0,1,1.73-1.62,12.37,12.37,0,0,1,7.35-2.47c1.55,0,3,.28,4.25.32a6.38,6.38,0,0,0,3.27-.62,3.92,3.92,0,0,0,1.65-1.49C171.92,127.94,172,127.63,172,127.64Z"/><path class="cls-4" d="M179.87,146.19s-.25-.22-.77-.43a3.47,3.47,0,0,0-2.31,0,15.18,15.18,0,0,0-3.16,1.68,18.72,18.72,0,0,1-4.1,1.86,9.47,9.47,0,0,1-4.52.32,7.31,7.31,0,0,1-3.35-1.59,5.25,5.25,0,0,1-1.49-2,3,3,0,0,1-.2-.65c0-.15,0-.23,0-.24a6.75,6.75,0,0,0,1.94,2.6,7.25,7.25,0,0,0,3.2,1.4,9.34,9.34,0,0,0,4.28-.34,19.8,19.8,0,0,0,4-1.78,14,14,0,0,1,3.3-1.62,3.48,3.48,0,0,1,2.49.22C179.72,145.87,179.89,146.18,179.87,146.19Z"/><path class="cls-4" d="M166.36,172.93a7.68,7.68,0,0,0-.39-2.66,5.45,5.45,0,0,0-1.67-2.3,7,7,0,0,0-3.29-1.23,14.5,14.5,0,0,1-1.88-.45,6.27,6.27,0,0,1-1.64-.84,6.53,6.53,0,0,1-2-2.34,5.86,5.86,0,0,1-.6-2,1.63,1.63,0,0,1,0-.75,10.57,10.57,0,0,0,.91,2.55,6.54,6.54,0,0,0,1.95,2.12,7.92,7.92,0,0,0,3.34,1.17,7.13,7.13,0,0,1,3.49,1.37,5.57,5.57,0,0,1,1.72,2.55,4.91,4.91,0,0,1,.23,2.05A1.55,1.55,0,0,1,166.36,172.93Z"/><ellipse class="cls-8" cx="82.79" cy="122.64" rx="0.26" ry="1.49" transform="translate(-20.17 16.37) rotate(-10.07)"/><ellipse class="cls-8" cx="90.78" cy="110.71" rx="1.74" ry="0.26" transform="translate(-19.63 19.56) rotate(-11.11)"/><ellipse class="cls-8" cx="112.57" cy="113.63" rx="0.26" ry="1.65" transform="translate(-47.09 123.19) rotate(-48.69)"/><ellipse class="cls-8" cx="137.16" cy="115.09" rx="2.32" ry="0.26" transform="translate(-40.16 139.88) rotate(-47.96)"/><ellipse class="cls-8" cx="152.88" cy="113.18" rx="0.26" ry="2" transform="translate(-27.79 172.69) rotate(-54.75)"/><path class="cls-8" d="M105.29,145.38a3.71,3.71,0,0,1-2.25-.88c-1.12-.76-1.74-1.69-1.63-1.78s.87.63,1.93,1.35S105.34,145.24,105.29,145.38Z"/><ellipse class="cls-8" cx="120.47" cy="145.68" rx="2.36" ry="0.26" transform="translate(-67.62 126.72) rotate(-44.66)"/><ellipse class="cls-8" cx="132.17" cy="145.63" rx="0.26" ry="2.37" transform="matrix(0.53, -0.85, 0.85, 0.53, -61.18, 181.62)"/><ellipse class="cls-8" cx="144.45" cy="144.54" rx="1.21" ry="0.26" transform="translate(-59.07 126.25) rotate(-39.88)"/><path class="cls-8" d="M139.89,129c-.13,0,.06-.93.62-1.87s1.26-1.53,1.36-1.43-.38.8-.91,1.7S140,129,139.89,129Z"/><ellipse class="cls-8" cx="125.91" cy="125.24" rx="0.26" ry="1.48" transform="translate(-51.53 132.44) rotate(-47.17)"/><ellipse class="cls-8" cx="107.75" cy="130.52" rx="1.48" ry="0.26" transform="translate(-60.06 108.46) rotate(-42.97)"/><ellipse class="cls-8" cx="156.56" cy="125.75" rx="0.26" ry="1.51" transform="translate(-35.75 183.55) rotate(-55.5)"/><ellipse class="cls-8" cx="164.07" cy="140.06" rx="2.21" ry="0.26" transform="translate(-23.47 246.67) rotate(-70.1)"/><ellipse class="cls-8" cx="161.2" cy="157.31" rx="0.26" ry="1.92" transform="translate(-46.3 69.69) rotate(-21.41)"/><path class="cls-8" d="M155.36,173.57c-.15,0-.15-.82-.24-1.78S154.91,170,155,170s.5.72.59,1.75S155.5,173.59,155.36,173.57Z"/><ellipse class="cls-8" cx="139.13" cy="159.94" rx="1.81" ry="0.26" transform="translate(-71.26 133.95) rotate(-41.94)"/><ellipse class="cls-8" cx="128.6" cy="160.1" rx="0.26" ry="2.11" transform="translate(-69.35 105.46) rotate(-35.8)"/><ellipse class="cls-8" cx="113.74" cy="160.69" rx="2.03" ry="0.26" transform="translate(-81.46 135.09) rotate(-47.24)"/><ellipse class="cls-8" cx="103.53" cy="160.52" rx="0.26" ry="1.57" transform="translate(-70.71 82.26) rotate(-32.99)"/><ellipse class="cls-8" cx="103.21" cy="177.17" rx="0.26" ry="1.32" transform="translate(-95.95 128.41) rotate(-46.02)"/><ellipse class="cls-8" cx="114.99" cy="177.45" rx="1.37" ry="0.26" transform="translate(-93.45 141.92) rotate(-47.38)"/><ellipse class="cls-8" cx="129.19" cy="177.34" rx="0.26" ry="2.72" transform="translate(-81.26 115.28) rotate(-37.5)"/><ellipse class="cls-8" cx="141.03" cy="178.04" rx="2.42" ry="0.26" transform="translate(-84.16 148.41) rotate(-44.12)"/><ellipse class="cls-8" cx="77.98" cy="169.57" rx="1.95" ry="0.26" transform="translate(-97.17 234.05) rotate(-85.51)"/><ellipse class="cls-8" cx="82.8" cy="166.69" rx="0.26" ry="1.53" transform="translate(-103.14 174.93) rotate(-66.12)"/><ellipse class="cls-8" cx="67.16" cy="155.76" rx="0.26" ry="1.68" transform="translate(-99.9 185.15) rotate(-76.65)"/><ellipse class="cls-8" cx="76.01" cy="151.63" rx="2.26" ry="0.26" transform="translate(-93.6 152.07) rotate(-63.52)"/><path class="cls-8" d="M64.05,133.33c.14-.05.58.86,1.23,1.91s1.27,1.85,1.16,2-.92-.57-1.6-1.68A3.75,3.75,0,0,1,64.05,133.33Z"/><path class="cls-8" d="M73,137.33c0,.15-.43.34-.9.67s-.83.67-1,.59.08-.63.66-1S72.95,137.19,73,137.33Z"/><ellipse class="cls-8" cx="103.13" cy="101.86" rx="0.26" ry="2.12" transform="translate(-36.12 61.6) rotate(-28.52)"/><ellipse class="cls-8" cx="115.4" cy="101.77" rx="2.35" ry="0.26" transform="matrix(0.83, -0.56, 0.56, 0.83, -37.28, 82.7)"/><ellipse class="cls-8" cx="134.43" cy="101.43" rx="0.26" ry="2.54" transform="translate(-21.93 163.95) rotate(-58.83)"/><ellipse class="cls-8" cx="144.96" cy="101.48" rx="1.89" ry="0.26" transform="translate(20.98 227.74) rotate(-80.52)"/><path class="cls-4" d="M151.62,105.37a3,3,0,0,1-.35.59,7.51,7.51,0,0,1-1.37,1.42,11,11,0,0,1-6.82,2.19,19.91,19.91,0,0,1-5-.71c-1.74-.45-3.55-1.1-5.45-1.74a33.46,33.46,0,0,0-6.05-1.57,15.93,15.93,0,0,0-6.6.49c-4.42,1.22-8.42,3.46-12.56,3.69a12.32,12.32,0,0,1-3-.16,12.51,12.51,0,0,1-2.68-.88,24,24,0,0,1-4.27-2.62,44.53,44.53,0,0,0-5.93-4c-1.5-.77-2.43-1-2.41-1a3.35,3.35,0,0,1,.67.16,10.86,10.86,0,0,1,1.84.71,39.94,39.94,0,0,1,6.05,3.92,24.25,24.25,0,0,0,4.23,2.52,12.18,12.18,0,0,0,2.59.82,12,12,0,0,0,2.87.14c4-.24,8-2.46,12.46-3.71a16.34,16.34,0,0,1,6.81-.49,33.33,33.33,0,0,1,6.13,1.62c1.9.66,3.69,1.31,5.41,1.78a19.91,19.91,0,0,0,4.85.76,11,11,0,0,0,6.7-2A10.63,10.63,0,0,0,151.62,105.37Z"/><path class="cls-4" d="M164.44,119.11l-.24-.07-.67-.25a21.42,21.42,0,0,0-2.62-.76,20.76,20.76,0,0,0-9.92.2,19.15,19.15,0,0,0-3.11,1.12c-1,.47-2.09,1.08-3.19,1.69a22.47,22.47,0,0,1-3.54,1.67,10.51,10.51,0,0,1-2,.48,9.07,9.07,0,0,1-2.14,0c-2.9-.36-5.49-2-8.3-3.11a11.83,11.83,0,0,0-4.45-.94,15.39,15.39,0,0,0-4.64.82c-3.07,1-5.93,2.44-9,3.12a15.34,15.34,0,0,1-8.82-.72,44.71,44.71,0,0,1-7.19-3.57,55.53,55.53,0,0,0-6.15-3.22,15.63,15.63,0,0,0-9.76-1.19,11.8,11.8,0,0,0-3.36,1.44s.06-.06.19-.16a5.61,5.61,0,0,1,.59-.41,9.18,9.18,0,0,1,2.54-1.08,13.21,13.21,0,0,1,4.35-.36,18.5,18.5,0,0,1,5.6,1.41,54.34,54.34,0,0,1,6.22,3.18,45,45,0,0,0,7.14,3.49,14.9,14.9,0,0,0,8.55.67c3-.66,5.81-2.12,8.93-3.11a15.84,15.84,0,0,1,4.8-.84,12.31,12.31,0,0,1,4.64,1c2.86,1.14,5.42,2.76,8.17,3.1a8.62,8.62,0,0,0,2,0,10.09,10.09,0,0,0,1.93-.45,22.26,22.26,0,0,0,3.48-1.62c1.1-.59,2.15-1.2,3.23-1.67a19.31,19.31,0,0,1,3.18-1.11,20.46,20.46,0,0,1,10.06,0A14,14,0,0,1,164.44,119.11Z"/><path class="cls-4" d="M147,138.71a1.62,1.62,0,0,1-.43.34,4.37,4.37,0,0,1-1.47.59,8.62,8.62,0,0,1-5.67-1c-1.11-.54-2.25-1.24-3.53-1.86a15.44,15.44,0,0,0-4.29-1.35,28.65,28.65,0,0,0-10.33.56c-3.63.75-7.07,1.71-10.29,2.13a22.31,22.31,0,0,1-8.59-.3,13.65,13.65,0,0,1-5.23-2.48A8.62,8.62,0,0,1,96,134.24a2.17,2.17,0,0,1-.34-.43s.53.54,1.63,1.34a14.17,14.17,0,0,0,5.2,2.29,22.51,22.51,0,0,0,8.44.18c3.18-.44,6.59-1.41,10.25-2.17a28.51,28.51,0,0,1,10.51-.52,15.65,15.65,0,0,1,4.4,1.43c1.3.65,2.42,1.37,3.5,1.92a8.64,8.64,0,0,0,5.46,1.17A6.21,6.21,0,0,0,147,138.71Z"/><path class="cls-4" d="M147.62,152.83a10.58,10.58,0,0,0-1.68-1.1,9.82,9.82,0,0,0-5.34-.77c-2.32.2-4.91,1.26-7.86,2.23a19.39,19.39,0,0,1-4.81,1,22.37,22.37,0,0,1-5.25-.33c-3.56-.62-6.8-1.72-9.79-2.47a29.83,29.83,0,0,0-8.07-1.06,15.07,15.07,0,0,0-5.36,1.06c-1.19.51-1.79.93-1.82.88a2,2,0,0,1,.42-.32,10.22,10.22,0,0,1,1.32-.75,14.39,14.39,0,0,1,5.43-1.24,29.06,29.06,0,0,1,8.2,1c3,.73,6.26,1.81,9.76,2.42a22.25,22.25,0,0,0,5.13.33,19.23,19.23,0,0,0,4.7-.92c2.93-.93,5.58-2,8-2.13a9.68,9.68,0,0,1,5.47,1A4.54,4.54,0,0,1,147.62,152.83Z"/><path class="cls-4" d="M148.65,169.9s0,0-.11.1a2.58,2.58,0,0,1-.35.23,4.66,4.66,0,0,1-1.52.52,7.24,7.24,0,0,1-2.55-.07,16.4,16.4,0,0,1-3.18-1.07,23.71,23.71,0,0,0-8.27-2.2,22.27,22.27,0,0,0-5.05.21,43.33,43.33,0,0,0-5.31,1.29,53,53,0,0,1-5.35,1.37,27.25,27.25,0,0,1-5.14.45,28.49,28.49,0,0,1-8.59-1.41,26.61,26.61,0,0,1-5.34-2.43,16,16,0,0,1-1.34-.87,2.23,2.23,0,0,1-.44-.34s.66.39,1.87,1a29.55,29.55,0,0,0,5.35,2.26,29.08,29.08,0,0,0,8.48,1.29,27.35,27.35,0,0,0,5-.47,54.57,54.57,0,0,0,5.3-1.36,42.49,42.49,0,0,1,5.38-1.29,22.36,22.36,0,0,1,5.17-.18,23.46,23.46,0,0,1,8.38,2.34,16.84,16.84,0,0,0,3.1,1.12,7.34,7.34,0,0,0,2.46.15A6.24,6.24,0,0,0,148.65,169.9Z"/><path class="cls-4" d="M66,125s.16.29.51.72a4.77,4.77,0,0,0,1.94,1.32,12,12,0,0,0,3.49.72,11.81,11.81,0,0,1,4.4,1,8.66,8.66,0,0,1,3.11,3.29,21.17,21.17,0,0,0,2,3A7,7,0,0,0,84.13,137a1.92,1.92,0,0,1-.89-.21,5.81,5.81,0,0,1-2-1.45,18.72,18.72,0,0,1-2.14-3,8.49,8.49,0,0,0-2.95-3.09,12,12,0,0,0-4.21-1,11.41,11.41,0,0,1-3.58-.86,4.55,4.55,0,0,1-2-1.54A1.64,1.64,0,0,1,66,125Z"/><path class="cls-4" d="M78.34,145.23a2,2,0,0,1-.65.59,5.68,5.68,0,0,1-2.26.84,9.89,9.89,0,0,1-3.56-.14,36,36,0,0,1-4.13-1.29,15.38,15.38,0,0,0-4.11-.95,7.34,7.34,0,0,0-3.32.59A5.51,5.51,0,0,0,58,146.94a1.85,1.85,0,0,1,.35-.81,4.65,4.65,0,0,1,1.82-1.58,7.36,7.36,0,0,1,3.5-.74,14.8,14.8,0,0,1,4.26.93c1.45.5,2.8,1,4.06,1.31a10.22,10.22,0,0,0,3.41.25A7.39,7.39,0,0,0,78.34,145.23Z"/><path class="cls-4" d="M82.32,157.06s-.27-.07-.73-.12a3.24,3.24,0,0,0-1.88.45,5.57,5.57,0,0,0-2,2c-.6.95-1.07,2.11-1.8,3.25A6.32,6.32,0,0,1,73,165.17a6.65,6.65,0,0,1-3.06.51,5.54,5.54,0,0,1-2-.51c-.45-.21-.66-.39-.64-.41a9.93,9.93,0,0,0,2.68.56,6.66,6.66,0,0,0,2.86-.58,6,6,0,0,0,2.64-2.33c.7-1.08,1.19-2.25,1.84-3.23a5.68,5.68,0,0,1,2.29-2.11,3.19,3.19,0,0,1,2.07-.32C82.12,156.85,82.34,157,82.32,157.06Z"/><path class="cls-4" d="M89.42,168.87a6.1,6.1,0,0,1-.74,2.27A12.81,12.81,0,0,1,79.76,178a6.1,6.1,0,0,1-2.39.12c0-.09.91-.12,2.3-.48A14,14,0,0,0,88.36,171C89.06,169.72,89.33,168.85,89.42,168.87Z"/><path class="cls-4" d="M172,127.64a1.54,1.54,0,0,1-.19.86,3.83,3.83,0,0,1-1.66,1.73,6.5,6.5,0,0,1-3.46.78c-1.34,0-2.77-.28-4.24-.28a12.81,12.81,0,0,0-7.14,2.25c-1.61,1.11-2.37,2.1-2.44,2a2.48,2.48,0,0,1,.5-.71,10.63,10.63,0,0,1,1.73-1.62,12.37,12.37,0,0,1,7.35-2.47c1.55,0,3,.28,4.25.32a6.38,6.38,0,0,0,3.27-.62,3.92,3.92,0,0,0,1.65-1.49C171.92,127.94,172,127.63,172,127.64Z"/><path class="cls-4" d="M179.87,146.19s-.25-.22-.77-.43a3.47,3.47,0,0,0-2.31,0,15.18,15.18,0,0,0-3.16,1.68,18.72,18.72,0,0,1-4.1,1.86,9.47,9.47,0,0,1-4.52.32,7.31,7.31,0,0,1-3.35-1.59,5.25,5.25,0,0,1-1.49-2,3,3,0,0,1-.2-.65c0-.15,0-.23,0-.24a6.75,6.75,0,0,0,1.94,2.6,7.25,7.25,0,0,0,3.2,1.4,9.34,9.34,0,0,0,4.28-.34,19.8,19.8,0,0,0,4-1.78,14,14,0,0,1,3.3-1.62,3.48,3.48,0,0,1,2.49.22C179.72,145.87,179.89,146.18,179.87,146.19Z"/><path class="cls-4" d="M166.36,172.93a7.68,7.68,0,0,0-.39-2.66,5.45,5.45,0,0,0-1.67-2.3,7,7,0,0,0-3.29-1.23,14.5,14.5,0,0,1-1.88-.45,6.27,6.27,0,0,1-1.64-.84,6.53,6.53,0,0,1-2-2.34,5.86,5.86,0,0,1-.6-2,1.63,1.63,0,0,1,0-.75,10.57,10.57,0,0,0,.91,2.55,6.54,6.54,0,0,0,1.95,2.12,7.92,7.92,0,0,0,3.34,1.17,7.13,7.13,0,0,1,3.49,1.37,5.57,5.57,0,0,1,1.72,2.55,4.91,4.91,0,0,1,.23,2.05A1.55,1.55,0,0,1,166.36,172.93Z"/><ellipse class="cls-8" cx="82.79" cy="122.64" rx="0.26" ry="1.49" transform="translate(-20.17 16.37) rotate(-10.07)"/><ellipse class="cls-8" cx="90.78" cy="110.71" rx="1.74" ry="0.26" transform="translate(-19.63 19.56) rotate(-11.11)"/><ellipse class="cls-8" cx="112.57" cy="113.63" rx="0.26" ry="1.65" transform="translate(-47.09 123.19) rotate(-48.69)"/><ellipse class="cls-8" cx="137.16" cy="115.09" rx="2.32" ry="0.26" transform="translate(-40.16 139.88) rotate(-47.96)"/><ellipse class="cls-8" cx="152.88" cy="113.18" rx="0.26" ry="2" transform="translate(-27.79 172.69) rotate(-54.75)"/><path class="cls-8" d="M105.29,145.38a3.71,3.71,0,0,1-2.25-.88c-1.12-.76-1.74-1.69-1.63-1.78s.87.63,1.93,1.35S105.34,145.24,105.29,145.38Z"/><ellipse class="cls-8" cx="120.47" cy="145.68" rx="2.36" ry="0.26" transform="translate(-67.62 126.72) rotate(-44.66)"/><ellipse class="cls-8" cx="132.17" cy="145.63" rx="0.26" ry="2.37" transform="matrix(0.53, -0.85, 0.85, 0.53, -61.18, 181.62)"/><ellipse class="cls-8" cx="144.45" cy="144.54" rx="1.21" ry="0.26" transform="translate(-59.07 126.25) rotate(-39.88)"/><path class="cls-8" d="M139.89,129c-.13,0,.06-.93.62-1.87s1.26-1.53,1.36-1.43-.38.8-.91,1.7S140,129,139.89,129Z"/><ellipse class="cls-8" cx="125.91" cy="125.24" rx="0.26" ry="1.48" transform="translate(-51.53 132.44) rotate(-47.17)"/><ellipse class="cls-8" cx="107.75" cy="130.52" rx="1.48" ry="0.26" transform="translate(-60.06 108.46) rotate(-42.97)"/><ellipse class="cls-8" cx="156.56" cy="125.75" rx="0.26" ry="1.51" transform="translate(-35.75 183.55) rotate(-55.5)"/><ellipse class="cls-8" cx="164.07" cy="140.06" rx="2.21" ry="0.26" transform="translate(-23.47 246.67) rotate(-70.1)"/><ellipse class="cls-8" cx="161.2" cy="157.31" rx="0.26" ry="1.92" transform="translate(-46.3 69.69) rotate(-21.41)"/><path class="cls-8" d="M155.36,173.57c-.15,0-.15-.82-.24-1.78S154.91,170,155,170s.5.72.59,1.75S155.5,173.59,155.36,173.57Z"/><ellipse class="cls-8" cx="139.13" cy="159.94" rx="1.81" ry="0.26" transform="translate(-71.26 133.95) rotate(-41.94)"/><ellipse class="cls-8" cx="128.6" cy="160.1" rx="0.26" ry="2.11" transform="translate(-69.35 105.46) rotate(-35.8)"/><ellipse class="cls-8" cx="113.74" cy="160.69" rx="2.03" ry="0.26" transform="translate(-81.46 135.09) rotate(-47.24)"/><ellipse class="cls-8" cx="103.53" cy="160.52" rx="0.26" ry="1.57" transform="translate(-70.71 82.26) rotate(-32.99)"/><ellipse class="cls-8" cx="103.21" cy="177.17" rx="0.26" ry="1.32" transform="translate(-95.95 128.41) rotate(-46.02)"/><ellipse class="cls-8" cx="114.99" cy="177.45" rx="1.37" ry="0.26" transform="translate(-93.45 141.92) rotate(-47.38)"/><ellipse class="cls-8" cx="129.19" cy="177.34" rx="0.26" ry="2.72" transform="translate(-81.26 115.28) rotate(-37.5)"/><ellipse class="cls-8" cx="141.03" cy="178.04" rx="2.42" ry="0.26" transform="translate(-84.16 148.41) rotate(-44.12)"/><ellipse class="cls-8" cx="77.98" cy="169.57" rx="1.95" ry="0.26" transform="translate(-97.17 234.05) rotate(-85.51)"/><ellipse class="cls-8" cx="82.8" cy="166.69" rx="0.26" ry="1.53" transform="translate(-103.14 174.93) rotate(-66.12)"/><ellipse class="cls-8" cx="67.16" cy="155.76" rx="0.26" ry="1.68" transform="translate(-99.9 185.15) rotate(-76.65)"/><ellipse class="cls-8" cx="76.01" cy="151.63" rx="2.26" ry="0.26" transform="translate(-93.6 152.07) rotate(-63.52)"/><path class="cls-8" d="M64.05,133.33c.14-.05.58.86,1.23,1.91s1.27,1.85,1.16,2-.92-.57-1.6-1.68A3.75,3.75,0,0,1,64.05,133.33Z"/><path class="cls-8" d="M73,137.33c0,.15-.43.34-.9.67s-.83.67-1,.59.08-.63.66-1S72.95,137.19,73,137.33Z"/><ellipse class="cls-8" cx="103.13" cy="101.86" rx="0.26" ry="2.12" transform="translate(-36.12 61.6) rotate(-28.52)"/><ellipse class="cls-8" cx="115.4" cy="101.77" rx="2.35" ry="0.26" transform="matrix(0.83, -0.56, 0.56, 0.83, -37.28, 82.7)"/><ellipse class="cls-8" cx="134.43" cy="101.43" rx="0.26" ry="2.54" transform="translate(-21.93 163.95) rotate(-58.83)"/><ellipse class="cls-8" cx="144.96" cy="101.48" rx="1.89" ry="0.26" transform="translate(20.98 227.74) rotate(-80.52)"/><path class="cls-14" d="M91.39,176.94a74.32,74.32,0,0,1,7.09,5.71c2.12,1.93-2,13.45-4.33,11.43s-8.62-9.95-8.62-9.95Z"/><path class="cls-15" d="M94.47,194.28s-6.54-.72-6.36-2.07a7.32,7.32,0,0,1,1.61-3Z"/><path class="cls-4" d="M361.37,56.07a2.22,2.22,0,0,1-.91.05,3.62,3.62,0,0,1-2.25-1.28c-1.67-1.69-1.4-6,1.81-8.63a2.7,2.7,0,0,1,1.55-.42,2.17,2.17,0,0,1,1.54.67,1.94,1.94,0,0,1,.43,1.69,3.53,3.53,0,0,1-.82,1.61,6.38,6.38,0,0,1-7.19,1.31,5.63,5.63,0,0,1-2.92-2.92,6.7,6.7,0,0,1-.36-4.3,6.09,6.09,0,0,1,.93-2A3.94,3.94,0,0,1,355,40.34a2.18,2.18,0,0,1,1.21-.14,1.55,1.55,0,0,1,1,.71,2.68,2.68,0,0,1,0,2.38,6.72,6.72,0,0,1-7.78,3.5,6.39,6.39,0,0,1-3.44-2.6,6.76,6.76,0,0,1-1.16-4,4.84,4.84,0,0,1,1.59-3.59,3,3,0,0,1,1.81-.68,2.33,2.33,0,0,1,1.75.68,3,3,0,0,1,.31,3.38,3.91,3.91,0,0,1-2.66,1.76,5.68,5.68,0,0,1-2.91-.17,6.66,6.66,0,0,1-2.26-1.29,7,7,0,0,1-1.47-1.71,7.23,7.23,0,0,1-.79-1.72,6.16,6.16,0,0,1-.24-2.6,4.92,4.92,0,0,1,.2-.89s-.06.31-.13.9a6.32,6.32,0,0,0,.3,2.55,7.18,7.18,0,0,0,.8,1.68,6.9,6.9,0,0,0,1.45,1.65,6.48,6.48,0,0,0,2.2,1.22,5.46,5.46,0,0,0,2.79.14A3.67,3.67,0,0,0,350,39.88a2.69,2.69,0,0,0-.28-3,2.39,2.39,0,0,0-3.17,0,4.54,4.54,0,0,0-1.46,3.36A6.45,6.45,0,0,0,346.2,44a6.06,6.06,0,0,0,3.27,2.45,6.38,6.38,0,0,0,7.37-3.31,2.36,2.36,0,0,0,.05-2.06,1.2,1.2,0,0,0-.79-.55,1.84,1.84,0,0,0-1,.12A3.6,3.6,0,0,0,353.47,42a5.76,5.76,0,0,0-.88,1.93,6.38,6.38,0,0,0,.34,4.08,5.31,5.31,0,0,0,2.74,2.76,6.1,6.1,0,0,0,6.84-1.2,3.26,3.26,0,0,0,.77-1.47,1.67,1.67,0,0,0-.35-1.46,1.92,1.92,0,0,0-1.36-.59,2.45,2.45,0,0,0-1.41.37,5.37,5.37,0,0,0-1.81,2.13,8.3,8.3,0,0,0-.87,2.38,4.51,4.51,0,0,0,.83,3.83,3.6,3.6,0,0,0,2.15,1.29A4.52,4.52,0,0,0,361.37,56.07Z"/><path class="cls-4" d="M214.79,174.16a1.16,1.16,0,0,1-.24.14l-.74.37a25.55,25.55,0,0,0-2.7,1.65,23.73,23.73,0,0,0-7.54,8.7,16.93,16.93,0,0,0-2,7.65,8.48,8.48,0,0,0,1.13,4.19,6.61,6.61,0,0,0,3.42,2.94,3.92,3.92,0,0,0,2.3.16,2.27,2.27,0,0,0,1.72-1.36,2.1,2.1,0,0,0-.61-2.11,3.57,3.57,0,0,0-2.21-1,13.05,13.05,0,0,0-2.63,0,21.84,21.84,0,0,0-2.67.4,14.56,14.56,0,0,0-5,2.06c-3.07,2-5,5.77-4.15,9.16a5.71,5.71,0,0,0,3,3.82,3.89,3.89,0,0,0,4.37-.75,3.07,3.07,0,0,0,1-2,3.28,3.28,0,0,0-.61-2.07,4.47,4.47,0,0,0-3.69-1.86,8.47,8.47,0,0,0-6.74,3.5,8.6,8.6,0,0,0-1.76,6.14,9.27,9.27,0,0,0,1.83,4.55,9.18,9.18,0,0,0,2.28,2.15c.6.4,1,.55.94.58a4.87,4.87,0,0,1-1-.49,8.78,8.78,0,0,1-2.39-2.12,9.38,9.38,0,0,1-2-4.64,9.19,9.19,0,0,1,8.81-10.11,4.92,4.92,0,0,1,4.05,2,3.74,3.74,0,0,1,.7,2.36,3.55,3.55,0,0,1-1.1,2.28,4.48,4.48,0,0,1-2.29,1.19,4.28,4.28,0,0,1-2.62-.34,6.2,6.2,0,0,1-3.27-4.15,8.26,8.26,0,0,1,.65-5.45,10.43,10.43,0,0,1,3.71-4.26,15,15,0,0,1,5.23-2.13,22.28,22.28,0,0,1,2.73-.41,13.47,13.47,0,0,1,2.74,0,4.07,4.07,0,0,1,2.51,1.14,2.6,2.6,0,0,1,.71,2.62,2.76,2.76,0,0,1-2.07,1.67,4.41,4.41,0,0,1-2.57-.18,7.07,7.07,0,0,1-3.66-3.16,8.91,8.91,0,0,1-1.17-4.41,17.2,17.2,0,0,1,2.11-7.82,23.45,23.45,0,0,1,7.76-8.7A16.92,16.92,0,0,1,214.79,174.16Z"/><path class="cls-4" d="M30.19,135.19a5.43,5.43,0,0,1-.62-.61,8.19,8.19,0,0,1-1.36-2.08,9.45,9.45,0,0,1-.86-3.83,9,9,0,0,1,1.47-5,36.05,36.05,0,0,1,4.07-4.82A19.21,19.21,0,0,0,35,116.13a8.73,8.73,0,0,0,1.28-3.38,7,7,0,0,0-.58-3.72,16,16,0,0,0-2.12-3.41c-.84-1.09-1.75-2.17-2.6-3.33a15.93,15.93,0,0,1-2.08-3.86,9.64,9.64,0,0,1-.58-4.36,7.48,7.48,0,0,1,1.71-3.91,5.54,5.54,0,0,1,3.6-2,3.16,3.16,0,0,1,2,.41,2.14,2.14,0,0,1,1,1.75A1.91,1.91,0,0,1,35.59,92a2.54,2.54,0,0,1-1.9.18A5.93,5.93,0,0,1,30.88,90a12.52,12.52,0,0,1-2.42-5.82,19,19,0,0,1,0-5.21,35,35,0,0,1,.7-3.86c.25-1,.46-1.86.61-2.4l.18-.62a1,1,0,0,1,.07-.21,1,1,0,0,1,0,.22l-.14.63-.54,2.42A37.35,37.35,0,0,0,28.63,79a19,19,0,0,0,.1,5.14,12.3,12.3,0,0,0,2.4,5.66,5.64,5.64,0,0,0,2.66,2,2.2,2.2,0,0,0,1.66-.17,1.57,1.57,0,0,0,.9-1.34,1.8,1.8,0,0,0-.86-1.45,2.82,2.82,0,0,0-1.79-.35,5.18,5.18,0,0,0-3.36,1.87,7.12,7.12,0,0,0-1.62,3.72,9.29,9.29,0,0,0,.56,4.19,15.6,15.6,0,0,0,2,3.77c.83,1.15,1.74,2.22,2.59,3.33a16.29,16.29,0,0,1,2.16,3.5,7.36,7.36,0,0,1,.59,3.91,9,9,0,0,1-1.34,3.51,19.4,19.4,0,0,1-2.17,2.79,36.46,36.46,0,0,0-4.08,4.75,8.78,8.78,0,0,0-1.49,4.83,9.44,9.44,0,0,0,.78,3.77,8.66,8.66,0,0,0,1.28,2.09C30,135,30.21,135.17,30.19,135.19Z"/><path class="cls-12" d="M34.82,28.9C25.9,27.7,19.33,32.38,16.4,39.5S14.91,55,18.62,61.73C20.69,65.49,23.78,69.09,28,70a12.1,12.1,0,0,0,9.78-2.8,26.42,26.42,0,0,0,6.33-8.29c3-5.5,4.72-11.72,4-17.93-.6-5.44-6.17-11.23-13.3-12"/><path class="cls-12" d="M29.38,69.37c-.33.46-1,2.07-1.3,2.58a.91.91,0,0,0-.12.77.64.64,0,0,0,.79.25,1.87,1.87,0,0,0,.71-.55A.86.86,0,1,0,31.13,72a1.52,1.52,0,0,0,.67.58c.29.09.67-.06.7-.36a.77.77,0,0,0-.23-.51L30.5,69.53"/><path class="cls-4" d="M485.68,250.87a5.44,5.44,0,0,1-.62-.61,8.19,8.19,0,0,1-1.36-2.08,9.45,9.45,0,0,1-.86-3.83,9,9,0,0,1,1.47-5,36.07,36.07,0,0,1,4.07-4.82,19.21,19.21,0,0,0,2.12-2.75,8.73,8.73,0,0,0,1.28-3.38,7,7,0,0,0-.58-3.72,16,16,0,0,0-2.12-3.41c-.84-1.09-1.75-2.17-2.6-3.33a15.93,15.93,0,0,1-2.08-3.86,9.64,9.64,0,0,1-.58-4.36,7.48,7.48,0,0,1,1.71-3.91,5.54,5.54,0,0,1,3.6-2,3.16,3.16,0,0,1,2,.41,2.14,2.14,0,0,1,1,1.75,1.91,1.91,0,0,1-1.09,1.64,2.54,2.54,0,0,1-1.9.18,5.93,5.93,0,0,1-2.81-2.17,12.52,12.52,0,0,1-2.42-5.82,19,19,0,0,1,0-5.21,35,35,0,0,1,.7-3.86c.25-1,.46-1.86.61-2.4l.18-.62a1,1,0,0,1,.07-.21,1,1,0,0,1-.07.21l-.14.63-.54,2.42a37.38,37.38,0,0,0-.64,3.86,19,19,0,0,0,.1,5.14,12.3,12.3,0,0,0,2.4,5.66,5.64,5.64,0,0,0,2.65,2,2.2,2.2,0,0,0,1.66-.17,1.57,1.57,0,0,0,.9-1.34,1.8,1.8,0,0,0-.86-1.45,2.82,2.82,0,0,0-1.79-.35,5.18,5.18,0,0,0-3.36,1.87,7.13,7.13,0,0,0-1.62,3.72,9.29,9.29,0,0,0,.56,4.19,15.6,15.6,0,0,0,2,3.77c.83,1.15,1.74,2.22,2.59,3.33a16.29,16.29,0,0,1,2.16,3.5,7.36,7.36,0,0,1,.59,3.91,9,9,0,0,1-1.34,3.51,19.41,19.41,0,0,1-2.17,2.79,36.47,36.47,0,0,0-4.08,4.75,8.77,8.77,0,0,0-1.49,4.83,9.44,9.44,0,0,0,.78,3.77,8.66,8.66,0,0,0,1.28,2.09C485.48,250.65,485.7,250.86,485.68,250.87Z"/><path class="cls-12" d="M490.3,144.58c-8.92-1.2-15.49,3.48-18.42,10.6s-1.49,15.49,2.22,22.23c2.07,3.75,5.15,7.36,9.35,8.22a12.1,12.1,0,0,0,9.78-2.8,26.42,26.42,0,0,0,6.33-8.29c3-5.5,4.72-11.72,4-17.93-.6-5.44-6.17-11.23-13.3-12"/><path class="cls-12" d="M484.87,185.06c-.33.46-1,2.07-1.3,2.58a.91.91,0,0,0-.12.77.64.64,0,0,0,.79.25,1.87,1.87,0,0,0,.71-.55.86.86,0,1,0,1.67-.37,1.52,1.52,0,0,0,.67.58c.29.09.67-.06.7-.36a.77.77,0,0,0-.23-.51L486,185.22"/><path class="cls-4" d="M329.4,301.68a4.88,4.88,0,0,1-.59-.57,7.68,7.68,0,0,1-1.28-2,8.9,8.9,0,0,1-.81-3.62,8.45,8.45,0,0,1,1.39-4.69,33.94,33.94,0,0,1,3.84-4.54,18.09,18.09,0,0,0,2-2.59,8.2,8.2,0,0,0,1.2-3.18,6.59,6.59,0,0,0-.54-3.49,15.07,15.07,0,0,0-2-3.21c-.79-1-1.65-2-2.45-3.14a15,15,0,0,1-2-3.64,9.1,9.1,0,0,1-.54-4.12,7.07,7.07,0,0,1,1.62-3.7,5.24,5.24,0,0,1,3.41-1.88,3,3,0,0,1,1.91.39,2,2,0,0,1,1,1.67,1.82,1.82,0,0,1-1,1.56,2.41,2.41,0,0,1-1.81.18,5.6,5.6,0,0,1-2.66-2,11.81,11.81,0,0,1-2.28-5.49,17.87,17.87,0,0,1,0-4.91,32.84,32.84,0,0,1,.67-3.64c.23-1,.44-1.75.58-2.26l.17-.58a.8.8,0,0,1,.07-.2.8.8,0,0,1-.07.2l-.13.59-.51,2.28a35.35,35.35,0,0,0-.6,3.63,17.92,17.92,0,0,0,.09,4.84,11.58,11.58,0,0,0,2.26,5.33,5.3,5.3,0,0,0,2.49,1.92,2.05,2.05,0,0,0,1.55-.15,1.45,1.45,0,0,0,.84-1.24,1.67,1.67,0,0,0-.8-1.35,2.63,2.63,0,0,0-1.67-.33,4.86,4.86,0,0,0-3.15,1.75A6.69,6.69,0,0,0,328,263a8.73,8.73,0,0,0,.53,3.93,14.68,14.68,0,0,0,1.91,3.54c.78,1.08,1.64,2.09,2.44,3.14a15.37,15.37,0,0,1,2,3.3,7,7,0,0,1,.56,3.69,8.54,8.54,0,0,1-1.27,3.32,18.28,18.28,0,0,1-2,2.63,34.39,34.39,0,0,0-3.84,4.47,8.26,8.26,0,0,0-1.4,4.54,8.9,8.9,0,0,0,.73,3.55,8.19,8.19,0,0,0,1.2,2C329.21,301.47,329.42,301.67,329.4,301.68Z"/><path class="cls-6" d="M333.76,201.54c-8.41-1.13-14.59,3.28-17.35,10s-1.41,14.59,2.09,20.95c1.95,3.54,4.86,6.93,8.81,7.75a11.4,11.4,0,0,0,9.21-2.64,24.89,24.89,0,0,0,6-7.81c2.78-5.18,4.45-11,3.8-16.89-.56-5.12-5.81-10.58-12.53-11.34"/><path class="cls-6" d="M328.64,239.67c-.31.44-1,2-1.23,2.43a.86.86,0,0,0-.11.72.6.6,0,0,0,.74.24,1.76,1.76,0,0,0,.67-.52.81.81,0,1,0,1.57-.35,1.43,1.43,0,0,0,.63.54c.27.09.63-.06.65-.34a.72.72,0,0,0-.21-.48l-1.66-2.09"/></g></g></svg>