<svg xmlns="http://www.w3.org/2000/svg" viewBox="0 0 468.83 680.87"><defs><style>.cls-1{fill:#e5e7fb;}.cls-2{fill:#ffbfa0;}.cls-3{fill:#ff9a71;}.cls-10,.cls-4{fill:#346bec;}.cls-5{fill:#fff;}.cls-6{fill:none;stroke:#fff;stroke-linecap:round;stroke-miterlimit:10;stroke-width:0.68px;}.cls-7{fill:#03324d;}.cls-8{fill:#fdcb7a;}.cls-9{fill:#101f29;}.cls-10,.cls-9{opacity:0.1;}.cls-11{fill:#1b2e35;}.cls-12{opacity:0.2;}</style></defs><title>Ресурс 13</title><g id="Слой_2" data-name="Слой 2"><g id="OBJECTS"><path class="cls-1" d="M438.77,371.46q-43.86,62.7-149.57,85.22-61.12,13.06-109.83,3.19T95.64,423.21a217.8,217.8,0,0,1-57.31-65.7A285.57,285.57,0,0,1,6.7,274.85Q-4.45,222.69,3,182.54c4.91-26.88,14.83-50.07,29.69-69.81s34.24-36,58.08-49.12,51.45-23,82.86-29.74q58.58-12.51,102.69-5.49c29.41,4.72,54.77,13.32,76,25.57s38.84,27,52.67,44,24.86,33.26,33.17,49.32,14.24,30.31,17.86,43.09,5.77,20.77,6.46,24Q482.66,308.87,438.77,371.46Z"/><ellipse class="cls-1" cx="234.41" cy="657.05" rx="154.12" ry="23.82"/><polygon class="cls-2" points="190.63 612.93 195.09 652.99 220.25 645.19 217.95 636.58 214.49 595.1 190.63 612.93"/><path class="cls-3" d="M216.91,623l-2.43-27.91-23.86,17.83,1.32,10.85C200,622.25,208.72,623.91,216.91,623Z"/><path class="cls-4" d="M193.25,638.29l6.06,4.28,22-3.14-.08,21.76-66.7,1.65s-1.59-3.09,2.17-8C161.61,648.41,193.25,638.29,193.25,638.29Z"/><path class="cls-5" d="M171.48,646.33c-6.7,2.84-12.82,6-14.76,8.5-3.76,4.92-2.17,8-2.17,8l24.86-.62C177,656.83,174.36,651.52,171.48,646.33Z"/><polygon class="cls-5" points="157.47 658.76 154.55 662.83 221.25 661.18 221.23 656.08 157.47 658.76"/><polygon class="cls-4" points="188.56 640.69 186.43 630.03 200.95 631.94 196.86 646.67 188.56 640.69"/><line class="cls-6" x1="176.92" y1="643.9" x2="180.99" y2="649.2"/><line class="cls-6" x1="181.93" y1="641.79" x2="186" y2="647.09"/><line class="cls-6" x1="187.21" y1="639.87" x2="191.28" y2="645.17"/><polygon class="cls-7" points="221.22 657.1 154.22 660.07 154.22 661.08 221.39 658.72 221.22 657.1"/><polygon class="cls-2" points="282.21 615.38 286.67 655.44 311.84 647.65 309.53 639.04 306.07 597.55 282.21 615.38"/><path class="cls-3" d="M308.54,626.35l-2.47-28.8-23.86,17.83,1.36,11A107.33,107.33,0,0,0,308.54,626.35Z"/><path class="cls-4" d="M284.84,640.74,290.9,645l22-3.14-.08,21.76-66.7,1.65s-1.59-3.09,2.17-8C253.19,650.87,284.84,640.74,284.84,640.74Z"/><path class="cls-5" d="M263.06,648.78c-6.7,2.84-12.82,6-14.76,8.5-3.76,4.92-2.17,8-2.17,8l24.86-.62C268.56,659.28,265.94,654,263.06,648.78Z"/><polygon class="cls-5" points="249.06 661.21 246.13 665.29 312.83 663.64 312.81 658.54 249.06 661.21"/><polygon class="cls-4" points="280.14 643.14 278.02 632.49 292.54 634.4 288.44 649.13 280.14 643.14"/><line class="cls-6" x1="268.51" y1="646.36" x2="272.58" y2="651.65"/><line class="cls-6" x1="273.51" y1="644.25" x2="277.58" y2="649.55"/><line class="cls-6" x1="278.79" y1="642.33" x2="282.86" y2="647.62"/><polygon class="cls-7" points="312.81 659.55 245.8 662.52 245.8 663.54 312.97 661.17 312.81 659.55"/><path class="cls-8" d="M164.15,326.26S151.28,468.84,186.29,617.6l34.49,1s-5.31-136.41-2.06-241.93l13.38,1s29.58,173.07,45.81,244.5l32.94,1.54S291.91,389.59,285.42,323,164.15,326.26,164.15,326.26Z"/><path class="cls-9" d="M218.72,376.7l.93.07c-18.5-2.72-47.22-10.22-57.41-13-1.45,52.09,0,151.48,24,253.78l34.49,1S215.47,482.22,218.72,376.7Z"/><path class="cls-9" d="M287.31,343.28c-.71-7.77-1.35-14.62-1.9-20.24-6.49-66.56-121.26,3.22-121.26,3.22s-.76,8.46-1.41,23.36C223.1,356.11,268.44,347.82,287.31,343.28Z"/><path class="cls-2" d="M245.29,40.94c-3.9,2.22-11.84,7.87-13.46,12.6a3,3,0,0,1-2.4-2.55,18.64,18.64,0,0,1,2.07-8.81s-23.06-2.65-22.31-4.84,12.74-.55,12.74-.55S205.18,33.88,206.6,32c.55-.73,2.45,1,13,.16,0,0-14.7-3.7-12.19-5.09,3.16-1.74,12.14-.06,12.14-.06s-9.32-4-7.21-5c1.53-.74,22.09,1.7,31.13,1.55C244.1,26.16,246.14,41,245.29,40.94Z"/><path class="cls-2" d="M239.82,34.65a.26.26,0,0,0-.27-.15c-6.34,1-8.29,7.53-8.3,7.6a.26.26,0,0,0,.5.14c0-.06,1.88-6.32,7.89-7.23a.26.26,0,0,0,.22-.29A.26.26,0,0,0,239.82,34.65Z"/><path class="cls-2" d="M124.65,329.35,96.4,348.07s-.5,1.75-1.23,4.41c-2,1-13.14,6.79-10.74,8.42,1.51,1,5.53.13,8.7-.82-3.85,14.72-8.4,34.81,2.7,9.81,0,0-8.88,48.45,5.4,1,0,0-7.34,47.68,5.6,1.16,0,0-6.56,36.48,4.63,1.74C125.73,329.43,124.65,329.35,124.65,329.35Z"/><path class="cls-3" d="M124.65,329.35,96.4,348.07s-.5,1.75-1.23,4.41l20,9.76C125.54,329.42,124.65,329.35,124.65,329.35Z"/><path class="cls-4" d="M289.28,172.28s77.52-121.2,66.44-141.4-112.32-9.32-112.32-9.32V43.31l65.9,11.17L264.53,124h0a180.14,180.14,0,0,0-84.69,8h0a66.94,66.94,0,0,0-9.15,3c-25.31,10.88-77.52,214.43-77.52,214.43L120,360.29s19-51.19,37-100.46c-1.6,27.3-1.94,56.13,1,78.71,0,0,66.44,18.65,136-1.55C294,337,279.79,229.77,289.28,172.28Z"/><path class="cls-4" d="M156.33,319.93c.36,6.52.89,12.78,1.65,18.6,0,0,66.44,18.65,136-1.55,0,0-3.79-28.62-6.16-64.21C249.2,298.28,203.17,311.85,156.33,319.93Z"/><path class="cls-9" d="M268.27,19.58c-14.47.85-24.86,2-24.86,2V43.3L265.32,47C266.08,37.86,267.24,28.73,268.27,19.58Z"/><path class="cls-10" d="M120,360.29s19-51.19,37-100.46c-1.07,18.34,4.23-68.57,8.71-120.72-26.58,31-72.57,210.31-72.57,210.31Z"/><path class="cls-9" d="M98.38,329.35c-3.32,12.3-5.26,19.88-5.26,19.88L120,360.1s2.68-7.22,7-18.84Z"/><path class="cls-8" d="M63,92.48s64.72,5,65.82-16.46S106.67,57.7,106.67,57.7s.67-23.19-20.3-21.84-16,20.35-16,20.35-16.92-9.72-20.3,11.59c0,0-20.61-7.48-18.15,13.09C33,89.83,63,92.48,63,92.48Z"/><path class="cls-2" d="M222.84,146.67h0a22.93,22.93,0,0,1-24.59-19.56c-1.27-8.78-2.4-16.84-2.4-16.84S177.2,110.19,174.21,92,168,31.52,168,31.52h0a64,64,0,0,1,64.83-1.64l3,1.67,7.88,90.28A22.92,22.92,0,0,1,222.84,146.67Z"/><path class="cls-3" d="M195.77,110s11.65-.81,22.73-10.35c0,0-3.63,14-22.05,15.07Z"/><path class="cls-2" d="M236.5,50.76c.29-.18,12-5.6,13.44,6.92S238.57,69.1,238.5,68.75,236.5,50.76,236.5,50.76Z"/><path class="cls-3" d="M241.76,63.55c.05,0,.24.13.62.25a2.19,2.19,0,0,0,1.63-.16c1.26-.64,2.13-2.87,1.92-5.14a7.25,7.25,0,0,0-1-3A2.54,2.54,0,0,0,243.12,54a1.12,1.12,0,0,0-1.22.75c-.13.37,0,.61-.08.64s-.29-.18-.25-.71a1.4,1.4,0,0,1,.4-.84,1.66,1.66,0,0,1,1.17-.46A3.09,3.09,0,0,1,245.64,55a7.45,7.45,0,0,1,1.17,3.4c.22,2.53-.79,5-2.54,5.78a2.35,2.35,0,0,1-2-.09C241.82,63.85,241.72,63.58,241.76,63.55Z"/><path class="cls-11" d="M198.27,76c0-.16-1.81-.07-4.67.2-.72.09-1.42.1-1.65-.36a3.68,3.68,0,0,1,0-2.2l.88-5.84c1.18-8.3,1.86-15.06,1.52-15.1s-1.56,6.65-2.74,14.94q-.41,3.06-.78,5.85a4.18,4.18,0,0,0,.26,2.85,1.81,1.81,0,0,0,1.39.77,4.91,4.91,0,0,0,1.24-.1C196.55,76.49,198.29,76.11,198.27,76Z"/><path class="cls-11" d="M196.94,89.48c.57.32,2.21-4.49,6.29-5.74,3.85-1.18,7.77,1.45,7.94,1s-1.55-1.3-3.23-1.92a8.36,8.36,0,0,0-5.2-.67A7.54,7.54,0,0,0,198.64,85C197.2,86.86,196.55,89.26,196.94,89.48Z"/><path class="cls-11" d="M177.34,57c.24-.37,2.3,1.45,5,1.37,2.89-.09,5-2.3,5.25-1.94s-.9,1.39-1,1.48a6,6,0,0,1-3.85,2,5.92,5.92,0,0,1-4.35-1.59C178,58.08,177.19,57.28,177.34,57Z"/><path class="cls-11" d="M203.36,54.1c.18-.4,2.48,1.13,5.16.68,2.86-.48,4.62-3,4.94-2.63s-.71,1.5-.78,1.6a6,6,0,0,1-3.53,2.55,5.92,5.92,0,0,1-4.52-1C204.19,55,203.24,54.36,203.36,54.1Z"/><path class="cls-11" d="M202.07,42.74c.36.74,3.13.09,6.48.15s6.11.69,6.48,0c.16-.35-.38-1-1.53-1.65a11.26,11.26,0,0,0-9.87-.08C202.46,41.73,201.91,42.39,202.07,42.74Z"/><path class="cls-11" d="M176.38,47.76c.56.59,2.43-.27,4.76-.54s4.35,0,4.74-.73c.17-.35-.21-1-1.14-1.47a6.94,6.94,0,0,0-7.66,1C176.34,46.78,176.13,47.47,176.38,47.76Z"/><path class="cls-11" d="M157.46,20.38a6.8,6.8,0,0,1,1.88-6.3,4.82,4.82,0,0,1,6.27-.17,5.63,5.63,0,0,1,4.12-7.28c3-.5,5.75,1.5,8.72,2s5.86-.49,8.46-1.86,5-3.14,7.63-4.42A23.56,23.56,0,0,1,225.91,13c3.88-1.66,8.64-.09,11.46,3s3.91,7.54,3.84,11.76A38.38,38.38,0,0,1,240,36.29c0,.24.07.46.09.7.84,10.1.91,22-3.38,22.56-7.48.88-7.14-13.42-7.14-13.42C220,43.51,222,29.38,219.48,27.53s-7.82-6.22-26.07,5.59c-7.09,4.59-17,5.48-22.59,4.81l-.49,0h-.11l-.17,0a17.42,17.42,0,0,1-5.15-1.59,9.81,9.81,0,0,1-4.53-4.11,5.37,5.37,0,0,1,.46-5.84A11.81,11.81,0,0,1,157.46,20.38Z"/><path class="cls-11" d="M244.53,122.28a2.92,2.92,0,0,1,.41.69,12.74,12.74,0,0,1,.88,2.07,16.53,16.53,0,0,1,.47,8.11,20.23,20.23,0,0,1-6.32,11c-3.77,3.55-9.73,6.1-16.24,6.74s-12.88-.77-17.32-3.54a20.74,20.74,0,0,1-8.48-9.62,16.56,16.56,0,0,1-1.22-8,12.54,12.54,0,0,1,.43-2.2,2.85,2.85,0,0,1,.26-.75c.1,0-.24,1.05-.35,3a17.27,17.27,0,0,0,1.46,7.85,20.69,20.69,0,0,0,8.39,9.28c4.31,2.64,10.45,4,16.77,3.37s12.06-3.06,15.73-6.47a20.18,20.18,0,0,0,6.3-10.68,17.21,17.21,0,0,0-.2-8C245,123.27,244.43,122.32,244.53,122.28Z"/><path class="cls-5" d="M213.65,59.47s-2.7,10.81,1.93,10.81S213.65,59.47,213.65,59.47Z"/><ellipse class="cls-11" cx="158.39" cy="239.36" rx="20.59" ry="0.3" transform="translate(-91.3 380.9) rotate(-86.05)"/><path class="cls-11" d="M323.85,55.27a43.58,43.58,0,0,1-14.39-.42c0-.17,3.23.1,7.2.21S323.84,55.09,323.85,55.27Z"/><path class="cls-11" d="M325.81,50.59a9.45,9.45,0,0,1-2.32,1,51.09,51.09,0,0,1-11.93,2.81,9.45,9.45,0,0,1-2.54.1c0-.18,3.83-.63,8.46-1.73S325.75,50.42,325.81,50.59Z"/><path class="cls-11" d="M268.23,291.21a4.65,4.65,0,0,1-.67.43l-2,1.14c-1.69,1-4.14,2.45-7.14,4.29s-6.57,4-10.62,6.33a94.06,94.06,0,0,1-13.7,6.47,46.18,46.18,0,0,1-14.84,3,22.31,22.31,0,0,1-6.58-.93,15.64,15.64,0,0,1-5.13-2.69,13,13,0,0,1-4.6-6.88,9.81,9.81,0,0,1-.3-2.26,4.61,4.61,0,0,1,0-.79,14.52,14.52,0,0,0,.44,3,13.07,13.07,0,0,0,4.64,6.65,15.42,15.42,0,0,0,5,2.57,22.11,22.11,0,0,0,6.46.86,46.48,46.48,0,0,0,14.67-3A96.86,96.86,0,0,0,247.61,303c4.05-2.27,7.64-4.44,10.66-6.23s5.5-3.2,7.23-4.15l2-1.05A4.64,4.64,0,0,1,268.23,291.21Z"/><path class="cls-11" d="M268.08,262.84a11.27,11.27,0,0,1-.37,1.69,20.1,20.1,0,0,1-.56,1.95c-.25.75-.5,1.62-.89,2.53s-.76,1.94-1.28,3-1.08,2.17-1.71,3.33a49.6,49.6,0,0,1-10.83,13.2c-1,.84-2,1.65-2.93,2.32s-1.85,1.31-2.69,1.84-1.63,1-2.31,1.37a20.08,20.08,0,0,1-1.8.93,11.25,11.25,0,0,1-1.58.7,11.33,11.33,0,0,1,1.49-.87c.49-.26,1.08-.58,1.75-1s1.45-.85,2.26-1.42,1.72-1.16,2.63-1.88,1.88-1.5,2.88-2.34a51.9,51.9,0,0,0,10.73-13.08c.63-1.14,1.25-2.22,1.73-3.28s.95-2,1.33-2.95.68-1.76,1-2.49.49-1.38.64-1.91A11.32,11.32,0,0,1,268.08,262.84Z"/><g class="cls-12"><path d="M244.29,293.95c-4.89,2.78-11.49,3.22-17.38,3.38a7.48,7.48,0,0,1-3.28-.43,2.77,2.77,0,0,1-1.76-2.58c.12-1.33,1.45-2.19,2.68-2.7,4.75-2,10.1-1.86,15.09-3.11,8.51-2.14,17.19-8.21,23.82-14a51.78,51.78,0,0,1-19.18,19.42"/></g><ellipse class="cls-11" cx="290.63" cy="169.94" rx="14.5" ry="0.3" transform="translate(-8.26 324.9) rotate(-57.72)"/></g></g></svg>