<svg xmlns="http://www.w3.org/2000/svg" viewBox="0 0 377.47 548.19"><defs><style>.cls-1{fill:#f2f3fd;}.cls-2{fill:#ffbfa0;}.cls-3{fill:#ff9a71;}.cls-10,.cls-4{fill:#346bec;}.cls-5{fill:#fff;}.cls-6{fill:none;stroke:#fff;stroke-linecap:round;stroke-miterlimit:10;stroke-width:0.68px;}.cls-7{fill:#03324d;}.cls-8{fill:#1b2e35;}.cls-9{fill:#101f29;}.cls-10,.cls-9{opacity:0.1;}.cls-11{fill:#56cc95;}.cls-12{opacity:0.2;}</style></defs><title>Ресурс 24</title><g id="Слой_2" data-name="Слой 2"><g id="OBJECTS"><path class="cls-1" d="M353.27,299.07Q318,349.55,232.85,367.69q-49.21,10.51-88.43,2.57T77,340.74a175.36,175.36,0,0,1-46.14-52.9A229.92,229.92,0,0,1,5.39,221.29q-9-42-3-74.33c4-21.64,11.94-40.31,23.91-56.21S53.86,61.75,73,51.21s41.42-18.55,66.71-23.95q47.16-10.07,82.68-4.42c23.68,3.8,44.1,10.72,61.22,20.59s31.27,21.76,42.41,35.42a230.41,230.41,0,0,1,26.71,39.71q10,19.26,14.38,34.69c2.89,10.2,4.64,16.72,5.2,19.31Q388.6,248.68,353.27,299.07Z"/><ellipse class="cls-1" cx="188.73" cy="529.01" rx="124.09" ry="19.18"/><polygon class="cls-2" points="153.48 493.49 157.07 525.74 177.33 519.46 175.48 512.53 172.69 479.13 153.48 493.49"/><path class="cls-3" d="M174.64,501.6l-2-22.47-19.21,14.36,1.06,8.73C161.05,501,168,502.33,174.64,501.6Z"/><path class="cls-4" d="M155.59,513.9l4.88,3.44,17.72-2.53-.07,17.52-53.7,1.33s-1.28-2.48,1.74-6.45C130.12,522.06,155.59,513.9,155.59,513.9Z"/><path class="cls-5" d="M138.06,520.38c-5.39,2.29-10.32,4.8-11.88,6.84-3,4-1.74,6.45-1.74,6.45l20-.5C142.49,528.83,140.38,524.56,138.06,520.38Z"/><polygon class="cls-5" points="126.79 530.38 124.43 533.67 178.13 532.34 178.12 528.23 126.79 530.38"/><polygon class="cls-4" points="151.81 515.84 150.1 507.26 161.79 508.8 158.5 520.66 151.81 515.84"/><line class="cls-6" x1="142.45" y1="518.42" x2="145.72" y2="522.69"/><line class="cls-6" x1="146.48" y1="516.73" x2="149.75" y2="520.99"/><line class="cls-6" x1="150.73" y1="515.18" x2="154" y2="519.44"/><polygon class="cls-7" points="178.11 529.05 124.17 531.44 124.16 532.26 178.25 530.35 178.11 529.05"/><polygon class="cls-2" points="227.22 495.46 230.81 527.72 251.07 521.44 249.22 514.51 246.43 481.11 227.22 495.46"/><path class="cls-3" d="M248.41,504.29l-2-23.19-19.21,14.36,1.1,8.83A86.42,86.42,0,0,0,248.41,504.29Z"/><path class="cls-4" d="M229.33,515.88l4.88,3.44,17.72-2.53-.07,17.52-53.7,1.33s-1.28-2.48,1.74-6.45C203.85,524,229.33,515.88,229.33,515.88Z"/><path class="cls-5" d="M211.8,522.35c-5.39,2.29-10.32,4.8-11.88,6.84-3,4-1.74,6.45-1.74,6.45l20-.5C216.23,530.81,214.12,526.54,211.8,522.35Z"/><polygon class="cls-5" points="200.52 532.36 198.17 535.64 251.87 534.31 251.85 530.21 200.52 532.36"/><polygon class="cls-4" points="225.55 517.81 223.84 509.23 235.53 510.77 232.24 522.63 225.55 517.81"/><line class="cls-6" x1="216.18" y1="520.4" x2="219.46" y2="524.67"/><line class="cls-6" x1="220.21" y1="518.71" x2="223.49" y2="522.97"/><line class="cls-6" x1="224.46" y1="517.16" x2="227.74" y2="521.42"/><polygon class="cls-7" points="251.85 531.03 197.9 533.42 197.9 534.24 251.98 532.33 251.85 531.03"/><path class="cls-8" d="M132.16,262.68S121.8,377.48,150,497.25l27.77.83s-4.27-109.83-1.66-194.78l10.78.83S210.68,443.47,223.75,501l26.52,1.24S235,313.67,229.8,260.09,132.16,262.68,132.16,262.68Z"/><path class="cls-9" d="M176.09,303.29l.75.06c-14.89-2.19-38-8.23-46.22-10.43-1.17,41.94,0,122,19.36,204.32l27.77.83S173.48,388.25,176.09,303.29Z"/><path class="cls-9" d="M231.32,276.38c-.57-6.26-1.08-11.77-1.53-16.3-5.23-53.59-97.63,2.59-97.63,2.59s-.61,6.81-1.13,18.81C179.62,286.71,216.13,280,231.32,276.38Z"/><path class="cls-2" d="M197.49,33c-3.14,1.79-9.54,6.34-10.84,10.14A2.41,2.41,0,0,1,184.72,41,15,15,0,0,1,186.38,34s-18.57-2.14-18-3.9,10.26-.45,10.26-.45-13.48-2.33-12.34-3.85c.44-.59,2,.81,10.44.13,0,0-11.84-3-9.81-4.1,2.54-1.4,9.77,0,9.77,0s-7.5-3.2-5.81-4c1.23-.6,17.78,1.37,25.06,1.25C196.53,21.06,198.18,33,197.49,33Z"/><path class="cls-2" d="M193.09,27.9a.21.21,0,0,0-.22-.12c-5.1.77-6.67,6.06-6.69,6.12a.21.21,0,0,0,.4.11c0-.05,1.51-5.09,6.35-5.82a.21.21,0,0,0,.17-.24Z"/><path class="cls-2" d="M100.36,265.17,77.62,280.24s-.4,1.41-1,3.55C75,284.6,66,289.26,68,290.57c1.21.82,4.46.1,7-.66-3.1,11.85-6.76,28,2.17,7.9,0,0-7.15,39,4.35.78,0,0-5.91,38.39,4.51.93,0,0-5.28,29.37,3.73,1.4C101.23,265.23,100.36,265.17,100.36,265.17Z"/><path class="cls-3" d="M100.36,265.17,77.62,280.24s-.4,1.41-1,3.55l16.08,7.86C101.07,265.23,100.36,265.17,100.36,265.17Z"/><path class="cls-4" d="M232.91,138.7S295.32,41.12,286.4,24.86,196,17.35,196,17.35V34.87l53.06,9L213,99.81h0a145,145,0,0,0-68.19,6.42h0a53.9,53.9,0,0,0-7.37,2.45C117,117.44,75,281.33,75,281.33l21.65,8.76s15.3-41.21,29.76-80.89c-1.28,22-1.57,45.19.81,63.37,0,0,53.49,15,109.54-1.25C236.73,271.32,225.27,185,232.91,138.7Z"/><path class="cls-4" d="M125.87,257.59c.29,5.25.72,10.29,1.33,15,0,0,53.49,15,109.54-1.25,0,0-3.06-23-5-51.69C200.64,240.16,163.58,251.08,125.87,257.59Z"/><path class="cls-9" d="M216,15.77c-11.65.69-20,1.58-20,1.58V34.87l17.64,3C214.23,30.48,215.16,23.13,216,15.77Z"/><path class="cls-10" d="M96.63,290.08s15.3-41.21,29.76-80.89c-.86,14.77,3.4-55.21,7-97.19C112,136.94,75,281.33,75,281.33Z"/><path class="cls-9" d="M79.21,265.17c-2.67,9.9-4.24,16-4.24,16l21.65,8.76s2.16-5.81,5.62-15.17Z"/><path class="cls-11" d="M50.72,74.46s52.11,4,53-13.25S85.88,46.45,85.88,46.45s.54-18.67-16.34-17.59S56.66,45.25,56.66,45.25,43,37.42,40.32,54.58c0,0-16.59-6-14.61,10.54C26.57,72.33,50.72,74.46,50.72,74.46Z"/><path class="cls-2" d="M179.41,118.09h0a18.46,18.46,0,0,1-19.8-15.75c-1-7.07-1.93-13.56-1.93-13.56s-15-.06-17.42-14.7-5-48.7-5-48.7h0a51.56,51.56,0,0,1,52.19-1.32l2.43,1.34,6.34,72.69A18.46,18.46,0,0,1,179.41,118.09Z"/><path class="cls-3" d="M157.62,88.57a34.49,34.49,0,0,0,18.3-8.33S173,91.48,158.17,92.38Z"/><path class="cls-2" d="M190.42,40.87c.23-.15,9.63-4.51,10.82,5.57s-9.16,9.2-9.22,8.91S190.42,40.87,190.42,40.87Z"/><path class="cls-3" d="M194.65,51.17s.19.1.5.2a1.77,1.77,0,0,0,1.32-.13c1-.52,1.71-2.31,1.55-4.14a5.84,5.84,0,0,0-.79-2.45,2,2,0,0,0-1.48-1.19.9.9,0,0,0-1,.6c-.1.3,0,.49-.06.51s-.24-.14-.2-.57a1.13,1.13,0,0,1,.32-.68,1.33,1.33,0,0,1,.94-.37,2.48,2.48,0,0,1,2,1.34,6,6,0,0,1,.94,2.74c.18,2-.64,4.06-2,4.66a1.89,1.89,0,0,1-1.64-.08C194.7,51.41,194.62,51.19,194.65,51.17Z"/><path class="cls-8" d="M159.63,61.15a15.09,15.09,0,0,0-3.76.16c-.58.07-1.14.08-1.33-.29a3,3,0,0,1,0-1.77l.71-4.7c.95-6.68,1.5-12.12,1.23-12.16s-1.26,5.35-2.2,12q-.33,2.47-.63,4.71a3.37,3.37,0,0,0,.21,2.29,1.46,1.46,0,0,0,1.12.62,4,4,0,0,0,1-.08A14.82,14.82,0,0,0,159.63,61.15Z"/><path class="cls-8" d="M158.56,72c.46.26,1.78-3.61,5.06-4.62,3.1-.95,6.26,1.17,6.4.83s-1.25-1-2.6-1.55a6.73,6.73,0,0,0-4.18-.54,6.07,6.07,0,0,0-3.31,2.29C158.77,69.94,158.25,71.86,158.56,72Z"/><path class="cls-8" d="M142.78,45.93c.19-.3,1.85,1.17,4,1.1s4-1.85,4.23-1.56-.73,1.12-.8,1.19a4.83,4.83,0,0,1-3.1,1.65,4.76,4.76,0,0,1-3.5-1.28C143.34,46.76,142.66,46.12,142.78,45.93Z"/><path class="cls-8" d="M163.73,43.56c.15-.32,2,.91,4.15.54s3.72-2.38,4-2.12-.57,1.21-.63,1.29a4.83,4.83,0,0,1-2.84,2.05,4.76,4.76,0,0,1-3.64-.79C164.4,44.31,163.64,43.76,163.73,43.56Z"/><path class="cls-8" d="M162.69,34.41c.29.59,2.52.07,5.21.12s4.92.55,5.22,0c.13-.28-.3-.82-1.23-1.33a9.07,9.07,0,0,0-7.95-.06C163,33.6,162.56,34.13,162.69,34.41Z"/><path class="cls-8" d="M142,38.45c.45.47,2-.22,3.84-.44s3.5,0,3.82-.58c.13-.28-.17-.77-.91-1.18a5.59,5.59,0,0,0-6.16.82C142,37.66,141.81,38.22,142,38.45Z"/><path class="cls-8" d="M126.78,16.41a5.47,5.47,0,0,1,1.51-5.07,3.88,3.88,0,0,1,5-.14,4.53,4.53,0,0,1,3.32-5.86c2.39-.4,4.63,1.21,7,1.61a11,11,0,0,0,6.81-1.5c2.09-1.1,4-2.52,6.14-3.56a19,19,0,0,1,25.27,8.61c3.12-1.34,7-.07,9.23,2.46a13.81,13.81,0,0,1,3.09,9.47,30.9,30.9,0,0,1-1,6.79c0,.19.06.37.07.56.68,8.13.73,17.75-2.72,18.16-6,.71-5.75-10.81-5.75-10.81-7.7-2.1-6.07-13.48-8.1-15s-6.3-5-21,4.5C150,30.35,142,31.08,137.53,30.53l-.39,0H137l-.13,0a14,14,0,0,1-4.15-1.28,7.9,7.9,0,0,1-3.65-3.31,4.32,4.32,0,0,1,.37-4.71A9.51,9.51,0,0,1,126.78,16.41Z"/><path class="cls-8" d="M196.88,98.45a2.35,2.35,0,0,1,.33.55,10.26,10.26,0,0,1,.71,1.67,13.31,13.31,0,0,1,.38,6.53,16.29,16.29,0,0,1-5.09,8.88,22.66,22.66,0,0,1-13.07,5.42,23,23,0,0,1-13.94-2.85,16.7,16.7,0,0,1-6.83-7.75,13.33,13.33,0,0,1-1-6.47,10.1,10.1,0,0,1,.35-1.77,2.3,2.3,0,0,1,.21-.6c.08,0-.19.85-.29,2.38a13.91,13.91,0,0,0,1.17,6.32,16.66,16.66,0,0,0,6.75,7.47,22.5,22.5,0,0,0,13.5,2.71,22.16,22.16,0,0,0,12.67-5.21,16.24,16.24,0,0,0,5.07-8.6,13.86,13.86,0,0,0-.16-6.42C197.24,99.25,196.8,98.48,196.88,98.45Z"/><path class="cls-5" d="M172,47.88s-2.18,8.7,1.55,8.7S172,47.88,172,47.88Z"/><ellipse class="cls-8" cx="127.52" cy="192.71" rx="16.58" ry="0.24" transform="matrix(0.07, -1, 1, 0.07, -73.51, 306.67)"/><path class="cls-8" d="M260.74,44.5a35.09,35.09,0,0,1-11.59-.34c0-.14,2.6.08,5.79.17S260.73,44.36,260.74,44.5Z"/><path class="cls-8" d="M262.32,40.73a7.61,7.61,0,0,1-1.87.84,41.13,41.13,0,0,1-9.6,2.26,7.61,7.61,0,0,1-2,.08c0-.14,3.08-.51,6.81-1.39S262.27,40.6,262.32,40.73Z"/><path class="cls-8" d="M216,234.46a3.74,3.74,0,0,1-.54.34l-1.58.92c-1.36.81-3.34,2-5.75,3.45s-5.29,3.25-8.55,5.09a75.73,75.73,0,0,1-11,5.21,37.18,37.18,0,0,1-12,2.43,18,18,0,0,1-5.3-.75,12.59,12.59,0,0,1-4.13-2.17,10.49,10.49,0,0,1-3.71-5.54,7.9,7.9,0,0,1-.24-1.82,3.71,3.71,0,0,1,0-.64,11.69,11.69,0,0,0,.36,2.41,10.53,10.53,0,0,0,3.73,5.35,12.41,12.41,0,0,0,4.05,2.07,17.8,17.8,0,0,0,5.2.7,37.42,37.42,0,0,0,11.81-2.44,78,78,0,0,0,11-5.16c3.26-1.82,6.15-3.57,8.59-5s4.43-2.58,5.82-3.34l1.62-.85A3.73,3.73,0,0,1,216,234.46Z"/><path class="cls-8" d="M215.84,211.62a9.07,9.07,0,0,1-.3,1.36,16.18,16.18,0,0,1-.45,1.57c-.2.6-.4,1.3-.72,2s-.61,1.56-1,2.41-.87,1.75-1.37,2.68a39.93,39.93,0,0,1-8.72,10.63c-.82.68-1.59,1.33-2.36,1.87s-1.49,1.05-2.16,1.48-1.31.79-1.86,1.1a16.17,16.17,0,0,1-1.45.75,9.06,9.06,0,0,1-1.27.56,9.12,9.12,0,0,1,1.2-.7c.39-.21.87-.47,1.41-.81s1.17-.68,1.82-1.15,1.38-.93,2.12-1.51,1.51-1.21,2.32-1.88a41.79,41.79,0,0,0,8.64-10.53c.51-.92,1-1.79,1.39-2.64s.76-1.64,1.07-2.37.55-1.41.77-2,.39-1.11.52-1.54A9.12,9.12,0,0,1,215.84,211.62Z"/><g class="cls-12"><path d="M196.68,236.66c-3.94,2.24-9.25,2.59-14,2.72a6,6,0,0,1-2.64-.35,2.23,2.23,0,0,1-1.42-2.08c.1-1.07,1.16-1.76,2.16-2.17,3.83-1.58,8.13-1.49,12.15-2.5,6.85-1.72,13.84-6.61,19.18-11.25a41.69,41.69,0,0,1-15.44,15.63"/></g><ellipse class="cls-8" cx="234" cy="136.82" rx="11.68" ry="0.24" transform="translate(-6.65 261.58) rotate(-57.72)"/></g></g></svg>