<svg xmlns="http://www.w3.org/2000/svg" xmlns:xlink="http://www.w3.org/1999/xlink" viewBox="0 0 236.4 240.41"><defs><style>.cls-1{fill:none;}.cls-2{fill:#e5e7fb;}.cls-3{clip-path:url(#clip-path);}.cls-4{fill:#35af72;}.cls-5{fill:#56cc95;}.cls-6{fill:#fff8ff;}.cls-7{fill:#ffbf9c;}.cls-8{fill:#f89a71;}.cls-9{fill:#1b2e35;}.cls-10{opacity:0.2;}.cls-11{fill:#fafafa;}.cls-12{fill:#fff;}</style><clipPath id="clip-path" transform="translate(0 -10.56)"><path class="cls-1" d="M48.38,31.42V0H133V21.17h5.34A78.13,78.13,0,0,1,194.1,44.43h36.45V66.84h18.6v50.91h-18.6v46.14H215.66a78.38,78.38,0,0,1-77.27,65.31H87.12A78.38,78.38,0,0,1,8.74,150.82V99.55A78.33,78.33,0,0,1,48.38,31.42Z"/></clipPath></defs><title>Ресурс 8</title><g id="Слой_2" data-name="Слой 2"><g id="OBJECTS"><rect class="cls-2" x="8.74" y="21.17" width="208.03" height="208.03" rx="78.38" ry="78.38" transform="translate(225.51 239.81) rotate(-180)"/><g class="cls-3"><circle class="cls-4" cx="202.21" cy="92.13" r="34.18" transform="matrix(0.96, -0.27, 0.27, 0.96, -17.36, 47.46)"/><circle class="cls-5" cx="198.3" cy="92.13" r="34.18" transform="translate(-17.51 46.4) rotate(-15.66)"/><path class="cls-6" d="M205.6,118.14a27,27,0,1,1,18.72-33.31A27,27,0,0,1,205.6,118.14Z" transform="translate(0 -10.56)"/><path class="cls-5" d="M203.66,111.24a19.85,19.85,0,1,1,13.75-24.47A19.87,19.87,0,0,1,203.66,111.24Z" transform="translate(0 -10.56)"/><path class="cls-6" d="M201.73,104.34a12.69,12.69,0,1,1,8.79-15.64A12.7,12.7,0,0,1,201.73,104.34Z" transform="translate(0 -10.56)"/><circle class="cls-5" cx="198.3" cy="92.13" r="5.52" transform="translate(-17.51 46.4) rotate(-15.66)"/><path class="cls-7" d="M174.64,148.34s1.78-7.75,9-7.36,8.93.39,12,0,7.92-4.13,9.28-3,.6,3.69-1.93,5.94a24.71,24.71,0,0,1-6.86,3.78l9.19,1.58s8.28-4.42,10.22-3.64a3,3,0,0,1,1.79,2.93s3.43-1.54,4.41-.18,1.21,2.27.24,3c0,0,.64-.63,2.42-.1,1.52.45,1.39,3.26,0,4l-.47.27s-13,7.5-13.42,7.55c-2.3.31-16.33-.29-23.56-.63a7.39,7.39,0,0,0-6.59,3.44l-11.64,18.44L155.6,169.33Z" transform="translate(0 -10.56)"/><path class="cls-8" d="M198.25,152.58a14.36,14.36,0,0,0,2.13.47c1.34.25,3.24.59,5.45,1h.06l.05,0,2.94-1.35,7-3.25,2.12-1a3.61,3.61,0,0,0,.75-.42,3.62,3.62,0,0,0-.82.28l-2.17.89-3.2,1.37-3.88,1.77-2.94,1.37.11,0c-2.21-.35-4.11-.64-5.47-.83A14.38,14.38,0,0,0,198.25,152.58Z" transform="translate(0 -10.56)"/><path class="cls-8" d="M201.47,156a11.11,11.11,0,0,1,5.25,4.16,6.59,6.59,0,0,0-5.25-4.16Z" transform="translate(0 -10.56)"/><path class="cls-8" d="M186.57,145.17s-.08.47-.34,1.24a6.42,6.42,0,0,1-1.77,2.73l-.27.24.35.07a18.39,18.39,0,0,1,8.57,4.13c1.15,1,1.76,1.71,1.81,1.66a2.17,2.17,0,0,0-.38-.55,13.78,13.78,0,0,0-1.25-1.32,16.85,16.85,0,0,0-5-3.23,17.08,17.08,0,0,0-3.66-1l.09.31a6.15,6.15,0,0,0,1.73-2.93A3,3,0,0,0,186.57,145.17Z" transform="translate(0 -10.56)"/><path class="cls-8" d="M207.4,157.54a18.75,18.75,0,0,0,2.18-.87c1.33-.55,3.2-1.26,5.28-2s4-1.44,5.29-2a11.54,11.54,0,0,0,2.11-1,17,17,0,0,0-2.22.77l-5.32,1.9c-2.08.75-3.94,1.5-5.26,2.12A10.87,10.87,0,0,0,207.4,157.54Z" transform="translate(0 -10.56)"/><path class="cls-8" d="M204.09,157.23a8.68,8.68,0,0,0,5.61.56c0-.12-1.27,0-2.81-.2S204.13,157.11,204.09,157.23Z" transform="translate(0 -10.56)"/><path class="cls-5" d="M131.65,112.69s11.62,6.69,14.06,27.12c1.27,10.65,5.91,30.46,5.91,30.46l9.54-10.73,14.43,16.52S160,209.34,151.15,218.41s-26.27,11.87-26.27,11.87l-3.51-55.61Z" transform="translate(0 -10.56)"/><path class="cls-5" d="M43.49,103.5l26.86-4.7,34.24,1.7s28.51,11.77,27.06,12.19l5.56,55-13.77,26.6,3.4,56.64H32.35l4.93-39.39,6.18-47.46L31.73,200.86,30,251H3.65C.87,229.15,0,198.84,0,198.84l21.47-70.13a40.91,40.91,0,0,1,18.18-23.32A22.46,22.46,0,0,1,43.49,103.5Z" transform="translate(0 -10.56)"/><path class="cls-9" d="M132,140.46a1.53,1.53,0,0,0-.07.28l-.15.83-.55,3.19c-.47,2.77-1.14,6.78-1.9,11.74s-1.63,10.88-2.45,17.48-1.6,13.86-2,21.52l-.12,2.08h0c.4,14.86.86,28.21,1.27,37.84.21,4.82.4,8.7.57,11.39l.21,3.09.07.8a1.42,1.42,0,0,0,0,.27,1.45,1.45,0,0,0,0-.27l0-.8-.13-3.09-.45-11.39c-.35-9.63-.76-23-1.15-37.84h0l.12-2.08c.44-7.64,1.21-14.91,2-21.49s1.64-12.51,2.37-17.48l1.78-11.76.48-3.2.11-.83A1.54,1.54,0,0,0,132,140.46Z" transform="translate(0 -10.56)"/><path class="cls-9" d="M49.54,143.44a1.23,1.23,0,0,0,.09-.35l.17-1,.11-.74c0-.27,0-.57.06-.89a19.39,19.39,0,0,0,.07-2.17L50,137c0-.44-.08-.89-.12-1.36a28.6,28.6,0,0,0-.46-3,32.77,32.77,0,0,0-2.18-6.55,32.77,32.77,0,0,0-3.62-5.88,28.61,28.61,0,0,0-2-2.27c-.33-.33-.64-.68-1-1l-.95-.83a19.4,19.4,0,0,0-1.7-1.34c-.26-.19-.49-.37-.72-.52l-.64-.39-.89-.52a1.23,1.23,0,0,0-.32-.16,1.27,1.27,0,0,0,.28.23l.85.59.62.41c.22.16.45.35.7.54a21.2,21.2,0,0,1,1.65,1.37l.92.84c.32.29.61.64.94,1,.67.66,1.28,1.45,1.94,2.26a33.9,33.9,0,0,1,3.55,5.83,33.9,33.9,0,0,1,2.19,6.46c.19,1,.41,2,.49,2.94,0,.46.12.91.14,1.35l.05,1.25a21.19,21.19,0,0,1,0,2.15c0,.32,0,.61,0,.88l-.08.74-.09,1A1.27,1.27,0,0,0,49.54,143.44Z" transform="translate(0 -10.56)"/><path class="cls-9" d="M31.73,200.86a2.27,2.27,0,0,0,.18-.45l.43-1.32,1.53-4.88c1.29-4.12,3.07-9.82,5.11-16.09s3.93-11.94,5.46-16c.79-2,1.56-3.58,2-4.69.24-.56.42-1,.53-1.29a2.24,2.24,0,0,0,.15-.46,2.24,2.24,0,0,0-.23.43l-.6,1.26C45.81,158.48,45,160,44.17,162c-1.6,4-3.53,9.68-5.57,16s-3.77,12-5,16.13c-.61,2.07-1.09,3.76-1.41,4.92l-.36,1.35A2.21,2.21,0,0,0,31.73,200.86Z" transform="translate(0 -10.56)"/><path class="cls-9" d="M11.92,199.12c0,.07,1-.23,2.67-.48A24.79,24.79,0,0,1,27.42,200c1.56.61,2.47,1.11,2.51,1a2.62,2.62,0,0,0-.61-.41,15.8,15.8,0,0,0-1.79-.9,22.2,22.2,0,0,0-13-1.42,15.8,15.8,0,0,0-1.94.49A2.62,2.62,0,0,0,11.92,199.12Z" transform="translate(0 -10.56)"/><path class="cls-9" d="M130.84,195.23a9.49,9.49,0,0,0,.71-1.06c.47-.67,1.15-1.64,2.08-2.78,1.82-2.3,4.5-5.35,7.47-8.71s5.67-6.4,7.57-8.65c.95-1.12,1.71-2,2.22-2.69a7.86,7.86,0,0,0,.76-1,7.88,7.88,0,0,0-.88.93l-2.31,2.6-7.65,8.57c-3,3.36-5.62,6.45-7.39,8.8a33.3,33.3,0,0,0-2,2.87c-.21.35-.35.65-.45.84A1,1,0,0,0,130.84,195.23Z" transform="translate(0 -10.56)"/><g class="cls-10"><path d="M125.59,230.28c-.43-15.4-1.23-29.59.16-44.8.62,13.49,5.54,29.28,10.48,41.85Z" transform="translate(0 -10.56)"/></g><g class="cls-10"><path d="M43.46,164.12s4.38-9.8,4.09-9.8a149.3,149.3,0,0,1-10.16,56.43Z" transform="translate(0 -10.56)"/></g><path class="cls-9" d="M55.52,216.12a3.66,3.66,0,0,0,.53.34l1.54.89c1.33.79,3.26,1.93,5.62,3.37s5.17,3.17,8.36,5a74,74,0,0,0,10.78,5.1A36.34,36.34,0,0,0,94,233.18a17.56,17.56,0,0,0,5.18-.73,12.31,12.31,0,0,0,4-2.12,10.25,10.25,0,0,0,3.62-5.41,7.72,7.72,0,0,0,.24-1.78,3.63,3.63,0,0,0,0-.62,11.43,11.43,0,0,1-.35,2.36,10.29,10.29,0,0,1-3.65,5.23,12.13,12.13,0,0,1-4,2,17.4,17.4,0,0,1-5.08.68,36.58,36.58,0,0,1-11.55-2.39,76.24,76.24,0,0,1-10.74-5c-3.19-1.78-6-3.49-8.39-4.9S59,218,57.66,217.22l-1.58-.83A3.65,3.65,0,0,0,55.52,216.12Z" transform="translate(0 -10.56)"/><path class="cls-9" d="M55.63,193.79a8.87,8.87,0,0,0,.29,1.33,15.82,15.82,0,0,0,.44,1.53c.2.59.4,1.27.7,2s.6,1.53,1,2.36.85,1.71,1.34,2.62A39,39,0,0,0,67.95,214c.8.66,1.55,1.3,2.31,1.83s1.45,1,2.12,1.45,1.28.77,1.82,1.08a15.81,15.81,0,0,0,1.42.73,8.85,8.85,0,0,0,1.24.55,8.92,8.92,0,0,0-1.17-.68c-.39-.2-.85-.46-1.38-.79s-1.14-.67-1.78-1.12-1.35-.91-2.07-1.48-1.48-1.18-2.26-1.84a40.85,40.85,0,0,1-8.45-10.29c-.49-.9-1-1.75-1.36-2.58s-.75-1.6-1-2.32-.53-1.38-.75-2-.38-1.09-.51-1.5A8.91,8.91,0,0,0,55.63,193.79Z" transform="translate(0 -10.56)"/><ellipse class="cls-11" cx="139.43" cy="156.68" rx="9.04" ry="0.2" transform="translate(-30.45 23.12) rotate(-12.43)"/><path class="cls-11" d="M130.6,154.16a14.3,14.3,0,0,0,2.51-.28c1.54-.24,3.66-.61,6-1.06l6-1.17a17.88,17.88,0,0,0,2.46-.56,14.31,14.31,0,0,0-2.51.28c-1.54.24-3.66.61-6,1.06l-6,1.17A17.91,17.91,0,0,0,130.6,154.16Z" transform="translate(0 -10.56)"/><ellipse class="cls-11" cx="87.73" cy="154.45" rx="38.33" ry="0.2" transform="translate(-1.16 -9.89) rotate(-0.43)"/><ellipse class="cls-11" cx="87.57" cy="148.07" rx="39.44" ry="0.2"/><path class="cls-11" d="M16,149.57l-.09,0c0,.09.07,0,.12,0h.07v-.07h-.33l.23.09c1.41.52,7.31,2.51,14.27,5.17l10.26,3.95,3.11,1.19a7.22,7.22,0,0,0,1.16.39,7.22,7.22,0,0,0-1.1-.53c-.72-.32-1.77-.77-3.07-1.31-2.6-1.08-6.21-2.54-10.22-4.06-7-2.65-12.92-4.53-14.38-4.88v.08h.09v-.07H16s-.09,0-.11.06Z" transform="translate(0 -10.56)"/><ellipse class="cls-11" cx="31.63" cy="149.69" rx="0.2" ry="15.84" transform="translate(-120.34 121.43) rotate(-71.43)"/><path class="cls-11" d="M67.61,99.37a3.6,3.6,0,0,0-.07.61,14.67,14.67,0,0,0,0,1.78,19.17,19.17,0,0,0,1.35,6.38,19.69,19.69,0,0,0,5.65,7.81,19.4,19.4,0,0,0,22.37,1.37,19.69,19.69,0,0,0,6.56-7.06,19.17,19.17,0,0,0,2.12-6.17,14.65,14.65,0,0,0,.17-1.77,3.6,3.6,0,0,0,0-.62,3.63,3.63,0,0,0-.08.61c0,.4-.11,1-.24,1.75a19.91,19.91,0,0,1-2.21,6.06A19.66,19.66,0,0,1,96.67,117a19.18,19.18,0,0,1-21.94-1.34A19.66,19.66,0,0,1,69.11,108a19.91,19.91,0,0,1-1.46-6.28c0-.77-.05-1.36,0-1.76A3.63,3.63,0,0,0,67.61,99.37Z" transform="translate(0 -10.56)"/><path class="cls-11" d="M160.49,161.13a3.41,3.41,0,0,0,.4.74c.28.46.7,1.12,1.25,1.91a75,75,0,0,0,9.72,11.47c.7.67,1.27,1.19,1.68,1.54a3.41,3.41,0,0,0,.66.52,3.43,3.43,0,0,0-.55-.63L172.06,175c-1.34-1.38-3.15-3.32-5-5.55s-3.51-4.34-4.65-5.89L161,161.78A3.43,3.43,0,0,0,160.49,161.13Z" transform="translate(0 -10.56)"/><g class="cls-10"><path d="M74.36,218.27c3.85,2.19,9,2.54,13.68,2.66a5.89,5.89,0,0,0,2.58-.34,2.18,2.18,0,0,0,1.38-2c-.09-1-1.14-1.72-2.11-2.12C86.15,214.89,81.95,215,78,214c-6.7-1.68-13.53-6.47-18.75-11a40.75,40.75,0,0,0,15.09,15.28" transform="translate(0 -10.56)"/></g><path class="cls-7" d="M88.78,117.39h0a17.21,17.21,0,0,0,15.83-17.3c0-4.28-.08-7.71-.08-7.71s13.8-2.15,14-15.95-2.22-45.49-2.22-45.49h0A48,48,0,0,0,68.09,37l-2,1.57,4.2,62.82A17.2,17.2,0,0,0,88.78,117.39Z" transform="translate(0 -10.56)"/><path class="cls-8" d="M104.55,92.18a32.09,32.09,0,0,1-18-5.11s4.25,9.93,18,8.69Z" transform="translate(0 -10.56)"/><path class="cls-7" d="M67.74,52.87c-.24-.1-9.48-2.8-9.18,6.63s9.71,7.19,9.72,6.92S67.74,52.87,67.74,52.87Z" transform="translate(0 -10.56)"/><path class="cls-8" d="M65.28,62.93s-.16.12-.43.26a1.64,1.64,0,0,1-1.23.06c-1-.33-1.9-1.89-2-3.59A5.43,5.43,0,0,1,62,57.3,1.9,1.9,0,0,1,63.2,56a.84.84,0,0,1,1,.42c.13.26.08.45.13.46s.2-.16.11-.55a1,1,0,0,0-.39-.58,1.24,1.24,0,0,0-.92-.21,2.31,2.31,0,0,0-1.67,1.52A5.58,5.58,0,0,0,61,59.7c.12,1.9,1.15,3.65,2.53,4a1.76,1.76,0,0,0,1.5-.3C65.27,63.16,65.32,63,65.28,62.93Z" transform="translate(0 -10.56)"/><path class="cls-9" d="M111.27,53.07a2,2,0,0,1-1.9,2,1.88,1.88,0,0,1-2-1.78,2,2,0,0,1,1.9-2A1.89,1.89,0,0,1,111.27,53.07Z" transform="translate(0 -10.56)"/><path class="cls-9" d="M113.67,50.36c-.24.26-1.74-.85-3.86-.84s-3.67,1.07-3.91.81.14-.58.81-1.07a5.41,5.41,0,0,1,3.13-1,5.19,5.19,0,0,1,3.07,1C113.57,49.78,113.79,50.24,113.67,50.36Z" transform="translate(0 -10.56)"/><path class="cls-9" d="M90.91,53.53a2,2,0,0,1-1.9,2,1.89,1.89,0,0,1-2-1.78,2,2,0,0,1,1.9-2A1.89,1.89,0,0,1,90.91,53.53Z" transform="translate(0 -10.56)"/><path class="cls-9" d="M92.82,50.75c-.24.26-1.74-.85-3.86-.84s-3.68,1.07-3.91.81.13-.58.81-1.07a5.41,5.41,0,0,1,3.13-1,5.2,5.2,0,0,1,3.07,1C92.72,50.17,92.94,50.64,92.82,50.75Z" transform="translate(0 -10.56)"/><path class="cls-9" d="M100.52,66.48a14,14,0,0,1,3.44-.62c.54-.06,1.05-.16,1.15-.53a2.76,2.76,0,0,0-.36-1.61l-1.6-4.12c-2.22-5.87-3.83-10.7-3.6-10.79s2.23,4.6,4.46,10.47l1.53,4.15a3.13,3.13,0,0,1,.28,2.13,1.36,1.36,0,0,1-.89.79,3.69,3.69,0,0,1-.92.13A13.79,13.79,0,0,1,100.52,66.48Z" transform="translate(0 -10.56)"/><path class="cls-9" d="M93.37,42.44c-.21.58-2.33.3-4.81.6s-4.5,1-4.83.46c-.15-.25.2-.79,1-1.35a8.44,8.44,0,0,1,7.35-.81C93,41.71,93.46,42.17,93.37,42.44Z" transform="translate(0 -10.56)"/><path class="cls-9" d="M112.89,44.22c-.37.48-1.83,0-3.59,0s-3.24.32-3.59-.18c-.15-.24.08-.73.73-1.18a5.2,5.2,0,0,1,5.78.18C112.85,43.49,113.05,44,112.89,44.22Z" transform="translate(0 -10.56)"/><path class="cls-9" d="M123,22.23a5.09,5.09,0,0,0-1.88-4.55,3.61,3.61,0,0,0-4.68.35,4.22,4.22,0,0,0-3.63-5.11c-2.25-.14-4.17,1.56-6.35,2.15a10.25,10.25,0,0,1-6.44-.74c-2-.82-4-2-6-2.71A17.65,17.65,0,0,0,71.44,22c-3-.94-6.45.59-8.31,3.15a12.85,12.85,0,0,0-2,9.05,28.76,28.76,0,0,0,1.58,6.19c0,.18,0,.35,0,.53.14,7.59,1,16.5,4.24,16.55,5.64.09,4.3-10.55,4.3-10.55,6.93-2.68,4.35-13.05,6.08-14.63S82.69,27,97.19,34.46c5.63,2.88,13.12,2.79,17.2,1.86l.36-.07.08,0,.12,0a13.06,13.06,0,0,0,3.72-1.58,7.35,7.35,0,0,0,3.06-3.41,4,4,0,0,0-.79-4.32A8.85,8.85,0,0,0,123,22.23Z" transform="translate(0 -10.56)"/><path class="cls-12" d="M102.84,72.39a14.33,14.33,0,0,1-1.48,2.28,7.44,7.44,0,0,1-2.29,1.76,3.72,3.72,0,0,1-4.25-1.14,5.66,5.66,0,0,1-1.27-3,18.45,18.45,0,0,1,.05-3q1.63.47,3.32,1C99,71,101,71.68,102.84,72.39Z" transform="translate(0 -10.56)"/></g></g></g></svg>