<svg xmlns="http://www.w3.org/2000/svg" xmlns:xlink="http://www.w3.org/1999/xlink" viewBox="0 0 292.64 253.99"><defs><style>.cls-1,.cls-11{fill:none;}.cls-2{fill:#e5e7fb;}.cls-3{clip-path:url(#clip-path);}.cls-4{fill:#ffbfa0;}.cls-5{fill:#395a64;}.cls-6{fill:#1b2e35;}.cls-7{fill:#ff515f;}.cls-8{fill:#346bec;}.cls-9{fill:#fafafa;}.cls-10{fill:#ff9a71;}.cls-11{stroke:#ffbfa0;stroke-miterlimit:10;}</style><clipPath id="clip-path" transform="translate(-14.69 -12.59)"><path class="cls-1" d="M322.67,0H0V202.51H78.59a78.39,78.39,0,0,0,72.74,49.18H202.6a78.39,78.39,0,0,0,72.74-49.18h47.33Z"/></clipPath></defs><title>Ресурс 10</title><g id="Слой_2" data-name="Слой 2"><g id="OBJECTS"><rect class="cls-2" x="58.26" y="31.07" width="208.03" height="208.03" rx="78.38" ry="78.38"/><g class="cls-3"><path class="cls-4" d="M300.3,123.33l4.78-17.25s1.72-7,2.14-8.64c.54-2.17-1-2.85-1.87-1.37-.34.56-4.12,7.69-4.12,7.69l3.13-12.1c1-3.81-1.38-3.42-2.08-2.05s-5,12.9-5,12.9c4-15,2.76-16.34,1.63-16.58s-4.67,13.5-4.67,13.5a12.83,12.83,0,0,0-3.63-4c-3.63-2.49-9.67,0-10,1.7s1.87,2.19,1.87,2.19c4.54-2.93,9.2.62,8.73,5s-6,3.73-6.65.65c-1.5-6.77-3.83-4.57-3.83-4.57l2.34,14.94-2.47,7.51" transform="translate(-14.69 -12.59)"/><path class="cls-4" d="M58.95,114.41h.34c-1.06-5-2-9.69-2.87-14.31A35.11,35.11,0,0,1,56,91a7.82,7.82,0,0,1,.92-3.75c.37-.6,1.3-1.85,6.85-3.6,4.2-1.33,6.34-2,8.41-1.26A8.26,8.26,0,0,1,76,85.27a2.14,2.14,0,0,0-1.72.4c-2,1.91,2.89,9.6,4,9.56a1.36,1.36,0,0,0,1-.64l.17-.2c3.3-4.55,7.42-7,9.12-6.94a1.9,1.9,0,0,1,1.16,3.26,2,2,0,0,1-.62.54c-.11.06-.24.17-.36.24a28.24,28.24,0,0,0-3.93,4.31,15,15,0,0,0-2.41,4.6c-.58,1.83-1,3.44-1.34,4.8l.85,9" transform="translate(-14.69 -12.59)"/><path class="cls-5" d="M83.5,52.53s-8.76-1.68-21.34-13.11S43.38,12.51,41.88,12.63s-8.13-2.73-19.81,24.7-6.6,33.59-4.12,33.47,19.17-5.29,29.71-4.39,24.2,6,24.2,6Z" transform="translate(-14.69 -12.59)"/><path class="cls-6" d="M102.41,66.77,99.6,72.5l-1.26,2.57a7.37,7.37,0,0,1-9.51,3.54L70,72.63,80.15,47.52l18.92,9.4A7.37,7.37,0,0,1,102.41,66.77Z" transform="translate(-14.69 -12.59)"/><path class="cls-6" d="M91.91,76.11,86.3,87.93l-3-.74-19,16.34L58.61,93.06s11.33-5.27,13.34-9.42-.47-5-.47-5l5.23-6.29Z" transform="translate(-14.69 -12.59)"/><ellipse class="cls-6" cx="29" cy="40.27" rx="29.16" ry="6.41" transform="translate(-34.03 38.91) rotate(-67.32)"/><polygon class="cls-5" points="89.55 62.28 84.45 60.84 87.41 54.8 91.27 57.05 89.55 62.28"/><polygon class="cls-5" points="60.21 61.91 74.05 70.19 75.65 66.82 60.21 61.91"/><polygon class="cls-5" points="87.41 54.8 84.45 60.84 85.5 61.14 87.87 55.07 87.41 54.8"/><ellipse class="cls-5" cx="93.09" cy="66.54" rx="0.32" ry="6.04" transform="translate(-18.91 114.15) rotate(-67.3)"/><ellipse class="cls-5" cx="95.09" cy="62.98" rx="0.32" ry="5.53" transform="translate(-16.45 110.64) rotate(-65.41)"/><path class="cls-5" d="M96.8,72.64c0,.09-.63,0-1.6-.3-.48-.13-1.06-.31-1.69-.5s-1.29-.52-2-.81a21.46,21.46,0,0,1-4.89-2.55c.08-.18,2.36.76,5.14,2,.7.29,1.34.62,2,.85s1.16.44,1.62.63C96.27,72.28,96.83,72.55,96.8,72.64Z" transform="translate(-14.69 -12.59)"/><path class="cls-5" d="M36.51,34.15S28.81,29.67,25,40,29.12,51.8,29.12,51.8A68.12,68.12,0,0,0,36.51,34.15Z" transform="translate(-14.69 -12.59)"/><path class="cls-6" d="M44.21,21.74a11.4,11.4,0,0,1-.24,2c-.2,1.26-.49,3.08-.91,5.32l-.94,3.61-.53,2-.28,1.05c-.1.35-.24.7-.36,1.06L39.36,41.2l-.42,1.17c-.14.39-.33.77-.5,1.16l-1.06,2.35-1.06,2.35c-.18.38-.33.78-.54,1.14l-.6,1.09-2.3,4.14c-.19.33-.36.66-.55,1l-.6.91L30.57,58.2l-2.08,3.1c-1.4,1.79-2.57,3.21-3.38,4.19A11.5,11.5,0,0,1,23.8,67a11.54,11.54,0,0,1,1.11-1.64L28.13,61l2-3.12,1.12-1.73.59-.9c.19-.31.35-.64.54-1l2.25-4.13.59-1.08c.2-.36.35-.75.53-1.14l1.05-2.33,1.05-2.33c.17-.39.36-.76.5-1.15L38.76,41l1.61-4.42c.12-.35.27-.7.37-1l.29-1,.56-2,1-3.57,1.11-5.26A11.66,11.66,0,0,1,44.21,21.74Z" transform="translate(-14.69 -12.59)"/><path class="cls-7" d="M224.65,181.57" transform="translate(-14.69 -12.59)"/><path class="cls-7" d="M138.31,167.24" transform="translate(-14.69 -12.59)"/><path class="cls-8" d="M97.1,154,85.69,110.61l-28.51.75L66,171.86C67.18,185,74.92,193.64,88,195.74c7.82,1.25,16.3-6.2,22.58-11,4.1-3.15,4.83-2.53,9.06-6.37L138,165.06l.45,2.18h-.12l5.36,92.43,38.42,6.92,53.92-.92L223.81,182c.11,0,.22-.23,0-.23l-1.17-17.82,23.24,26.66a26.54,26.54,0,0,0,46.65-5.43l12-60.94-26.28-5.66L265.9,162.5l-29.37-33.75c-16.93-22.06-36.71-20.2-36.71-20.2l-36.45-.65h-.08c-1.08.06-21.45.67-35.26,15.43Z" transform="translate(-14.69 -12.59)"/><path class="cls-9" d="M238,131.15s-.39-.19-1.17-.43a9.17,9.17,0,0,0-3.52-.36,16.28,16.28,0,0,0-5.39,1.55c-2,.89-4.1,2.32-6.53,3.72s-5.3,2.84-8.71,2.76a15.24,15.24,0,0,1-5-1.17c-1.64-.64-3.26-1.44-5-2.11a19.65,19.65,0,0,0-11.2-1.06c-3.91.75-7.5,2.94-11.17,5.07a42.17,42.17,0,0,1-5.68,2.84,23.19,23.19,0,0,1-6,1.46,23.66,23.66,0,0,1-11.49-1.59,43.85,43.85,0,0,1-9-5.38c-2.66-1.93-5.11-3.76-7.51-5.15a27,27,0,0,0-6.89-2.84,17.18,17.18,0,0,0-5.59-.47,14.39,14.39,0,0,0-4.61,1.31,1.26,1.26,0,0,1,.27-.17c.19-.1.46-.26.83-.43a12.69,12.69,0,0,1,3.48-.94,17,17,0,0,1,5.7.37,26.93,26.93,0,0,1,7,2.8,90.59,90.59,0,0,1,7.59,5.11,43.81,43.81,0,0,0,9,5.27,23.18,23.18,0,0,0,11.22,1.52,22.68,22.68,0,0,0,5.86-1.43,41.88,41.88,0,0,0,5.59-2.8c3.66-2.12,7.31-4.36,11.36-5.13a20.16,20.16,0,0,1,11.52,1.13c3.42,1.4,6.53,3.2,9.79,3.3s6.08-1.31,8.49-2.63,4.54-2.77,6.6-3.65a16.17,16.17,0,0,1,5.51-1.47,8.84,8.84,0,0,1,3.57.48A5.05,5.05,0,0,1,238,131.15Z" transform="translate(-14.69 -12.59)"/><path class="cls-9" d="M259.15,152.75a6.56,6.56,0,0,1-.62,1.6,10.32,10.32,0,0,1-3.3,3.64,15.2,15.2,0,0,1-7.33,2.6,47.84,47.84,0,0,1-10.32-.45c-3.76-.38-8-.85-12.29.55a27.91,27.91,0,0,0-6.09,3.2,44.05,44.05,0,0,1-6.41,3.73,27.19,27.19,0,0,1-15.68,1.83,26.16,26.16,0,0,1-8-2.79c-2.53-1.36-4.88-3-7.32-4.62a30.33,30.33,0,0,0-7.62-3.83,19.09,19.09,0,0,0-8.18-.51c-5.41.79-10.32,3-15.21,4.29a29.27,29.27,0,0,1-7.33,1.23,17.41,17.41,0,0,1-6.92-1.17c-4.25-1.75-7.37-4.73-10.15-7.32a48.77,48.77,0,0,0-7.92-6.52,16.43,16.43,0,0,0-7.24-2.47,11.52,11.52,0,0,0-4.81.58c-1,.39-1.55.72-1.57.69a7.14,7.14,0,0,1,1.52-.8,11.27,11.27,0,0,1,4.87-.7,16.5,16.5,0,0,1,7.4,2.42,48.35,48.35,0,0,1,8,6.5c2.79,2.56,5.91,5.49,10,7.17a16.93,16.93,0,0,0,6.72,1.1,28.84,28.84,0,0,0,7.19-1.23c2.42-.68,4.86-1.54,7.39-2.35a46.59,46.59,0,0,1,7.89-2,19.66,19.66,0,0,1,8.43.52,30.82,30.82,0,0,1,7.77,3.89c2.45,1.59,4.8,3.26,7.28,4.6a25.62,25.62,0,0,0,7.79,2.74,26.69,26.69,0,0,0,15.36-1.76c4.58-2,8.18-5.47,12.57-6.9a20.4,20.4,0,0,1,6.49-.93,53,53,0,0,1,6,.43,48.27,48.27,0,0,0,10.24.54,15.09,15.09,0,0,0,7.23-2.45,10.5,10.5,0,0,0,3.33-3.51C259,153.31,259.12,152.73,259.15,152.75Z" transform="translate(-14.69 -12.59)"/><path class="cls-9" d="M292.4,182a8.71,8.71,0,0,0-1.59-1.3,8,8,0,0,0-5.41-.81c-2.34.41-4.81,1.93-7.28,3.89-1.25,1-2.55,2-4,3a12.62,12.62,0,0,1-10.43,2,39.63,39.63,0,0,1-4.82-1.41c-1.51-.52-2.92-1-4.28-1.38a21,21,0,0,0-3.83-.65,10.74,10.74,0,0,0-5.48.88,20.42,20.42,0,0,0-1.77,1.08s.11-.15.38-.39a3.39,3.39,0,0,1,.52-.41,5,5,0,0,1,.77-.48,10.52,10.52,0,0,1,5.61-1.09,20.71,20.71,0,0,1,3.93.59c1.39.34,2.83.84,4.33,1.34,3,1,6.41,2.15,10,1.49a13.49,13.49,0,0,0,4.79-2.06c1.44-.93,2.73-2,4-2.94,2.51-1.95,5.08-3.5,7.55-3.87a8,8,0,0,1,5.6,1,5.42,5.42,0,0,1,1.17,1A1.85,1.85,0,0,1,292.4,182Z" transform="translate(-14.69 -12.59)"/><path class="cls-9" d="M298.18,149a3.06,3.06,0,0,1-1,.62,9.1,9.1,0,0,1-3.09.78,15.17,15.17,0,0,1-4.71-.42,46.82,46.82,0,0,1-5.45-1.82,30.47,30.47,0,0,0-5.42-1.62,13.07,13.07,0,0,0-4.56,0,10.42,10.42,0,0,0-3.86,1.67,3,3,0,0,1,.85-.8,8.1,8.1,0,0,1,2.92-1.28,12.75,12.75,0,0,1,4.73-.11,28.42,28.42,0,0,1,5.54,1.6,53.88,53.88,0,0,0,5.38,1.84,15.85,15.85,0,0,0,4.55.54A12.37,12.37,0,0,0,298.18,149Z" transform="translate(-14.69 -12.59)"/><path class="cls-9" d="M221.88,192.46a29.72,29.72,0,0,0-3-1.38,20.35,20.35,0,0,0-8.88-.92,38.07,38.07,0,0,0-12.69,4c-4.56,2.15-9.4,5-15,6.85a27.94,27.94,0,0,1-8.47,1.46,25.9,25.9,0,0,1-7.89-1.36,66.61,66.61,0,0,1-6.71-2.67c-2.06-.91-4-1.79-5.75-2.49a29.86,29.86,0,0,0-8.7-2.27c-.53,0-1-.08-1.41-.09l-1,0a4.71,4.71,0,0,1-.86,0,4.6,4.6,0,0,1,.86-.11l1-.09c.41,0,.89,0,1.43,0a28.52,28.52,0,0,1,8.84,2.11c1.8.68,3.72,1.54,5.79,2.42a68.42,68.42,0,0,0,6.68,2.6,25.59,25.59,0,0,0,7.72,1.3,27.61,27.61,0,0,0,8.29-1.45c5.54-1.79,10.37-4.64,15-6.78a37.71,37.71,0,0,1,12.89-4,19.89,19.89,0,0,1,9,1.12A11.57,11.57,0,0,1,221.88,192.46Z" transform="translate(-14.69 -12.59)"/><path class="cls-9" d="M64.72,163.06a1.54,1.54,0,0,1,.55-.26,3,3,0,0,1,1.74.07,5,5,0,0,1,2.27,1.57,16.56,16.56,0,0,1,1.82,3.13A10.7,10.7,0,0,0,73.64,171a12.43,12.43,0,0,0,4.26,2.35,24,24,0,0,0,11.21.54c4-.58,7.83-1.4,11.41-1.37a16.17,16.17,0,0,1,9,2.5,10.2,10.2,0,0,1,4.11,4.78,6.19,6.19,0,0,1,.48,2.27,20.11,20.11,0,0,0-.7-2.18,10.28,10.28,0,0,0-4.13-4.51,16,16,0,0,0-8.79-2.31c-3.5,0-7.29.82-11.32,1.41a24.15,24.15,0,0,1-11.47-.61,12.8,12.8,0,0,1-4.41-2.5,11,11,0,0,1-2.6-3.57A17,17,0,0,0,69,164.64a4.85,4.85,0,0,0-2.08-1.56A3.23,3.23,0,0,0,64.72,163.06Z" transform="translate(-14.69 -12.59)"/><path class="cls-9" d="M145.42,223a2.42,2.42,0,0,1,.71-.63,4.72,4.72,0,0,1,2.66-.66,7.83,7.83,0,0,1,4.11,1.38A26,26,0,0,1,157,227a16.81,16.81,0,0,0,5.33,4,19.55,19.55,0,0,0,7.46,1.69c5.47.22,11.41-1.4,17.15-4.1s11.21-5.55,16.62-7.07a25.43,25.43,0,0,1,14.72-.18,16,16,0,0,1,8.31,5.41,9.73,9.73,0,0,1,1.72,3.22,31.62,31.62,0,0,0-2-3,16.16,16.16,0,0,0-8.21-5,25.14,25.14,0,0,0-14.29.37c-5.28,1.54-10.64,4.44-16.48,7.1s-11.93,4.39-17.58,4.11a20.12,20.12,0,0,1-7.76-1.85,17.29,17.29,0,0,1-5.49-4.25,26.78,26.78,0,0,0-3.94-4,7.63,7.63,0,0,0-3.83-1.44A5.07,5.07,0,0,0,145.42,223Z" transform="translate(-14.69 -12.59)"/><path class="cls-9" d="M89.68,127.9a11.71,11.71,0,0,0-4-2.08,13.07,13.07,0,0,0-4.87-.32A21.25,21.25,0,0,0,75,127.17c-2,.85-3.81,1.82-5.51,2.66a41.05,41.05,0,0,1-4.62,2,18.39,18.39,0,0,1-3.3.84,4,4,0,0,1-1.25.08,40.46,40.46,0,0,0,4.39-1.32,49.25,49.25,0,0,0,4.52-2.1c1.67-.86,3.5-1.85,5.52-2.72a20.69,20.69,0,0,1,6-1.67,12.85,12.85,0,0,1,5.05.46,9.05,9.05,0,0,1,3,1.59A3.38,3.38,0,0,1,89.68,127.9Z" transform="translate(-14.69 -12.59)"/><path class="cls-6" d="M100,172.08c-.1,0,.28-1,.59-2.73a19.4,19.4,0,0,0-2.13-12.91c-.83-1.5-1.51-2.33-1.43-2.4a7.9,7.9,0,0,1,1.8,2.18A17.39,17.39,0,0,1,101,169.43,7.9,7.9,0,0,1,100,172.08Z" transform="translate(-14.69 -12.59)"/><path class="cls-6" d="M93.44,166.28c-.15-.11,1.85-2.21,2.74-5.54s.31-6.15.5-6.17a4.19,4.19,0,0,1,.46,1.82A12.25,12.25,0,0,1,94.76,165C94.05,165.88,93.48,166.33,93.44,166.28Z" transform="translate(-14.69 -12.59)"/><ellipse class="cls-6" cx="138.06" cy="163" rx="0.3" ry="20.59" transform="translate(-28.5 0.18) rotate(-5.05)"/><path class="cls-6" d="M197.68,107.23a2.77,2.77,0,0,1,.25.62,12.87,12.87,0,0,1,.5,1.85,17.55,17.55,0,0,1-.11,7,18.18,18.18,0,0,1-5,9.1,17.89,17.89,0,0,1-23.66.52,18.18,18.18,0,0,1-5.41-8.87,17.55,17.55,0,0,1-.42-7,12.88,12.88,0,0,1,.42-1.87,2.78,2.78,0,0,1,.22-.63c.07,0-.22.89-.41,2.53a18.27,18.27,0,0,0,.59,6.87,18,18,0,0,0,5.37,8.57,17.48,17.48,0,0,0,22.91-.5,18,18,0,0,0,5-8.79,18.26,18.26,0,0,0,.29-6.89C197.94,108.11,197.61,107.25,197.68,107.23Z" transform="translate(-14.69 -12.59)"/><path class="cls-6" d="M264.53,176.56a29.32,29.32,0,0,1-.19-7.22,29.31,29.31,0,0,1,1-7.15c.17,0-.19,3.23-.41,7.19S264.71,176.55,264.53,176.56Z" transform="translate(-14.69 -12.59)"/><path class="cls-6" d="M269.15,178.65a9.45,9.45,0,0,1-1-2.35,51.09,51.09,0,0,1-2.48-12,9.45,9.45,0,0,1,0-2.55c.18,0,.52,3.84,1.5,8.5S269.32,178.59,269.15,178.65Z" transform="translate(-14.69 -12.59)"/><ellipse class="cls-6" cx="222.08" cy="164.82" rx="0.3" ry="14.5" transform="translate(-20.72 -4.15) rotate(-2.15)"/><path class="cls-4" d="M181.37,128.75h0a16.32,16.32,0,0,1-16-15.63c-.26-6.31-.48-12.1-.48-12.1s-13.2-1.4-14-14.49,0-43.28,0-43.28h0a45.58,45.58,0,0,1,46,3.53l2,1.4-1,64.5A16.31,16.31,0,0,1,181.37,128.75Z" transform="translate(-14.69 -12.59)"/><path class="cls-10" d="M164.87,100.83a30.49,30.49,0,0,0,16.84-5.68s-3.58,9.62-16.71,9.08Z" transform="translate(-14.69 -12.59)"/><path class="cls-4" d="M198,61.83c.22-.11,8.87-3.1,9,5.87s-8.89,7.27-8.91,7S198,61.83,198,61.83Z" transform="translate(-14.69 -12.59)"/><path class="cls-10" d="M200.79,71.26s.16.11.42.22a1.56,1.56,0,0,0,1.17,0c.94-.36,1.71-1.88,1.73-3.5a5.16,5.16,0,0,0-.47-2.23,1.81,1.81,0,0,0-1.2-1.18.8.8,0,0,0-.91.44c-.12.25-.06.43-.1.45s-.19-.15-.13-.52a1,1,0,0,1,.34-.57,1.18,1.18,0,0,1,.86-.24,2.2,2.2,0,0,1,1.65,1.36,5.3,5.3,0,0,1,.58,2.49c0,1.81-.92,3.51-2.21,3.91a1.67,1.67,0,0,1-1.43-.21C200.81,71.48,200.76,71.28,200.79,71.26Z" transform="translate(-14.69 -12.59)"/><path class="cls-6" d="M157.18,63.06A1.87,1.87,0,0,0,159,64.94a1.79,1.79,0,0,0,1.93-1.69,1.87,1.87,0,0,0-1.8-1.89A1.79,1.79,0,0,0,157.18,63.06Z" transform="translate(-14.69 -12.59)"/><path class="cls-6" d="M154.9,61.18c.23.24,1.65-.81,3.67-.8s3.49,1,3.71.77-.13-.55-.77-1a5.14,5.14,0,0,0-3-.92,4.93,4.93,0,0,0-2.92.94C155,60.63,154.79,61.07,154.9,61.18Z" transform="translate(-14.69 -12.59)"/><path class="cls-6" d="M176.53,63.29a1.87,1.87,0,0,0,1.81,1.89,1.79,1.79,0,0,0,1.93-1.69,1.87,1.87,0,0,0-1.8-1.89A1.79,1.79,0,0,0,176.53,63.29Z" transform="translate(-14.69 -12.59)"/><path class="cls-6" d="M174.71,61.56c.23.24,1.65-.81,3.67-.8s3.49,1,3.71.77-.13-.55-.77-1a5.14,5.14,0,0,0-3-.92,4.94,4.94,0,0,0-2.92.94C174.81,61,174.6,61.45,174.71,61.56Z" transform="translate(-14.69 -12.59)"/><path class="cls-6" d="M167.4,76.5a13.34,13.34,0,0,0-3.27-.59c-.51-.05-1-.16-1.09-.51a2.62,2.62,0,0,1,.34-1.53L164.9,70c2.11-5.58,3.64-10.17,3.42-10.25s-2.12,4.37-4.23,10l-1.46,3.94a3,3,0,0,0-.27,2,1.29,1.29,0,0,0,.85.75,3.49,3.49,0,0,0,.87.12A13.1,13.1,0,0,0,167.4,76.5Z" transform="translate(-14.69 -12.59)"/><path class="cls-6" d="M173.33,77.89c-.33,0-.33,2.17-2.2,3.72s-4.2,1.31-4.22,1.62c0,.14.52.42,1.5.45a5.45,5.45,0,0,0,3.52-1.23,4.74,4.74,0,0,0,1.71-3.12C173.72,78.42,173.48,77.88,173.33,77.89Z" transform="translate(-14.69 -12.59)"/><path class="cls-6" d="M174.19,53.66c.2.55,2.21.29,4.57.57s4.28.93,4.59.44c.14-.24-.19-.75-1-1.28a8,8,0,0,0-7-.77C174.54,53,174.1,53.4,174.19,53.66Z" transform="translate(-14.69 -12.59)"/><path class="cls-6" d="M155.64,55.35c.35.46,1.74,0,3.41,0s3.08.31,3.41-.17c.14-.23-.08-.69-.7-1.12a4.94,4.94,0,0,0-5.5.17C155.68,54.65,155.49,55.12,155.64,55.35Z" transform="translate(-14.69 -12.59)"/><path class="cls-6" d="M144.23,34.6A4.84,4.84,0,0,1,146,30.27a3.43,3.43,0,0,1,4.45.33,4,4,0,0,1,3.44-4.86c2.14-.14,4,1.48,6,2a9.74,9.74,0,0,0,6.12-.71c1.94-.78,3.75-1.86,5.72-2.58a16.77,16.77,0,0,1,21.45,9.85c2.87-.9,6.13.56,7.9,3a12.21,12.21,0,0,1,1.87,8.6,27.32,27.32,0,0,1-1.5,5.88c0,.17,0,.33,0,.5-.14,7.21-1,15.68-4,15.73-5.36.08-4.08-10-4.08-10-6.58-2.54-4.13-12.4-5.77-13.9s-5.09-5-18.86,2.07c-5.35,2.73-12.46,2.65-16.35,1.77l-.34-.07-.08,0-.11,0a12.4,12.4,0,0,1-3.53-1.5,7,7,0,0,1-2.91-3.24,3.82,3.82,0,0,1,.75-4.1A8.4,8.4,0,0,1,144.23,34.6Z" transform="translate(-14.69 -12.59)"/><path class="cls-11" d="M72.55,87.08" transform="translate(-14.69 -12.59)"/><path class="cls-4" d="M62.61,89.18a42.35,42.35,0,0,1,4.6,4.43c.75.72,1.56,1.67,1.26,2.67a2.13,2.13,0,0,1-2.34,1.08,2.09,2.09,0,0,1-.49-.19,5.47,5.47,0,0,1-1.72-1.34c-.68-.78-2.72-2.71-5.67-5.43l-.71-.06a2.7,2.7,0,0,1,.75-1.84,2.81,2.81,0,0,1,2.4-.72C61.13,88.07,61.81,88.56,62.61,89.18Z" transform="translate(-14.69 -12.59)"/><path class="cls-4" d="M68.16,88.12l5.23,5c.85.82,1.78,1.91,1.43,3a2.22,2.22,0,0,1-2.66,1.23,6.48,6.48,0,0,1-2.69-1.73L63,89.83l-.64-.41s-1.71-1.78-.6-3S65.48,85.54,68.16,88.12Z" transform="translate(-14.69 -12.59)"/><path class="cls-4" d="M73.63,87l5,4.8c.81.78,1.7,1.82,1.37,2.89a2.12,2.12,0,0,1-2.54,1.17,6.17,6.17,0,0,1-2.56-1.65l-6.15-5.59-.61-.39s-1.63-1.69-.57-2.85S71.08,84.59,73.63,87Z" transform="translate(-14.69 -12.59)"/><path class="cls-4" d="M74.91,84l4.2,3.85c.68.63,1.43,1.45,1.17,2.3a1.74,1.74,0,0,1-2.09.89A5.38,5.38,0,0,1,76,89.72l-5.17-4.48-.51-.31s-1.37-1.36-.51-2.25S72.76,82,74.91,84Z" transform="translate(-14.69 -12.59)"/><path class="cls-10" d="M62.43,89.31a5,5,0,0,1,.67.56l1.75,1.61,2.57,2.41a3.75,3.75,0,0,1,1.23,1.74,1.45,1.45,0,0,1-.23,1.16,1.82,1.82,0,0,1-1,.69,2.79,2.79,0,0,1-2.23-.5,13.56,13.56,0,0,1-1.59-1.38L61,93.18l-1.7-1.66a5,5,0,0,1-.6-.64,5,5,0,0,1,.67.55L61.19,93l2.59,2.38a13.91,13.91,0,0,0,1.56,1.34,2.52,2.52,0,0,0,2,.46,1.32,1.32,0,0,0,1-1.51,3.56,3.56,0,0,0-1.14-1.6L64.7,91.63,63,90A5,5,0,0,1,62.43,89.31Z" transform="translate(-14.69 -12.59)"/><path class="cls-10" d="M67.15,87.33A6.39,6.39,0,0,1,68,88l2.22,2,3.26,3.07A4.77,4.77,0,0,1,75,95.37a1.84,1.84,0,0,1-.29,1.47,2.31,2.31,0,0,1-1.26.87,3.54,3.54,0,0,1-2.83-.64,17.25,17.25,0,0,1-2-1.75l-3.24-3.09-2.16-2.1a6.39,6.39,0,0,1-.76-.81,6.39,6.39,0,0,1,.86.7l2.24,2,3.3,3a17.67,17.67,0,0,0,2,1.7,3.21,3.21,0,0,0,2.54.58,1.67,1.67,0,0,0,1.3-1.92,4.53,4.53,0,0,0-1.45-2L70,90.28,67.9,88.15A6.39,6.39,0,0,1,67.15,87.33Z" transform="translate(-14.69 -12.59)"/><path class="cls-10" d="M71.93,85.87a7.45,7.45,0,0,1,.87.71l2.34,2c1,.82,2.18,1.79,3.44,2.95a5.55,5.55,0,0,1,1.67,2.16,1.88,1.88,0,0,1-.15,1.51,2.27,2.27,0,0,1-1.21,1A3.41,3.41,0,0,1,76,95.61a15.25,15.25,0,0,1-2.05-1.76l-3.28-3.12-2.19-2.13a6.53,6.53,0,0,1-.77-.82,6.52,6.52,0,0,1,.87.71l2.27,2,3.33,3.06a15.5,15.5,0,0,0,2,1.7,3.07,3.07,0,0,0,2.57.48,1.92,1.92,0,0,0,1-.81,1.51,1.51,0,0,0,.12-1.22,5.34,5.34,0,0,0-1.56-2c-1.23-1.16-2.41-2.15-3.38-3s-1.75-1.54-2.27-2A5.81,5.81,0,0,1,71.93,85.87Z" transform="translate(-14.69 -12.59)"/></g></g></g></svg>