<svg xmlns="http://www.w3.org/2000/svg" xmlns:xlink="http://www.w3.org/1999/xlink" viewBox="0 0 246.18 220.08"><defs><style>.cls-1,.cls-8{fill:none;}.cls-2{fill:#f2f3fd;}.cls-3{clip-path:url(#clip-path);}.cls-4{fill:#ffbf9c;}.cls-5{fill:#1b2e35;}.cls-6{fill:#fff;}.cls-7{fill:#f89a71;}.cls-8{stroke:#45555a;stroke-miterlimit:10;stroke-width:0.05px;}.cls-9{fill:#346bec;}.cls-10{opacity:0.2;}</style><clipPath id="clip-path" transform="translate(-10.77 -10.83)"><path class="cls-1" d="M201.34,35.3,178.49,8.62A157.66,157.66,0,0,0,45.81,22.56l-26,23c-7.16,1.09-11.07,4.1-13,6-9.44,9.26-9.34,28.61,2,47l18,52.26A78.38,78.38,0,0,0,105.2,229.2h51.27a78.38,78.38,0,0,0,78.38-78.38V99.55A78.27,78.27,0,0,0,201.34,35.3Z"/></clipPath></defs><title>Ресурс 19</title><g id="Слой_2" data-name="Слой 2"><g id="OBJECTS"><rect class="cls-2" x="16.05" y="10.34" width="208.03" height="208.03" rx="78.38" ry="78.38"/><g class="cls-3"><path class="cls-4" d="M153.2,126.91h0a18.79,18.79,0,0,1-18.45-18.22c-.25-8.35-.44-16.38-.44-16.38S119,90.88,117.86,75.72s-.64-50.17-.64-50.17h0a52.84,52.84,0,0,1,53.41,3.39L173,30.52l-.65,77.75A18.79,18.79,0,0,1,153.2,126.91Z" transform="translate(-10.77 -10.83)"/><path class="cls-5" d="M133.92,66.37c0-.16-1.3-.35-3.42-.51-.55,0-1-.12-1-.41a3,3,0,0,1,.29-1.59l1.39-4.35c1.91-6.19,3.2-11.29,2.89-11.39s-2.12,4.84-4,11l-1.3,4.38a3.5,3.5,0,0,0-.16,2.29,1.43,1.43,0,0,0,1,.81,3.51,3.51,0,0,0,.94.06C132.6,66.65,133.92,66.53,133.92,66.37Z" transform="translate(-10.77 -10.83)"/><path class="cls-6" d="M140.86,68.26a51.17,51.17,0,0,1-10.07,3.61,5.79,5.79,0,0,0,7,1.88C142.19,71.81,140.86,68.26,140.86,68.26Z" transform="translate(-10.77 -10.83)"/><path class="cls-7" d="M134.27,92.09a35.36,35.36,0,0,0,19.44-6.84s-4,11.21-19.23,10.78Z" transform="translate(-10.77 -10.83)"/><path class="cls-4" d="M172.14,49.28a2.29,2.29,0,0,1,2.19-2.3c2.83-.08,7.46,1,7.9,8.86.62,11.16-10.12,8.38-10.15,8.06S172.11,53.62,172.14,49.28Z" transform="translate(-10.77 -10.83)"/><path class="cls-7" d="M174.53,59.51s.2.13.54.26a2,2,0,0,0,1.46-.05c1.16-.5,2-2.43,2-4.44a6.43,6.43,0,0,0-.7-2.75,2.25,2.25,0,0,0-1.55-1.41,1,1,0,0,0-1.12.6c-.13.32,0,.54-.11.56s-.25-.17-.19-.64a1.25,1.25,0,0,1,.4-.72,1.47,1.47,0,0,1,1.06-.34,2.74,2.74,0,0,1,2.13,1.62,6.61,6.61,0,0,1,.85,3.07c.05,2.25-1,4.42-2.57,5a2.09,2.09,0,0,1-1.8-.2C174.57,59.78,174.5,59.54,174.53,59.51Z" transform="translate(-10.77 -10.83)"/><path class="cls-5" d="M122,51.25a2.06,2.06,0,0,0,2.13,1.93,2,2,0,0,0,2-2A2.06,2.06,0,0,0,124,49.24,2,2,0,0,0,122,51.25Z" transform="translate(-10.77 -10.83)"/><path class="cls-5" d="M118.47,49.18c.27.25,1.75-1,4-1.16s3.91.84,4.13.55c.11-.13-.18-.59-.93-1.06a5.65,5.65,0,0,0-3.33-.77A5.43,5.43,0,0,0,119.17,48C118.53,48.57,118.33,49.07,118.47,49.18Z" transform="translate(-10.77 -10.83)"/><path class="cls-5" d="M144,50.87a2.06,2.06,0,0,0,2.13,1.93,2,2,0,0,0,2-2,2.06,2.06,0,0,0-2.13-1.93A2,2,0,0,0,144,50.87Z" transform="translate(-10.77 -10.83)"/><path class="cls-5" d="M140.92,49.18c.27.25,1.75-1,4-1.16s3.91.84,4.13.55c.11-.13-.18-.59-.93-1.06a5.65,5.65,0,0,0-3.33-.77A5.43,5.43,0,0,0,141.63,48C141,48.57,140.79,49.07,140.92,49.18Z" transform="translate(-10.77 -10.83)"/><path class="cls-8" d="M108.76,10.56" transform="translate(-10.77 -10.83)"/><path class="cls-5" d="M155.56,20.3a13.29,13.29,0,0,0,2.53,14.24c1.5,1.55,3.38,2.73,4.67,4.45,2.68,3.57,2.25,8.47,2.66,12.91.19,2.06.68,4.24,2.19,5.64s4.34,1.5,5.39-.28a5.38,5.38,0,0,0,.56-1.78l2.79-14.84c.7-3.71,1.4-7.52.75-11.24a15.86,15.86,0,0,0-19.82-12.6" transform="translate(-10.77 -10.83)"/><path class="cls-5" d="M157.89,17.16c-5.15-1-8-2.63-11.68-4.27a17.13,17.13,0,0,0-11.61-1.32c-2.59.73-5,2.29-7.72,2.26s-5-1.6-7.56-2.4a13.48,13.48,0,0,0-10.48,1.07c-2.49,1.37-4.73,3.82-4.94,6.82s2.46,6.1,5.14,5.25c-2.8,1-3.94,5.1-2.54,7.86A7.19,7.19,0,0,0,114,36c2.91-.46,5.48-2.35,7.56-4.61.07,3.34,3.41,5.69,6.52,5.59s5.91-2,8.47-3.87,5.15-4,8.2-4.68c2.12-.47,4.31-.22,6.46-.48s4.44-1.19,5.48-3.24,5.16-4.4,3-4.46" transform="translate(-10.77 -10.83)"/><path class="cls-5" d="M127.39,33.6a12.16,12.16,0,0,0,1.14.61,5.47,5.47,0,0,0,3.44,0,9.18,9.18,0,0,0,2.21-1c.75-.45,1.51-1,2.32-1.61a19.29,19.29,0,0,1,2.69-1.72,7.74,7.74,0,0,1,3.36-.84c2.38,0,4.54.6,6.49.42a5.88,5.88,0,0,0,4.37-2.37,6.46,6.46,0,0,0,1.3-3.21c.09-.83,0-1.3.06-1.31s.05.11.09.33a4.26,4.26,0,0,1,.07,1,6.31,6.31,0,0,1-1.2,3.43,6.4,6.4,0,0,1-1.85,1.75,6.24,6.24,0,0,1-2.79.9c-2.08.21-4.27-.43-6.52-.38s-4.16,1.27-5.77,2.42c-.82.58-1.6,1.14-2.39,1.59a9.24,9.24,0,0,1-2.34,1,5.44,5.44,0,0,1-3.62-.17,3.29,3.29,0,0,1-.83-.55C127.46,33.7,127.38,33.62,127.39,33.6Z" transform="translate(-10.77 -10.83)"/><path class="cls-5" d="M156.33,11.87a21.8,21.8,0,0,0,.31,3.56,21.79,21.79,0,0,0,1.4,3.28,5,5,0,0,1-1.94-3.15A5,5,0,0,1,156.33,11.87Z" transform="translate(-10.77 -10.83)"/><path class="cls-5" d="M162,11.64c.12.12-1.26,1.43-2.3,3.48S158.42,19,158.25,19a7.12,7.12,0,0,1,1-4.15A7.12,7.12,0,0,1,162,11.64Z" transform="translate(-10.77 -10.83)"/><polygon class="cls-4" points="222.87 159.6 246.18 219.58 210.5 219.58 193.87 176.88 222.87 159.6"/><path class="cls-4" d="M115.63,131.7a14,14,0,0,1-2.82.33c-4.69.06-9.31.94-14,1a13.53,13.53,0,0,1-8.33-2.7c-8.41,10-19.39,21.49-26.64,22.62-4.29.67-15.79-50.88-18.18-65.89a19.62,19.62,0,0,1,2.11-5.85,25.4,25.4,0,0,1,3.16-4.81,26.59,26.59,0,0,1,5.36-4.77c1.94-1,1.67-3.88-.28-4.15S48.63,70,44.29,75.59s-4.51-5.43-4.64-9.46-1.12-16.47-2.39-17.38c-1.86-1.33-3.68.46-3.45,4.48s.05,16.14-2.08,16.17-2.49-20.51-2.49-20.51.63-4.42-1.83-4.48C23,44.31,25,66.06,25.24,68.13c.17,1.44-2.14,1.54-2.24,0s.09-20.5-4.42-20.65c-3.46-.11,1.49,17.92-.72,21.87S15.5,55.25,12.18,55.27c-1.23,0-2.16.19-.58,10.5.85,5.54,4.28,13.58,5.13,24.38,6.32,31.27,18.57,119.94,52,104,36.73-17.54,59.12-46.89,59.12-46.89Z" transform="translate(-10.77 -10.83)"/><path class="cls-5" d="M193.35,150.09a5.88,5.88,0,0,1,.35,1.26c.19.82.44,2,.71,3.48.55,3,1.2,7.05,1.71,11.61s.76,8.7.87,11.7c.05,1.5.07,2.71.07,3.55A5.88,5.88,0,0,1,197,183a5.89,5.89,0,0,1-.15-1.3l-.24-3.54c-.2-3-.53-7.12-1-11.66s-1.09-8.64-1.54-11.6l-.54-3.51A5.89,5.89,0,0,1,193.35,150.09Z" transform="translate(-10.77 -10.83)"/><path class="cls-9" d="M102.07,230.41l98.23.5L197,210.18a160,160,0,0,0-.15-29.57l5,13.49,40.6-20.3s-14.76-39.36-27.11-52.68c-15.61-16.84-43.69-15.17-43.69-15.17l-19,12.89-17.47-12.3a84.88,84.88,0,0,0-27,7.85l-.9.26v.19c-10.3,5.39-25,18.5-39,31.23L84.44,161.8l17.9,16.67s3-.34,3.06-.13C105.7,180.1,102.07,230.41,102.07,230.41Z" transform="translate(-10.77 -10.83)"/><path class="cls-10" d="M193.83,143.81l13.35,47.61-5.36,2.68-5-13.49S192,152.38,193.83,143.81Z" transform="translate(-10.77 -10.83)"/><path class="cls-9" d="M134.08,106.3v-5.14s15.34-1.19,18.45,16.93c0,0,5-16.93,19.88-18.63l2.12,7.91s-7.05,22-8.07,22.24-13.93,4-13.93,4l-7.47-1.7-8.31-9.45Z" transform="translate(-10.77 -10.83)"/><path class="cls-5" d="M174.88,106.78a5.39,5.39,0,0,1-.85.9c-.56.56-1.38,1.36-2.34,2.39a54.61,54.61,0,0,0-6.65,8.75c-.47.77-.9,1.53-1.31,2.27l-.25.45-.24-.44-4.36-8.17a3.61,3.61,0,0,0-1-1.12,2.19,2.19,0,0,0-1-.38,2.33,2.33,0,0,0-.94.17s.25-.34.94-.36a2.28,2.28,0,0,1,1.18.33,3.76,3.76,0,0,1,1.13,1.16c1.21,2,2.75,4.86,4.54,8.1h-.48c.41-.75.84-1.53,1.32-2.3a47.27,47.27,0,0,1,6.84-8.73c1-1,1.87-1.76,2.48-2.28A5.13,5.13,0,0,1,174.88,106.78Z" transform="translate(-10.77 -10.83)"/><path class="cls-5" d="M133.08,107.69a3.92,3.92,0,0,1,.73.77c.44.52,1.07,1.28,1.83,2.23,1.53,1.9,3.61,4.55,5.87,7.5l.36.47-.46,0c.82-1.52.88-3.26,1.26-4.78a5.65,5.65,0,0,1,2.12-3.57,3.13,3.13,0,0,1,2.76-.35,2,2,0,0,1,.65.42c.12.13.17.21.15.22a4.64,4.64,0,0,0-.87-.44,3,3,0,0,0-2.48.48,5.39,5.39,0,0,0-1.84,3.37c-.35,1.46-.38,3.24-1.27,4.93l-.2.38-.26-.34-.36-.47c-2.27-2.95-4.3-5.63-5.74-7.6-.72-1-1.3-1.78-1.69-2.34A3.93,3.93,0,0,1,133.08,107.69Z" transform="translate(-10.77 -10.83)"/><path class="cls-5" d="M144,230.41a1.13,1.13,0,0,1,0-.29l0-.85.18-3.27.76-12,2.72-39.68,2.89-39.67.94-12,.28-3.27.09-.85a1.14,1.14,0,0,1,0-.29,1.13,1.13,0,0,1,0,.29l0,.85-.18,3.27-.76,12-2.72,39.68L145.35,214l-.94,12-.28,3.27-.09.85A1.14,1.14,0,0,1,144,230.41Z" transform="translate(-10.77 -10.83)"/><path class="cls-5" d="M108.73,135.14a10,10,0,0,1-.09,1.7l-.37,4.62c-.29,3.91-.59,9.31-.92,15.28s-.69,11.38-1.09,15.29c-.19,2-.39,3.53-.55,4.62a10,10,0,0,1-.31,1.68,10,10,0,0,1,.09-1.7l.37-4.62c.29-3.91.59-9.31.93-15.29s.69-11.38,1.09-15.29c.19-2,.39-3.53.55-4.62A10,10,0,0,1,108.73,135.14Z" transform="translate(-10.77 -10.83)"/><path class="cls-5" d="M208,116a7.37,7.37,0,0,0-1-.72,4.53,4.53,0,0,0-3.33-.19,10.33,10.33,0,0,0-4.15,2.93,24.43,24.43,0,0,0-3.79,5.06,25.62,25.62,0,0,0-3.21,11c-.18,3,.2,4.79.09,4.8a5.79,5.79,0,0,1-.28-1.27,21.15,21.15,0,0,1-.2-3.55,24.42,24.42,0,0,1,3.12-11.24,23.7,23.7,0,0,1,3.91-5.15,10.38,10.38,0,0,1,4.4-2.94,4.59,4.59,0,0,1,3.54.38,3,3,0,0,1,.76.62C208,115.84,208,115.94,208,116Z" transform="translate(-10.77 -10.83)"/></g></g></g></svg>