<svg xmlns="http://www.w3.org/2000/svg" xmlns:xlink="http://www.w3.org/1999/xlink" viewBox="0 0 208.03 218.18"><defs><style>.cls-1,.cls-10,.cls-14{fill:none;}.cls-2{fill:#f2f3fd;}.cls-3{clip-path:url(#clip-path);}.cls-4{fill:#1b2e35;}.cls-5{fill:#395a64;}.cls-6{fill:#f7a27c;}.cls-7{fill:#b46958;}.cls-8{fill:#ffbfa0;}.cls-9{fill:#56cc95;}.cls-10{stroke:#ffbfa0;}.cls-10,.cls-14{stroke-miterlimit:10;}.cls-11{fill:#ff9a71;}.cls-12{fill:#346bec;}.cls-13{opacity:0.2;}.cls-14{stroke:#7b9197;}.cls-15{fill:#e07f5a;}</style><clipPath id="clip-path" transform="translate(0 -5.79)"><path class="cls-1" d="M182.23,36.2V0h-150V31A78.25,78.25,0,0,0,0,94.32V145.6A78.38,78.38,0,0,0,78.38,224h51.27A78.38,78.38,0,0,0,208,145.6V94.32A78.17,78.17,0,0,0,182.23,36.2Z"/></clipPath></defs><title>Ресурс 21</title><g id="Слой_2" data-name="Слой 2"><g id="OBJECTS"><rect class="cls-2" y="10.15" width="208.03" height="208.03" rx="78.38" ry="78.38"/><g class="cls-3"><path class="cls-4" d="M67.66,24.23c-5.15-2.79-13.13-2.79-18.74,5-5.75,8-3.64,14.22-2.2,20.76.77,3.52,2.42,7.25,1,10.57-1.52,3.56-5.81,4.89-8.65,7.53a11.58,11.58,0,0,0-2.63,12.84c2,4.57,7,7.58,8.21,12.43,1.05,4.13-1,8.48-3.76,11.69s-6.39,5.63-9.39,8.66-5.51,7-5.26,11.23c.33,5.61,5.17,9.77,9.7,13.11a34.32,34.32,0,0,0,8.73,5.12c7.5,2.63,27.34,5.92,34.59,2.66,10.83-4.87,17.34-15,24.44-24.56,8.54-11.46,13.88-35,.58-49.35" transform="translate(0 -5.79)"/><path class="cls-5" d="M30.3,132.32a8.76,8.76,0,0,1-.54-1A7.61,7.61,0,0,1,29,128a7.12,7.12,0,0,1,2.4-4.66,19.82,19.82,0,0,1,5.82-3.94c2.36-1.13,5.07-2,7.89-3.17a20.66,20.66,0,0,0,8-5.22,11.12,11.12,0,0,0,2.46-4.5,9.18,9.18,0,0,0-.29-5.3,25.6,25.6,0,0,0-2.54-5A32.62,32.62,0,0,1,49.93,91a11.39,11.39,0,0,1-.86-5.86,6.56,6.56,0,0,1,1.09-2.74,8.27,8.27,0,0,1,2.08-2c1.55-1.1,3.24-1.85,4.59-3A6.94,6.94,0,0,0,59.27,73a10.23,10.23,0,0,0-.46-4.86,20,20,0,0,0-2-4.21c-1.6-2.59-3.39-4.81-4.92-6.91a37.93,37.93,0,0,1-5.77-10.85,18.85,18.85,0,0,1-.81-3.25,6.62,6.62,0,0,1-.09-1.17s0,.4.18,1.15a20.79,20.79,0,0,0,.88,3.21,38.83,38.83,0,0,0,5.86,10.72c1.54,2.08,3.35,4.3,5,6.91A20.28,20.28,0,0,1,59.18,68a10.6,10.6,0,0,1,.5,5,7.35,7.35,0,0,1-2.58,4.63c-1.41,1.19-3.11,2-4.61,3a7.85,7.85,0,0,0-2,1.9,6.13,6.13,0,0,0-1,2.56,11,11,0,0,0,.84,5.63A32.38,32.38,0,0,0,53.11,96a25.91,25.91,0,0,1,2.57,5.13,9.6,9.6,0,0,1,.29,5.54,11.51,11.51,0,0,1-2.56,4.67,20.94,20.94,0,0,1-8.19,5.29c-2.84,1.15-5.56,2-7.9,3.12a19.75,19.75,0,0,0-5.77,3.83,7,7,0,0,0-2.4,4.5,7.8,7.8,0,0,0,.69,3.22C30.13,131.95,30.32,132.31,30.3,132.32Z" transform="translate(0 -5.79)"/><path class="cls-5" d="M45.14,42.58a1,1,0,0,1-.1-.33,8.18,8.18,0,0,1-.19-1,13,13,0,0,1,0-3.67,14.6,14.6,0,0,1,1.73-5.16,13.52,13.52,0,0,1,10.81-7.06,14.59,14.59,0,0,1,5.42.49,13,13,0,0,1,3.36,1.47,8.18,8.18,0,0,1,.82.57c.18.14.27.22.26.23a18.14,18.14,0,0,0-4.52-2,14.81,14.81,0,0,0-5.3-.39,13.37,13.37,0,0,0-10.5,6.86,14.81,14.81,0,0,0-1.77,5A18.14,18.14,0,0,0,45.14,42.58Z" transform="translate(0 -5.79)"/><path class="cls-6" d="M105.28,35.7l34.83,60.43-25.23,19L99.6,93.23S86.54,99.67,78.11,88a202.58,202.58,0,0,1-15.6-26.53c-7.14-14.72-2.92-26.93,9.43-34.23h0C84.06,20.08,98,23.63,105.28,35.7Z" transform="translate(0 -5.79)"/><path class="cls-7" d="M99.26,93.07a33.48,33.48,0,0,0,12.29-15.16s2.33,11-10.17,18.23Z" transform="translate(0 -5.79)"/><path class="cls-4" d="M93.05,47.53c-.36-.09-1.06,1.72-2.93,2.89s-3.84,1.11-3.89,1.46c0,.16.44.43,1.32.49a5.64,5.64,0,0,0,3.29-.89A5.42,5.42,0,0,0,93,48.9C93.29,48.09,93.22,47.56,93.05,47.53Z" transform="translate(0 -5.79)"/><path class="cls-4" d="M74.49,58.2c-.36-.09-1.06,1.72-2.93,2.89s-3.84,1.11-3.89,1.46c0,.16.44.44,1.32.49a5.64,5.64,0,0,0,3.29-.89,5.42,5.42,0,0,0,2.16-2.59C74.72,58.76,74.65,58.23,74.49,58.2Z" transform="translate(0 -5.79)"/><path class="cls-7" d="M91.36,73a2.15,2.15,0,0,1-.88-1.57,6.36,6.36,0,0,1,.14-1.85,4.3,4.3,0,0,1,.83-2.2,3.35,3.35,0,0,1,1.83-.92,3.59,3.59,0,0,1,2.22.12,2.77,2.77,0,0,1,1.44,2.92,3.91,3.91,0,0,1-2,2.7,6.83,6.83,0,0,1-3.39.72" transform="translate(0 -5.79)"/><path class="cls-4" d="M92.72,65.15c-.31.19,1.07,2.16.37,4.73S90.15,73.72,90.32,74s.73.05,1.64-.54a6,6,0,0,0,2.39-3.32,5.21,5.21,0,0,0-.44-3.88C93.41,65.38,92.85,65,92.72,65.15Z" transform="translate(0 -5.79)"/><path class="cls-4" d="M91.74,42.69c-.41-.49-2.39.53-4.94,1.12s-4.76.64-4.9,1.26c-.06.3.48.7,1.47,1a8.8,8.8,0,0,0,7.5-1.81C91.63,43.54,91.92,42.93,91.74,42.69Z" transform="translate(0 -5.79)"/><path class="cls-4" d="M68.22,51.6c-.63,0-1.25,1.45-2.45,2.83s-2.5,2.31-2.34,2.93c.09.29.63.44,1.43.24A5.42,5.42,0,0,0,68.72,53C68.77,52.13,68.52,51.63,68.22,51.6Z" transform="translate(0 -5.79)"/><path class="cls-4" d="M86.68,68.09a14.12,14.12,0,0,0-3.36,1c-.51.2-1,.34-1.27.06a2.77,2.77,0,0,1-.43-1.6l-.49-4.42c-.75-6.26-1.56-11.31-1.82-11.28s.15,5.14.9,11.4q.3,2.31.56,4.41a3.15,3.15,0,0,0,.74,2,1.36,1.36,0,0,0,1.16.29,3.71,3.71,0,0,0,.88-.31A13.86,13.86,0,0,0,86.68,68.09Z" transform="translate(0 -5.79)"/><path class="cls-4" d="M114.89,62.48c-.6,3.52.07,7.46.19,11s1.46,7.36,4.48,9.27,7.51,2,8.93,5.22c.6,1.38.42,3,.83,4.42A7.46,7.46,0,0,0,133.78,97a12.49,12.49,0,0,0,1.51.52l2.74,4.7c3.38,5.81,7.13,12,13.24,14.76a13.7,13.7,0,0,0,10.66.53,10.19,10.19,0,0,0,6.43-8.2c.25-2.76-.81-5.49-.85-8.26-.09-5.78,4.21-11.32,2.78-16.92-1.74-6.84-10.65-9.16-14.15-15.29-1.46-2.55-1.86-5.59-3.29-8.17-2.67-4.82-8.25-7.05-13.27-9.33a37.52,37.52,0,0,1-4.94-2.65,7.74,7.74,0,0,0,.71-.76,8.74,8.74,0,0,0,.58-9.47,11.56,11.56,0,0,0-8-5.49c-2.15-.4-4.49-.31-6.35-1.46-2.07-1.29-3.15-3.91-5.4-4.86-1.67-.7-3.56-.28-5.37-.2-4,.16-8.28-2.7-13-6-3.4-2.78-7.22-5.24-11.55-5.47C81,14.62,76.31,17.55,72,20.37c-3.92,2.56-8.32,6-8.06,10.67h0C69.14,39.86,77.09,48.11,91.35,41c3.28-1.65,8-1.74,10.45,1,2.61,2.91,1.16,8.63,4.65,10.4a6.08,6.08,0,0,0,2.32.53,7,7,0,0,1,2.9,1.37S115.13,58.49,114.89,62.48Z" transform="translate(0 -5.79)"/><path class="cls-5" d="M121.57,50.3a5.68,5.68,0,0,0,.2-.64,2.78,2.78,0,0,0-.33-1.84A4,4,0,0,0,119.15,46a27.4,27.4,0,0,0-4-.84,7.41,7.41,0,0,1-2.27-.83,5.53,5.53,0,0,1-1.84-1.88A31.83,31.83,0,0,1,109,37.1a13.38,13.38,0,0,0-9.43-7.95,12.87,12.87,0,0,0-3.34-.31A14,14,0,0,0,93,29.4c-2.07.6-4,1.5-5.87,2.2a20,20,0,0,1-5.57,1.29,19.42,19.42,0,0,1-5-.29A18.62,18.62,0,0,1,69.9,30a14.38,14.38,0,0,1-1.58-1.16,4,4,0,0,1-.51-.46,4,4,0,0,1,.56.39A18.34,18.34,0,0,0,70,29.81a19.19,19.19,0,0,0,6.64,2.48,19.4,19.4,0,0,0,4.89.24A19.8,19.8,0,0,0,87,31.22c1.87-.7,3.78-1.61,5.89-2.23a14.39,14.39,0,0,1,3.32-.59,13.24,13.24,0,0,1,3.46.32A13.73,13.73,0,0,1,109.36,37a32.46,32.46,0,0,0,2,5.27A5.2,5.2,0,0,0,113.08,44a7.14,7.14,0,0,0,2.17.82,26.32,26.32,0,0,1,4,.92,4.15,4.15,0,0,1,2.36,2,2.79,2.79,0,0,1,.26,1.94A1.58,1.58,0,0,1,121.57,50.3Z" transform="translate(0 -5.79)"/><path class="cls-5" d="M101.71,23a1.38,1.38,0,0,1-.18-.35,7.61,7.61,0,0,0-.49-1A5.8,5.8,0,0,0,100,20.32a3.93,3.93,0,0,0-2-.94c-1.7-.25-3.72.6-5.53,2S88.33,24,86,25.43a24,24,0,0,1-13.25,3.11,22,22,0,0,1-4.12-.62c-.48-.11-.84-.24-1.09-.32a1.35,1.35,0,0,1-.37-.14,13,13,0,0,1,1.49.3,25.64,25.64,0,0,0,4.09.48,24.53,24.53,0,0,0,13-3.18c2.27-1.38,4.47-2.7,6.34-4s4-2.27,5.81-2a4.14,4.14,0,0,1,2.16,1.07,5.64,5.64,0,0,1,1.05,1.47,5.72,5.72,0,0,1,.43,1.05A1.34,1.34,0,0,1,101.71,23Z" transform="translate(0 -5.79)"/><path class="cls-8" d="M174.76,138.1c-7.75,3.51-11.07,5.12-18.82,6.05l0,.1-10.3-24.75c1.1-1,2.36-2.26,3.77-3.78a15.66,15.66,0,0,0,2.89-4.46,24,24,0,0,0,2-6.32c.13-2,2.67-2.85,3.67-1.29s.76,7.19-2.37,13,6.43,1.84,9.94.47Z" transform="translate(0 -5.79)"/><path class="cls-9" d="M112.23,104.82a22.81,22.81,0,0,1,15.67-8.68c5.56-.65,10.19-1.26,15.62,1.15,12.1,5.39,14,12.09,20.45,23.65,5,9,8.19,25,6.6,41.05-1.62,16.35-4.48,37.12-4.48,37.12L181.87,224H100.23V176.79l-27.11-17.5Z" transform="translate(0 -5.79)"/><path class="cls-10" d="M171.35,136.82" transform="translate(0 -5.79)"/><path class="cls-8" d="M167.21,122.67l-4.05,7.62c-.66,1.24-1.6,2.65-3,2.63a2.64,2.64,0,0,1-2.27-2.64,7.7,7.7,0,0,1,1.1-3.64l4.6-9.28.26-.86s1.47-2.53,3.22-1.66C168.65,115.64,169.28,118.77,167.21,122.67Z" transform="translate(0 -5.79)"/><path class="cls-8" d="M170.1,129,166,136.58c-.66,1.24-1.6,2.65-3,2.63a2.64,2.64,0,0,1-2.27-2.64,7.7,7.7,0,0,1,1.1-3.64l4.6-9.28.26-.86s1.47-2.53,3.22-1.66C171.54,121.92,172.17,125.05,170.1,129Z" transform="translate(0 -5.79)"/><path class="cls-8" d="M172.81,135.41,169,142.64c-.62,1.18-1.52,2.52-2.85,2.49a2.51,2.51,0,0,1-2.15-2.51,7.3,7.3,0,0,1,1-3.45l4.36-8.8.25-.82s1.4-2.4,3.05-1.57S174.78,131.71,172.81,135.41Z" transform="translate(0 -5.79)"/><path class="cls-8" d="M175.3,138.58,172.44,144c-.47.88-1.13,1.87-2.12,1.85a1.87,1.87,0,0,1-1.6-1.87,5.44,5.44,0,0,1,.77-2.57l3.25-6.55.18-.61s1-1.79,2.27-1.17S176.76,135.82,175.3,138.58Z" transform="translate(0 -5.79)"/><path class="cls-11" d="M167.74,121.2a7.6,7.6,0,0,1-.54,1.2l-1.61,3.2-2.44,4.73a5.66,5.66,0,0,1-2,2.51,2.18,2.18,0,0,1-1.78.14,2.75,2.75,0,0,1-1.41-1.16,4.21,4.21,0,0,1-.2-3.45,20.47,20.47,0,0,1,1.34-2.87l2.47-4.71,1.7-3.16a7.59,7.59,0,0,1,.68-1.13,7.62,7.62,0,0,1-.52,1.21l-1.57,3.22-2.39,4.76a21,21,0,0,0-1.29,2.82,3.81,3.81,0,0,0,.16,3.09,2,2,0,0,0,2.61.86,5.38,5.38,0,0,0,1.86-2.32l2.53-4.68,1.74-3.14A7.59,7.59,0,0,1,167.74,121.2Z" transform="translate(0 -5.79)"/><path class="cls-11" d="M170.57,127.93a7.6,7.6,0,0,1-.54,1.2l-1.61,3.2L166,137.06a5.66,5.66,0,0,1-2,2.51,2.18,2.18,0,0,1-1.78.15,2.75,2.75,0,0,1-1.41-1.16,4.21,4.21,0,0,1-.2-3.45,20.49,20.49,0,0,1,1.34-2.87l2.47-4.71,1.7-3.16a7.6,7.6,0,0,1,.68-1.13,7.59,7.59,0,0,1-.52,1.21l-1.57,3.22-2.39,4.76a21,21,0,0,0-1.29,2.82,3.81,3.81,0,0,0,.16,3.09,2,2,0,0,0,2.61.86,5.38,5.38,0,0,0,1.86-2.32l2.53-4.68,1.74-3.14A7.6,7.6,0,0,1,170.57,127.93Z" transform="translate(0 -5.79)"/><path class="cls-11" d="M173.8,132.92a8.86,8.86,0,0,1-.53,1.22l-1.47,3.31c-.62,1.4-1.33,3.08-2.25,4.89a6.6,6.6,0,0,1-1.93,2.61,2.23,2.23,0,0,1-1.77.32,2.7,2.7,0,0,1-1.51-1.06,4,4,0,0,1-.34-3.47,18.12,18.12,0,0,1,1.34-2.92l2.49-4.76,1.72-3.19a7.76,7.76,0,0,1,.68-1.14,7.75,7.75,0,0,1-.53,1.22l-1.59,3.26L165.7,138a18.42,18.42,0,0,0-1.28,2.85,3.65,3.65,0,0,0,.29,3.09,2.28,2.28,0,0,0,1.26.89,1.8,1.8,0,0,0,1.43-.26,6.34,6.34,0,0,0,1.8-2.44c.93-1.79,1.67-3.45,2.33-4.83s1.19-2.5,1.6-3.26A6.9,6.9,0,0,1,173.8,132.92Z" transform="translate(0 -5.79)"/><path class="cls-8" d="M126.22,21l-2.68.26L108.62,50.91h0l-5.33,10.59a42.26,42.26,0,0,1-4.41,5.86c-6.2,6.79-24.2,16.44-24.2,16.44l34.62,19,18.42-12.73,0,0s13.39,5.75,21.18-6.36,23.23-41.44,23.23-41.44A50,50,0,0,0,126.22,21Z" transform="translate(0 -5.79)"/><path class="cls-11" d="M127.9,90a23.93,23.93,0,0,1-14.3-17.22,19.43,19.43,0,0,0,10.87,19.59Z" transform="translate(0 -5.79)"/><path class="cls-8" d="M117.13,34.82c-.15-.22-6.83-7.73-11.79.78s5.25,12,5.41,11.76S117.13,34.82,117.13,34.82Z" transform="translate(0 -5.79)"/><path class="cls-11" d="M109.39,42.36s-.21,0-.53,0a1.71,1.71,0,0,1-1.12-.62c-.71-.85-.63-2.72.22-4.28a5.66,5.66,0,0,1,1.65-1.88,2,2,0,0,1,1.78-.49A.87.87,0,0,1,112,36c0,.3-.18.44-.14.48s.27,0,.4-.43a1.09,1.09,0,0,0,0-.73,1.29,1.29,0,0,0-.69-.69,2.41,2.41,0,0,0-2.32.42,5.82,5.82,0,0,0-1.9,2.07c-.94,1.75-1,3.86,0,4.93a1.84,1.84,0,0,0,1.49.56C109.25,42.55,109.41,42.39,109.39,42.36Z" transform="translate(0 -5.79)"/><path class="cls-4" d="M151.61,53.71c.35-.12,1.21,1.62,3.17,2.63s3.92.77,4,1.12c0,.16-.4.47-1.27.61a5.64,5.64,0,0,1-3.36-.6,5.42,5.42,0,0,1-2.37-2.39C151.42,54.3,151.44,53.76,151.61,53.71Z" transform="translate(0 -5.79)"/><path class="cls-4" d="M133.17,42.92c.36-.1,1.11,1.69,3,2.82s3.86,1,3.93,1.36c0,.16-.43.45-1.3.53a5.64,5.64,0,0,1-3.32-.81,5.42,5.42,0,0,1-2.22-2.53C133,43.5,133,43,133.17,42.92Z" transform="translate(0 -5.79)"/><path class="cls-4" d="M138.57,65A14.65,14.65,0,0,1,142,66.36c.51.25,1,.44,1.31.16a2.87,2.87,0,0,0,.57-1.62l.87-4.53C146,54,147.24,48.79,147.5,48.85s-.57,5.3-1.86,11.73l-.94,4.52a3.27,3.27,0,0,1-.93,2,1.42,1.42,0,0,1-1.23.21,3.84,3.84,0,0,1-.88-.4A14.38,14.38,0,0,1,138.57,65Z" transform="translate(0 -5.79)"/><path class="cls-4" d="M132.24,62.84c.32.17-1,2.21-.12,4.75s3.14,3.67,3,4-.73.09-1.66-.46a6,6,0,0,1-2.56-3.19,5.21,5.21,0,0,1,.23-3.9C131.57,63.11,132.11,62.75,132.24,62.84Z" transform="translate(0 -5.79)"/><path class="cls-4" d="M145.56,39.79c-.5.39-2.22-1-4.59-2.13s-4.52-1.63-4.53-2.27c0-.3.62-.59,1.64-.63A8.8,8.8,0,0,1,145,38.11C145.64,38.95,145.79,39.6,145.56,39.79Z" transform="translate(0 -5.79)"/><path class="cls-4" d="M161.83,52.17c-.6.22-1.61-1-3.15-2s-3-1.51-3.07-2.15c0-.3.48-.6,1.3-.64a5.42,5.42,0,0,1,5,3.36C162.2,51.51,162.11,52.06,161.83,52.17Z" transform="translate(0 -5.79)"/><path class="cls-4" d="M183,38.34a5.31,5.31,0,0,0,.86-5.07A3.77,3.77,0,0,0,179.48,31a4.4,4.4,0,0,0-.37-6.53c-1.91-1.37-4.55-.93-6.8-1.61A10.69,10.69,0,0,1,167,18.62c-1.35-1.86-2.41-3.92-3.82-5.73a18.41,18.41,0,0,0-25.69-3.34c-2.15-2.51-6-3-9.09-1.82a13.41,13.41,0,0,0-6.75,6.91,30,30,0,0,0-2,6.35c-.1.16-.21.3-.31.46-4.08,6.79-8.25,15.14-5.42,17,4.94,3.2,9.64-6.94,9.64-6.94,7.6,1.47,11.07-9.13,13.47-9.56s7.63-1.66,16.34,12.92c3.38,5.66,10.05,9.73,14.18,11.17l.36.14.08,0,.13,0a13.62,13.62,0,0,0,4.16.66,7.66,7.66,0,0,0,4.6-1.31,4.2,4.2,0,0,0,1.69-4.26A9.23,9.23,0,0,0,183,38.34Z" transform="translate(0 -5.79)"/><path class="cls-12" d="M100.23,174.72l22.14-67.33-5.24-10-32-20.75C84,77.43,46.64,91.91,35.45,126c-8,24.46-12.81,74.81-12.81,74.81L18.44,224h81.78V174.72" transform="translate(0 -5.79)"/><g class="cls-13"><path d="M36.44,199.41c5.88,4.12,11.85,8.29,18.57,10.81s14.41,3.26,21,.47c3-1.25,5.91-3.23,9.11-2.81,3.81.5,6.3,4.15,9.54,6.22,1.73,1.11,3.71,2.54,5.28,1.2l.12-5.74c-.09-7.27.12-23.13.12-23.13-.06-.79,0-.18-.27-.37-1.42-1-3.28-.2-4.58.93-6.06,5.28-11.15,11.93-18.38,15.43-6.25,3-13.53,3.36-20.38,2.21s-13.37-3.68-19.84-6.2" transform="translate(0 -5.79)"/></g><path class="cls-12" d="M93.32,102.83s-19.21,14-7.58,42.08,22.19,42.61,22.19,42.61l37.18-30.37-6.7-12.52a63.4,63.4,0,0,1-6.35-17.48c-1.59-8-5.47-20.27-14.78-27.3C111.61,95.58,103.31,96.72,93.32,102.83Z" transform="translate(0 -5.79)"/><path class="cls-4" d="M145.11,157.16l-.17.16-.51.44-2,1.68-7.61,6.29-26.75,22-.17.14-.12-.18c-1.41-2-2.68-4.18-4-6.4s-2.56-4.51-3.84-6.86c-2.56-4.7-5.09-9.64-7.59-14.76s-4.7-9.85-6.78-14.63c-1-2.39-2-4.75-2.9-7.1-.44-1.18-.85-2.35-1.19-3.54l-.43-1.79-.32-1.79a28.86,28.86,0,0,1,1.14-13.5A30.42,30.42,0,0,1,87.75,107a27.61,27.61,0,0,1,7.63-6.09,24.68,24.68,0,0,1,6.92-2.55,23,23,0,0,1,4.64-.46l1.21.07.41,0h-.41l-1.21,0a24.37,24.37,0,0,0-4.61.53,24.86,24.86,0,0,0-6.84,2.59A27.53,27.53,0,0,0,88,107.22a30.23,30.23,0,0,0-5.75,10.18,28.56,28.56,0,0,0-1.09,13.32l.32,1.76.43,1.76c.34,1.17.74,2.33,1.18,3.5.87,2.34,1.87,4.69,2.9,7.08,2.08,4.77,4.35,9.65,6.78,14.61s5,10,7.58,14.74q1.92,3.52,3.83,6.86c1.28,2.22,2.54,4.38,3.93,6.37l-.29,0,26.85-21.83,7.68-6.2,2.05-1.63.53-.41Z" transform="translate(0 -5.79)"/><line class="cls-1" x1="87.15" y1="42.88" x2="87.15" y2="42.74"/><line class="cls-1" x1="87.15" y1="42.88" x2="87.15" y2="42.74"/><line class="cls-1" x1="87.15" y1="42.88" x2="87.15" y2="42.74"/><path class="cls-8" d="M176.92,187c-1.85-9-7.87-11.13-7.87-11.13l-1.38,11-16.08-6.59-12.56-18L112.56,184s21.09,21.69,30,22.62,29.78-.05,29.78-.05S178.77,196,176.92,187Z" transform="translate(0 -5.79)"/><path class="cls-14" d="M83.58,208.36" transform="translate(0 -5.79)"/><path class="cls-6" d="M77.3,162,60.95,181.54,26,176.48l.06-.45L27.15,165c-10.42,1.53-12,9.56-12.52,15.17-.52,6.2,7.12,12,8.71,13.14l0,.28s35.34,19.12,51.36,13.87C82.12,205,100.23,186,100.23,186v-9.16Z" transform="translate(0 -5.79)"/><path class="cls-9" d="M72.72,159.17l27.51,20.93,1.48-2.49a345.18,345.18,0,0,1-15.84-32.38Z" transform="translate(0 -5.79)"/><path class="cls-10" d="M33.69,129.51" transform="translate(0 -5.79)"/><path class="cls-6" d="M37.83,115.36,41.88,123c.66,1.24,1.6,2.65,3,2.63A2.64,2.64,0,0,0,47.15,123a7.7,7.7,0,0,0-1.1-3.64L41.46,110l-.26-.86s-1.47-2.53-3.22-1.66C36.39,108.33,35.76,111.46,37.83,115.36Z" transform="translate(0 -5.79)"/><path class="cls-6" d="M34.94,121.64,39,129.26c.66,1.24,1.51,3.07,2.92,3a3,3,0,0,0,2.6-2.69,9.53,9.53,0,0,0-1.34-4l-4.6-9.28-.26-.86s-1.47-2.53-3.22-1.66C33.5,114.61,32.87,117.74,34.94,121.64Z" transform="translate(0 -5.79)"/><path class="cls-6" d="M32.22,128.1l3.84,7.23c.62,1.18,1.51,2.52,2.85,2.49a2.51,2.51,0,0,0,2.15-2.51,7.3,7.3,0,0,0-1-3.45l-4.36-8.8-.25-.82s-1.4-2.4-3.05-1.57S30.26,124.4,32.22,128.1Z" transform="translate(0 -5.79)"/><path class="cls-6" d="M29.74,131.26l2.86,5.38c.47.88,1.13,1.87,2.12,1.85a1.87,1.87,0,0,0,1.6-1.87,5.43,5.43,0,0,0-.77-2.57l-3.25-6.55-.18-.61s-1-1.79-2.27-1.17S28.28,128.51,29.74,131.26Z" transform="translate(0 -5.79)"/><path class="cls-15" d="M37.3,113.89A7.6,7.6,0,0,1,38,115l1.74,3.14,2.53,4.68a5.38,5.38,0,0,0,1.86,2.32,2,2,0,0,0,2.61-.86,3.81,3.81,0,0,0,.16-3.09,21,21,0,0,0-1.29-2.82l-2.39-4.76-1.57-3.22a7.6,7.6,0,0,1-.52-1.21,7.59,7.59,0,0,1,.68,1.13l1.7,3.16L46,118.2a20.48,20.48,0,0,1,1.34,2.87,4.21,4.21,0,0,1-.2,3.45,2.75,2.75,0,0,1-1.41,1.16,2.18,2.18,0,0,1-1.78-.15,5.66,5.66,0,0,1-2-2.51l-2.44-4.73-1.61-3.2A7.58,7.58,0,0,1,37.3,113.89Z" transform="translate(0 -5.79)"/><path class="cls-15" d="M34.46,120.62a7.6,7.6,0,0,1,.69,1.12l1.74,3.14,2.53,4.68a5.38,5.38,0,0,0,1.86,2.32,2,2,0,0,0,2.61-.86,3.81,3.81,0,0,0,.16-3.09,21,21,0,0,0-1.29-2.82l-2.39-4.76-1.57-3.22a7.59,7.59,0,0,1-.52-1.21,7.59,7.59,0,0,1,.68,1.13l1.7,3.16,2.47,4.71a20.49,20.49,0,0,1,1.34,2.87,4.21,4.21,0,0,1-.2,3.45,2.75,2.75,0,0,1-1.41,1.16,2.18,2.18,0,0,1-1.78-.15,5.66,5.66,0,0,1-2-2.51L36.62,125,35,121.82A7.6,7.6,0,0,1,34.46,120.62Z" transform="translate(0 -5.79)"/><path class="cls-15" d="M31.24,125.61a6.88,6.88,0,0,1,.68,1.15c.4.76.95,1.87,1.6,3.26s1.4,3,2.33,4.83a6.34,6.34,0,0,0,1.8,2.44,1.8,1.8,0,0,0,1.43.26,2.28,2.28,0,0,0,1.26-.89,3.65,3.65,0,0,0,.29-3.09,18.42,18.42,0,0,0-1.28-2.85l-2.41-4.8-1.59-3.26a7.74,7.74,0,0,1-.53-1.22,7.76,7.76,0,0,1,.68,1.14l1.72,3.19,2.49,4.76A18.12,18.12,0,0,1,41,133.44a4,4,0,0,1-.34,3.47A2.7,2.7,0,0,1,39.18,138a2.23,2.23,0,0,1-1.77-.32A6.6,6.6,0,0,1,35.48,135c-.92-1.81-1.63-3.49-2.25-4.89l-1.47-3.31A8.89,8.89,0,0,1,31.24,125.61Z" transform="translate(0 -5.79)"/></g></g></g></svg>