<svg xmlns="http://www.w3.org/2000/svg" width="20" height="20" viewBox="0 0 20 20"><g><g><path fill="#4f70f5" d="M19.126 3.133c.574 1.075.774 2.109.774 4.277v5.18c0 2.168-.2 3.202-.774 4.277a5.443 5.443 0 0 1-2.26 2.259c-1.074.574-2.108.774-4.276.774H7.41c-2.168 0-3.202-.2-4.277-.774a5.443 5.443 0 0 1-2.259-2.26C.3 15.793.1 14.759.1 12.59l.002-5.513C.122 5.133.33 4.15.874 3.133A5.443 5.443 0 0 1 3.134.874C4.207.3 5.241.1 7.41.1l5.513.002c1.944.02 2.926.228 3.944.772a5.443 5.443 0 0 1 2.259 2.26zM6.848 1.905c-1.318.025-2 .15-2.62.434l-.246.122a3.644 3.644 0 0 0-1.52 1.521l-.123.247c-.323.702-.439 1.484-.439 3.18v5.181l.005.562c.022 1.133.117 1.796.323 2.353L5.37 12.42a.9.9 0 0 1 1.202-.053l1.972 1.617 3.749-4.556a.9.9 0 0 1 1.29-.103l4.51 3.983.003-.155.005-.563V7.41l-.005-.562c-.025-1.318-.15-2-.434-2.62l-.123-.246a3.644 3.644 0 0 0-1.52-1.52c-.696-.373-1.373-.528-2.866-.557L12.59 1.9H7.41zm2.514 13.917a.9.9 0 0 1-1.266.124L6.054 14.27l-2.806 2.756c.22.196.465.367.734.512.696.372 1.373.527 2.866.556l.562.005h5.18l.562-.005c1.318-.025 2-.15 2.62-.434l.246-.123a3.644 3.644 0 0 0 1.52-1.52c.1-.187.185-.372.255-.572l-4.703-4.154zM8 6.5a1.5 1.5 0 1 1-3 0 1.5 1.5 0 0 1 3 0z"/></g></g></svg>