<svg width="16" height="17" viewBox="0 0 16 17" fill="none" xmlns="http://www.w3.org/2000/svg">
<path d="M6.56567 13.7468C7.9519 13.7468 9.23022 13.2986 10.2761 12.5515L14.2107 16.4861C14.3933 16.6687 14.634 16.76 14.8914 16.76C15.4309 16.76 15.8127 16.345 15.8127 15.8137C15.8127 15.5647 15.7297 15.3323 15.5471 15.1497L11.6374 11.2317C12.4592 10.1526 12.949 8.81616 12.949 7.36352C12.949 3.85229 10.0769 0.980224 6.56567 0.980224C3.05444 0.980224 0.182372 3.85229 0.182372 7.36352C0.182372 10.8748 3.05444 13.7468 6.56567 13.7468ZM6.56567 12.3689C3.82641 12.3689 1.5603 10.1028 1.5603 7.36352C1.5603 4.62427 3.82641 2.35815 6.56567 2.35815C9.30493 2.35815 11.571 4.62427 11.571 7.36352C11.571 10.1028 9.30493 12.3689 6.56567 12.3689Z" fill="white"/>
</svg>
