<svg xmlns="http://www.w3.org/2000/svg" width="24" height="18" viewBox="0 0 24 18"><g><g><path fill="#7a8e9c" d="M.635 16.332a1.15 1.15 0 0 1-.316-1.082C1.845 8.688 5.829 5.174 12.097 4.872v-3.47A1.317 1.317 0 0 1 14.267.4l8.939 7.598a1.317 1.317 0 0 1 0 2.007l-8.939 7.598a1.317 1.317 0 0 1-2.17-1.004v-3.436c-4.646.12-7.916 1.19-9.836 3.152a1.15 1.15 0 0 1-1.626.018zM13.897 6.65h-.9c-5.262 0-8.669 2.308-10.358 7.055 2.454-1.581 5.913-2.355 10.358-2.355h.9v4.204L21.607 9l-7.71-6.554z"/></g></g></svg>