<svg xmlns="http://www.w3.org/2000/svg" width="22" height="16" viewBox="0 0 22 16"><g><g><path fill="currentColor" d="M10.872.5c1.783 0 2.43.186 3.082.534.651.349 1.163.86 1.512 1.512.21.393.36.783.447 1.42l2.478-1.444A2.4 2.4 0 0 1 22 4.595v6.81a2.4 2.4 0 0 1-3.61 2.073l-2.477-1.445c-.087.638-.237 1.028-.447 1.42a3.635 3.635 0 0 1-1.512 1.513c-.652.348-1.299.534-3.082.534H5.128c-1.783 0-2.43-.186-3.082-.534a3.635 3.635 0 0 1-1.512-1.512C.186 12.802 0 12.155 0 10.372V5.628c0-1.783.186-2.43.534-3.082a3.635 3.635 0 0 1 1.512-1.512C2.698.686 3.345.5 5.128.5zM14.2 5.628c0-1.354-.084-1.788-.322-2.233a1.835 1.835 0 0 0-.773-.773c-.445-.238-.879-.322-2.233-.322H5.128c-1.354 0-1.788.084-2.233.322-.338.18-.593.435-.773.773-.238.445-.322.879-.322 2.233v4.744c0 1.354.084 1.788.322 2.233.18.338.435.593.773.774.445.237.879.321 2.233.321h5.744c1.354 0 1.788-.084 2.233-.321.338-.181.593-.436.773-.774.238-.445.322-.879.322-2.233zM16 10l3.298 1.924a.6.6 0 0 0 .902-.519v-6.81a.6.6 0 0 0-.902-.519L16 6z"/></g></g></svg>